<svg xmlns="http://www.w3.org/2000/svg" width="249.25" height="25"><defs><style>.b{fill:#fff}.c{fill:#ffe0f2}</style></defs><path d="M237.25 0h-216a12 12 0 00-12 12v1a11.83 11.83 0 001.53 5.82A7.22 7.22 0 010 20.66 11.64 11.64 0 009.25 25a12.22 12.22 0 006.07-1.59A11.84 11.84 0 0021.25 25h216a12 12 0 0012-12v-1a12 12 0 00-12-12z" fill="#ff56a2"/><path class="b" d="M28.93 8.29a4.67 4.67 0 011.78 1.8 5.26 5.26 0 01.65 2.61 5.33 5.33 0 01-.65 2.62 4.67 4.67 0 01-1.78 1.8 5.17 5.17 0 01-5 0 4.6 4.6 0 01-1.78-1.8 5.22 5.22 0 01-.65-2.62 5.16 5.16 0 01.65-2.61 4.6 4.6 0 011.78-1.8 5.17 5.17 0 015 0zm-4 1.57a2.67 2.67 0 00-1 1.12 3.89 3.89 0 00-.37 1.72 3.84 3.84 0 00.37 1.71 2.69 2.69 0 001 1.13 3 3 0 001.53.39 2.89 2.89 0 001.52-.39 2.63 2.63 0 001-1.13 3.71 3.71 0 00.37-1.71A3.76 3.76 0 0029 11a2.6 2.6 0 00-1-1.12 2.89 2.89 0 00-1.52-.39 3 3 0 00-1.59.37zM40.42 8.58A3.94 3.94 0 0141.94 11h-2.07a2.25 2.25 0 00-.93-1.07 2.73 2.73 0 00-1.5-.4 2.94 2.94 0 00-1.52.39 2.71 2.71 0 00-1 1.12 3.78 3.78 0 00-.36 1.71 3.38 3.38 0 00.83 2.42 3 3 0 002.28.87 2.76 2.76 0 001.82-.63 3 3 0 001-1.75h-3.38v-1.44h5v1.91a4.6 4.6 0 01-.82 1.8 4.33 4.33 0 01-1.59 1.33 5 5 0 01-2.26.49 5.13 5.13 0 01-2.57-.63 4.4 4.4 0 01-1.72-1.78 5.41 5.41 0 01-.61-2.61 5.41 5.41 0 01.61-2.61 4.4 4.4 0 011.71-1.79 5 5 0 012.56-.64 4.82 4.82 0 013 .89zM45.5 7.79v5.79a2.55 2.55 0 00.5 1.74 2.13 2.13 0 002.94 0 2.55 2.55 0 00.51-1.74V7.79h2v5.79a4.82 4.82 0 01-.51 2.32 3.23 3.23 0 01-1.41 1.4 4.42 4.42 0 01-2 .47 3.85 3.85 0 01-2.93-1.07 4.27 4.27 0 01-1.06-3.12V7.79zM55.13 9.35v2.57h3.5v1.51h-3.5v2.66h3.92v1.58h-5.89V7.79h5.89v1.56zM71.16 7.9v9.77h-2v-6.82l-2.5 6.82H65l-2.51-6.79v6.79h-2V7.9h2.41l3 7.35 2.88-7.35zM80.1 8.29a4.67 4.67 0 011.78 1.8 5.26 5.26 0 01.65 2.61 5.33 5.33 0 01-.65 2.62 4.67 4.67 0 01-1.78 1.8 5.17 5.17 0 01-5 0 4.6 4.6 0 01-1.78-1.8 5.22 5.22 0 01-.65-2.62 5.16 5.16 0 01.65-2.61 4.6 4.6 0 011.78-1.8 5.17 5.17 0 015 0zm-4 1.57A2.67 2.67 0 0075 11a3.89 3.89 0 00-.37 1.72 3.84 3.84 0 00.37 1.69 2.69 2.69 0 001 1.13 3 3 0 001.53.39 2.89 2.89 0 001.52-.39 2.63 2.63 0 001-1.13 3.71 3.71 0 00.37-1.71 3.76 3.76 0 00-.28-1.7 2.6 2.6 0 00-1-1.12 2.89 2.89 0 00-1.52-.39 3 3 0 00-1.56.37zM92.39 17.67h-2L86 11v6.72h-2V7.79h2l4.42 6.77V7.79h2zM104.76 8.64a4.5 4.5 0 011.61 2.59h-2.07a2.78 2.78 0 00-1-1.26 2.81 2.81 0 00-1.63-.46 2.66 2.66 0 00-1.42.39 2.63 2.63 0 00-1 1.12 3.92 3.92 0 00-.35 1.71 3.89 3.89 0 00.35 1.69 2.63 2.63 0 001 1.12 2.66 2.66 0 001.42.39 2.81 2.81 0 001.63-.46 2.78 2.78 0 001-1.26h2.07a4.5 4.5 0 01-1.61 2.59 4.78 4.78 0 01-3.06.95 4.86 4.86 0 01-2.5-.63 4.27 4.27 0 01-1.68-1.79 5.51 5.51 0 01-.6-2.6 5.56 5.56 0 01.6-2.62 4.31 4.31 0 011.67-1.79 4.87 4.87 0 012.51-.63 4.78 4.78 0 013.06.95zM116.05 7.79v9.88h-2v-4.3h-4.23v4.3h-2V7.79h2v4h4.23v-4zM125 8.29a4.6 4.6 0 011.78 1.8 5.16 5.16 0 01.65 2.61 5.22 5.22 0 01-.65 2.62 4.6 4.6 0 01-1.78 1.8 5.17 5.17 0 01-5 0 4.67 4.67 0 01-1.78-1.8 5.33 5.33 0 01-.65-2.62 5.26 5.26 0 01.65-2.61 4.67 4.67 0 011.78-1.8 5.17 5.17 0 015 0zm-4 1.57a2.6 2.6 0 00-1 1.12 3.76 3.76 0 00-.37 1.72 3.71 3.71 0 00.37 1.71 2.63 2.63 0 001 1.13 2.89 2.89 0 001.52.39 3 3 0 001.53-.39 2.69 2.69 0 001-1.13 3.84 3.84 0 00.37-1.71A3.89 3.89 0 00125 11a2.67 2.67 0 00-1-1.12 3 3 0 00-1.53-.39 2.89 2.89 0 00-1.47.37zM130.87 7.79v9.88h-2V7.79zM140.2 8.64a4.55 4.55 0 011.61 2.59h-2.08a2.66 2.66 0 00-1-1.26 2.79 2.79 0 00-1.63-.46 2.62 2.62 0 00-1.41.39 2.56 2.56 0 00-1 1.12 3.78 3.78 0 00-.35 1.71 3.75 3.75 0 00.35 1.69 2.56 2.56 0 001 1.12 2.62 2.62 0 001.41.39 2.79 2.79 0 001.63-.46 2.66 2.66 0 001-1.26h2.08a4.55 4.55 0 01-1.61 2.59 4.83 4.83 0 01-3.07.95 4.89 4.89 0 01-2.5-.63 4.4 4.4 0 01-1.63-1.79 5.5 5.5 0 01-.59-2.6 5.56 5.56 0 01.59-2.62 4.44 4.44 0 011.67-1.79 4.9 4.9 0 012.51-.63 4.83 4.83 0 013.02.95zM145.26 9.35v2.57h3.5v1.51h-3.5v2.66h3.92v1.58h-5.89V7.79h5.89v1.56zM153.37 7.38l-.25 7h-1.67l-.25-7zm0 8.23v2.06h-2.13v-2.06z"/><path class="c" d="M161.83 12.54a.53.53 0 01.34-.14.4.4 0 01.28.1.35.35 0 01.13.27.39.39 0 01-.12.27 1.83 1.83 0 00-.72 1.26c0 .48.26.77.8.95a6.4 6.4 0 002 .24 13.88 13.88 0 003-.32h.17a.36.36 0 01.39.32.78.78 0 010 .14c0 .22-.15.37-.4.44a12.86 12.86 0 01-3.16.31A7.16 7.16 0 01162 16a1.63 1.63 0 01-1.14-1.58 2.55 2.55 0 01.97-1.88zm4.07-2.77c-.58.06-1.28.1-1.91.1-.81 0-1.62 0-2.22-.08a.37.37 0 01-.34-.39v-.07a.37.37 0 01.4-.35c.62 0 1.51.08 2.45.08s1.91 0 2.53-.08a.45.45 0 01.44.31 1.1 1.1 0 010 .18.43.43 0 01-.27.4c-.74.38-1.57.87-2.33 1.28a.67.67 0 01-.31.09.35.35 0 01-.28-.14.31.31 0 01-.07-.21.35.35 0 01.19-.31c.44-.23 1-.49 1.62-.76zM172.6 10.81v.48a3.64 3.64 0 01-.05.45 3.79 3.79 0 01.32-.38 10.53 10.53 0 01.87-.79 3.71 3.71 0 012.27-1 1.34 1.34 0 011.47 1.43 8.46 8.46 0 01-.2 1.69 14.22 14.22 0 00-.31 2.18c0 .49.2.66.54.66s.68-.25 1-1.08a.37.37 0 01.35-.28.45.45 0 01.16 0 .36.36 0 01.26.35.55.55 0 010 .17c-.39 1.22-1 1.66-1.76 1.66a1.24 1.24 0 01-1.32-1.4 12.41 12.41 0 01.29-2.25 8.8 8.8 0 00.21-1.57.69.69 0 00-.75-.78 3.27 3.27 0 00-2 1 15.11 15.11 0 00-1.33 1.33V16.66a.35.35 0 01-.39.36.36.36 0 01-.39-.35v-2.31a9.28 9.28 0 01.05-.95 4.29 4.29 0 01-.31.49c-.29.41-.62.81-.88 1.16a.4.4 0 01-.33.18.43.43 0 01-.27-.11.41.41 0 01-.14-.3.5.5 0 01.11-.3c.52-.66 1.14-1.44 1.78-2.14V10.8l-1.41.13a.35.35 0 01-.36-.33v-.05a.38.38 0 01.31-.41l1.53-.12V8.53a.34.34 0 01.38-.38.34.34 0 01.37.37c0 .48 0 .94-.07 1.43a.33.33 0 01.36.31.42.42 0 01-.15.31zM184.18 12.36a14.58 14.58 0 001.55-.07h.07a.33.33 0 01.36.34v.06a.37.37 0 01-.37.39 15.93 15.93 0 01-1.63.07h-1a8 8 0 00-.11 1.29 1.37 1.37 0 00.46 1.1 2.47 2.47 0 001.59.42c1.47 0 2.35-.64 2.35-1.69a2.43 2.43 0 00-.61-1.57.38.38 0 01-.09-.24.41.41 0 01.18-.32.44.44 0 01.24-.07.45.45 0 01.34.18 3.22 3.22 0 01.78 2c0 1.62-1.25 2.53-3.16 2.53a3.4 3.4 0 01-2.15-.58 2.07 2.07 0 01-.73-1.77 11.82 11.82 0 01.1-1.3 16.45 16.45 0 01-1.65-.22.38.38 0 01-.31-.38.22.22 0 010-.08.35.35 0 01.35-.33h.08c.49.09 1 .16 1.64.21.08-.55.18-1.13.29-1.67-.63 0-1.22-.11-1.77-.2a.34.34 0 01-.29-.36.28.28 0 010-.09.34.34 0 01.34-.31h.07c.49.07 1.06.14 1.78.18l.26-1.36a.35.35 0 01.37-.33h.1a.38.38 0 01.32.46l-.26 1.26h.41c.57 0 1.17 0 1.8-.08a.34.34 0 01.36.34c0 .22-.09.38-.31.4-.57.05-1.15.08-1.73.08h-.73c-.11.55-.21 1.14-.29 1.68zM198.31 10a.34.34 0 01.33.38.37.37 0 01-.33.41h-2l.07 5.67a.43.43 0 01-.86 0v-4.1c0-.36 0-.77.06-1.1a6.31 6.31 0 01-1 1.55 9.88 9.88 0 01-3.66 2.82.54.54 0 01-.21.05.39.39 0 01-.36-.23.45.45 0 010-.2.41.41 0 01.23-.38 10.15 10.15 0 004.42-4.1h-4.2c-.2 0-.32-.19-.32-.41s.12-.38.32-.38h4.67V8.67c0-.25.18-.38.43-.38s.42.13.42.38v1.31zM201.33 9.84c-.23 0-.36-.17-.36-.44a.36.36 0 01.36-.4h5.09a1 1 0 01.89.4 1 1 0 01.13.5 1.9 1.9 0 01-.11.58 9.39 9.39 0 01-1.59 2.6 17.8 17.8 0 012.78 2.49.56.56 0 01.14.35.48.48 0 01-.13.32.47.47 0 01-.35.15.48.48 0 01-.36-.16 16.44 16.44 0 00-2.64-2.52 11.16 11.16 0 01-4.18 2.72.69.69 0 01-.24.05.37.37 0 01-.37-.25.47.47 0 010-.17.46.46 0 01.3-.43 11.18 11.18 0 003.54-2.16 8.46 8.46 0 002.26-3.25.74.74 0 00.05-.22c0-.15-.11-.22-.36-.22zM211.33 9.84c-.23 0-.36-.17-.36-.44a.36.36 0 01.36-.4h5.09a1 1 0 01.89.4 1 1 0 01.13.5 1.9 1.9 0 01-.11.58 9.39 9.39 0 01-1.59 2.6 17.8 17.8 0 012.78 2.49.56.56 0 01.14.35.48.48 0 01-.13.32.47.47 0 01-.35.15.48.48 0 01-.36-.16 16.44 16.44 0 00-2.64-2.52 11.16 11.16 0 01-4.18 2.72.69.69 0 01-.24.05.37.37 0 01-.37-.25.47.47 0 010-.17.46.46 0 01.3-.43 11.18 11.18 0 003.54-2.16 8.46 8.46 0 002.26-3.25.74.74 0 00.05-.22c0-.15-.11-.22-.36-.22zM221.29 16.48a.68.68 0 01-.23.05.35.35 0 01-.34-.21.6.6 0 01-.06-.24.41.41 0 01.28-.38 10 10 0 003.78-3 27.53 27.53 0 00-2.83-2.13.36.36 0 01-.15-.3.55.55 0 01.09-.28.44.44 0 01.33-.15.51.51 0 01.3.1 25.5 25.5 0 012.76 2 10.37 10.37 0 001.39-3.28c0-.24.15-.38.35-.38h.19a.42.42 0 01.34.42 1 1 0 010 .17 12.51 12.51 0 01-1.59 3.63 16.06 16.06 0 012 2.18.54.54 0 01.11.32.4.4 0 01-.17.33.42.42 0 01-.28.11.47.47 0 01-.37-.2 20.83 20.83 0 00-1.83-2 10.64 10.64 0 01-4.07 3.24zM235.15 15.81a.67.67 0 01-.69.69.69.69 0 110-1.38.67.67 0 01.69.69zm-1.23-6.76c0-.28.22-.46.55-.46s.54.18.53.46l-.14 5.12a.36.36 0 01-.4.34c-.21 0-.4-.11-.4-.34z"/></svg>