<svg xmlns="http://www.w3.org/2000/svg" viewBox="0 0 270 270"><defs><style>.cls-2{fill:#fff}</style></defs><path fill="#ee4158" d="M0 0h270v270H0z"/><path d="M11 141.21v-18.59L53 65h23.89v56.81h11v19.37h-11v16.9H54.4v-16.9zm45.22-50.44L33.6 121.84h22.62zM98.08 111.18q0-21.45 8.71-34t27.82-12.55q19 0 27.75 12.55t8.78 34q0 21.58-8.78 34.19T134.61 158q-19.11 0-27.82-12.61t-8.71-34.21zm51 0q0-12.34-2.93-18.91t-11.5-6.57q-8.72 0-11.7 6.63t-3 18.85q0 12.36 3 19t11.7 6.69q8.58 0 11.5-6.69t2.85-19zM182.06 141.21v-18.59l42-57.59H248v56.81h11v19.37h-11v16.9h-22.52v-16.9zm45.24-50.44l-22.62 31.07h22.62zM38.46 205.05h-7.52L18.36 186v19.1h-7.53v-31.16h7.53l12.58 19.27v-19.27h7.52zM65.94 175.5a15 15 0 0 1 5.66 5.68 16.34 16.34 0 0 1 2.06 8.2 16.17 16.17 0 0 1-2.09 8.23 14.93 14.93 0 0 1-5.67 5.7 16.42 16.42 0 0 1-15.89 0 14.93 14.93 0 0 1-5.67-5.7 17.19 17.19 0 0 1 0-16.43A15.08 15.08 0 0 1 50 175.5a16.57 16.57 0 0 1 15.93 0zm-13.86 7.35a10.86 10.86 0 0 0 0 13.05 7.52 7.52 0 0 0 5.92 2.42 7.54 7.54 0 0 0 5.85-2.42 10.79 10.79 0 0 0 0-13 7.51 7.51 0 0 0-5.85-2.45 7.54 7.54 0 0 0-5.92 2.4zM99.76 173.94v6h-8.45v25.13h-7.57v-25.15h-8.36v-6zM131 173.94v6h-12.72v6.82h9.86v5.72h-9.86v12.59h-7.52v-31.13zM157.2 175.5a15 15 0 0 1 5.65 5.68 17.26 17.26 0 0 1 0 16.43 15 15 0 0 1-5.68 5.7 16.4 16.4 0 0 1-15.88 0 15 15 0 0 1-5.68-5.7 17.19 17.19 0 0 1 0-16.43 15.18 15.18 0 0 1 5.68-5.68 16.57 16.57 0 0 1 15.93 0zm-13.86 7.35a10.86 10.86 0 0 0 0 13.05 8.3 8.3 0 0 0 11.72 0 10.81 10.81 0 0 0 0-13 8.37 8.37 0 0 0-11.75 0zM176 173.94v17.95a7.08 7.08 0 0 0 1.39 4.71 5.78 5.78 0 0 0 8.05 0 7 7 0 0 0 1.39-4.71v-17.95h7.52v17.95a14.83 14.83 0 0 1-1.71 7.42 11.18 11.18 0 0 1-4.69 4.53 14.57 14.57 0 0 1-6.71 1.52 14 14 0 0 1-6.6-1.5 10.67 10.67 0 0 1-4.49-4.53 15.64 15.64 0 0 1-1.63-7.44v-17.95zM226.48 205.05H219L206.37 186v19.1h-7.53v-31.16h7.53L219 193.21v-19.27h7.53zM257.21 197.55a13.74 13.74 0 0 1-5.63 5.52 18 18 0 0 1-8.65 2h-11.75v-31.13h11.75a18.28 18.28 0 0 1 8.67 1.94 13.58 13.58 0 0 1 5.61 5.45 17.76 17.76 0 0 1 0 16.22zm-8.1-1.57a10 10 0 0 0 0-13.11 9.51 9.51 0 0 0-6.84-2.33h-3.56v17.78h3.56a9.48 9.48 0 0 0 6.84-2.32z" class="cls-2"/></svg>