<svg xmlns="http://www.w3.org/2000/svg" width="200" height="50"><path fill="#333" d="M14.66 30.45c-2.58 0-4.65-.86-6.2-2.56s-2.33-3.92-2.33-6.65c0-2.92.8-5.26 2.37-7s3.74-2.62 6.47-2.62c2.5 0 4.54.85 6.07 2.54s2.3 3.9 2.3 6.64c0 2.98-.78 5.33-2.36 7.06s-3.68 2.6-6.32 2.6zm.15-16.9c-1.9 0-3.45.7-4.65 2.08s-1.78 3.2-1.78 5.43.58 4.05 1.74 5.42a5.77 5.77 0 0 0 4.56 2.05c2 0 3.57-.65 4.73-1.96 1.14-1.3 1.7-3.12 1.7-5.47 0-2.4-.55-4.26-1.66-5.57s-2.66-1.97-4.63-1.97zM40.53 28.9a12.16 12.16 0 0 1-6.1 1.55c-2.6 0-4.7-.84-6.3-2.52s-2.4-3.9-2.4-6.65c0-2.82.9-5.13 2.67-6.94s4.04-2.7 6.78-2.7c1.98 0 3.64.3 5 .96v2.36a9.7 9.7 0 0 0-5.24-1.4c-2.04 0-3.72.7-5.02 2.1s-1.95 3.23-1.95 5.47c0 2.3.6 4.1 1.8 5.42a6.39 6.39 0 0 0 4.94 1.98 7.8 7.8 0 0 0 3.7-.85v-5.1h-4v-1.94h6.13v8.26zm17.55-6.12c0 5.1-2.3 7.67-6.92 7.67-4.42 0-6.63-2.46-6.63-7.38V11.94h2.14v11c0 3.72 1.57 5.6 4.72 5.6 3.03 0 4.55-1.82 4.55-5.42v-11.2h2.13V22.8zm14.19 7.36h-9.64v-18.2h9.24v1.93h-7.1v6.05h6.56v1.92h-6.57v6.37h7.5v1.94zm22.07 0h-2.12v-12.2c0-.98.06-2.16.17-3.56h-.06c-.2.83-.38 1.4-.54 1.77l-6.22 14h-1.04l-6.2-13.9c-.2-.4-.37-1.03-.56-1.86h-.05c.07.7.1 1.9.1 3.55v12.2h-2.05v-18.2h2.8l5.6 12.68c.43.97.7 1.7.84 2.18h.07c.36-.98.65-1.73.87-2.22l5.7-12.65h2.67v18.2zm12.12.31a8 8 0 0 1-6.2-2.56c-1.55-1.7-2.33-3.92-2.33-6.65 0-2.92.8-5.26 2.37-7 1.6-1.75 3.74-2.62 6.47-2.62 2.5 0 4.53.85 6.07 2.54 1.54 1.7 2.3 3.9 2.3 6.64 0 2.98-.78 5.33-2.36 7.06s-3.68 2.6-6.32 2.6zm.15-16.9c-1.9 0-3.45.7-4.64 2.08-1.2 1.38-1.8 3.2-1.8 5.43s.6 4.05 1.75 5.42a5.75 5.75 0 0 0 4.56 2.05c2 0 3.57-.65 4.72-1.96 1.16-1.3 1.73-3.12 1.73-5.47 0-2.4-.55-4.26-1.67-5.57s-2.65-1.97-4.62-1.97zm26.79 16.59h-2.62l-9.36-14.5a7 7 0 0 1-.6-1.15h-.06c.06.38.1 1.2.1 2.5v13.14h-2.13v-18.2h2.76l9.1 14.28c.4.6.64 1 .74 1.22h.05c-.1-.53-.13-1.42-.13-2.68V11.93h2.13v18.2zm5.22.28c-.4 0-.72-.14-1-.42-.27-.28-.4-.6-.4-1s.13-.73.4-1c.28-.3.6-.44 1-.44s.73.15 1 .43.43.6.43 1-.14.72-.42 1-.6.42-1 .42zm13.78-.88c-1 .6-2.2.9-3.56.9-1.86 0-3.35-.6-4.5-1.8a6.59 6.59 0 0 1-1.7-4.7 7.2 7.2 0 0 1 1.85-5.16 6.37 6.37 0 0 1 4.9-1.95c1.14 0 2.15.22 3.02.64v2.13c-.97-.68-2-1-3.1-1a4.2 4.2 0 0 0-3.27 1.4 5.5 5.5 0 0 0-1.28 3.76c0 1.53.4 2.73 1.2 3.6.8.9 1.88 1.33 3.22 1.33 1.13 0 2.2-.4 3.2-1.14v1.98zm8.57.91c-1.92 0-3.45-.6-4.6-1.83s-1.72-2.82-1.72-4.83c0-2.2.6-3.9 1.8-5.12s2.8-1.84 4.83-1.84c1.94 0 3.45.6 4.54 1.8s1.63 2.83 1.63 4.95c0 2.06-.6 3.72-1.76 4.97s-2.75 1.88-4.72 1.88zm.16-11.86c-1.34 0-2.4.44-3.18 1.35a5.65 5.65 0 0 0-1.16 3.77c-.02 1.54.38 2.75 1.17 3.64s1.84 1.33 3.16 1.33c1.34 0 2.38-.44 3.1-1.32.73-.87 1.1-2.1 1.1-3.72s-.37-2.87-1.1-3.75c-.72-.87-1.76-1.3-3.1-1.3zm28.1 11.55h-2.08v-7.46c0-1.44-.22-2.48-.66-3.13-.46-.64-1.2-.96-2.25-.96-.9 0-1.65.4-2.27 1.2-.62.82-.93 1.8-.93 2.93v7.4h-2.1v-7.7c0-2.56-.97-3.84-2.94-3.84-.9 0-1.66.37-2.25 1.14a4.7 4.7 0 0 0-.9 3v7.4h-2.08v-13h2.1v2.06h.04a4.44 4.44 0 0 1 4.04-2.36 3.8 3.8 0 0 1 3.69 2.69c.96-1.8 2.4-2.7 4.3-2.7 2.87 0 4.3 1.77 4.3 5.3v8z"/><path fill="#888" d="M6.22 36.38c.2.03.43.05.75.05h.36c.12-.75.13-.85.13-1.12l.48.06c-.04.15-.04.15-.1.57l-.1.46c.48-.06.8-.12 1.1-.22l.02.42-.17.03c-.3.06-.73.12-1.02.14a14.32 14.32 0 0 1-1.12 3.53l-.43-.2c.44-.76.9-2.13 1.13-3.3H6.21v-.42zm2.68 2.17c-.12.15-.14.16-.18.23a.7.7 0 0 0-.15.43c0 .37.37.56 1.05.56.45 0 .98-.08 1.33-.2L11 40l-.28.05c-.4.07-.75.1-1.06.1-1 0-1.5-.3-1.5-.9 0-.27.1-.46.4-.86l.34.15zm1.85-1.03a5.53 5.53 0 0 0-2.2.15l-.05-.4c.7-.15 1.1-.2 1.6-.2l.65.02v.4zm2.4.42l-.08.27c-.14.5-.34 1-.56 1.4-.03.1-.03.1-.16.28l-.07.1c-.13-.1-.18-.16-.36-.25.4-.48.7-1.22.84-1.92l.4.14zm.26-2.5c.14.1.38.2.68.3.38.12 1.06.23 1.38.23h.1v.42c-.16.02-.27.06-.46.17-.47.28-.72.57-.72.85 0 .06.03.17.06.23.08.12.08.12.48.55.4.4.55.73.55 1.07 0 .56-.45.97-1.07.97a1.8 1.8 0 0 1-1.2-.5c.06-.14.08-.2.13-.43.34.36.68.53 1.03.53.37 0 .66-.25.66-.58a.8.8 0 0 0-.2-.5c-.1-.16-.1-.16-.48-.6-.24-.26-.35-.47-.35-.72 0-.32.2-.62.6-.92.14-.1.24-.16.37-.2a5.32 5.32 0 0 1-1.54-.4l-.2-.06.18-.4zm2.76 2.3c.37.52.43.6.62.97.17.34.26.55.4.98l-.4.2a5.02 5.02 0 0 0-1-1.95l.38-.18zm.05-1.46c.26.28.4.48.6.82l-.3.17a3.39 3.39 0 0 0-.6-.82l.3-.17zm.6-.3c.24.27.4.47.58.8l-.3.18a4.6 4.6 0 0 0-.58-.83l.3-.16zm3.48-.51c-.07.14-.07.14-.65 1.65l-.44 1-.05.12-.05.1.03.02c.4-.57.7-.8 1.12-.8.26 0 .5.15.6.37.08.14.1.33.1.68v.4c0 .33.03.48.1.58.08.12.26.2.46.2.43 0 .75-.26.97-.76.12-.28.2-.53.22-.85.15.15.22.2.4.3-.13.48-.25.78-.44 1.06-.27.42-.7.65-1.2.65-.43 0-.75-.2-.86-.54-.04-.12-.06-.3-.06-.64v-.34c0-.25 0-.36-.05-.46-.06-.15-.17-.22-.35-.22-.35 0-.74.3-1.07.88-.2.34-.48 1.02-.55 1.38l-.47-.14c.08-.17.08-.17.95-2.47.66-1.73.8-2.1.83-2.3l.48.14zm6.43-.33a6.05 6.05 0 0 0 2.63 2.08c-.12.13-.18.22-.24.38a8 8 0 0 1-1.45-.9c-.5-.38-.8-.7-1.16-1.2a6.53 6.53 0 0 1-2.53 2.08 1.27 1.27 0 0 0-.25-.35 6.13 6.13 0 0 0 2.56-2.08h.45zm2 3.2c-.08.08-.2.2-.26.28l-1.2 1.46-.4.54-.42-.25c.16-.14.33-.3.48-.5l1.17-1.4h-2.97c-.23 0-.44 0-.7.03v-.44c.23.02.44.03.7.03h2.67c.38 0 .55-.02.67-.04l.25.3zm-3.47-1.4c.13.03.25.03.48.03h1.58c.23 0 .35 0 .5-.02v.4h-2.56v-.4zm7.6-1.27c0-.15 0-.22-.02-.34h.44c-.02.2-.02.28-.02.75v.06c1.13 0 1.6-.02 1.8-.04v.43c-.23-.03-.44-.03-1.16-.03h-.64v1.2a1.92 1.92 0 0 1-.66 2.27c-.25.18-.5.3-.95.48-.1-.2-.14-.24-.26-.38.46-.14.72-.27.96-.45.44-.33.65-.7.67-1.26-.05.14-.1.2-.16.3a1 1 0 0 1-.76.32.93.93 0 0 1-.97-.95c0-.57.45-1 1.06-1 .28 0 .53.1.7.28-.02-.07-.02-.1-.02-.32v-.47c-1.2.04-2.42.1-2.82.16l-.02-.43h.24l1.14-.03c.57-.03 1.04-.04 1.45-.05v-.48zm-.26 1.8a.79.79 0 0 0-.4-.1c-.38 0-.67.28-.67.64s.25.6.62.6c.4 0 .7-.28.7-.7 0-.2-.08-.33-.25-.42zm7-1.85c-.07.05-.12.1-.74.7-.3.28-.62.55-1.38 1.13-.22.17-.26.2-.26.3 0 .1.04.15.53.53.87.66 1.04.8 1.92 1.63l.17.16-.38.37c-.15-.2-.38-.45-.77-.82a35.6 35.6 0 0 0-1.53-1.24c-.34-.27-.43-.4-.43-.6a.6.6 0 0 1 .17-.4l.52-.4a9.76 9.76 0 0 0 1.76-1.65l.42.32zm-.1.8c.28.3.4.5.62.84l-.3.2a4 4 0 0 0-.62-.86l.3-.18zm.55-.34c.28.3.42.5.63.84l-.3.2c-.2-.35-.35-.56-.62-.85l.3-.2zm2.4 1.84l.02-.73c-.14.3-.27.5-.54.85a1.33 1.33 0 0 0-.24-.33 5.58 5.58 0 0 0 1.23-2.6l.4.1-.1.34c-.14.43-.2.62-.4 1.05v3.3c0 .27 0 .48.03.7h-.44c.02-.23.03-.42.03-.73v-1.95zm1.56.43c-.2 0-.35 0-.5.02v-1.65c.15.02.23.02.53.02H45v-.6h-1.1c-.26 0-.4 0-.56.03v-.4c.17.02.35.04.58.04H45c0-.36 0-.48-.03-.68h.43c-.02.16-.03.3-.03.7h1.27c.24 0 .43-.03.6-.05v.4c-.17-.02-.3-.03-.56-.03h-1.3v.6h.96c.26 0 .4 0 .56-.02l-.02.45v.72c0 .25 0 .36.02.47-.17-.02-.33-.02-.6-.02h-1.03a2.6 2.6 0 0 1-.34 1c.63.43 1.37.67 2.36.77-.1.12-.16.26-.2.4a5.49 5.49 0 0 1-2.38-.9c-.36.4-.76.67-1.48.94a1.14 1.14 0 0 0-.23-.33c.7-.23 1.14-.47 1.46-.8-.2-.2-.2-.2-.52-.58-.05-.06-.05-.07-.1-.1l.34-.2c.08.17.25.37.48.6.12-.24.18-.42.25-.8H44zm-.13-1.27V38h1.08c.02-.22.04-.5.05-.92h-1.13zm1.5 0l-.06.93h1.2v-.92h-1.14zm3.38-.22h.36c.53 0 1.6-.06 2.1-.13.14-.02.2-.04.3-.07l.26.33c-.13.1-.2.15-.54.5-.5.5-.9.84-1.2 1.07.35-.16.45-.2.6-.2.18 0 .32.06.42.16.12.12.16.25.2.6 0 .38.03.47.1.56.08.1.22.15.5.15.43 0 .9-.08 1.2-.22l.07.46-.5.06a4 4 0 0 1-.8.08c-.46 0-.72-.1-.85-.34-.07-.13-.1-.27-.13-.66-.02-.28-.03-.34-.06-.4a.33.33 0 0 0-.3-.16c-.3 0-.6.17-1.1.63-.3.28-.68.7-.9.93l-.33-.37c.2-.15.3-.2.65-.55.43-.4.93-.88 1.4-1.35.2-.18.5-.48.92-.9-.37.1-.76.13-1.78.2l-.57.05-.04-.44zm.7-1.47c.63.2 1.38.33 2.17.36l-.1.4a8.86 8.86 0 0 1-2.22-.4l.16-.37zm5.52.28c.16.03.27.04.56.04.5 0 1.3-.03 1.83-.07.16 0 .2-.02.3-.06l.24.33c-.07.04-.1.06-.3.25a15.6 15.6 0 0 1-1.97 1.7l.02.02c.45-.25.94-.37 1.47-.37 1 0 1.64.5 1.64 1.26 0 .93-.87 1.55-2.2 1.55-.85 0-1.34-.3-1.34-.85 0-.4.38-.7.88-.7.4 0 .74.17.98.5.13.15.2.3.28.56.63-.16.96-.53.96-1.04 0-.57-.48-.9-1.3-.9a3.71 3.71 0 0 0-2.5 1l-.28-.37c.2-.14.43-.3.84-.62.64-.5 1.58-1.35 2-1.76l.08-.08.03-.02v-.05h-.06c-.2.04-.9.08-1.82.1l-.32.04-.02-.45zm1.12 3.42c-.3 0-.48.13-.48.36 0 .15.08.27.24.36.15.1.4.14.67.14.15 0 .22 0 .44-.04-.13-.55-.44-.83-.87-.83zm6.77-1.55c0 .18-.03.4-.06.63-.1.7-.35 1.2-.8 1.6-.27.22-.57.38-1.06.58a1.17 1.17 0 0 0-.28-.4c.78-.24 1.27-.62 1.52-1.17.13-.3.22-.77.24-1.24H60.8c-.32 0-.5 0-.7.03v-.44c.2.02.35.03.7.03h3.5c.35 0 .5 0 .7-.03v.44c-.2-.02-.38-.03-.7-.03h-1.43zm-2.16-1.9c.2.03.32.04.7.04h2.33c.37 0 .5 0 .7-.04v.45c-.2-.03-.35-.04-.7-.04H61.4c-.36 0-.5 0-.7.03v-.46zm7.89-.26c-.06.08-.06.08-.14.24-.15.33-.2.43-.27.54.06-.02.06-.02 1.8-.05.2 0 .23 0 .3-.03l.27.25c-.06.07-.06.08-.12.3-.25.84-.7 1.66-1.2 2.25-.55.63-1.2 1.1-2.1 1.5-.1-.18-.13-.24-.3-.36.92-.36 1.55-.8 2.13-1.5a5.6 5.6 0 0 0 1.03-2l-2 .02a5.8 5.8 0 0 1-1.45 1.56.8.8 0 0 0-.33-.3c.63-.42 1.1-.92 1.5-1.65.23-.4.35-.67.38-.88l.5.13zm3.55 3.64c.22.03.35.04.7.04h3.4c.35 0 .48 0 .7-.04v.5l-.7-.02h-3.4c-.32 0-.5 0-.7.03v-.5zm.6-2.84c.2.03.34.03.65.03h2.3c.3 0 .44 0 .63-.02v.48c-.18-.02-.34-.02-.63-.02h-2.3c-.3 0-.46 0-.64.02v-.48zm6.3.67c.24.4.38.7.6 1.33l-.4.14a5.1 5.1 0 0 0-.57-1.34l.37-.13zm3.4-.04c-.05.1-.05.1-.15.5a4.32 4.32 0 0 1-2.52 3.08.89.89 0 0 0-.27-.34A3.83 3.83 0 0 0 82 36.79v-.06l.44.1zm-2.17-.2c.3.58.42.82.58 1.3l-.4.14c-.1-.43-.3-.87-.55-1.32l.38-.1zm6.32-1.23c-.06.08-.06.08-.14.24-.15.33-.2.43-.27.54.06-.02.06-.02 1.8-.05.2 0 .23 0 .3-.03l.27.25c-.06.07-.06.08-.12.3-.25.84-.7 1.66-1.2 2.25-.55.63-1.2 1.1-2.1 1.5a.7.7 0 0 0-.3-.36c.92-.36 1.55-.8 2.13-1.5a5.6 5.6 0 0 0 1.03-2l-2 .02c-.38.6-.86 1.12-1.44 1.56a.83.83 0 0 0-.34-.3c.64-.42 1.1-.92 1.5-1.65.23-.4.35-.67.38-.88l.5.13zm3.5 1.44c.2 0 .83-.07 1.3-.15.12-.45.2-1.02.2-1.27v-.08l.47.05a3.2 3.2 0 0 0-.1.58l-.14.68.36-.02c.4 0 .66.1.85.27.2.2.3.47.3.96 0 .92-.16 1.72-.4 2.07-.15.2-.3.28-.6.28-.25 0-.5-.07-.9-.24v-.45c.33.17.67.27.9.27.14 0 .25-.1.33-.3.16-.37.25-.98.25-1.65 0-.64-.18-.84-.74-.84-.14 0-.22 0-.44.03-.22.95-.5 1.72-.9 2.55l-.4.72-.4-.24a9.54 9.54 0 0 0 1.28-3c-.5.1-.8.14-.86.15-.13.02-.18.04-.34.08l-.05-.44zm3.93-.55c.6.66.97 1.28 1.25 2.13l-.38.22a4.91 4.91 0 0 0-1.23-2.15l.36-.2zm3.39.2c-.06.2-.08.33-.14.66l-.17 1.05c0 .07 0 .08-.02.14h.02l.18-.18c.42-.3 1.08-.5 1.74-.5.97 0 1.6.44 1.6 1.14 0 .4-.2.8-.54 1.04-.38.27-.85.4-1.5.4a6 6 0 0 1-1.04-.1c-.1-.04-.1-.04-.48-.13v-.13c0-.14 0-.2-.04-.37.46.2 1.03.3 1.53.3 1 0 1.62-.4 1.62-1 0-.5-.43-.8-1.16-.8-.6 0-1.22.2-1.67.53-.1.08-.14.12-.24.25h-.48l.05-.37.25-1.64c.03-.16.04-.2.04-.32l.46.03zm.26-1.04a7.3 7.3 0 0 0 2.04.66l-.17.4c-.77-.18-.77-.18-1.17-.33-.4-.13-.4-.13-.92-.38l.22-.37zm4.46 3.52c.5.4.8.72 1.2 1.27l-.33.32a5.3 5.3 0 0 0-1.17-1.3l.3-.3zm6.33-2.69l.45.02c.5 0 .86-.02 1.42-.08-.2-.47-.3-.74-.36-.83l.45-.07c.05.2.17.52.32.84.7-.1 1.26-.25 1.6-.4l.03.4c-.53.14-1.17.28-1.5.33.08.2.24.52.33.68.8-.16 1.14-.25 1.4-.37l.04.4c-.1.02-.13.02-.33.08-.4.1-.7.17-.93.2.35.58.42.67.88 1.2l-.35.26a1.72 1.72 0 0 0-.66-.23c-.2-.04-.52-.06-.8-.06-.85 0-1.4.27-1.4.68 0 .4.45.6 1.27.6.63 0 1.42-.17 1.78-.4l.1.48-.37.1c-.48.15-1 .22-1.53.22-.55 0-.93-.08-1.23-.25a.81.81 0 0 1-.45-.74c0-.65.68-1.04 1.82-1.04.5 0 .8.04 1.2.16-.18-.2-.42-.55-.63-.92-.6.1-1 .14-2.12.17l-.42.04v-.4c.12 0 .23.02.47.02.62 0 1.4-.06 1.9-.15-.17-.28-.2-.35-.35-.67-.47.06-.95.1-1.62.1-.25 0-.27 0-.37.02l-.03-.4zm6.07 1.44c.15 0 .18 0 .55-.1a7 7 0 0 1 1.82-.27c.62 0 1.04.2 1.27.56.1.18.18.43.18.68 0 .67-.54 1.28-1.38 1.54-.36.12-.5.14-1.23.23a1.12 1.12 0 0 0-.16-.4h.1c.37 0 .84-.08 1.18-.2.68-.2 1.1-.67 1.1-1.2 0-.55-.4-.84-1.1-.84-.4 0-.88.08-1.6.25-.36.08-.45.1-.63.2l-.1-.44zm7.36-2.36c0 .4.23 1.4.44 2 .35-.16.52-.22 1.45-.55l.37-.16.18.46c-.42.1-1.27.36-1.8.58-1.03.4-1.47.8-1.47 1.3 0 .54.46.75 1.63.75.7 0 1.38-.07 1.73-.2l.05.5-.44.03c-.62.06-.9.08-1.33.08-.58 0-1.03-.05-1.32-.16-.5-.18-.74-.5-.74-.98 0-.4.18-.73.53-1.02.23-.2.4-.3.78-.5-.16-.48-.28-.9-.43-1.67l-.1-.37.47-.1zm6.85-.1c.33.48.66.83 1.17 1.2.48.37 1 .67 1.48.85-.1.13-.18.23-.26.4a8.96 8.96 0 0 1-1.52-.98 5.22 5.22 0 0 1-1.1-1.15c-.3.44-.54.72-.96 1.08-.47.4-.96.73-1.54 1.02-.07-.15-.12-.2-.26-.36.5-.2 1.08-.55 1.5-.9a4.8 4.8 0 0 0 1.02-1.16h.47zm-1.35 2.4c-.26 0-.4 0-.56.04v-.4l.54.02h2.3c.25 0 .38 0 .54-.03v.4c-.16-.02-.3-.02-.55-.02h-.97v.9h1.1c.27 0 .4 0 .56-.02v.4c-.15-.02-.3-.02-.55-.02h-1.1V40h1.8c.28 0 .5 0 .67-.04v.44a4.5 4.5 0 0 0-.66-.04h-3.9c-.24 0-.47 0-.67.04v-.44c.18.03.4.04.68.04h1.7v-1.1h-1c-.25 0-.4 0-.55.04v-.4l.56.02h1v-.9h-.9zm8.3-2.02c-.08.05-.13.1-.75.7-.3.28-.62.55-1.38 1.13-.22.17-.26.2-.26.3 0 .1.05.15.54.53.87.66 1.04.8 1.92 1.63l.17.16-.38.37c-.15-.2-.38-.45-.77-.82-.4-.36-.65-.56-1.52-1.24-.34-.27-.43-.4-.43-.6a.6.6 0 0 1 .17-.4c.07-.07.07-.07.5-.4a9.91 9.91 0 0 0 1.77-1.65l.42.32zm2.76 2.3v-.73c-.13.3-.26.5-.53.85a1.12 1.12 0 0 0-.24-.33 5.58 5.58 0 0 0 1.23-2.6l.4.1-.1.34c-.14.43-.2.62-.4 1.05v3.3c0 .27 0 .48.03.7h-.44c.03-.23.04-.42.04-.73v-1.95zm1.55.43c-.2 0-.34 0-.5.02v-1.65c.15.02.23.02.53.02h.98l.02-.36v-.24h-1.14c-.25 0-.4 0-.56.03v-.4c.17.02.35.04.58.04h1.1c0-.36 0-.48-.03-.68h.43c-.02.16-.02.3-.02.7h1.26c.24 0 .43-.03.6-.05v.4c-.17-.02-.3-.03-.56-.03h-1.3v.6h.96c.26 0 .4 0 .56-.02l-.02.45v.72c0 .25 0 .36.02.47-.17-.02-.32-.02-.6-.02h-1.03a2.6 2.6 0 0 1-.34 1c.63.43 1.37.67 2.36.77-.1.12-.16.26-.2.4a5.54 5.54 0 0 1-2.38-.9c-.36.4-.75.67-1.47.94a1.4 1.4 0 0 0-.24-.33c.7-.23 1.14-.47 1.46-.8-.2-.2-.2-.2-.52-.58-.04-.06-.05-.07-.1-.1l.34-.2c.08.17.25.37.48.6.12-.24.18-.42.25-.8h-.9zm-.13-1.27V38h1.08c.02-.22.04-.5.05-.92h-1.13zm1.5 0l-.06.93h1.2v-.92h-1.14zm3.38-.22h.36c.53 0 1.6-.06 2.1-.13.14-.02.22-.04.3-.07l.26.33c-.13.1-.2.15-.54.5-.5.5-.9.84-1.18 1.07.33-.16.43-.2.6-.2.16 0 .3.06.4.16.12.12.16.25.2.6 0 .38.03.47.1.56.08.1.22.15.5.15.43 0 .9-.08 1.2-.22l.07.46-.48.06c-.33.06-.56.08-.83.08-.44 0-.7-.1-.84-.34-.07-.13-.1-.27-.13-.66 0-.28-.03-.34-.06-.4-.05-.1-.16-.16-.3-.16-.3 0-.6.17-1.1.63l-.9.93-.33-.37c.2-.15.3-.2.65-.55l1.42-1.35.9-.9c-.36.1-.76.13-1.78.2l-.57.05-.04-.44zm.7-1.47c.63.2 1.38.33 2.17.36l-.1.4a8.86 8.86 0 0 1-2.22-.4l.16-.37zm6.54-.05l-.1.4c-.03.2-.07.34-.15.64.42-.03.8-.1 1.07-.2l.02.42-.2.03c-.25.06-.63.1-1 .13-.18.64-.4 1.2-.66 1.75-.14.3-.2.4-.42.8a.94.94 0 0 0-.12.2l-.4-.24a8.18 8.18 0 0 0 1.2-2.48h-1.06v-.42c.2.04.4.05.72.05h.43a5 5 0 0 0 .2-1.12l.48.06zm2.85 4.66c-.23-.3-.6-.6-1.04-.82l.02.2c0 .6-.4.95-1.14.95-.72 0-1.17-.33-1.17-.87 0-.32.23-.62.57-.76.2-.1.44-.13.7-.13.23 0 .38.02.6.1l-.03-.83c0-.22 0-.36.06-.58l.4.04c-.06.22-.07.35-.07.56 0 .27.03.68.06.9.47.22.85.45 1.17.74l.1.1-.22.4zm-2.1-1.08c-.5 0-.84.2-.84.54 0 .3.3.5.77.5.52 0 .75-.2.75-.66v-.26c-.26-.1-.44-.12-.67-.12zm2.1-1.63c-.5-.35-.96-.6-1.6-.82l.23-.34c.7.28 1.1.48 1.6.8l-.23.35zm2.03-1.39a10.07 10.07 0 0 0 .11 2.57c.12.62.36 1.03.6 1.03.1 0 .2-.1.3-.3.13-.3.23-.62.3-1.03.14.16.2.2.36.35-.3 1.05-.57 1.45-1 1.45-.33 0-.64-.34-.85-.9a9.39 9.39 0 0 1-.3-2.83l-.03-.35h.5zm2.9.3a6.07 6.07 0 0 1 1.3 2.98l-.43.18a5.17 5.17 0 0 0-1.25-2.96l.37-.2zm5.2 3.7c.28-.47.44-.87.6-1.4l.4.17c-.2.52-.37.85-.6 1.23h1.18c.27 0 .47 0 .66-.04v.45c-.2-.02-.38-.03-.66-.03h-4c-.28 0-.47 0-.68.04v-.44c.2.03.4.04.7.04h2.4zm2.08-4.03c-.22-.03-.4-.04-.7-.04h-3.68c-.27 0-.46 0-.66.04v-.45a4 4 0 0 0 .66.04h3.7c.28 0 .48-.02.68-.04v.45zm-4.35 1.18c0-.24 0-.37-.03-.56l.66.02h2.37c.32 0 .47 0 .7-.03-.02.16-.04.3-.04.54v.8c0 .22 0 .35.04.53-.23-.02-.4-.03-.65-.03h-2.42c-.28 0-.43 0-.66.03.03-.18.04-.33.04-.58v-.75zm.4.95h2.88v-1.13h-2.9V38zm.46.53c.2.4.32.66.47 1.12l-.37.15c-.15-.5-.24-.7-.48-1.15l.38-.12zm5.13-2.2c-.17.36-.28.53-.56.9-.1-.14-.14-.2-.3-.28.43-.45.65-.87.8-1.5.04-.15.06-.24.06-.33l.4.07-.1.3c-.04.2-.08.3-.15.48h1.08c.3 0 .45 0 .6-.03v.4l-.6-.02h-.38c0 .65 0 .72-.04 1.12h.52c.24 0 .42 0 .57-.03v.42a3.22 3.22 0 0 0-.58-.04h-.54l-.05.36c.34.64.6.96 1.14 1.36-.1.12-.16.2-.24.36a4.65 4.65 0 0 1-1-1.27c-.22.74-.55 1.2-1.2 1.74-.1-.14-.17-.2-.3-.3.82-.6 1.16-1.2 1.28-2.24h-.53c-.3 0-.45 0-.64.04v-.42c.18.03.33.03.65.03h.57c.02-.33.03-.45.03-1.12h-.48zm2.47 4.03h-.42c.03-.16.04-.42.04-.68v-3.33c0-.23-.03-.43-.05-.63.17.02.28.03.54.03h1.2c.24 0 .36 0 .53-.03a5.3 5.3 0 0 0-.03.63v3.3c0 .27 0 .54.04.7h-.42v-.4h-1.45v.4zm0-.77h1.45v-3.5h-1.45v3.5zm4.35-3.05h-1.22c-.2-.02-.3 0-.43 0v-.38c.13.02.23.03.43.03h.78c.23 0 .3-.02.44-.04v.38zm-1.5 2.65v-.54c.1 0 .18.02.4.02h.6c.2 0 .3 0 .38-.02-.02.16-.02.22-.02.5v.8c0 .23 0 .37.03.53h-.32v-.25h-.73v.35H174c.02-.15.03-.32.03-.58v-.83zm.03-2.2c.1.02.2.02.42.02h.5c.2 0 .3 0 .4-.02v.38c-.14-.02-.2-.03-.4-.03h-.5c-.2 0-.3 0-.42.03V37zm0 .83c.12 0 .2.02.42.02h.5c.2 0 .28 0 .4-.02v.37c-.12-.02-.22-.02-.4-.02h-.5c-.2 0-.3 0-.42.02v-.37zm0-2.5c.14.03.24.03.42.03h.52c.17 0 .26 0 .4-.03v.4c-.12-.03-.24-.03-.4-.03h-.53c-.17 0-.3 0-.4.02v-.4zm.3 4.6h.73V39h-.73v.93zm2.78-4.14c.26 0 .36 0 .46-.03v.34h-.3c-.04.3-.1.5-.2.83h.7c-.03-.4-.04-.9-.04-1.28 0-.2 0-.34-.02-.44h.4c-.03.18-.03.26-.03.62 0 .45 0 .64.03 1.1h.45c.33 0 .46 0 .64-.02v.4c-.2-.04-.38-.05-.65-.05h-.43c.03.6.1 1.06.2 1.5.2-.4.38-.85.43-1.18l.35.15-.1.28c-.2.5-.35.82-.56 1.15.14.44.38.85.5.85.06 0 .1-.3.14-.87.12.12.2.18.32.23-.05.44-.1.68-.18.85-.07.13-.17.22-.27.22-.23 0-.53-.37-.75-.92-.34.44-.63.7-1.08 1.03-.1-.13-.17-.2-.26-.26.52-.33.83-.6 1.2-1.13a8.45 8.45 0 0 1-.28-1.9h-1.68c-.25 0-.4.02-.57.04v-.38c.17.03.26.03.55.03a4.7 4.7 0 0 0-.15-.84h-.28v-.34c.14.03.24.03.45.03h.34v-.1c0-.24 0-.36-.04-.5h.4c0 .13-.03.26-.03.52v.07h.33zm.27 3.47c0 .2 0 .35.02.48h-1.27v.46h-.35c.02-.15.03-.3.03-.55V38.2c0-.25 0-.37-.03-.56.13.02.2.02.44.02h.77c.2 0 .3 0 .43-.02-.02.13-.03.3-.03.58v1.05zm-1.24.17h.92v-.62h-.92v.62zm0-.92h.92v-.55h-.92v.55zm.64-1.6c.1-.33.15-.53.2-.83h-.72c.07.35.1.54.14.83h.38zm1.83-1.4c.24.32.35.48.54.84l-.3.2a3.7 3.7 0 0 0-.52-.9l.28-.15zm5.93 4.58c-.27-.3-.7-.6-1.22-.86l-.4-.18v.22c0 .32-.03.5-.14.65-.17.26-.54.4-1 .4-.4 0-.74-.1-.94-.25a.8.8 0 0 1-.33-.63c0-.4.3-.7.84-.83.18-.05.36-.07.63-.07.2 0 .28 0 .54.05v-.07s-.02-.02-.02-.06v-.35c0-.1 0-.2-.02-.36h-.7c-.37 0-.65 0-1.02-.03h-.2v-.4c.28.07.77.1 1.38.1h.53l-.02-.82h-.4c-.44 0-.93 0-1.47-.05h-.18v-.4c.26.06.9.1 1.54.1h.52c0-.73 0-.73-.03-.86h.46l-.03.84a7.74 7.74 0 0 0 1.78-.23l.02.4c-.1 0-.1 0-.4.05-.57.1-.73.1-1.4.15v.8a6.47 6.47 0 0 0 1.67-.24l.03.42c-.08 0-.14 0-.35.04-.42.05-.9.1-1.33.13l.02.92c.52.14 1.05.42 1.68.88.1.07.12.1.2.13l-.24.42zm-2.03-1.13a1.9 1.9 0 0 0-.6-.07c-.6 0-1 .22-1 .54 0 .3.3.5.83.5.32 0 .55-.07.66-.2.1-.1.12-.26.12-.54v-.23zm3.57-2.78h.55c.72-.07 2.64-.18 3.4-.2.35-.03.63-.05.72-.07l.04.44c-.23 0-.43.02-.66.08-.4.1-.82.32-1.15.6-.5.4-.75.9-.75 1.4 0 .5.3.9.84 1.1.28.1.66.2.9.2h.05l-.08.48-.2-.04c-.58-.1-.94-.23-1.28-.46-.44-.3-.68-.73-.68-1.23 0-.7.4-1.35 1.12-1.84.2-.12.35-.2.57-.3-.34.05-.64.08-1.3.12-1.25.08-1.78.13-2.07.2l-.03-.48zm3.96.7c.23.27.35.45.56.83l-.3.16c-.17-.35-.33-.6-.55-.86l.3-.14zm.6-.3c.2.3.33.47.54.85l-.3.15a4.28 4.28 0 0 0-.55-.85l.3-.14zm3.02 3.06c0 .5-.4.9-.9.9s-.9-.4-.9-.9.4-.9.9-.9.9.4.9.9zm-1.45 0c0 .3.25.56.56.56.3 0 .54-.26.54-.57 0-.3-.25-.56-.55-.56a.57.57 0 0 0-.57.56z"/></svg>