<svg xmlns="http://www.w3.org/2000/svg" id="レイヤー_1" viewBox="0 0 240 130"><style>.st0{fill:#00b900}.st1{fill:#00a4de}.st2{fill:#dd4b39}.st3{fill:#325094}.st4{fill:#1da1f2}.st5{fill:#ee4257}.st6{fill:#888}</style><path d="M170.1 32.3c-4.8 0-8.7 3.2-8.7 7.1 0 3.5 3.1 6.5 7.3 7 .3.1.7.2.8.4s0 .6 0 .8l-.1.8c-.1.2-.2.9.8.5.9-.4 5-3 6.9-5.1 1.2-1.2 1.8-2.7 1.9-4.4-.2-3.9-4.1-7.1-8.9-7.1zm-3.1 9.2c0 .1-.1.2-.2.2h-2.5s0-.1-.1-.1v-3.8c0-.1.1-.2.2-.2h.6c.1 0 .2.1.2.2v3h1.7c.1 0 .2.1.2.2l-.1.5zm1.5 0c0 .1-.1.2-.2.2h-.6c-.1 0-.2-.1-.2-.2v-3.8c0-.1.1-.2.2-.2h.6c.1 0 .2.1.2.2v3.8zm4.2 0c0 .1-.1.2-.2.2H171.7l-1.8-2.3v2.2c0 .1-.1.2-.2.2h-.6c-.1 0-.2-.1-.2-.2v-3.8c0-.1.1-.2.2-.2h.7l1.8 2.4v-2.3c0-.1.1-.2.2-.2h.6c.1 0 .2.1.2.2l.1 3.8zm3.4-3.2c0 .1-.1.2-.2.2h-1.7v.7h1.7c.1 0 .2.1.2.2v.6c0 .1-.1.2-.2.2h-1.7v.6h1.7c.1 0 .2.1.2.2v.6c0 .1-.1.2-.2.2h-2.5l-.1-.1v-3.8c0-.1 0-.1.1-.1h2.5c.1 0 .2.1.2.2v.3z" class="st0"/><path d="M131.6 40.9c-.5-.5-1.2-.9-2-.9.8-.2 1.3-.5 1.6-.9.4-.5.5-1 .5-1.6 0-.5-.1-1-.3-1.4s-.6-.8-1-1-.9-.4-1.3-.5c-.9-.1-1.9-.1-2.8-.1h-3.2v11.8h3.3c1 0 1.9 0 2.9-.2.5-.1 1-.2 1.5-.5.5-.2.9-.6 1.1-1.1.3-.5.4-1.1.4-1.7 0-.6-.2-1.3-.7-1.9zm-5.6-3.7h.7c.8 0 1.3.1 1.6.2.3.2.4.6.4.9 0 .4-.2.7-.5.9s-.8.2-1.6.2h-.6v-2.2zm2.8 6.8c-.3.2-.9.3-1.6.3h-1.1v-2.6h1.2c.8 0 1.3.1 1.6.3s.4.5.4 1c0 .4-.2.8-.5 1z" class="st1"/><circle cx="135.7" cy="44.9" r="1.5" class="st1"/><path d="M134.4 34.6h2.6v7.9h-2.6v-7.9z" class="st1"/><path d="M86.3 39.3v2.2h3.6c-.2.9-1.1 2.7-3.6 2.7-2.1 0-3.9-1.8-3.9-4s1.8-4 3.9-4c1.2 0 2.1.5 2.5 1l1.7-1.6c-2.5-2.4-6.5-2.2-8.8.4s-2.2 6.5.4 8.9c1.2 1.1 2.7 1.7 4.3 1.7 3.6 0 6.1-2.6 6.1-6.2 0-.4-.1-.7-.1-1l-6.1-.1zm13.5 0H98v-1.8h-1.8v1.8h-1.8v1.8h1.8v1.8H98v-1.8h1.8" class="st2"/><path d="M58.3 31.5H42.1c-.5 0-.9.4-.9.9v16.2c0 .5.4.9.9.9h8.8v-7h-2.3v-2.7h2.3v-2c0-2.3 1.4-3.6 3.5-3.6 1 0 1.9.1 2.1.1v2.5H55c-1.1 0-1.4.5-1.4 1.3v1.8h2.7l-.3 2.6h-2.4v7h4.6c.5 0 .9-.4.9-.9V32.4c.1-.5-.3-.9-.8-.9z" class="st3"/><path d="M7 47.2c6.2 0 9.7-5.2 9.7-9.7v-.4c.7-.5 1.2-1.1 1.7-1.8-.6.3-1.3.5-2 .5.7-.4 1.2-1.1 1.5-1.9-.6.4-1.4.7-2.2.8-1.3-1.4-3.4-1.5-4.8-.2-.7.6-1.1 1.6-1.1 2.5 0 .3 0 .5.1.8-2.7-.1-5.3-1.4-7-3.5-.9 1.6-.5 3.5 1 4.5-.5 0-1.1-.2-1.5-.4 0 1.6 1.1 3 2.7 3.3-.2.3-.5.3-.8.3h-.6c.5 1.4 1.7 2.3 3.2 2.4-1.2 1-2.7 1.5-4.2 1.5h-.8c1.5.8 3.3 1.3 5.1 1.3" class="st4"/><path d="M214.5 39.4l-3.6 3.4c-.4.4-1.1.4-1.5 0l-3.6-3.5c-.4-.4-.4-1.1 0-1.5s1.1-.4 1.5 0l2.9 2.8 2.9-2.8c.4-.4 1.1-.4 1.5 0 .3.5.3 1.2-.1 1.6zm3.2-4.8c-.2-.6-.7-.9-1.3-.9h-12.5c-.6 0-1.1.4-1.3.9-.1.2-.1.3-.1.5v4.6l.1.9c.2 2.1 1.3 3.9 3 5.2 0 0 .1 0 .1.1 1.7 1.3 3.8 1.7 5.9 1.3H211.9c1-.2 2-.7 2.9-1.3l.1-.1c1.7-1.2 2.7-3.1 3-5.2l.1-.9V35c-.2-.1-.2-.3-.3-.4z" class="st5"/><path d="M175.3 53.2c-7.2 0-13.1 4.8-13.1 10.6 0 5.2 4.6 9.6 10.9 10.5.4.1 1 .3 1.1.6.1.3.1.9 0 1.2l-.2 1.1c-.1.3-.3 1.3 1.1.7 1.4-.6 7.6-4.4 10.3-7.6 1.9-2.1 2.8-4.2 2.8-6.5.1-5.8-5.7-10.5-12.9-10.6zM170.6 67c0 .2-.1.2-.2.2h-3.7c-.1 0-.1 0-.2-.1 0 0-.1-.1-.1-.2v-5.7c0-.2.1-.3.2-.3h.9c.1 0 .2.1.2.3v4.5h2.5c.1 0 .2.1.2.2l.2 1.1zm2.3 0c0 .2-.1.2-.3.2h-.9c-.1 0-.2-.1-.2-.2v-5.7c0-.2.1-.3.2-.3h.9c.1 0 .2.1.2.3l.1 5.7zm6.3 0c0 .2-.1.2-.3.2h-1l-.1-.1-2.6-3.5V67c0 .1-.1.2-.3.2h-.9c-.2 0-.3-.1-.3-.2v-5.7c0-.2.1-.3.2-.3h1l2.6 3.5v-3.4c0-.2.1-.2.2-.2h.9c.1 0 .3.1.3.2l.3 5.9zm5-4.8c0 .2-.1.3-.2.3h-2.5v1h2.5c.1 0 .2.1.2.2v.9c0 .1-.1.3-.2.3h-2.5v1h2.5c.1 0 .2.1.2.3v.8c0 .2-.1.3-.2.3h-3.7c-.1 0-.1 0-.2-.1-.1 0-.1-.1-.1-.2v-5.7c0-.1 0-.1.1-.2.1 0 .1-.1.2-.1h3.7c.1 0 .2.1.2.2v1z" class="st0"/><path d="M137.5 66.1c-.8-.8-1.8-1.3-2.9-1.3.9-.2 1.8-.7 2.4-1.4.5-.7.8-1.5.8-2.4 0-.7-.1-1.4-.5-2.1-.3-.6-.9-1.1-1.5-1.5-.6-.3-1.3-.6-2-.7-1.4-.2-2.8-.2-4.2-.2h-4.9v17.6h5c1.4 0 2.9-.1 4.3-.2.8-.1 1.5-.4 2.2-.7.7-.4 1.3-1 1.7-1.7.4-.8.6-1.6.6-2.5.1-.9-.3-2-1-2.9zm-8.4-5.5h1c1.2 0 2 .1 2.4.4.4.3.7.8.6 1.4.1.5-.2 1-.7 1.3-.5.2-1.2.4-2.4.4h-1l.1-3.5zm4.1 10.1c-.4.3-1.3.4-2.4.4h-1.6v-3.9h1.8c1.2 0 2 .2 2.4.4.4.3.6.8.6 1.6.1.6-.2 1.2-.8 1.5z" class="st1"/><circle cx="143.6" cy="72.1" r="2.2" class="st1"/><path d="M141.7 56.7h3.9v11.8h-3.9V56.7z" class="st1"/><path d="M89.5 63.7V67h5.4c-.2 1.4-1.6 4.1-5.4 4.1-3.2 0-5.8-2.7-5.8-6s2.6-6 5.8-6c1.8 0 3.1.8 3.8 1.5l2.6-2.5c-3.9-3.5-9.8-3.2-13.3.6-3.5 3.9-3.2 9.8.6 13.3 1.7 1.6 4 2.5 6.4 2.4 5.5 0 9.1-3.8 9.1-9.2 0-.6-.1-1.1-.2-1.6l-9 .1zm20.2 0H107V61h-2.7v2.7h-2.7v2.7h2.7v2.7h2.7v-2.7h2.7" class="st2"/><path d="M67.5 52H43.2c-.8 0-1.3.6-1.3 1.3v24.3c0 .8.6 1.3 1.3 1.3h13.1V68.6h-3.5v-4.1h3.5v-3c0-3.5 2.1-5.4 5.3-5.4 1.5 0 2.8.1 3.1.1v3.7h-2.2c-1.7 0-2 .8-2 2v2.6h4l-.5 4.1h-3.5V79h6.9c.8 0 1.3-.6 1.3-1.4V53.3c.1-.7-.5-1.3-1.2-1.3z" class="st3"/><path d="M10.6 75.6c9.4 0 14.5-7.8 14.5-14.5v-.7c1-.7 1.9-1.6 2.6-2.7-.9.4-1.9.7-2.9.8 1.1-.6 1.9-1.7 2.2-2.8-1 .6-2.1 1-3.2 1.2-1.9-2.1-5.1-2.2-7.2-.3-1.3 1.3-1.9 3.1-1.5 4.9-4.2-.2-8-2.2-10.5-5.3-1.3 2.3-.7 5.3 1.6 6.8-.8 0-1.6-.3-2.3-.6v.1c0 2.4 1.7 4.5 4.1 5-.8.2-1.5.2-2.3.1.7 2.1 2.6 3.5 4.8 3.6-1.8 1.4-4 2.2-6.3 2.2-.4 0-.8 0-1.2-.1 2.2 1.5 4.9 2.3 7.6 2.3" class="st4"/><path d="M221.8 63.8l-5.4 5.2c-.3.3-.7.4-1.1.4s-.8-.1-1.1-.4l-5.4-5.2c-.6-.6-.6-1.6 0-2.2.6-.6 1.6-.6 2.2 0l4.3 4.1 4.3-4.1c.7-.6 1.7-.5 2.2.2.6.6.6 1.5 0 2zm4.9-7.2c-.3-.8-1.1-1.4-1.9-1.4H206c-1.1 0-2.1.9-2.1 2.1v6.9l.1 1.4c.3 3.1 2 5.9 4.5 7.8l.1.1c1.4 1 2.9 1.7 4.5 2 1.4.3 2.9.3 4.4.1l.2-.1h.1c1.6-.3 3-1 4.3-1.9l.1-.1c2.5-1.9 4.1-4.7 4.5-7.8l.1-1.4v-6.9c0-.3 0-.5-.1-.8z" class="st5"/><path d="M14.3 114c12.5 0 19.4-10.4 19.4-19.4v-.9c1.3-1 2.5-2.2 3.4-3.5-1.2.5-2.5.9-3.9 1.1 1.4-.9 2.5-2.2 3-3.8-1.3.8-2.8 1.3-4.3 1.6-2.6-2.7-6.9-2.9-9.6-.3-1.8 1.7-2.5 4.1-2 6.5-5.6-.3-10.7-3-14-7.1-1.8 3.1-.9 7.1 2.1 9.1-1.1 0-2.1-.3-3.1-.8v.1c0 3.2 2.3 6 5.5 6.7-.6.2-1.2.2-1.8.2-.4 0-.9 0-1.3-.1.9 2.8 3.4 4.7 6.4 4.7-2.4 1.9-5.4 2.9-8.4 2.9-.6 0-1.1 0-1.6-.1 2.8 2 6.4 3.1 10.2 3.1m-4.9 13c0 .4 0 .7.1 1H8.3c0-.3.1-.6.1-1v-4.2H6.3v-1c.3 0 .6.1 1.1.1h3c.5 0 .8 0 1.1-.1v1c-.3 0-.6-.1-1.1-.1h-1v4.3z" class="st4"/><path d="M15.1 128c0-.2-.1-.4-.2-.7l-.6-1.8-.1-.5-.2.6-.6 1.8c-.1.3-.2.6-.2.7h-.9c-.1-.2-.1-.5-.2-.7l-.9-2.7c-.1-.3-.2-.7-.3-1H12c0 .2.1.6.2.9l.4 1.5.1.6.3-.7.6-1.7c.1-.2.2-.6.2-.7h.8c0 .2.1.5.2.7l.6 1.7c0 .1.1.2.1.4l.1.2v-.2c0-.1.1-.3.1-.4l.4-1.5c.1-.3.2-.7.2-.9h1.2c-.1.3-.1.3-.3 1l-.9 2.7c-.1.4-.1.5-.2.7h-1zm3.9-6.1v1h-1.1v-1H19zm0 1.7c-.1.3-.1.7-.1 1v2.4c0 .4 0 .7.1 1h-1.1c0-.3.1-.6.1-1v-2.4c0-.4 0-.7-.1-1H19zm2.6-1.2v1.2h1.1v.9h-1.1v2.4c0 .4.1.5.5.5.2 0 .3 0 .6-.2l.1.8c-.3.1-.6.2-1 .2-.9 0-1.2-.3-1.2-1.1v-2.6h-.3c-.3 0-.4 0-.7.1v-.9h1v-.2c0-.3 0-.7-.1-1l1.1-.1zm3.3 0c0 .3-.1.6-.1 1v.2h1.1v.9h-1v2.4c0 .4.1.5.5.5.2 0 .3 0 .6-.2l.1.8c-.3.1-.6.2-1 .2-.9 0-1.2-.3-1.2-1.1v-2.6h-.3c-.3 0-.4 0-.7.1v-.9h1v-.2c0-.3 0-.7-.1-1l1.1-.1zm2.5 3.6c0 .4.1.6.3.9.2.3.6.4 1 .4s.7-.1.9-.4c.1-.1.1-.2.2-.4l.9.3c-.2.4-.3.5-.5.7-.4.4-.9.6-1.6.6-1.4 0-2.2-.9-2.2-2.3s.9-2.3 2.2-2.3c.9 0 1.6.4 1.9 1.2.1.4.2.6.2 1.2v.2l-3.3-.1zm2.3-.7c0-.3-.1-.5-.3-.7-.2-.2-.5-.3-.8-.3-.6 0-1 .4-1.2 1h2.3zm4.7-.8c-.2-.1-.4-.1-.7-.1-.4 0-.7.1-.9.4-.2.2-.3.4-.3.8v1.4c0 .4 0 .6.1 1h-1.1c0-.4.1-.6.1-1v-2.4c0-.5 0-.7-.1-1h1.1v.7c.3-.5.7-.8 1.4-.8.2 0 .4 0 .7.1l-.3.9z" class="st4"/><path d="M76.1 82.5H43.7c-1 0-1.8.8-1.8 1.8v32.4c0 1 .8 1.8 1.8 1.8h17.5v-13.9h-4.7v-5.5h4.7v-4c0-4.7 2.9-7.2 7-7.2 2 0 3.7.2 4.2.2V93h-2.9c-2.3 0-2.7 1.1-2.7 2.7v3.5h5.4l-.7 5.4h-4.7v13.9H76c1 0 1.8-.8 1.8-1.8V84.3c.1-1-.7-1.8-1.7-1.8zm-33.9 44.4c0 .5 0 .8.1 1.1h-1.1c0-.3.1-.6.1-1.1v-4c0-.4 0-.7-.1-1h3c.5 0 .7 0 1-.1v1c-.3 0-.7-.1-1 0h-2v1.6h1.6c.5 0 .7 0 1-.1v1c-.3 0-.7-.1-1-.1h-1.6v1.7zm6.4.6c-.3.3-.5.4-.8.5-.2.1-.4.1-.7.1-.9 0-1.4-.5-1.4-1.3 0-.5.3-1 .8-1.2s1-.3 2.1-.3v-.4c0-.4-.3-.7-.9-.7-.3 0-.6.1-.8.2-.1.1-.2.2-.3.5l-.9-.2c.2-.5.3-.7.6-.9.4-.3.8-.4 1.4-.4.7 0 1.1.1 1.4.5.3.2.4.5.4 1.1v2.1c0 .4 0 .6.1 1h-1v-.6zm0-1.6c-1.4.1-2 .3-2 .9 0 .4.3.6.7.6s.8-.1 1-.4c.2-.2.3-.4.3-.7v-.4zm4.8-.9c0-.2-.1-.3-.2-.5-.2-.2-.4-.3-.8-.3-.7 0-1.2.6-1.2 1.5s.5 1.5 1.2 1.5c.4 0 .7-.2.9-.4 0-.1.1-.2.1-.4l.9.2c-.1.3-.2.5-.3.7-.3.5-.9.8-1.6.8-1.3 0-2.1-.9-2.1-2.3 0-.7.2-1.3.6-1.8.4-.4.9-.6 1.5-.6.9 0 1.7.5 1.9 1.4l-.9.2zm2.5 1c0 .4.1.6.3.9s.5.4.9.4c.5 0 1-.3 1.1-.8l.9.3c-.2.4-.3.5-.5.7-.4.4-.9.6-1.5.6-1.3 0-2.1-.9-2.1-2.3s.8-2.3 2.1-2.3c.9 0 1.5.4 1.8 1.2.2.4.2.6.2 1.2v.2l-3.2-.1zm2.2-.7c0-.3-.1-.5-.3-.7s-.5-.3-.8-.3c-.6 0-1 .4-1.1 1h2.2zm1.7 2.7v-5.1-1h1v2.4c.4-.5.8-.8 1.5-.8 1.2 0 2 .9 2 2.3 0 .8-.2 1.4-.6 1.8-.4.4-.8.6-1.4.6-.7 0-1.1-.2-1.5-.7v.7l-1-.2zm2.4-3.7c-.4 0-.8.1-1 .4s-.4.7-.4 1.1c0 .5.2 1 .5 1.2.2.2.5.3.8.3.8 0 1.2-.6 1.2-1.5s-.4-1.5-1.1-1.5zm2.6 1.5c0-1.4.9-2.3 2.2-2.3 1.3 0 2.2.9 2.2 2.3s-.9 2.3-2.2 2.3c-1.3 0-2.2-.9-2.2-2.3zm1 0c0 1 .5 1.5 1.2 1.5s1.2-.6 1.2-1.5c0-1-.5-1.6-1.2-1.6s-1.2.6-1.2 1.6zm4 0c0-1.4.9-2.3 2.2-2.3 1.3 0 2.2.9 2.2 2.3s-.9 2.3-2.2 2.3c-1.3 0-2.2-.9-2.2-2.3zm.9 0c0 1 .5 1.5 1.2 1.5s1.2-.6 1.2-1.5c0-1-.5-1.6-1.2-1.6s-1.2.6-1.2 1.6zm5.3-3.9v3.5l1.1-1.1c.3-.3.5-.5.6-.7H79l-.7.7-1.1 1 1.2 1.8c.5.7.5.7.7.9h-1.3c-.1-.2-.2-.4-.5-.9l-.8-1.2-.6.6v.5c0 .5 0 .7.1 1h-1v-5.1-1h1z" class="st3"/><path d="M93.1 98.2v4.1h6.9c-.3 1.8-2.1 5.2-6.9 5.2-4.2 0-7.5-3.4-7.5-7.6s3.4-7.6 7.5-7.6c2.4 0 3.9 1 4.8 1.9l3.3-3.1c-2.2-2.1-5.1-3.2-8.1-3.2-6.7 0-12.1 5.4-12.1 12.1 0 6.7 5.4 12.1 12.1 12.1 7 0 11.6-4.9 11.6-11.8 0-.8-.1-1.4-.2-2l-11.4-.1zm25.9 0h-3.5v-3.5H112v3.5h-3.5v3.5h3.5v3.5h3.5v-3.5h3.5m-30.4 24.7c0 .5 0 .7.1 1-.7.4-1.5.7-2.4.7-1 0-1.7-.3-2.2-.9-.5-.7-.8-1.5-.7-2.3 0-1.2.4-2.2 1.2-2.7.5-.3 1-.5 1.7-.5s1.3.2 1.8.7c.2.2.4.5.6.9l-1.1.3c-.3-.7-.6-.9-1.4-.9-.4 0-.9.2-1.2.5-.4.4-.6 1-.6 1.7 0 .8.2 1.4.5 1.8s.7.5 1.3.5c.5 0 .9-.1 1.3-.3v-1.2H86.3v-1c.3 0 .4.1.9.1h1.3c0 .3-.1.5-.1 1l.2.6zm.8-.6c0-1.4.9-2.3 2.3-2.3s2.3.9 2.3 2.3-.9 2.3-2.2 2.3c-1.5 0-2.4-.9-2.4-2.3zm1 0c0 1 .5 1.5 1.3 1.5s1.3-.6 1.3-1.5c0-1-.5-1.6-1.3-1.6-.8.1-1.3.6-1.3 1.6zm4.1 0c0-1.4.9-2.3 2.3-2.3s2.3.9 2.3 2.3-.9 2.3-2.3 2.3-2.3-.9-2.3-2.3zm1 0c0 1 .5 1.5 1.3 1.5s1.3-.6 1.3-1.5c0-1-.5-1.6-1.3-1.6-.8.1-1.3.6-1.3 1.6zm5 2.4c.3.4.6.6 1.2.6s1.1-.2 1.2-.6c.1-.2.2-.5.2-1-.4.5-.8.7-1.5.7-1.2 0-2-.8-2-2.2 0-1.3.8-2.2 2-2.2.7 0 1.2.2 1.5.7v-.6h1c0 .3-.1.6-.1 1v2.6c0 .9-.2 1.5-.7 1.9-.4.3-1 .5-1.8.5-.9 0-1.4-.2-1.9-.8l.9-.6zm.5-1.4c.2.2.5.3.8.3.4 0 .8-.2 1.1-.6.2-.2.2-.5.2-.9 0-.5-.2-.9-.5-1.2-.2-.2-.5-.3-.7-.3-.8 0-1.2.6-1.2 1.5 0 .6.1.9.3 1.2zm5.3-4.9v6.1h-1.1c.1-.4.1-.6.1-1v-4.1c0-.5 0-.7-.1-1h1.1zm1.7 4.1c0 .4.1.6.3.9.2.3.6.4 1 .4s.7-.1.9-.4c.1-.1.1-.2.2-.4l.9.3c-.2.4-.3.5-.5.7-.4.4-.9.6-1.6.6-1.4 0-2.2-.9-2.2-2.3s.8-2.3 2.1-2.3c.9 0 1.6.4 1.9 1.2.1.4.2.6.2 1.2v.2l-3.2-.1zm2.4-.7c0-.3-.1-.5-.3-.7-.2-.2-.5-.3-.8-.3-.6 0-1 .4-1.2 1h2.3zm4.4 2.8h-.9v-1.8H112v-.9h1.8v-1.8h.9v1.8h1.8v.9h-1.8l.1 1.8z" class="st2"/><path d="M143.4 101.3c-1-1.1-2.4-1.7-3.9-1.8 1.5-.4 2.6-1 3.3-1.8.7-.9 1.1-2 1-3.2.1-2-.9-3.8-2.7-4.7-.8-.5-1.7-.8-2.7-.9-1.9-.2-3.7-.3-5.6-.2h-6.5v23.5h6.6c1.9 0 3.9-.1 5.8-.3 1-.1 2-.5 3-.9 1-.5 1.8-1.3 2.3-2.2.5-1 .8-2.2.8-3.3 0-1.5-.5-3-1.4-4.2zm-11.2-7.4h1.4c1.6 0 2.7.2 3.2.5.6.4.9 1.1.8 1.8.1.7-.3 1.4-.9 1.8-.6.3-1.6.5-3.2.5h-1.3v-4.6zm5.5 13.5c-.6.4-1.7.6-3.2.6h-2.2v-5.2h2.4c1.6 0 2.6.2 3.2.6.6.4.9 1.1.9 2.1 0 .8-.4 1.5-1.1 1.9z" class="st1"/><circle cx="151.6" cy="109.3" r="3" class="st1"/><path d="M149 88.7h5.2v15.7H149V88.7zM130.6 128.2v-.3c-.2-1.5-.3-3-.1-4.5l.2-1.1c.1-.3.1-.5.1-.6l1 .1c-.3.7-.6 2.5-.6 3.9v.7l.1-.2.1-.3.2-.4.1-.2.6.3c-.5.9-.8 1.8-.8 2.4v.2h-.9zm1.7-5.1c.4.1.8.1 1.4.1h.7V122v-.4h1c0 .2-.1.6-.1 1.2v.3c.4 0 .7-.1 1-.2l.2-.1h.1v.9h-.2c-.3.1-.7.1-1.1.2v.2c0 .4 0 .4.1 1.7.6.3.7.4 1.2.7.1.1.1.1.2.1l-.4.9c-.2-.2-.4-.4-.6-.5-.2-.2-.4-.3-.5-.3v.1c0 .2 0 .3-.1.5-.2.4-.7.7-1.5.7-1 0-1.6-.5-1.6-1.2s.7-1.3 1.6-1.3c.3 0 .5 0 .7.1 0-.2 0-.6-.1-1.6h-2.1l.1-.9zm1.6 3.2c-.5 0-.8.2-.8.5s.3.5.7.5c.3 0 .5-.1.6-.2s.1-.2.1-.4v-.2c-.3-.1-.4-.1-.6-.2zm3.5-3.8h.3l1.3-.1c.4 0 1.7-.1 3.8-.2.6 0 .7 0 .9-.1l.1 1h-.2c-.5 0-1.1.2-1.5.4-1 .5-1.5 1.3-1.5 2 0 .6.4 1.1 1 1.2.4.1.9.2 1.2.2h.1l-.1 1h-.3c-.6 0-1.3-.2-1.8-.5-.7-.4-1.1-1.1-1.1-1.9 0-.7.3-1.3.7-1.8.3-.3.6-.5 1.1-.8-.6.1-.9.1-2.6.2-.5 0-1 .1-1.2.1l-.2-.7zm13 .4c-.1.1-.1.2-.1.3-.3 1.2-.8 2.3-1.6 3.2-.8.9-1.7 1.5-2.8 2-.2-.4-.3-.6-.7-.9.7-.2 1.1-.4 1.7-.8 1.2-.8 2-2 2.3-3.4h-3.6c-.5 0-.7 0-1 .1v-1c.3 0 .5.1 1 .1h4.2c-.2-.3-.3-.5-.5-.8l.6-.2c.3.4.5.6.7 1.1l-.3.1.1.2zm.3-.5c-.2-.4-.4-.7-.7-1l.6-.2c.3.3.5.6.7 1l-.6.2z" class="st1"/><path d="M180.4 84.2c-9.6 0-17.4 6.3-17.4 14.2 0 7 6.2 12.9 14.6 14 .6.1 1.3.4 1.5.9.1.4.1 1.1 0 1.6l-.2 1.5c-.1.4-.4 1.7 1.5.9 1.9-.8 10.1-5.9 13.7-10.1 2.5-2.8 3.8-5.6 3.8-8.7-.1-8-7.9-14.3-17.5-14.3zm-6.2 18.3c0 .2-.1.3-.3.3H169c-.1 0-.2 0-.2-.1-.1-.1-.1-.2-.1-.2v-7.6c0-.2.1-.3.3-.3h1.2c.2 0 .3.2.3.3v6h3.3c.2 0 .4.2.4.3v1.3zm3 0c0 .2-.1.3-.3.3h-1.2c-.2 0-.3-.1-.3-.3v-7.6c0-.2.1-.3.3-.3h1.2c.2 0 .3.2.3.3v7.6zm8.4 0c0 .2-.1.3-.3.3H184l-.1-.1-3.5-4.7v4.5c0 .2-.2.3-.4.3h-1.2c-.2 0-.3-.2-.3-.3v-7.6c0-.2.1-.3.3-.3h1.3l3.5 4.7v-4.5c0-.2.1-.3.3-.3h1.2c.2 0 .3.2.3.3l.2 7.7zm6.8-6.4c0 .2-.1.3-.3.3h-3.3v1.3h3.3c.2 0 .3.1.3.3v1.2c0 .2-.1.3-.3.3h-3.3v1.3h3.3c.2 0 .3.2.3.3v1.2c0 .2-.1.3-.3.3h-4.9c-.1 0-.2 0-.2-.1-.1-.1-.1-.1-.1-.2v-7.6c0-.1 0-.2.1-.2.1-.1.1-.1.2-.1h4.9c.2 0 .3.1.3.3v1.4zM176 128h-4.4c0-.3.1-.6.1-1v-4c0-.5 0-.8-.1-1.1h1.2c0 .3-.1.6-.1 1.1v4.1h2.2c.5 0 .8 0 1.1-.1v1zm1.8-6.1c0 .3-.1.5-.1 1v4.1c0 .5 0 .7.1 1h-1.2c0-.3.1-.5.1-1v-4.1-1h1.1zm5.1 6.1c-.1-.3-.3-.5-.5-.8l-2-3-.5-.9v4.8h-1.1v-5.2c0-.4 0-.7-.1-1h1.2c.1.2.2.4.5.8l1.9 2.9c.2.3.5.7.6 1 0-.3-.1-.8-.1-1.1v-2.6-1.1h1.1V127c0 .4 0 .7.1 1h-1.1zm6.6 0h-4.4v-5.1c0-.4 0-.6-.1-1h3.3c.4 0 .6 0 1-.1v1c-.3 0-.5-.1-1-.1h-2.2v1.6h1.9c.4 0 .7 0 1-.1v1h-2.9v1.8h2.3c.4 0 .7 0 1-.1l.1 1.1z" class="st0"/><path d="M229.2 98.3l-7.2 6.9c-.4.4-.9.6-1.4.6s-1-.2-1.4-.6l-7.2-6.9c-.8-.8-.7-2.2.1-3 .8-.7 2-.8 2.8-.1l5.7 5.5 5.7-5.5c.9-.7 2.2-.6 3 .3.6.9.5 2-.1 2.8zm6.4-9.6c-.4-1.1-1.4-1.8-2.6-1.8h-25c-1.5 0-2.8 1.2-2.8 2.8v9.2l.1 1.8c.5 4.1 2.6 7.9 6 10.4.1.1.1.1.2.1 2.6 1.9 5.8 3 9 2.9.9 0 1.9-.1 2.8-.2.1-.1.2-.1.3-.1h.1c2.1-.4 4-1.3 5.7-2.6l.2-.1c3.4-2.5 5.5-6.2 6-10.3l.1-1.8v-9.2c.1-.5.1-.8-.1-1.1zM206.7 128c0-.3.1-.6.1-1v-4.1-1h2.6c.7 0 1.3.2 1.6.5s.5.8.5 1.3-.2 1.1-.5 1.4c-.4.4-.9.5-1.6.5h-1.5v1.3c0 .4 0 .7.1 1l-1.3.1zm2.6-3.2c.7 0 1.1-.4 1.1-1.1 0-.3-.1-.6-.2-.7-.2-.2-.4-.3-.8-.3h-1.5v2.1h1.4zm2.6 1c0-1.4.9-2.3 2.3-2.3s2.3.9 2.3 2.3-.9 2.3-2.3 2.3-2.3-.9-2.3-2.3zm1 0c0 1 .5 1.5 1.3 1.5s1.3-.6 1.3-1.5c0-1-.5-1.6-1.3-1.6s-1.3.6-1.3 1.6zm7.4-.8c-.1-.2-.1-.3-.2-.5-.2-.2-.5-.3-.8-.3-.8 0-1.2.6-1.2 1.5s.5 1.5 1.2 1.5c.4 0 .7-.2.9-.4.1-.1.1-.2.2-.4l1 .2c-.1.3-.2.5-.3.7-.4.5-1 .8-1.7.8-1.3 0-2.2-.9-2.2-2.3 0-.7.2-1.3.7-1.8.4-.4.9-.6 1.5-.6.8 0 1.3.3 1.7.8.1.2.2.3.3.6l-1.1.2zm2.9-3.1c0 .3-.1.5-.1 1v2.5l1.2-1.1c.4-.3.5-.5.6-.7h1.4l-.8.7-1.1 1 1.3 1.8c.5.7.5.7.7.9H225c-.1-.2-.2-.4-.5-.9l-.8-1.2-.6.6v1.5H222c0-.3.1-.6.1-1v-4.1-1h1.1zm4.7 4.1c0 .4.1.6.3.9s.6.4 1 .4.7-.1.9-.4c.1-.1.1-.2.2-.4l.9.3c-.2.4-.3.5-.5.7-.4.4-.9.6-1.6.6-1.3 0-2.2-.9-2.2-2.3s.8-2.3 2.2-2.3c.9 0 1.6.4 1.9 1.2.1.4.2.6.2 1.2v.2l-3.3-.1zm2.3-.8c0-.3-.1-.5-.3-.7s-.5-.3-.8-.3c-.6 0-1.1.4-1.2 1h2.3zm3.4-2.8c0 .3-.1.6-.1 1v.2h1.1v.9h-1v2.4c0 .4.1.5.5.5.2 0 .3 0 .5-.2l.1.8c-.3.1-.6.2-1 .2-.9 0-1.2-.3-1.2-1.1v-2.6h-.3c-.3 0-.4 0-.7.1v-.9h1v-.2-1l1.1-.1z" class="st5"/><g><path d="M19.2 1.5c2.4-1 5.3.1 6.3 2.5a5 5 0 0 1 0 3.8c-.7 1.8-2.5 3-4.4 3-2 0-3.7-1.2-4.5-3-1.1-2.4.1-5.2 2.6-6.3-.1 0 0 0 0 0zM21 10c.5 0 1-.1 1.5-.3C24.1 9.1 25 7.6 25 6c0-2.2-1.8-4-3.9-4-.7 0-1.4.2-2 .5-.7.4-1.1.9-1.5 1.5-.7 1.2-.7 2.8 0 4 .4.6.9 1.1 1.5 1.4.6.4 1.2.6 1.9.6zm.5-7.1v2.9l2 2-.6.6-2.3-2.3V2.9h.9zM51.9 6c.7 0 1.4.3 1.9.8s.8 1.1.8 1.9v1.8h-7.1V8.7c0-.7.3-1.4.8-1.9s1.1-.8 1.9-.8h1.7zm.4-1.4c-.3.3-.8.5-1.3.5s-.9-.2-1.2-.5-.5-.8-.5-1.2c0-.9.7-1.7 1.6-1.8h.1c.9 0 1.7.7 1.8 1.6v.1c0 .5-.2 1-.5 1.3zm38.5 1.8V2h4.4v4.4c0 1.9-1.5 3.5-3.4 3.5h-.1V8.2c.5 0 .9-.2 1.2-.5.3-.4.5-.8.5-1.3h-2.6zM96.9 2h4.4v4.4c0 1.9-1.5 3.5-3.4 3.5h-.1V8.2c.5 0 .9-.2 1.3-.5.3-.4.5-.8.5-1.3h-2.7V2zM79.6 7.4c-.2-.4-.2-.8-.1-1.2s.3-.8.6-1.1L82 3.2c.4-.4 1-.7 1.6-.7s1.1.2 1.6.6c.4.4.7.9.7 1.5s-.2 1.1-.7 1.6l-1.9 1.9c-.2.2-.4.4-.7.5-.3.1-.6.2-.8.2-.3 0-.6-.1-.8-.2l.6-.6c.4 0 .7-.1 1-.4l1.9-1.9c.2-.3.4-.6.4-.9s-.1-.7-.4-.9c-.5-.5-1.3-.5-1.8 0l-1.9 1.9c-.3.3-.4.6-.4 1l-.8.6zm-1 2c-.6 0-1.1-.2-1.6-.6-.4-.4-.7-1-.7-1.6s.2-1.1.7-1.6l1.9-1.9c.3-.3.7-.5 1.1-.6s.9 0 1.3.1l-.7.7c-.4 0-.7.1-1 .4l-1.9 1.9c-.3.3-.4.6-.4.9 0 .4.1.7.4.9.5.5 1.3.5 1.8 0l1.9-1.9c.3-.3.4-.6.4-1l.7-.7c.2.4.2.8.1 1.2-.1.4-.3.8-.6 1.1l-1.8 1.9c-.5.6-1 .8-1.6.8zm-14.9.5c-.6 0-1.1-.2-1.6-.6-.4-.4-.7-.9-.7-1.6s.2-1.1.7-1.6L65.3 3c.4-.4.9-.7 1.4-.8s1.1-.1 1.6 0c1.1.3 1.9 1.1 2.2 2.2.3 1.1 0 2.2-.8 3L68.1 9l-.6-.6L69 6.8c.4-.4.6-.9.6-1.6s-.1-1.1-.6-1.6c-.4-.4-1-.7-1.6-.6-.6 0-1.1.2-1.6.6l-3.1 3.1c-.3.3-.4.6-.4.9s.1.7.4.9c.4.4.7.5 1 .5.4 0 .7-.1.9-.4l2.5-2.5c.1-.1.1-.2.1-.3s-.1-.2-.1-.3c-.1-.1-.2-.1-.3-.1s-.2 0-.3.1l-2.2 2.2-.6-.6 2.2-2.2c.3-.2.6-.4.9-.4.7 0 1.3.5 1.3 1.3 0 .4-.1.7-.4 1l-2.5 2.5c-.4.4-.9.6-1.5.6zM6.1 2l4.4 3.5-.9.9V10H2.5V6.4l-.9-.8L6.1 2zm.8 7.5V6.4H5.2v3.1h1.7zm32.3-2.7c0 1.8-1.5 3.2-3.3 3.2s-3.2-1.5-3.2-3.3 1.5-3.2 3.2-3.2v1.2L39 3l-3-1.7v1c-2.5 0-4.5 2-4.5 4.5s2 4.5 4.5 4.5 4.5-2 4.5-4.5h-1.3z" class="st6"/></g><g><path d="M20.1 13.9c.8-.3 1.5-.5 2.4-.5 1.6 0 3.2.6 4.3 1.8.5.5 1 1.2 1.3 1.9.3.8.5 1.5.5 2.4 0 .8-.2 1.6-.5 2.4-.9 2.3-3.1 3.7-5.6 3.7-1.6 0-3.2-.6-4.3-1.8-.6-.5-1-1.2-1.3-1.9-.6-1.5-.6-3.2 0-4.7s1.7-2.7 3.2-3.3zm2.3 10.5c.7 0 1.3-.1 1.9-.4.6-.2 1.1-.6 1.6-1 .9-.9 1.5-2.2 1.5-3.5 0-.7-.1-1.3-.4-1.9-.2-.6-.6-1.1-1-1.6-1.6-1.5-4-1.9-6-.8-.7.4-1.4 1.1-1.8 1.8-.5.8-.7 1.6-.7 2.5 0 1.8.9 3.4 2.5 4.3.7.4 1.6.6 2.4.6zm.6-8.8v3.6l2.6 2.6-.8.8-2.9-2.9v-4.1H23zm30.5 3.9c.9 0 1.7.3 2.3 1 .7.6 1 1.4 1 2.3V25H48v-2.2c0-.9.3-1.7 1-2.3.6-.6 1.5-1 2.3-1h2.2zm.5-1.8c-.4.4-1 .7-1.6.7s-1.1-.2-1.6-.6c-.4-.4-.7-1-.6-1.5 0-.6.2-1.1.6-1.6.4-.4 1-.7 1.6-.6.6 0 1.1.2 1.6.6.4.4.7.9.7 1.6 0 .4-.3 1-.7 1.4zM90.8 20v-5.5h5.5V20c0 1.6-.8 3-2.2 3.8-.7.4-1.4.6-2.2.6v-2.2c.6 0 1.1-.2 1.6-.6.4-.4.6-1 .6-1.6h-3.3zm7.7-5.5h5.5V20c0 .8-.2 1.5-.6 2.2s-.9 1.2-1.6 1.6-1.4.6-2.2.6v-2.2c.6 0 1.1-.2 1.6-.6.4-.4.7-1 .7-1.6h-3.3l-.1-5.5zm-17.8 6.7c-.4-1-.2-2.2.6-3l2.3-2.3c.6-.5 1.2-.8 2-.8s1.4.3 1.9.8.8 1.2.8 2-.3 1.4-.8 2l-2.3 2.3c-.5.5-1.2.8-2 .8-.3 0-.7 0-1-.2l.9-.9c.5 0 .9-.1 1.3-.5l2.3-2.3c.3-.3.5-.7.5-1.2s-.2-.9-.5-1.2c-.3-.3-.7-.5-1.2-.5s-.8.2-1.2.5L82 19.1c-.3.3-.5.8-.5 1.2l-.8.9zm-1.4 2.6c-.8 0-1.4-.3-1.9-.8s-.8-1.2-.8-1.9c0-.8.3-1.4.8-2l2.3-2.3c.4-.4.9-.6 1.4-.8.5-.1 1.1-.1 1.6.1l-.9.9c-.5 0-.9.1-1.3.5l-2.3 2.4c-.3.3-.5.7-.5 1.2s.2.9.5 1.2c.3.3.7.5 1.2.5s.8-.2 1.2-.5l2.3-2.3c.3-.3.5-.8.5-1.3l.9-.9c.4 1 .2 2.2-.6 3L81.3 23c-.6.5-1.2.8-2 .8zm-14.7.5c-.7 0-1.4-.3-2-.8-.5-.5-.8-1.2-.8-2s.3-1.4.8-2l3.9-3.9c.5-.5 1.1-.8 1.7-1s1.3-.2 2 0 1.3.5 1.8 1 .8 1.1 1 1.7.2 1.3 0 2-.5 1.2-1 1.7l-2 2-.8-.8 1.9-2c.5-.5.8-1.2.8-2s-.3-1.4-.8-2c-.5-.5-1.2-.8-1.9-.8s-1.4.3-1.9.8l-3.9 3.9c-.3.3-.5.7-.5 1.2s.2.9.5 1.2.7.5 1.2.5c.4 0 .8-.2 1.2-.5l3.1-3.1c.1-.1.2-.2.2-.4 0-.1-.1-.3-.2-.4s-.2-.2-.4-.2-.3.1-.4.2l-2.7 2.8-.8-.8 2.8-2.7c.3-.3.7-.5 1.2-.5s.8.2 1.2.5c.3.3.5.7.5 1.2s-.2.8-.5 1.2l-3.1 3.1c-.7.7-1.4.9-2.1.9zM7.4 14.5l5.5 4.4-1.1 1.1v4.4H3V20l-1.1-1.1 5.5-4.4zm1.1 9.4V20H6.3v3.9h2.2zm33.1-3.5c0 2.3-1.8 4.1-4.1 4.1s-4.1-1.8-4.1-4.1c0-2.2 1.8-4 4.1-4v1.5l3.8-2.2-3.8-2.2v1.2c-3.1 0-5.6 2.5-5.6 5.6s2.5 5.6 5.6 5.6 5.6-2.5 5.6-5.6l-1.5.1z" class="st6"/></g><path fill="#ddd" d="M210 3h30v4h-30V3zm0 10h30v4h-30v-4zm0 10h30v4h-30v-4zm-.5 4.5l-8.4-8.4c.4-.5.8-1.1 1.1-1.6v-.1l.4-.8.1-.4.2-.5.1-.4.2-.5.1-.2c.6-2.4.4-4.9-.6-7.1v-.1l-.2-.5v-.1l-.2-.5c-2.5-4.7-7.9-7.2-13.1-5.9h-.2c-.2 0-.4.1-.6.2l-.4.1-.5.3-.3.1c-2.3 1.1-4.3 2.9-5.6 5.1-.2.3-.3.6-.4.8l-.2.4-.2.6-.1.3-.2.6c-.2.9-.4 1.9-.4 2.9 0 6.5 5.3 11.7 11.7 11.7.9 0 1.9-.1 2.8-.3h.1c.2-.1.4-.1.6-.2l.3-.1.6-.2.3-.1.6-.3.2-.1c.6-.3 1.1-.7 1.6-1.1l8.4 8.4c.5.5 1.4.6 2 0 .7-.6.7-1.4.2-2zm-8.9-15.7c0 1.9-.6 3.7-1.7 5.1-1.6 2.3-4.3 3.7-7.1 3.6-4.9-.2-8.6-4.4-8.4-9.2.2-4.5 3.9-8.1 8.4-8.4 4.9.2 8.8 4.1 8.8 8.9z"/></svg>