<svg xmlns="http://www.w3.org/2000/svg" width="240" height="130"><path fill="#00B900" d="M170.1 32.33c-4.8 0-8.7 3.18-8.7 7.08 0 3.5 3.1 6.45 7.3 7 .27.07.66.2.76.44.07.22.04.56 0 .78l-.1.75c-.05.22-.18.86.75.47.94-.4 5.04-2.96 6.87-5.06a6.34 6.34 0 0 0 1.86-4.36c0-3.9-3.9-7.08-8.72-7.08zm-3.06 9.17c0 .1-.08.17-.17.17h-2.45a.12.12 0 0 1-.1-.05h-.02a.18.18 0 0 1-.05-.12v-3.8c0-.1.07-.17.17-.17h.61c.1 0 .17.07.17.17v3.02h1.66c.1 0 .18.07.18.17v.6zm1.47 0c0 .1-.06.17-.16.17h-.6c-.1 0-.18-.08-.18-.17v-3.8c0-.1.08-.17.17-.17h.6c.1 0 .18.07.18.17v3.8zm4.22 0c0 .1-.07.17-.17.17h-.68l-.02-.02h-.02l-.05-.05-1.75-2.35v2.25c0 .1-.08.17-.18.17h-.6c-.1 0-.18-.08-.18-.17v-3.8c0-.1.06-.17.16-.17h.68v.02h.03c0 .02.02.02.03.02v.03l1.76 2.36V37.7c0-.1.07-.17.16-.17h.6c.1 0 .18.08.18.17v3.8h.03zm3.38-3.2c0 .1-.07.18-.16.18h-1.67v.65h1.67c.1 0 .16.07.16.16v.6c0 .1-.07.17-.16.17h-1.67v.64h1.67c.1 0 .16.1.16.18v.6c0 .1-.07.18-.16.18h-2.45c-.06 0-.1 0-.13-.05a.12.12 0 0 1-.05-.1v-3.8c0-.06.02-.1.05-.12.03-.04.07-.05.12-.05h2.44c.1 0 .16.07.16.16v.6z"/><g fill="#00A4DE"><path d="M131.58 40.92c-.5-.55-1.2-.86-1.96-.88.75-.22 1.28-.5 1.63-.9.36-.45.54-1 .52-1.6 0-.47-.1-.95-.33-1.38-.23-.4-.58-.75-1-.97a4.1 4.1 0 0 0-1.34-.46c-.93-.1-1.87-.14-2.8-.1h-3.25v11.75h3.32c.97 0 1.93-.04 2.9-.15.5-.07 1-.23 1.48-.47.48-.25.87-.64 1.13-1.1.27-.52.4-1.1.4-1.66.04-.77-.2-1.52-.7-2.1zm-5.55-3.7h.7c.8 0 1.32.07 1.6.25.28.2.43.56.4.92a1 1 0 0 1-.46.9c-.3.15-.82.25-1.63.25h-.63v-2.37l.03.03zm2.75 6.74c-.32.2-.86.3-1.62.3h-1.1v-2.6h1.18c.78 0 1.32.1 1.6.3.3.2.44.54.44 1.04a1 1 0 0 1-.5.97z"/><circle cx="135.69" cy="44.88" r="1.49"/><path d="M134.4 34.6h2.6v7.86h-2.6V34.6z"/></g><path fill="#DD4B39" d="M86.56 39.33v2.15h3.58c-.15.93-1.08 2.72-3.57 2.72-2.14 0-3.9-1.77-3.9-3.97s1.75-3.97 3.9-3.97c1.22 0 2.05.53 2.5.97l1.72-1.64a6.3 6.3 0 1 0-4.23 10.94c3.64 0 6.05-2.56 6.05-6.16 0-.4-.05-.73-.1-1.05h-5.96zm13.5 0h-1.8v-1.8h-1.8v1.8h-1.8v1.8h1.8v1.8h1.8v-1.8h1.8"/><path fill="#325094" d="M58.26 31.5h-16.2c-.5 0-.9.4-.9.9v16.2c0 .5.4.9.9.9h8.76v-6.96h-2.35V39.8h2.35v-2c0-2.35 1.43-3.62 3.5-3.62 1 0 1.86.08 2.1.1v2.45H55c-1.14 0-1.36.54-1.36 1.33v1.75h2.7L56 42.54h-2.36v6.96h4.62c.5 0 .9-.4.9-.9V32.4c0-.5-.4-.9-.9-.9z"/><path fill="#1DA1F2" d="M7.04 47.24c6.25 0 9.68-5.2 9.68-9.68v-.44a7.11 7.11 0 0 0 1.7-1.76c-.62.27-1.28.45-1.97.53a3.5 3.5 0 0 0 1.5-1.9c-.65.4-1.38.68-2.16.83a3.39 3.39 0 0 0-5.88 2.32c0 .27.02.53.08.78a9.63 9.63 0 0 1-7-3.55 3.4 3.4 0 0 0 1.04 4.54 3.5 3.5 0 0 1-1.54-.42v.05a3.4 3.4 0 0 0 2.73 3.33c-.3.08-.6.12-.9.12-.2 0-.43 0-.64-.05a3.42 3.42 0 0 0 3.18 2.36 6.76 6.76 0 0 1-4.23 1.46c-.27 0-.55 0-.8-.04a9.7 9.7 0 0 0 5.2 1.52"/><path fill="#EE4257" d="M214.5 39.4l-3.6 3.44a1.04 1.04 0 0 1-1.46 0l-3.6-3.45c-.4-.4-.43-1.07-.03-1.5.4-.4 1.08-.42 1.5-.02l2.86 2.75 2.87-2.75c.42-.4 1.08-.4 1.48.03.42.43.4 1.1 0 1.5zm3.22-4.8c-.2-.56-.72-.93-1.3-.93h-12.5c-.6 0-1.1.36-1.3.9-.07.15-.1.32-.1.5v4.6l.05.92a7.48 7.48 0 0 0 2.98 5.17c.03.02.06.05.1.06v.02a7.5 7.5 0 0 0 5.92 1.34c.06-.03.1-.03.17-.05 0 0 .03 0 .05-.02a7.5 7.5 0 0 0 2.86-1.3h.02l.1-.07a7.5 7.5 0 0 0 2.97-5.18l.05-.92v-4.6c0-.17 0-.33-.07-.48z"/><path fill="#00B900" d="M175.26 53.25c-7.22 0-13.08 4.76-13.08 10.62 0 5.25 4.65 9.65 10.95 10.5.42.08 1 .27 1.14.63.12.33.08.86.03 1.18l-.18 1.13c-.06.34-.27 1.3 1.12.72 1.4-.6 7.55-4.44 10.3-7.6 1.9-2.1 2.8-4.2 2.8-6.55 0-5.85-5.87-10.6-13.1-10.6l.02-.02zM170.64 67c0 .15-.1.25-.25.25h-3.67c-.08 0-.13-.02-.17-.07h-.02a.27.27 0 0 1-.07-.18v-5.7c0-.15.1-.26.25-.26h.92c.14 0 .25.12.25.26v4.53h2.5c.14 0 .25.1.25.25V67zm2.22 0c0 .15-.12.25-.26.25h-.92c-.15 0-.25-.1-.25-.25v-5.7c0-.15.1-.26.25-.26h.92c.15 0 .25.12.25.26V67zm6.32 0c0 .15-.1.25-.26.25h-1.03l-.02-.03s-.02 0-.03-.02l-.07-.06-2.6-3.52V67c0 .14-.13.25-.27.25h-.9c-.16 0-.26-.1-.26-.25v-5.7c0-.15.1-.26.25-.26h.96c.02 0 .02.02.03.02h.03l.02.03h.02v.02h.02v.03l2.63 3.54v-3.4c0-.15.1-.25.25-.25h.9c.15 0 .26.1.26.25V67h.04zm5.06-4.8c0 .16-.1.27-.25.27h-2.5v.97h2.5c.13 0 .24.1.24.25v.9c0 .14-.1.26-.25.26h-2.5v.96h2.5c.13 0 .24.1.24.26v.9c0 .16-.1.27-.25.27h-3.68c-.08 0-.13-.02-.18-.08-.05-.04-.07-.1-.07-.18v-5.7c0-.08.02-.14.07-.18.05-.05.1-.07.2-.07H184c.13 0 .24.1.24.24v.9z"/><g fill="#00A4DE"><path d="M137.47 66.13a4.03 4.03 0 0 0-2.94-1.3 5.15 5.15 0 0 0 2.44-1.36c.53-.68.82-1.53.78-2.4 0-.72-.15-1.44-.5-2.07a3.7 3.7 0 0 0-1.5-1.46 6.14 6.14 0 0 0-2-.67c-1.4-.15-2.8-.2-4.2-.18h-4.9v17.64h5c1.45.02 2.9-.05 4.33-.2a7.28 7.28 0 0 0 2.23-.72 3.97 3.97 0 0 0 1.7-1.67c.42-.76.63-1.6.62-2.47a4.5 4.5 0 0 0-1.07-3.15h.02zm-8.33-5.57h1.03c1.2 0 2 .13 2.4.4.44.32.66.84.6 1.37.05.54-.2 1.05-.67 1.35-.46.25-1.23.4-2.44.4h-.96v-3.55l.04.03zm4.1 10.13c-.45.3-1.26.42-2.4.42h-1.65v-3.86h1.75c1.17 0 2 .15 2.42.42.43.3.64.83.64 1.58.06.58-.22 1.14-.74 1.44z"/><circle cx="143.63" cy="72.08" r="2.23"/><path d="M141.68 56.66h3.9v11.78h-3.9V56.66z"/></g><path fill="#DD4B39" d="M89.93 63.74v3.23h5.36c-.23 1.4-1.63 4.1-5.36 4.1-3.2 0-5.85-2.67-5.85-5.97s2.6-5.96 5.84-5.96c1.84 0 3.07.8 3.76 1.46l2.57-2.46a9.43 9.43 0 1 0-6.32 16.41c5.46 0 9.08-3.82 9.08-9.22 0-.63-.07-1.1-.15-1.58h-8.94zm20.23 0h-2.7v-2.7h-2.7v2.7h-2.7v2.7h2.7v2.7h2.7v-2.7h2.7"/><path fill="#325094" d="M67.48 52h-24.3c-.75 0-1.35.6-1.35 1.35v24.3c0 .75.6 1.35 1.35 1.35h13.14V68.56H52.8v-4.1h3.52v-3.02c0-3.5 2.14-5.4 5.27-5.4 1.5 0 2.76.1 3.14.14v3.67h-2.16c-1.7 0-2.03.8-2.03 2v2.6h4.05l-.52 4.1h-3.53V79h6.93c.75 0 1.35-.6 1.35-1.36v-24.3c0-.75-.6-1.35-1.35-1.35z"/><path fill="#1DA1F2" d="M10.65 75.6c9.38 0 14.5-7.78 14.5-14.5v-.66c1-.72 1.87-1.62 2.56-2.65-.9.4-1.9.66-2.93.8a5.22 5.22 0 0 0 2.25-2.84c-.97.6-2.08 1-3.24 1.23a5.1 5.1 0 0 0-8.7 4.65c-4.24-.2-8-2.25-10.5-5.32a5.14 5.14 0 0 0 1.56 6.81 5.21 5.21 0 0 1-2.3-.64v.08a5.1 5.1 0 0 0 4.1 5 5.02 5.02 0 0 1-2.31.1 5.13 5.13 0 0 0 4.77 3.55 10.23 10.23 0 0 1-6.34 2.17c-.4 0-.82 0-1.2-.06a14.55 14.55 0 0 0 7.8 2.28"/><path fill="#EE4257" d="M221.82 63.83l-5.4 5.18c-.3.3-.68.44-1.07.44s-.78-.14-1.1-.43l-5.4-5.17a1.6 1.6 0 0 1-.03-2.22c.6-.6 1.6-.63 2.22-.03l4.3 4.12 4.32-4.13a1.57 1.57 0 0 1 2.16 2.27zm4.86-7.2a2.08 2.08 0 0 0-1.95-1.37h-18.77a2.08 2.08 0 0 0-2.08 2.09v6.92l.08 1.38a11.14 11.14 0 0 0 4.47 7.77l.13.1.03.03c1.35 1 2.85 1.65 4.5 1.98a12.4 12.4 0 0 0 4.37.05l.25-.07c.02 0 .05 0 .08-.02 1.56-.34 3-1 4.3-1.94l.03-.02.15-.1a11.3 11.3 0 0 0 4.47-7.77l.07-1.4v-6.88c0-.25-.03-.5-.12-.72z"/><g fill="#1DA1F2"><path d="M14.26 113.98c12.5 0 19.35-10.38 19.35-19.36v-.87c1.34-.96 2.5-2.16 3.4-3.53-1.2.54-2.53.9-3.9 1.07a7.05 7.05 0 0 0 3-3.78 13.4 13.4 0 0 1-4.33 1.64 6.81 6.81 0 0 0-11.59 6.22c-5.65-.28-10.66-3-14.02-7.1a6.86 6.86 0 0 0 2.1 9.08 6.98 6.98 0 0 1-3.07-.85v.1a6.8 6.8 0 0 0 5.46 6.67c-.57.16-1.17.24-1.8.24-.43 0-.86-.02-1.27-.1a6.82 6.82 0 0 0 6.36 4.73 13.65 13.65 0 0 1-8.45 2.9c-.55 0-1.1 0-1.62-.08 3 1.9 6.58 3.04 10.4 3.04m-5.31 13.06c0 .43 0 .7.06 1.04h-1.2c.04-.34.06-.6.06-1.04v-4.37H6.8c-.46 0-.8 0-1.1.04v-1.07c.3.05.64.06 1.1.06h3.17c.57 0 .87 0 1.17-.06v1.07c-.3-.04-.6-.06-1.18-.06h-1v4.38z"/><path d="M14.84 128.1c-.03-.2-.1-.45-.2-.76l-.62-1.9-.15-.53-.16.58-.6 1.87c-.1.27-.17.6-.2.76h-.93a8.17 8.17 0 0 0-.2-.75l-.9-2.84c-.1-.36-.2-.7-.32-1h1.18c.02.25.1.66.18.97l.45 1.56.14.64.17-.64.58-1.73c.08-.23.18-.6.2-.76h.86c.03.16.13.54.2.77l.6 1.8c0 .1.06.24.1.4l.06.2c0-.07 0-.07.04-.2 0-.1.07-.35.08-.4l.45-1.6c.1-.35.16-.7.18-.96h1.2c-.1.27-.13.34-.33 1l-.9 2.84c-.1.4-.15.53-.2.77h-.92v-.05zm4.1-6.37v1.02h-1.18v-1.02h1.17zm0 1.78a6 6 0 0 0-.07 1.06v2.5c0 .44.02.7.06 1.05h-1.17c.05-.35.06-.63.06-1.03v-2.5c0-.45 0-.73-.06-1.05h1.17zm2.66-1.23c-.03.28-.05.63-.05 1v.24h.34c.35 0 .53 0 .8-.03v.94a6.17 6.17 0 0 0-.8-.04h-.36v2.48c0 .4.14.54.53.54.2 0 .33-.04.58-.2l.15.86c-.34.13-.58.17-1 .17-.9 0-1.28-.3-1.28-1.15v-2.7h-.3c-.3 0-.45.02-.72.06v-.93c.23.04.4.05.72.05h.3v-.24c0-.35-.03-.7-.06-1h1.15zm3.48 0c-.03.28-.06.63-.06 1v.24h.34c.37 0 .55 0 .8-.03v.94c-.26-.03-.4-.04-.78-.04h-.36v2.48c0 .4.15.54.53.54.2 0 .34-.04.58-.2l.15.86c-.35.13-.58.17-1 .17-.92 0-1.3-.3-1.3-1.15v-2.7h-.3c-.3 0-.44.02-.7.06v-.93c.23.04.38.05.72.05h.3v-.24c0-.35-.03-.7-.06-1h1.14zm2.62 3.8c.04.43.1.66.3.9.22.3.58.44 1 .44.38 0 .72-.13.95-.4.1-.1.15-.2.23-.4l.95.3c-.2.4-.3.54-.5.74-.4.4-.97.62-1.64.62-1.43 0-2.33-.95-2.33-2.44 0-1.47.9-2.43 2.26-2.43.93-.02 1.67.46 2 1.26.14.38.2.67.22 1.2v.23H27.7v-.04zm2.43-.8a1.2 1.2 0 0 0-.35-.76c-.2-.2-.5-.3-.86-.3-.63 0-1.08.4-1.2 1.08h2.4v-.02zm4.9-.77a2.7 2.7 0 0 0-.7-.1c-.4 0-.7.1-.93.38-.2.23-.28.4-.33.8v1.48c0 .43.02.66.06 1.04h-1.15c.04-.4.06-.63.06-1.04v-2.5c0-.5 0-.73-.06-1.05h1.1v.77c.28-.57.77-.84 1.5-.84.18 0 .38.02.74.1l-.28 1v-.03z"/></g><path fill="#325094" d="M76.7 82.5H44.3c-1 0-1.8.8-1.8 1.8v32.4c0 1 .8 1.8 1.8 1.8h17.52v-13.92h-4.7v-5.46h4.7V95.1c0-4.7 2.85-7.23 7.02-7.23 2 0 3.7.15 4.2.2v4.9h-2.88c-2.26 0-2.7 1.06-2.7 2.65v3.5h5.4l-.7 5.44h-4.7v13.92h9.24c1 0 1.8-.8 1.8-1.8v-32.4c0-1-.8-1.8-1.8-1.8v.02zM42 126.94c0 .57.03.85.07 1.16h-1.14c.05-.28.06-.6.06-1.14v-4.2c0-.45-.03-.7-.08-1.05.32.03.5.03.98.03h2.16c.48 0 .72-.02 1.05-.06v1.08a6.76 6.76 0 0 0-1.03-.05H42v1.7h1.66c.47 0 .74-.02 1.04-.06v1.06a7.08 7.08 0 0 0-1.04-.06H42v1.6zm6.73.64c-.3.3-.5.4-.82.5-.2.06-.45.1-.7.1-.93 0-1.5-.5-1.5-1.35 0-.56.34-1.06.87-1.3.5-.2 1.07-.3 2.17-.3v-.42c0-.44-.3-.7-.9-.7-.3 0-.6.1-.8.25-.13.1-.2.22-.3.5l-.97-.17c.17-.48.3-.68.6-.9.38-.28.8-.4 1.47-.4.73 0 1.18.14 1.5.47.27.26.37.56.37 1.1v2.16c0 .43.03.65.07 1h-1.03v-.52zm0-1.67c-1.47.06-2.05.3-2.05.94 0 .38.27.6.7.6.4 0 .8-.15 1.07-.4.18-.2.27-.44.27-.72v-.4zm5-.86a1.37 1.37 0 0 0-.23-.5c-.18-.23-.45-.35-.8-.35-.74 0-1.2.6-1.2 1.6s.47 1.6 1.24 1.6c.4 0 .7-.16.9-.45.05-.1.1-.2.14-.4l.95.2c-.1.32-.18.5-.32.7-.35.5-.94.8-1.67.8-1.35 0-2.23-.95-2.23-2.43 0-.75.22-1.4.65-1.86.37-.4.9-.6 1.54-.6a1.95 1.95 0 0 1 1.97 1.44l-.94.24zm2.54 1.02c.04.44.1.67.28.9.23.3.57.45.96.45a1.18 1.18 0 0 0 1.17-.8l.9.3c-.18.4-.28.54-.47.74-.4.4-.94.62-1.6.62-1.35 0-2.2-.95-2.2-2.44 0-1.47.85-2.43 2.16-2.43.9-.02 1.6.46 1.9 1.26.16.38.2.67.23 1.2v.23h-3.34v-.04zm2.34-.8a1.13 1.13 0 0 0-.32-.75c-.2-.2-.47-.3-.83-.3-.6 0-1.03.4-1.15 1.08h2.3v-.02zm1.77 2.84c.04-.36.05-.6.05-1.08v-4.22c0-.4 0-.7-.05-1.07h1.08c-.04.34-.05.6-.05 1.08v.8c0 .15 0 .35-.02.6.4-.54.88-.8 1.58-.8 1.3 0 2.05.9 2.05 2.37 0 .8-.2 1.43-.6 1.87-.37.4-.86.58-1.48.58-.7 0-1.14-.22-1.52-.78v.68h-1l-.03-.02zm2.48-3.86c-.43 0-.8.15-1.05.44-.23.27-.37.7-.37 1.1 0 .52.2 1.02.5 1.28.23.18.53.3.8.3.8 0 1.28-.63 1.28-1.6.03-.92-.44-1.53-1.14-1.53zm2.75 1.56c0-1.48.9-2.43 2.3-2.43 1.38 0 2.27.94 2.27 2.42 0 1.46-.9 2.44-2.27 2.44-1.4 0-2.3-.94-2.3-2.44zm1 0c0 1 .5 1.6 1.3 1.6s1.28-.6 1.28-1.57c0-1.02-.47-1.63-1.3-1.63-.8 0-1.28.6-1.28 1.6zm4.15 0c0-1.48.9-2.43 2.3-2.43 1.38 0 2.26.94 2.26 2.42 0 1.46-.9 2.44-2.24 2.44-1.4 0-2.3-.94-2.3-2.44zm1 0c0 1 .48 1.6 1.28 1.6s1.3-.6 1.3-1.57c0-1.02-.47-1.63-1.3-1.63-.8 0-1.3.6-1.3 1.6h.02zm5.43-4.07c-.04.3-.05.58-.05 1.05v2.63l1.15-1.17c.35-.35.48-.5.6-.7h1.44l-.77.72-1.1 1.08 1.3 1.85c.53.74.53.74.7.93H79.1c-.1-.25-.2-.4-.52-.9l-.83-1.26-.63.62v.53c0 .5 0 .68.06 1H76.1c.04-.32.05-.6.05-1.03v-4.28c0-.5 0-.74-.05-1.06h1.08z"/><path fill="#DD4B39" d="M93.3 98.16v4.3h7.15c-.3 1.87-2.16 5.45-7.14 5.45a7.88 7.88 0 0 1-7.8-7.93c0-4.4 3.5-7.95 7.8-7.95 2.46 0 4.1 1.06 5.03 1.95l3.42-3.28a12 12 0 0 0-8.43-3.3A12.57 12.57 0 0 0 80.75 100c0 6.95 5.63 12.57 12.58 12.57 7.27 0 12.1-5.1 12.1-12.3 0-.83-.1-1.46-.2-2.1H93.3zm26.98 0h-3.6v-3.6h-3.6v3.6h-3.6v3.6h3.6v3.6h3.6v-3.6h3.6m-31.66 24.7c0 .47 0 .7.06 1.04a4.66 4.66 0 0 1-2.46.7c-1 0-1.76-.3-2.27-.92a3.68 3.68 0 0 1-.75-2.43c0-1.27.45-2.25 1.28-2.8.5-.34 1.04-.48 1.77-.48s1.4.25 1.84.7c.26.26.4.5.6.94l-1.1.3c-.28-.72-.67-.97-1.5-.97-.46 0-.9.18-1.2.5-.4.4-.6 1-.6 1.8 0 .84.2 1.46.55 1.88.32.4.76.57 1.4.57.53 0 .94-.1 1.35-.36v-1.3h-.43c-.4 0-.57 0-.8.05v-1.03c.28.05.45.06.95.06h.4c.38 0 .6 0 .96-.03-.04.3-.06.54-.06 1v.83-.02zm.84-.66c0-1.48.93-2.43 2.4-2.43 1.43 0 2.35.94 2.35 2.42 0 1.46-.9 2.44-2.34 2.44-1.46 0-2.4-.94-2.4-2.44zm1.04 0c0 1 .5 1.6 1.34 1.6.84 0 1.34-.6 1.34-1.57 0-1.02-.5-1.63-1.33-1.63-.84 0-1.35.6-1.35 1.6zm4.32 0c0-1.48.93-2.43 2.4-2.43 1.43 0 2.35.94 2.35 2.42 0 1.46-.93 2.44-2.35 2.44-1.47 0-2.4-.94-2.4-2.44zm1.04 0c0 1 .5 1.6 1.34 1.6.84 0 1.34-.6 1.34-1.57 0-1.02-.5-1.63-1.33-1.63s-1.33.6-1.33 1.6zm5.22 2.48c.3.43.66.6 1.24.6.62 0 1.1-.2 1.3-.6.15-.23.2-.5.22-1.06-.4.5-.87.73-1.57.73-1.27 0-2.08-.87-2.08-2.24-.03-1.36.8-2.25 2.1-2.25.7 0 1.2.2 1.54.7l-.02-.27v-.36h1.07a6.1 6.1 0 0 0-.06 1v2.68c0 .96-.2 1.58-.68 1.97-.4.33-1.06.5-1.88.5-.95 0-1.48-.2-2.02-.82l.8-.55.02-.02zm.52-1.44c.2.22.54.36.85.36.44 0 .88-.26 1.1-.63.16-.25.23-.55.23-.9 0-.53-.16-.92-.48-1.2a1.2 1.2 0 0 0-.77-.28c-.8 0-1.3.6-1.3 1.53 0 .47.13.86.37 1.1zm5.47-5.1c-.04.3-.05.56-.05 1.04v4.28c0 .42 0 .68.05 1.03h-1.16c.06-.37.08-.6.08-1.05v-4.3c0-.48-.02-.73-.06-1.03h1.17-.03zm1.83 4.32c.04.44.12.67.3.9.23.3.6.45 1 .45s.73-.13.96-.4c.1-.1.15-.2.23-.4l.92.3c-.18.4-.28.54-.48.74-.42.4-.98.62-1.65.62-1.43 0-2.3-.95-2.3-2.44 0-1.47.87-2.43 2.23-2.43.94-.02 1.67.46 2 1.26.15.38.2.67.23 1.2v.23h-3.47v-.04zm2.44-.8a1.2 1.2 0 0 0-.35-.75c-.24-.2-.5-.3-.88-.3-.63 0-1.08.4-1.2 1.08h2.4l.02-.02zm4.56 2.9h-.94v-1.9h-1.9v-.9h1.9v-1.9h.93v1.9h1.87v.9h-1.9v1.9h.03z"/><g fill="#00A4DE"><path d="M143.35 101.34a5.48 5.48 0 0 0-3.92-1.75c1.5-.45 2.55-1 3.26-1.8.7-.9 1.07-2.04 1.02-3.2a4.98 4.98 0 0 0-2.66-4.71 7.94 7.94 0 0 0-2.68-.9 40.3 40.3 0 0 0-5.6-.24h-6.5v23.53h6.65c1.93.02 3.86-.07 5.77-.3a9.49 9.49 0 0 0 2.98-.93 5.48 5.48 0 0 0 2.27-2.23 6.8 6.8 0 0 0 .8-3.3 6.03 6.03 0 0 0-1.42-4.2h.02zm-11.1-7.42h1.37c1.6 0 2.67.17 3.2.52a2 2 0 0 1 .8 1.84 1.9 1.9 0 0 1-.9 1.8c-.6.33-1.64.53-3.25.53h-1.27v-4.72l.05.04zm5.48 13.5c-.62.4-1.7.58-3.22.58h-2.2v-5.15h2.36c1.56 0 2.65.2 3.22.56.57.4.85 1.12.85 2.12.07.77-.3 1.52-1 1.93v-.03z"/><circle cx="151.57" cy="109.27" r="2.98"/><path d="M148.97 88.72h5.2v15.7h-5.2v-15.7z"/></g><path fill="#00A4DE" d="M130.16 128.3c0-.08 0-.13-.04-.32a15.3 15.3 0 0 1-.06-4.66l.2-1.14c.07-.28.1-.5.1-.6v-.02l1.08.1c-.33.7-.63 2.63-.64 4.02v.54l-.02.17.1-.25.1-.27.16-.37.1-.24.65.3c-.5.93-.8 1.92-.8 2.45v.2l-.95.08v.02zm1.8-5.24c.38.1.8.13 1.45.13.3 0 .48 0 .76-.04v-1.2c0-.18-.02-.3-.03-.38l1-.04c-.04.23-.06.6-.06 1.2v.35c.42-.04.77-.1 1.08-.2l.18-.06h.06l.02.9-.22.03c-.27.06-.7.13-1.1.18v.17c0 .45 0 .46.07 1.8.58.28.78.4 1.25.74.1.07.14.1.23.13l-.4.97a2.04 2.04 0 0 0-.6-.5c-.26-.2-.44-.3-.5-.35v.1c0 .2 0 .36-.06.47-.2.45-.76.73-1.53.73-1.05 0-1.7-.5-1.7-1.3 0-.78.7-1.34 1.66-1.34.3 0 .5.04.7.1-.02-.18-.02-.6-.06-1.68l-.72.02c-.3 0-.6 0-1-.04h-.23l-.12-.02h-.14l.02-.92zm1.63 3.35c-.53 0-.85.2-.85.55 0 .3.3.5.73.5.3 0 .52-.1.64-.26.07-.1.1-.2.1-.44v-.2c-.26-.1-.4-.14-.65-.14h.02zm3.67-3.96h.3l1.33-.07c.44-.02 1.77-.1 3.98-.2.66-.03.78-.04.92-.08l.06 1h-.17c-.5 0-1.1.16-1.6.43-1 .53-1.6 1.33-1.6 2.13 0 .63.4 1.1 1.05 1.3.4.13.9.22 1.2.22l.15-.02-.14 1.08c-.1-.02-.13-.03-.27-.04a5.1 5.1 0 0 1-1.9-.53 2.17 2.17 0 0 1-1.14-1.94c0-.68.28-1.35.77-1.9.3-.3.6-.52 1.1-.8-.65.1-.95.13-2.7.26-.52.03-1 .1-1.3.15l-.07-1.04v.04zm13.53.4c-.08.12-.1.2-.15.35a7.6 7.6 0 0 1-1.64 3.33 7.59 7.59 0 0 1-2.95 2.04c-.22-.44-.33-.6-.7-.96.7-.2 1.15-.42 1.75-.8a5.52 5.52 0 0 0 2.4-3.5h-3.8c-.53 0-.72 0-1 .06v-1.04c.3.05.48.06 1.02.06h3.67c.32 0 .52-.03.7-.05a5.3 5.3 0 0 0-.55-.8l.6-.25c.33.4.48.62.7 1.1l-.36.15.3.28v.03zm.36-.54c-.2-.43-.4-.72-.68-1.06l.6-.26c.3.35.47.6.7 1.04l-.62.28z"/><path fill="#00B900" d="M180.4 84.17c-9.62 0-17.44 6.35-17.44 14.16 0 7 6.2 12.87 14.6 13.98.56.14 1.33.4 1.53.88.15.44.1 1.13.03 1.57l-.24 1.5c-.1.43-.36 1.72 1.5.93 1.86-.8 10.05-5.92 13.7-10.13 2.54-2.78 3.75-5.6 3.75-8.72 0-7.8-7.83-14.16-17.45-14.16zm-6.15 18.33c0 .2-.15.34-.34.34h-4.87a.28.28 0 0 1-.23-.1h-.02a.35.35 0 0 1-.1-.24v-7.6c0-.2.15-.34.34-.34h1.23c.18 0 .33.15.33.34v6.04h3.33c.2 0 .36.15.36.34v1.22zm2.95 0c0 .2-.15.34-.34.34h-1.22a.33.33 0 0 1-.34-.34v-7.6c0-.2.14-.34.34-.34h1.22c.2 0 .34.15.34.34v7.6zm8.43 0c0 .2-.15.34-.34.34h-1.33c-.02 0-.02 0-.03-.02h-.03v-.02s-.03 0-.04-.02l-.1-.08-3.48-4.7v4.5c0 .2-.16.34-.35.34h-1.22c-.2 0-.33-.15-.33-.34v-7.6c0-.2.14-.34.33-.34h1.3c.03 0 .03.02.04.02h.02v.02h.03l.02.02c0 .02.02.02.03.03v.02h.02l.02.04 3.5 4.73V94.9c0-.2.13-.33.32-.33h1.22c.18 0 .33.15.33.34v7.6h.06zm6.75-6.38c0 .2-.14.34-.33.34h-3.33v1.3h3.33c.18 0 .33.14.33.33v1.2c0 .2-.14.35-.33.35h-3.33v1.28h3.33c.18 0 .33.15.33.34v1.22c0 .2-.14.33-.33.33h-4.9a.28.28 0 0 1-.23-.1.31.31 0 0 1-.1-.24v-7.6c0-.1.03-.18.1-.24a.3.3 0 0 1 .24-.1h4.9c.17 0 .32.14.32.33v1.22zm-16.56 32.03c-.3-.04-.57-.05-1.14-.05h-2.36c-.45 0-.73 0-1.02.02.05-.3.06-.6.06-1.06v-4.15c0-.53 0-.82-.06-1.16h1.2c-.04.33-.06.6-.06 1.18v4.23h2.24c.55 0 .8-.02 1.14-.06v1.07-.02zm1.84-6.42c-.05.3-.06.55-.06 1.03v4.3c0 .48 0 .73.06 1.04h-1.22c.05-.3.07-.56.07-1.04v-4.3c0-.5 0-.7-.05-1.03h1.22zm5.3 6.37c-.14-.28-.3-.5-.5-.86l-2.08-3.1-.55-.97.04.4.02.7v2.63c0 .53 0 .9.04 1.2h-1.16c.02-.27.05-.67.05-1.2v-4.14c0-.4-.02-.7-.07-1.03H180c.08.2.24.44.5.85l2 3.05c.2.28.48.7.66 1.02-.04-.3-.07-.8-.07-1.13v-2.68c0-.48 0-.8-.05-1.1h1.15c-.04.3-.05.6-.05 1.1v4.22c0 .45.02.76.06 1.04h-1.24zm6.94.05c-.3-.04-.55-.05-1.03-.05h-2.5c-.48 0-.7 0-1 .02.03-.32.05-.6.05-1.06v-4.32c0-.42-.02-.66-.06-1.03.32.03.52.04 1 .04h2.43c.4 0 .64-.02 1-.06v1.06c-.3-.04-.55-.06-1.02-.06h-2.32v1.65h1.95c.4 0 .7-.02 1.04-.07v1.05c-.32-.03-.54-.03-1.03-.03h-1.95v1.9h2.4c.45 0 .68 0 1.03-.07v1.06h.02z"/><path fill="#EE4257" d="M229.16 98.28l-7.2 6.9a2 2 0 0 1-1.44.58c-.52 0-1.04-.2-1.45-.58l-7.2-6.9a2.1 2.1 0 0 1 2.91-3.02l5.74 5.5 5.74-5.5a2.1 2.1 0 0 1 2.9 3.02zm6.47-9.6a2.77 2.77 0 0 0-2.6-1.83H208a2.78 2.78 0 0 0-2.78 2.77v9.23l.1 1.83a14.9 14.9 0 0 0 5.96 10.36c.06.05.12.1.18.13l.04.03a15.04 15.04 0 0 0 9.02 2.94c.94 0 1.88-.08 2.8-.25.12-.05.23-.06.34-.1.03 0 .07 0 .1-.03 2.08-.45 4-1.32 5.74-2.58l.04-.03.18-.14c3.35-2.53 5.5-6.2 5.96-10.35l.1-1.84v-9.2c0-.33-.03-.65-.15-.96zm-29.48 39.42c.05-.32.06-.6.06-1.04v-4.32c0-.38 0-.67-.04-1.02.35.02.6.02 1.02.02h1.67c.77 0 1.32.2 1.7.57.33.33.5.8.5 1.4 0 .6-.2 1.1-.54 1.46-.4.4-.92.57-1.7.57h-1.52v1.34c0 .43.02.73.06 1.04h-1.18zm2.65-3.3c.73 0 1.13-.4 1.13-1.1 0-.3-.08-.58-.26-.76-.18-.2-.45-.3-.87-.3h-1.53v2.16h1.53zm2.77 1c0-1.48.93-2.43 2.4-2.43 1.43 0 2.35.94 2.35 2.42 0 1.46-.93 2.44-2.35 2.44-1.47 0-2.4-.94-2.4-2.44zm1.04 0c0 1 .53 1.6 1.36 1.6s1.34-.6 1.34-1.57c0-1.02-.5-1.63-1.34-1.63s-1.35.6-1.35 1.6zm7.72-.76c-.1-.25-.15-.36-.25-.5-.2-.23-.47-.35-.82-.35-.8 0-1.27.6-1.27 1.6s.5 1.6 1.3 1.6c.4 0 .72-.16.92-.45.07-.1.1-.2.16-.4l1 .2c-.12.32-.2.5-.34.7-.4.5-1 .8-1.76.8-1.4 0-2.32-.95-2.32-2.43 0-.75.24-1.4.68-1.86.4-.4.95-.6 1.6-.6.8 0 1.4.3 1.8.86.1.16.16.28.27.58l-1 .24h.02zm2.95-3.3c-.04.3-.06.57-.06 1.04v2.63l1.2-1.17c.4-.35.53-.5.65-.7h1.5l-.8.72-1.14 1.08 1.37 1.85c.54.74.54.74.72.93h-1.43c-.1-.25-.2-.4-.52-.9l-.87-1.26-.65.62v.53c0 .5 0 .68.05 1h-1.13c.05-.32.06-.6.06-1.03v-4.28c0-.5 0-.74-.05-1.06h1.13zm4.9 4.32c.04.44.1.67.3.9.22.3.58.45 1 .45.38 0 .72-.13.95-.4.1-.1.15-.2.23-.4l.95.3c-.2.4-.3.54-.5.74-.4.4-.97.62-1.64.62-1.4 0-2.3-.95-2.3-2.44 0-1.47.88-2.43 2.25-2.43.94-.02 1.7.46 2 1.26.15.38.2.67.23 1.2v.23h-3.46v-.04zm2.44-.8a1.15 1.15 0 0 0-.34-.75c-.2-.2-.48-.3-.86-.3-.63 0-1.1.4-1.2 1.08h2.4v-.02zm3.52-3c-.03.3-.06.64-.06 1v.25h.34c.37 0 .55 0 .8-.03v.94c-.26-.03-.4-.04-.78-.04h-.36v2.48c0 .4.15.54.53.54.2 0 .32-.04.56-.2l.15.86c-.34.13-.6.17-1 .17-.9 0-1.3-.3-1.3-1.15v-2.7h-.3c-.3 0-.43.02-.7.06v-.93c.24.04.4.05.7.05h.3v-.24c0-.35 0-.7-.04-1h1.16z"/><g fill="#888"><path d="M19.17 1.53a4.82 4.82 0 0 1 6.34 2.59 4.5 4.5 0 0 1 0 3.76 4.75 4.75 0 0 1-4.45 2.98 4.9 4.9 0 0 1-4.47-2.98 4.82 4.82 0 0 1 2.59-6.35zm1.88 8.44c.54 0 1.05-.1 1.54-.32a3.89 3.89 0 0 0 2.43-3.64 3.96 3.96 0 0 0-3.98-3.97c-.72 0-1.38.17-2 .52-.6.36-1.08.84-1.44 1.45a4.08 4.08 0 0 0 .01 4c.37.6.85 1.08 1.46 1.44.6.35 1.27.53 2 .53zm.44-7.06v2.92l2.04 2.05-.62.62-2.3-2.32V2.9h.87zM51.93 6c.73 0 1.36.26 1.87.78.52.5.78 1.14.78 1.87v1.76h-7.06V8.66c0-.73.26-1.36.78-1.87.5-.52 1.14-.78 1.87-.78h1.76zm.37-1.4a1.7 1.7 0 0 1-1.25.52c-.5 0-.9-.17-1.25-.52-.34-.34-.5-.76-.5-1.24a1.7 1.7 0 0 1 1.75-1.75 1.7 1.7 0 0 1 1.75 1.76c0 .48-.16.9-.5 1.24zm38.46 1.84v-4.4h4.4v4.4a3.49 3.49 0 0 1-3.52 3.54V8.2c.5 0 .9-.17 1.25-.5.33-.36.5-.77.5-1.26h-2.64zm6.17-4.4h4.4v4.4a3.49 3.49 0 0 1-3.52 3.54V8.2c.5 0 .9-.17 1.26-.5.34-.36.52-.77.52-1.26h-2.65v-4.4zM79.62 7.43c-.15-.4-.2-.82-.1-1.25.08-.43.28-.8.6-1.12l1.86-1.87c.44-.44.96-.65 1.56-.65s1.13.2 1.56.64c.44.43.65.95.65 1.55s-.22 1.13-.65 1.56L83.23 8.2c-.2.2-.44.37-.7.48-.28.1-.56.17-.84.17-.3 0-.56-.05-.83-.16l.74-.73c.4.02.74-.1 1-.38l1.9-1.88c.25-.27.38-.58.38-.95s-.13-.68-.38-.93a1.29 1.29 0 0 0-1.87 0L80.75 5.7c-.28.26-.4.6-.38 1l-.74.73zm-1.06 2.02c-.6 0-1.13-.2-1.56-.64a2.09 2.09 0 0 1-.65-1.55c0-.6.22-1.13.65-1.56l1.87-1.88a2 2 0 0 1 1.1-.6c.44-.1.86-.05 1.26.1l-.74.74c-.4-.02-.74.1-1 .38L77.6 6.3a1.3 1.3 0 0 0-.38.95c0 .36.12.67.38.93a1.29 1.29 0 0 0 1.87 0l1.86-1.87c.27-.26.4-.6.38-1l.74-.73c.15.4.2.82.1 1.25-.08.43-.28.8-.6 1.1L80.1 8.8c-.42.44-.94.65-1.54.65zm-14.82.45c-.6 0-1.13-.22-1.56-.65-.44-.43-.65-.95-.65-1.56s.2-1.14.65-1.57L65.28 3c.4-.38.87-.65 1.4-.8a3.33 3.33 0 0 1 1.6 0 3.04 3.04 0 0 1 2.18 2.2 3.1 3.1 0 0 1-.8 2.98L68.1 8.94l-.62-.63 1.56-1.55c.43-.43.64-.95.64-1.55 0-.6-.2-1.13-.64-1.56A2.06 2.06 0 0 0 67.48 3c-.6 0-1.13.2-1.56.64l-3.12 3.1c-.26.27-.38.58-.38.95s.12.67.38.92c.26.26.57.4.94.4.36 0 .67-.13.93-.4l2.5-2.5c.08-.07.12-.18.12-.3s-.05-.23-.13-.3c-.1-.1-.2-.14-.32-.14s-.23.04-.3.13l-2.2 2.2-.63-.62 2.2-2.2c.26-.25.57-.38.93-.38a1.3 1.3 0 0 1 .92 2.25l-2.48 2.5c-.44.43-.95.65-1.56.65zM6.05 2.03l4.4 3.53-.87.88v3.53H2.52V6.44l-.88-.88 4.4-3.53zm.88 7.5v-3.1H5.17v3.1h1.76zM39.25 6.8A3.25 3.25 0 1 1 36 3.53v1.2l3-1.72-3-1.73v1a4.5 4.5 0 1 0 4.5 4.5h-1.25z"/></g><g fill="#888"><path d="M20.08 13.87c.75-.3 1.54-.47 2.36-.47a5.9 5.9 0 0 1 4.28 1.77c.54.54.97 1.18 1.3 1.93.3.75.47 1.54.47 2.36 0 .82-.16 1.6-.48 2.35a6 6 0 0 1-5.59 3.72 6 6 0 0 1-4.29-1.78 5.81 5.81 0 0 1-1.3-1.93 6.19 6.19 0 0 1 0-4.7 6.13 6.13 0 0 1 3.23-3.23zm2.36 10.55c.67 0 1.3-.13 1.92-.4a5 5 0 0 0 1.6-1.05 4.96 4.96 0 0 0 1.45-3.52c0-.67-.13-1.32-.4-1.93a4.84 4.84 0 0 0-1.05-1.6 5.09 5.09 0 0 0-6-.78 4.86 4.86 0 0 0-1.8 1.8c-.45.77-.67 1.6-.67 2.5a4.85 4.85 0 0 0 2.46 4.28c.77.46 1.6.68 2.5.68zM23 15.6v3.63l2.56 2.56-.8.78-2.87-2.9V15.6H23zm30.54 3.86c.92 0 1.7.32 2.34.97.65.64.97 1.42.97 2.33v2.2h-8.82v-2.2c0-.9.33-1.7.97-2.33a3.19 3.19 0 0 1 2.34-.97h2.2zM54 17.7c-.43.44-.95.66-1.56.66s-1.13-.22-1.56-.65a2.08 2.08 0 0 1-.64-1.55c0-.6.2-1.13.64-1.56a2.1 2.1 0 0 1 1.56-.65c.6 0 1.13.2 1.56.64.43.42.65.94.65 1.55 0 .6-.22 1.13-.65 1.56zM90.83 20v-5.5h5.5V20a4.31 4.31 0 0 1-2.18 3.82c-.68.4-1.42.6-2.22.6v-2.2c.6 0 1.13-.22 1.56-.65.42-.43.64-.95.64-1.56h-3.3zm7.7-5.5h5.52V20c0 .8-.2 1.55-.6 2.22-.38.68-.9 1.22-1.6 1.6-.67.4-1.4.6-2.2.6v-2.2c.6 0 1.12-.22 1.55-.65.44-.43.65-.95.65-1.56h-3.3v-5.5zm-17.87 6.74a2.76 2.76 0 0 1 .61-2.96l2.34-2.33c.55-.54 1.2-.8 1.96-.8s1.4.26 1.94.8.82 1.2.82 1.95c0 .76-.27 1.4-.8 1.95l-2.35 2.33a2.73 2.73 0 0 1-1.93.8c-.35 0-.7-.05-1.03-.18l.93-.92c.5.02.92-.14 1.26-.48l2.32-2.33c.33-.32.5-.7.5-1.17s-.17-.85-.5-1.17c-.3-.32-.7-.48-1.16-.48s-.85.16-1.17.48l-2.35 2.34c-.34.34-.5.76-.48 1.25l-.9.92zm-1.34 2.54c-.76 0-1.4-.28-1.95-.82-.54-.54-.8-1.2-.8-1.94 0-.76.26-1.4.8-1.95l2.34-2.34c.4-.4.87-.65 1.4-.75a2.9 2.9 0 0 1 1.57.13l-.92.93c-.5-.02-.92.14-1.26.48l-2.35 2.35c-.32.32-.48.7-.48 1.17 0 .46.16.85.48 1.16.32.33.7.5 1.17.5.46 0 .85-.17 1.17-.5l2.33-2.33c.34-.34.5-.76.48-1.26l.93-.93a2.77 2.77 0 0 1-.62 2.96l-2.33 2.34c-.54.54-1.2.8-1.95.8zm-14.77.55a2.7 2.7 0 0 1-1.95-.8c-.54-.55-.8-1.2-.8-1.96s.26-1.4.8-1.95l3.9-3.9a3.7 3.7 0 0 1 1.73-1 3.7 3.7 0 0 1 1.98 0c.68.17 1.26.5 1.75 1 .5.5.83 1.08 1 1.74a3.7 3.7 0 0 1 0 1.98c-.17.66-.5 1.24-1 1.74L70 23.13l-.78-.78 1.95-1.95c.54-.54.8-1.2.8-1.95 0-.76-.26-1.4-.8-1.95-.54-.54-1.2-.8-1.95-.8s-1.4.26-1.94.8l-3.9 3.9c-.32.32-.48.7-.48 1.17s.16.85.48 1.17c.32.32.7.5 1.17.5.45 0 .84-.18 1.17-.5l3.1-3.12c.12-.1.17-.23.17-.4 0-.14-.06-.27-.17-.38s-.23-.16-.38-.16c-.16 0-.3.06-.4.16L65.3 21.6l-.78-.8 2.76-2.74c.32-.32.7-.48 1.17-.48.46 0 .84.16 1.16.48.34.33.5.72.5 1.17 0 .45-.16.84-.5 1.17l-3.1 3.12c-.54.54-1.2.8-1.95.8zM7.44 14.5l5.5 4.4-1.1 1.1v4.42h-8.8v-4.4l-1.1-1.1 5.5-4.42zm1.1 9.37V20h-2.2v3.87h2.2zm33.02-3.47c0 2.26-1.8 4.07-4.06 4.07s-4.06-1.8-4.06-4.06c0-2.23 1.8-4.05 4.06-4.05v1.52l3.75-2.17-3.75-2.16v1.25a5.62 5.62 0 1 0 0 11.24 5.63 5.63 0 0 0 5.63-5.63h-1.57z"/></g><path fill="#DDD" d="M210 3h30v4h-30V3zm0 10h30v4h-30v-4zm0 10h30v4h-30v-4zm-.54 4.5l-8.4-8.43c.4-.5.77-1.06 1.08-1.63l.03-.06.4-.8.14-.35.22-.53.12-.4.16-.54.05-.23a11.51 11.51 0 0 0-.55-7.13c0-.02 0-.04-.02-.05l-.2-.46c0-.03-.02-.05-.03-.07l-.23-.47s0-.03-.02-.04A11.67 11.67 0 0 0 189.12.43l-.16.03c-.2.05-.4.1-.58.17l-.35.1-.56.24-.32.13a12.08 12.08 0 0 0-5.55 5.11v.03c-.16.27-.3.55-.42.83l-.13.32-.23.57-.12.35-.17.6a12.63 12.63 0 0 0-.37 2.9 11.74 11.74 0 0 0 14.54 11.4c.03 0 .06 0 .1-.02.2-.06.42-.12.63-.2l.3-.08.57-.23.32-.13c.22-.1.43-.2.65-.32l.2-.1c.57-.3 1.1-.67 1.62-1.07l8.4 8.42a1.38 1.38 0 0 0 1.98 0 1.4 1.4 0 0 0 0-2zm-8.82-15.66c0 1.92-.62 3.7-1.67 5.13a8.68 8.68 0 0 1-7.13 3.65 8.8 8.8 0 0 1 .03-17.58 8.79 8.79 0 0 1 8.77 8.8z"/></svg>