<svg xmlns="http://www.w3.org/2000/svg" viewBox="0 0 220 50"><path fill="#333" d="M142.665 25.385v2.4h-2.4v-2.4h2.4ZM18.993 27.961c-4.95 0-8.993-3.717-8.993-8.993C10 13.718 14.044 10 18.993 10c4.999 0 8.968 3.718 8.968 8.968 0 5.276-3.995 8.993-8.968 8.993Zm0-3.14c3.165 0 5.35-2.286 5.35-5.853s-2.185-5.803-5.35-5.803c-3.19 0-5.376 2.236-5.376 5.803s2.186 5.853 5.376 5.853Zm27.845-9.295h-4.045c-.804-1.482-2.26-2.26-4.12-2.26-3.14 0-5.325 2.235-5.325 5.727 0 3.567 2.21 5.778 5.476 5.778 2.713 0 4.446-1.557 4.974-4.045H37.77V18.04h9.495v3.064c-.702 3.567-3.893 6.833-8.565 6.833-5.1 0-8.968-3.692-8.968-8.943 0-5.25 3.867-8.968 8.942-8.968 3.92 0 7.034 1.985 8.165 5.5h-.001Zm2.999-5.276h3.517v10.853c0 2.411 1.307 3.668 3.542 3.668 2.26 0 3.568-1.257 3.568-3.668V10.25h3.541v10.827c0 4.622-3.315 6.883-7.159 6.883s-7.009-2.261-7.009-6.883V10.25Zm27.743 2.84h-6.657v4.395h5.903v2.79h-5.903v4.647h6.657v2.863H67.406V10.226H77.58v2.864Zm3.198-2.84h3.994l5.577 13.038 5.577-13.037h3.969v17.534h-3.517V16.381L91.68 27.785h-2.663l-4.722-11.404v11.404h-3.517V10.25Zm30.734 17.711c-4.949 0-8.993-3.717-8.993-8.993 0-5.25 4.044-8.968 8.993-8.968 5 0 8.968 3.718 8.968 8.968 0 5.276-3.994 8.993-8.968 8.993Zm0-3.14c3.165 0 5.351-2.286 5.351-5.853s-2.186-5.803-5.35-5.803c-3.19 0-5.376 2.236-5.376 5.803s2.185 5.853 5.375 5.853ZM138.1 10.226v17.56h-3.516l-7.963-12.033v12.032h-3.518V10.226h3.518l7.963 12.058V10.226h3.516ZM148.312 18.843c2.166 0 3.625 1.13 4.096 3.078h-2.37c-.25-.739-.831-1.21-1.742-1.21-1.225 0-2.042.926-2.042 2.622s.817 2.606 2.042 2.606c.911 0 1.476-.408 1.742-1.193h2.37c-.47 1.852-1.93 3.077-4.096 3.077-2.513 0-4.302-1.759-4.302-4.49s1.79-4.49 4.302-4.49Zm9.578 8.98c-2.51 0-4.409-1.759-4.409-4.49 0-2.747 1.96-4.49 4.474-4.49 2.51 0 4.473 1.743 4.473 4.49 0 2.731-2.009 4.49-4.537 4.49h-.001Zm0-1.916c1.164 0 2.279-.847 2.279-2.574 0-1.742-1.084-2.574-2.246-2.574s-2.213.832-2.213 2.574c0 1.727 1.005 2.574 2.18 2.574Zm18.326-3.029c0-1.382-.77-2.103-1.931-2.103-1.177 0-1.946.721-1.946 2.103v4.803h-2.198v-4.803c0-1.382-.77-2.103-1.93-2.103-1.194 0-1.963.721-1.963 2.103v4.803h-2.198v-8.696h2.198v1.052c.55-.723 1.475-1.178 2.558-1.178 1.35 0 2.465.581 3.062 1.664.565-.989 1.711-1.664 2.982-1.664 2.088 0 3.563 1.319 3.563 3.72v5.102h-2.197v-4.803Z"/><g fill="#333"><path d="M10.133 36.303c.252.042.533.062.939.062.084 0 .16 0 .322-.007.063-.336.133-.875.133-1.07 0-.03 0-.071-.007-.127l.924.084q-.048.161-.132.672a48.59 48.59 0 0 0-.07.4c.518-.05.847-.105 1.197-.21l.035.805q-.056.007-.224.035c-.357.07-.917.14-1.149.147a20.999 20.999 0 0 1-.434 1.814c-.203.729-.322 1.078-.785 2.319L10 40.883c.483-.89 1.022-2.522 1.254-3.768-.05.007-.077.007-.091.007h-.407c-.034 0-.105 0-.224-.007-.126-.007-.224-.007-.28-.007-.035 0-.07 0-.133.007l.014-.812Zm3.474 2.717c-.28.35-.364.525-.364.77 0 .357.35.54 1.05.54.512 0 1.184-.112 1.59-.26l.063.862a4.7 4.7 0 0 0-.343.05c-.581.083-.89.11-1.303.11-.623 0-1.071-.09-1.407-.279a1.013 1.013 0 0 1-.497-.862c0-.37.132-.685.518-1.21l.693.28Zm2.08-.917a7.259 7.259 0 0 0-.882-.05 7.55 7.55 0 0 0-1.85.204l-.062-.77c.994-.19 1.33-.225 2.087-.225.189 0 .252 0 .693.008l.014.833ZM18.17 38.411c-.014.042-.02.084-.028.098a4.727 4.727 0 0 0-.056.21c-.273.995-.56 1.716-.896 2.248a2.723 2.723 0 0 0-.75-.462c.35-.47.792-1.611.918-2.354l.812.26Zm3.313-2.214c.301.33.49.596.735 1.03l-.49.26a4.97 4.97 0 0 0-.735-1.045l-.007.274c-.19.035-.358.105-.595.252-.449.28-.694.58-.694.84 0 .078.028.19.063.253.07.14.098.168.518.616.253.28.392.462.484.665.09.21.14.42.14.617 0 .364-.168.728-.448.959-.245.21-.56.309-.953.309-.497 0-.974-.176-1.47-.547.104-.294.14-.449.195-.848.393.364.827.575 1.205.575.322 0 .546-.196.546-.483a.842.842 0 0 0-.112-.393c-.084-.175-.16-.273-.434-.58-.406-.456-.533-.716-.533-1.065 0-.323.134-.631.386-.918.14-.155.217-.224.504-.413l-.09-.014-.14-.015c-.428-.042-.82-.146-1.409-.37-.126-.043-.133-.05-.238-.078l.308-.784c.203.12.49.225.932.344.511.14 1.31.258 1.709.258.02 0 .07 0 .14-.006l-.007.552.49-.245Zm.28 1.822a8.425 8.425 0 0 1 1.142 2.422l-.826.393c-.113-.693-.729-2.129-1.072-2.493l.756-.322Zm.806-.974a5.849 5.849 0 0 0-.715-1.016l.47-.245c.315.322.504.59.728.987l-.483.274ZM25.142 38.37l.133-.155a1.31 1.31 0 0 1 .904-.413c.322 0 .63.16.784.398.14.225.175.477.175 1.282 0 .504.028.645.154.75.077.063.203.098.372.098.37 0 .672-.26.875-.75.126-.314.231-.749.266-1.113.231.238.336.308.77.525-.3 1.45-.987 2.178-2.045 2.178-.539 0-.924-.21-1.1-.61-.076-.181-.118-.433-.118-.777v-.07c.007-.252.007-.42.007-.49 0-.217-.014-.322-.056-.413-.05-.098-.176-.162-.316-.162-.378 0-.77.351-1.113.982a7.968 7.968 0 0 0-.588 1.603l-.904-.294c.098-.203.161-.37.385-.98q1.611-4.476 1.66-4.763l.946.239c-.098.188-.133.265-.343.804-.4 1.023-.708 1.786-.862 2.115l.014.015ZM34.874 37.815a6.434 6.434 0 0 0-.687-.028h-1.884c-.273 0-.448.007-.644.028v-.567a9.249 9.249 0 0 1-1.324.722 2.531 2.531 0 0 0-.413-.715c.736-.294 1.303-.616 1.807-1.036.532-.442.875-.813 1.058-1.156h.868c.308.448.708.854 1.212 1.226.567.42 1.078.693 1.765.93-.203.267-.26.38-.413.778a9.132 9.132 0 0 1-1.345-.742v.56Zm1.092 1.114c-.07.07-.224.245-.308.35l-1.351 1.716c-.176.232-.295.4-.442.623l-.805-.448c.182-.168.35-.343.54-.581l1.148-1.415h-3.152c-.287 0-.574.014-.868.042v-.791c.287.028.553.042.875.042h3.194c.399 0 .588-.007.721-.035l.448.497Zm-1.73-1.814c.176 0 .308 0 .414-.007-.617-.434-.967-.77-1.408-1.344-.441.567-.799.91-1.38 1.337.147.014.224.014.407.014h1.967ZM41.04 37.83c0 .027.008.083.008.167.154.322.224.61.224.988 0 .763-.364 1.422-1.044 1.891-.294.203-.616.35-1.268.574-.195-.433-.266-.539-.497-.79.575-.113.862-.21 1.19-.407.477-.274.757-.63.813-1.023-.203.323-.567.498-1.029.498-.322 0-.575-.078-.813-.252a1.095 1.095 0 0 1-.483-.946c0-.743.582-1.275 1.394-1.275.3 0 .567.077.728.21q-.007-.034-.007-.084c-.007-.014-.007-.406-.007-.595a68.33 68.33 0 0 0-1.968.07q-1.057.077-1.246.105l-.029-.833c.155.014.218.014.344.014.175 0 .287 0 1.19-.036.456-.013.525-.013 1.1-.028l.595-.02q-.007-.665-.042-.848l.883-.007c-.028.217-.028.232-.036.833 1.22-.007 1.766-.02 2.025-.049l.007.806a14.24 14.24 0 0 0-1.177-.035c-.168 0-.294 0-.847.013v.457l-.008.601Zm-1.428.07c-.357 0-.652.251-.652.56 0 .322.246.553.596.553.4 0 .686-.266.686-.63 0-.294-.245-.484-.63-.484ZM47.698 35.735c-.168.126-.196.155-1.065.96-.315.273-.938.763-1.464 1.156-.216.16-.266.223-.266.3 0 .106.014.113.63.582 1.051.791 1.366 1.057 2.207 1.82.077.078.112.106.203.176l-.721.736c-.4-.554-1.338-1.402-2.718-2.452-.462-.365-.588-.546-.588-.868 0-.21.077-.407.231-.575.091-.09.098-.105.616-.497.96-.721 1.891-1.576 2.13-1.954l.805.616Zm-.19 1.065c.302.329.498.596.736 1.03l-.49.259a5.225 5.225 0 0 0-.735-1.044l.49-.245Zm1.086.847a5.115 5.115 0 0 0-.714-1.015l.47-.245c.315.322.51.588.728.987l-.484.273ZM50.18 38.663c0-.218 0-.329.022-.777a5.584 5.584 0 0 1-.49.735 4.392 4.392 0 0 0-.322-.834c.644-.7 1.183-1.855 1.31-2.787l.798.19c-.28.868-.323.994-.575 1.554v3.985c0 .301.007.533.036.812h-.82c.028-.266.042-.476.042-.82v-2.058Zm3.643.358c-.077.44-.19.735-.392 1.07.742.407 1.456.568 2.626.617a3.796 3.796 0 0 0-.301.777c-1.184-.126-1.99-.378-2.76-.868-.406.392-.847.645-1.561.897a3.232 3.232 0 0 0-.435-.659c.645-.175 1.058-.372 1.422-.672a3.228 3.228 0 0 1-.434-.484 3.336 3.336 0 0 0-.217-.259l.609-.322c.084.168.224.343.462.56.126-.23.19-.399.245-.657h-1.029c-.225 0-.392.006-.567.027.02-.203.028-.336.028-.588v-.974c0-.3-.007-.42-.028-.589.21.015.315.022.651.022h1.086l-.007-.504h-1.156c-.28 0-.462.007-.672.034v-.756c.21.029.476.042.756.042h1.072a5.483 5.483 0 0 0-.043-.707h.806q-.021.196-.021.707h1.219c.322 0 .553-.013.791-.042v.756a5.319 5.319 0 0 0-.7-.034h-1.31v.504h1.03c.315 0 .462-.007.658-.022-.014.176-.021.351-.021.61v.904c0 .336.007.469.02.637a6.08 6.08 0 0 0-.679-.027h-1.148Zm-1.576-1.43v.763h.931c.029-.315.029-.37.043-.762h-.974Zm1.702 0a9.476 9.476 0 0 1-.05.763h.996v-.762h-.946ZM57.188 37.038c.189.02.26.02.413.02.68 0 1.61-.055 2.486-.153.316-.035.442-.056.561-.112l.47.603c-.134.09-.281.216-.596.525-.378.364-.98.903-1.198 1.071a1.07 1.07 0 0 1 .427-.084c.267 0 .449.091.582.294.098.154.126.252.154.645.049.552.14.651.602.651.47 0 1.016-.105 1.38-.267l.105.87c-.119.006-.161.013-.616.084-.428.062-.68.084-.98.084-.498 0-.778-.078-.981-.267-.197-.182-.252-.35-.288-.903-.014-.267-.028-.365-.07-.449-.049-.09-.161-.147-.294-.147-.329 0-.644.196-1.212.743-.357.343-.735.75-.987 1.043l-.645-.728q.31-.21 1.625-1.4c.162-.148.288-.267.813-.771.189-.182.462-.442.82-.778-.4.064-.582.091-.91.12q-.099.006-.708.055-.134.015-.365.035c-.259.022-.308.029-.54.057l-.048-.84Zm.869-1.814c.791.245 1.701.372 2.787.392l-.133.784c-1.394-.084-1.94-.168-2.907-.413l.253-.763ZM64.987 38.06c.637-.251.946-.322 1.47-.322 1.198 0 1.969.616 1.969 1.576 0 .665-.33 1.198-.953 1.548-.455.26-1.05.4-1.695.4-.588 0-1.078-.113-1.359-.323a1 1 0 0 1-.42-.805c0-.581.504-1.002 1.205-1.002.49 0 .918.203 1.212.574.14.176.217.33.322.63.581-.216.833-.518.833-1.015 0-.546-.54-.903-1.386-.903-1.023 0-2.045.413-2.886 1.177l-.476-.757c.245-.12.525-.308.987-.658a23.385 23.385 0 0 0 2.094-1.822l.126-.126-.007-.006c-.266.035-.714.063-1.981.119a2.276 2.276 0 0 0-.337.035l-.035-.84c.238.027.441.041.827.041.595 0 1.45-.035 2.129-.084.245-.02.322-.035.434-.09l.434.615c-.119.064-.168.106-.364.288-.35.322-.861.777-1.1.98-.126.106-.63.483-.77.574q-.175.12-.287.183l.014.014Zm.21 1.745c-.252 0-.413.126-.413.322 0 .28.315.441.833.441.133 0 .168 0 .364-.028-.126-.483-.392-.735-.784-.735ZM72.778 38.096c-.034.805-.189 1.386-.49 1.883-.371.617-.882 1.002-1.828 1.38-.175-.357-.266-.476-.567-.77.84-.259 1.366-.63 1.66-1.17.182-.322.287-.777.308-1.323h-1.71c-.475 0-.636.007-.888.035v-.834c.266.042.42.049.903.049h4.097c.477 0 .638-.007.904-.05v.835a6.874 6.874 0 0 0-.89-.035h-1.499Zm-2.808-2.564c.259.042.4.05.904.05h2.689c.504 0 .645-.008.903-.05v.855c-.23-.029-.399-.035-.889-.035H70.86c-.49 0-.658.006-.889.035v-.855ZM81.32 36.47c-.07.106-.098.169-.175.42-.323 1.065-.82 2.011-1.436 2.705-.645.735-1.415 1.281-2.494 1.778-.195-.35-.287-.469-.595-.735.7-.287 1.093-.497 1.534-.826 1.002-.743 1.66-1.703 2.045-2.957l-2.108.036a6.838 6.838 0 0 1-1.639 1.793c-.21-.288-.315-.378-.68-.602.8-.547 1.303-1.107 1.815-2.031.217-.4.329-.673.357-.925l.96.19q-.043.062-.12.216-.02.035-.09.197l-.092.181q-.042.099-.112.225c.091-.007.203-.015.336-.015l1.534-.02c.273 0 .35-.014.512-.07l.448.44ZM82.129 39.524c.266.042.42.05.896.05h4.02c.477 0 .63-.008.897-.05v.939a6.875 6.875 0 0 0-.882-.035H83.01c-.455 0-.637.007-.882.035v-.939Zm.707-3.41c.252.041.414.048.827.048h2.752c.414 0 .574-.007.827-.049v.925a5.99 5.99 0 0 0-.82-.035h-2.766c-.42 0-.589.007-.82.035v-.925ZM89.654 36.926c.295.539.435.876.687 1.66l-.792.252a7.04 7.04 0 0 0-.637-1.695l.742-.217Zm4.02.049c-.041.105-.055.14-.097.357-.203.953-.519 1.723-.967 2.332-.518.708-1.1 1.163-2.136 1.689-.182-.309-.266-.414-.56-.694.49-.19.777-.344 1.19-.644.82-.596 1.29-1.31 1.59-2.431a3.11 3.11 0 0 0 .126-.805l.855.196Zm-2.528-.336c.372.693.504 1.002.68 1.611l-.778.245a7.727 7.727 0 0 0-.637-1.646l.735-.21ZM100.066 36.47c-.07.106-.098.169-.175.42-.323 1.065-.82 2.011-1.436 2.705-.644.735-1.415 1.281-2.494 1.778-.195-.35-.287-.469-.595-.735.7-.287 1.093-.497 1.534-.826 1.002-.743 1.66-1.703 2.045-2.957l-2.108.036a6.838 6.838 0 0 1-1.639 1.793c-.21-.288-.315-.378-.679-.602.798-.547 1.302-1.107 1.814-2.031.217-.4.33-.673.357-.925l.96.19q-.043.062-.12.216-.02.035-.09.197l-.092.181q-.042.099-.112.225c.091-.007.203-.015.336-.015l1.534-.02c.273 0 .35-.014.512-.07l.448.44ZM103.424 35.3a1.68 1.68 0 0 0-.056.219c-.014.09-.02.126-.042.237q-.02.147-.119.673c-.028.154-.028.168-.049.258.203-.013.301-.02.434-.02.463 0 .806.126 1.037.371.238.266.329.603.329 1.24 0 1.204-.203 2.163-.54 2.55-.195.23-.405.315-.777.315-.322 0-.609-.057-1.078-.204.007-.14.014-.238.014-.308 0-.182-.014-.322-.07-.596.378.17.777.274 1.022.274.203 0 .315-.133.42-.477.113-.363.183-1.001.183-1.597 0-.643-.161-.833-.715-.833-.14 0-.245.007-.406.02-.21.855-.273 1.066-.427 1.521-.245.7-.435 1.149-.84 1.968l-.106.21c-.02.042-.02.049-.056.12l-.812-.449c.21-.28.49-.784.728-1.316.301-.687.4-.98.68-1.983-.358.042-1.023.161-1.254.225l-.084-.827c.26 0 1.106-.084 1.492-.14.126-.757.182-1.184.182-1.415v-.133l.91.098Zm2.319.897c.7.82 1.141 1.654 1.442 2.732l-.798.406a6.298 6.298 0 0 0-.56-1.59 4.556 4.556 0 0 0-.806-1.197l.722-.35ZM109.227 36.61c-.105.386-.224 1.037-.315 1.724q-.014.098-.036.203l.015.014c.406-.393 1.275-.665 2.122-.665 1.191 0 1.974.588 1.974 1.484 0 .512-.271 1.03-.72 1.352-.455.329-1.038.476-1.85.476-.601 0-.987-.049-1.786-.245-.006-.434-.02-.574-.104-.903.686.238 1.289.35 1.884.35.986 0 1.674-.414 1.674-1.008 0-.47-.441-.75-1.184-.75-.623 0-1.275.189-1.744.511-.126.091-.168.133-.315.301l-.883-.027c.021-.127.021-.155.056-.421.057-.434.168-1.212.295-2.038.027-.168.034-.252.042-.406l.875.048Zm.09-1.372c.484.266 1.823.665 2.614.778l-.287.805c-1.198-.273-1.934-.505-2.732-.876l.406-.707ZM114.323 39.35c.643.49 1.035.875 1.574 1.54l-.65.609c-.512-.693-.91-1.113-1.52-1.597l.596-.552ZM117.661 36.177c.203.02.365.027.674.027.531 0 .91-.02 1.441-.076q-.021-.057-.076-.183a29.485 29.485 0 0 0-.281-.637l.877-.119c.027.175.098.385.287.847a11.835 11.835 0 0 0 1.89-.42l.07.742-.237.05a22.7 22.7 0 0 1-1.465.294c.113.259.154.35.273.574.604-.126.924-.196.967-.203.398-.098.482-.126.666-.203l.07.764c-.134.02-.28.049-.441.09-.287.07-.52.12-.688.155q-.173.034-.26.056c.366.602.477.749.94 1.28l-.617.442c-.504-.21-.924-.287-1.61-.287-.533 0-.939.07-1.177.196-.195.113-.3.26-.3.427 0 .17.118.33.3.406.224.1.596.155 1.002.155.728 0 1.717-.21 2.158-.455l.125.861q-.133.021-.455.105a6.739 6.739 0 0 1-1.793.239c-.805 0-1.316-.106-1.709-.344a1.128 1.128 0 0 1-.54-.959c0-.379.21-.729.589-.974.365-.231.924-.35 1.633-.35.425 0 .832.049 1.21.147-.11-.105-.246-.302-.539-.785-.742.112-1.19.14-2.71.19-.12.006-.168.006-.288.021l-.027-.764c.203.029.244.029.72.029.737 0 1.317-.042 1.983-.134-.043-.084-.07-.126-.127-.259-.068-.147-.09-.19-.146-.315-.56.063-1.065.09-1.877.098-.295 0-.33.007-.477.014l-.035-.742ZM123.94 37.767q.198-.015.729-.133c.953-.211 1.582-.295 2.164-.295.799 0 1.338.231 1.652.715.176.265.26.56.26.903 0 .932-.658 1.688-1.771 2.038-.434.133-.61.161-1.52.267-.07-.35-.127-.484-.303-.8h.106a6.1 6.1 0 0 0 .994-.105c.547-.104.855-.23 1.17-.475.336-.252.498-.56.498-.946 0-.546-.406-.84-1.148-.84-.485 0-1.024.077-1.842.273-.45.105-.574.14-.813.237l-.176-.84ZM132.013 35.196c.027.469.238 1.478.463 2.193q.455-.17 1.812-.618c.127-.042.162-.055.268-.104l.3.882c-.609.119-1.527.386-2.31.673-1.024.378-1.535.826-1.535 1.33 0 .511.476.73 1.603.73.877 0 1.739-.106 2.264-.289l.076.96c-.154 0-.19.007-.566.049-.758.077-1.149.105-1.639.105-.975 0-1.584-.119-2.031-.385-.387-.23-.61-.665-.61-1.17 0-.469.223-.917.623-1.253.274-.232.497-.371.952-.603a18.35 18.35 0 0 1-.47-1.897c-.07-.337-.075-.35-.11-.456l.91-.147ZM137.745 38.11c-.336 0-.574.014-.764.035v-.498c-.335.197-.46.266-.763.4q-.21-.393-.461-.743c.664-.26 1.232-.567 1.695-.924.23-.183.553-.484.77-.735.146-.162.224-.26.379-.505h.888c.393.532.729.869 1.246 1.24a6.378 6.378 0 0 0 1.717.89c-.252.364-.336.517-.45.804a9.51 9.51 0 0 1-.831-.44v.51a6.95 6.95 0 0 0-.742-.035h-.989v.792h1.135c.363 0 .588-.014.77-.035v.784a7.004 7.004 0 0 0-.77-.035h-1.135v.946h1.82c.372 0 .675-.014.891-.042v.819a6.29 6.29 0 0 0-.882-.049h-4.372a6.15 6.15 0 0 0-.875.049v-.82c.204.029.504.043.897.043h1.736v-.946h-1.029c-.35 0-.588.015-.777.035v-.784c.216.028.427.035.777.035h1.03v-.792h-.91Zm2.719-.708c.146 0 .195 0 .328-.006-.77-.512-1.211-.918-1.723-1.59-.406.601-.91 1.078-1.687 1.59.139.006.203.006.308.006h2.774ZM147.077 35.756c-.117.085-.252.203-.861.77-.356.33-.846.722-1.666 1.345-.217.161-.266.218-.266.295 0 .105.014.12.63.581 1.093.826 1.296 1.001 2.206 1.828.07.07.111.105.203.175l-.72.729c-.184-.252-.436-.519-.913-.96-.496-.462-.726-.652-1.806-1.492-.461-.357-.588-.547-.588-.869 0-.21.078-.398.23-.566.092-.099.1-.106.618-.505.755-.574 1.148-.91 1.617-1.365.316-.316.392-.407.511-.582l.805.616ZM149.063 38.663c0-.218 0-.329.022-.777a5.584 5.584 0 0 1-.49.735 4.426 4.426 0 0 0-.323-.834c.645-.7 1.184-1.855 1.31-2.787l.798.19c-.28.868-.322.994-.574 1.554v3.985c0 .301.007.533.035.812h-.819c.028-.266.041-.476.041-.82v-2.058Zm3.643.358c-.078.44-.19.735-.393 1.07.743.407 1.458.568 2.627.617a3.83 3.83 0 0 0-.302.777c-1.184-.126-1.989-.378-2.758-.868-.406.392-.848.645-1.563.897a3.314 3.314 0 0 0-.433-.659c.644-.175 1.056-.372 1.422-.672a3.21 3.21 0 0 1-.436-.484 3.137 3.137 0 0 0-.217-.259l.61-.322c.084.168.224.343.463.56.125-.23.189-.399.244-.657h-1.03a4.66 4.66 0 0 0-.566.027c.02-.203.027-.336.027-.588v-.974c0-.3-.007-.42-.027-.589.209.015.314.022.65.022h1.086l-.007-.504h-1.155c-.281 0-.463.007-.674.034v-.756c.211.029.477.042.758.042h1.07a5.447 5.447 0 0 0-.04-.707h.804q-.021.196-.021.707h1.218c.323 0 .555-.013.793-.042v.756a5.322 5.322 0 0 0-.7-.034h-1.311v.504h1.031c.314 0 .46-.007.658-.022-.013.176-.021.351-.021.61v.904c0 .336.008.469.021.637a6.09 6.09 0 0 0-.68-.027h-1.148Zm-1.576-1.43v.763h.932c.027-.315.027-.37.04-.762h-.972Zm1.701 0a8.84 8.84 0 0 1-.049.763h.994v-.762h-.945ZM156.071 37.038c.188.02.258.02.412.02.68 0 1.612-.055 2.487-.153.314-.035.441-.056.56-.112l.469.603c-.133.09-.28.216-.596.525-.377.364-.98.903-1.197 1.071a1.07 1.07 0 0 1 .428-.084c.265 0 .447.091.582.294.097.154.125.252.152.645.05.552.14.651.604.651.468 0 1.015-.105 1.379-.267l.105.87c-.12.006-.16.013-.615.084-.428.062-.68.084-.98.084-.499 0-.78-.078-.983-.267-.195-.182-.252-.35-.287-.903-.014-.267-.028-.365-.069-.449-.05-.09-.162-.147-.294-.147-.33 0-.645.196-1.211.743-.358.343-.737.75-.989 1.043l-.644-.728q.308-.21 1.625-1.4c.162-.148.287-.267.812-.771.19-.182.463-.442.82-.778-.4.064-.581.091-.911.12q-.098.006-.708.055-.132.015-.363.035c-.26.022-.308.029-.539.057l-.049-.84Zm.867-1.814c.792.245 1.704.372 2.788.392l-.133.784c-1.393-.084-1.94-.168-2.906-.413l.251-.763ZM164.583 35.238q-.041.133-.111.469c-.035.168-.07.309-.147.616.483-.049.848-.111 1.121-.195l.02.805c-.076.007-.09.007-.223.035-.254.042-.68.09-1.115.126-.203.7-.455 1.366-.77 2.031-.162.344-.224.47-.49.96q-.092.168-.133.252l-.806-.448c.246-.323.441-.638.68-1.121.273-.56.392-.847.658-1.653-.315.007-.358.007-.442.007-.09 0-.133 0-.28-.007l-.37-.007v-.798c.252.048.517.063.945.063.084 0 .203 0 .358-.008.119-.497.195-.917.209-1.218l.896.091Zm3.174 5.673c-.252-.3-.658-.63-1.072-.868.007.062.013.111.013.14 0 .258-.119.56-.3.742-.245.253-.665.392-1.163.392-.923 0-1.527-.462-1.527-1.176 0-.707.623-1.205 1.514-1.205.209 0 .357.014.65.063-.02-.322-.035-.596-.035-.806a3.8 3.8 0 0 1 .057-.707l.812.042c-.07.26-.084.42-.084.707 0 .28.014.56.063.96.503.224.574.26 1.107.645.105.07.133.098.244.188q.057.057.106.099l-.385.784Zm-2.486-1.281c-.456 0-.75.188-.75.482 0 .287.251.456.687.456.475 0 .707-.196.707-.589 0-.07-.014-.238-.014-.238a1.773 1.773 0 0 0-.63-.111Zm2.521-1.94c-.61-.407-1.232-.708-2.018-.981l.42-.68c.826.316 1.352.56 1.975.939l-.377.721ZM169.966 35.806a8.148 8.148 0 0 0-.055 1.064c0 .61.055 1.45.133 1.877.12.729.342 1.177.566 1.177.106 0 .203-.106.287-.302a5.12 5.12 0 0 0 .372-1.268c.246.28.357.386.7.638-.365 1.365-.77 1.933-1.365 1.933-.47 0-.847-.343-1.128-1.016-.288-.7-.413-1.716-.442-3.655-.006-.245-.006-.295-.027-.448h.959Zm3.312.314c.883 1.058 1.373 2.228 1.576 3.769l-.867.329a7.107 7.107 0 0 0-.449-2.025 6.134 6.134 0 0 0-.994-1.722l.734-.35ZM179.046 40.512c.266-.484.433-.897.574-1.429l.791.238a8.153 8.153 0 0 1-.56 1.19h1.058c.344 0 .61-.013.875-.041v.805a7.81 7.81 0 0 0-.875-.042h-4.56c-.342 0-.61.014-.897.042v-.805c.274.028.547.042.897.042h2.697Zm2.549-4.426a7.91 7.91 0 0 0-.883-.042h-4.244c-.336 0-.61.014-.875.042v-.778c.252.035.533.05.883.05h4.216c.371 0 .65-.015.903-.05v.778Zm-5.323 1.218c0-.28-.007-.449-.035-.665.225.028.428.035.785.035h3.131a6.2 6.2 0 0 0 .805-.035 4.423 4.423 0 0 0-.035.651v1.086c0 .294.008.476.035.665a5.684 5.684 0 0 0-.736-.035h-3.243c-.314 0-.503.007-.742.035.028-.21.035-.393.035-.693v-1.044Zm1.311 1.772c.209.358.336.652.482 1.107l-.72.287a6.201 6.201 0 0 0-.471-1.162l.709-.232Zm-.555-.757h3.145v-.987h-3.145v.987ZM183.546 36.652c-.197.4-.33.61-.61.953a2.457 2.457 0 0 0-.603-.532c.45-.476.701-.938.896-1.638.057-.183.079-.302.086-.435l.791.154c-.035.091-.056.154-.119.365a6.346 6.346 0 0 1-.148.44h1.058c.329 0 .499-.007.694-.034v.763a6.768 6.768 0 0 0-.694-.036h-.26q-.013.744-.04 1.1h.42c.3 0 .462-.007.658-.034v.77a4.477 4.477 0 0 0-.68-.035h-.469c-.013.098-.021.133-.043.237.162.289.22.372.366.554.273.35.482.554.91.883-.182.23-.295.434-.428.763-.504-.462-.853-.882-1.086-1.324-.271.715-.601 1.149-1.351 1.772-.155-.28-.293-.427-.58-.63.552-.343.915-.742 1.175-1.268.133-.287.217-.58.287-.987h-.539c-.37 0-.56.007-.763.042v-.785c.203.035.379.042.785.042h.595c.014-.217.028-.588.036-1.1h-.344Zm3.039 4.652h-.777a8.87 8.87 0 0 0 .043-.806v-4.125c0-.28-.016-.512-.043-.743.203.028.343.035.644.035h1.47c.282 0 .45-.007.653-.035a5.4 5.4 0 0 0-.035.743v4.055c0 .322.014.623.041.883h-.791v-.484h-1.205v.477Zm.014-1.177h1.191v-3.762h-1.191v3.762ZM191.386 36.89a9.316 9.316 0 0 0-.496-.013h-.967c-.26 0-.371.007-.512.028v-.693c.16.027.274.034.512.034h.931c.28 0 .358-.007.532-.027v.672Zm-1.828 2.95a5.06 5.06 0 0 0-.028-.596c.16.022.217.022.463.022h.819c.23 0 .33 0 .462-.015-.013.161-.013.21-.013.567v1.016c0 .245.006.371.02.581h-.58v-.23h-.57v.35h-.609a3.91 3.91 0 0 0 .036-.645v-1.05Zm.056-2.578c.133.014.225.021.49.021h.631c.252 0 .358-.007.504-.021v.644a4.814 4.814 0 0 0-.504-.02h-.63c-.252 0-.35.007-.49.02v-.644Zm0 .988c.133.014.225.02.49.02h.631c.258 0 .358-.006.504-.02v.644c-.168-.021-.246-.021-.504-.021h-.63c-.252 0-.35.007-.49.02v-.643Zm.008-3.019c.139.028.272.035.482.035h.65c.225 0 .345-.007.491-.035v.672a3.064 3.064 0 0 0-.49-.028h-.65c-.225 0-.344.008-.483.028v-.672Zm.51 5.358h.574v-.764h-.574v.764Zm3.166-4.875c.252 0 .37-.007.498-.027v.63c-.106-.014-.149-.014-.252-.021a4.674 4.674 0 0 1-.197.805h.617a36.579 36.579 0 0 1-.022-1.302c0-.344-.013-.547-.04-.68h.747c-.035.259-.035.364-.035 1.05 0 .4 0 .42.014.932h.414c.365 0 .54-.007.77-.042v.721a6.598 6.598 0 0 0-.778-.042h-.39c.027.54.054.946.11 1.325.231-.442.364-.786.42-1.066l.604.33c-.056.091-.1.168-.254.51a7.835 7.835 0 0 1-.558 1.045c.146.37.314.658.398.658.063 0 .092-.231.106-.868.209.188.336.28.539.378-.049.469-.098.742-.168.938-.098.252-.246.392-.42.392-.309 0-.639-.321-.904-.875-.301.35-.637.673-1.073 1.009-.152-.245-.293-.407-.482-.54.203-.126.26-.16.379-.245h-1.08v.462h-.658c.029-.182.035-.37.035-.623v-1.87c0-.315-.006-.42-.028-.624.141.022.203.022.455.022h1.184c.203 0 .295-.007.455-.022a6.18 6.18 0 0 0-.021.631v1.61l.007.1v.034c.204-.196.385-.392.567-.63-.152-.54-.238-1.213-.272-2.08h-1.87c-.329 0-.483.006-.708.034v-.7c.19.02.252.02.532.028a4.967 4.967 0 0 0-.16-.805c-.106.007-.133.007-.239.02v-.63c.147.021.26.028.455.028h.336v-.034c0-.287-.006-.407-.035-.568h.75c-.027.168-.035.26-.035.602h.287Zm-1.03 3.397h.792v-.455h-.791v.455Zm0 1.023h.792v-.47h-.791v.47Zm.49-3.033c.098-.301.141-.49.177-.805h-.547c.062.28.076.364.127.805h.244Zm2.48-1.688c.238.35.392.645.554 1.058l-.533.3a4.159 4.159 0 0 0-.512-1.113l.49-.245ZM201.651 41.03c-.308-.343-.793-.7-1.297-.96-.154-.084-.208-.104-.376-.174v.077c0 .441-.127.742-.393.945s-.645.302-1.156.302c-1.022 0-1.612-.4-1.612-1.093 0-.764.694-1.212 1.871-1.212.168 0 .288.007.47.028q0-.084-.009-.168v-.154q-.005-.099-.013-.379c-.336.008-.553.015-.7.015-.427 0-.687-.007-1.267-.049-.092-.008-.162-.008-.268-.008l.016-.756c.3.07.965.12 1.63.12.141 0 .38-.007.575-.015 0-.063 0-.3-.006-.7-.224.006-.338.006-.441.006-.344 0-1.248-.034-1.717-.069-.076-.007-.133-.007-.154-.007h-.112l.006-.778c.358.092 1.08.147 1.885.147.111 0 .35-.006.525-.013-.007-.7-.007-.708-.035-.883h.889c-.033.19-.041.28-.049.854.953-.055 1.563-.132 2.018-.265l.035.777q-.155.007-.553.063c-.617.084-.89.105-1.506.14.006.175.006.26.014.694q.35-.022.994-.092c.441-.056.553-.07.87-.153l.02.77c-.119.007-.294.027-.456.049-.104.014-.42.049-.946.098a27.24 27.24 0 0 1-.474.028q.02.679.027.847c.615.182 1.162.456 1.918.988.12.077.154.104.254.16l-.477.82Zm-3.06-1.422c-.569 0-.912.182-.912.484 0 .259.302.42.799.42.294 0 .511-.084.609-.224.057-.092.084-.238.084-.448v-.168a2.412 2.412 0 0 0-.58-.064ZM202.845 36.064c.154.007.23.007.265.007q.127 0 1.157-.07c.511-.027 1.709-.09 3.578-.182.576-.028.61-.028.722-.055l.05.888q-.079-.006-.147-.006c-.422 0-.94.14-1.387.378-.89.462-1.416 1.163-1.416 1.87 0 .546.344.966.932 1.141.343.106.79.183 1.043.183.007 0 .07 0 .14-.007l-.125.952c-.092-.02-.105-.02-.238-.042-.772-.098-1.213-.224-1.639-.462-.644-.364-1.002-.96-1.002-1.688 0-.595.239-1.184.664-1.646.268-.287.52-.476.975-.707-.568.084-1.002.126-2.361.224-.623.049-.946.09-1.162.14l-.05-.918Zm4.826 1.345c.308.33.496.596.734 1.03l-.49.26a4.673 4.673 0 0 0-.734-1.045l.49-.245Zm1.086.848a5.158 5.158 0 0 0-.715-1.016l.469-.245c.314.322.511.588.728.987l-.482.274ZM211.616 40.315c0 .66-.531 1.192-1.183 1.192a1.187 1.187 0 0 1 0-2.375c.658 0 1.183.532 1.183 1.183Zm-1.82 0c0 .358.287.645.637.645a.641.641 0 0 0 0-1.281.64.64 0 0 0-.637.636Z"/></g></svg>