<svg xmlns="http://www.w3.org/2000/svg" id="レイヤー_1" viewBox="0 0 220 50"><style>.st0{fill:#fff}</style><path d="M23.5 11.1c1.4.8 2.5 1.9 3.2 3.2.8 1.4 1.2 3.1 1.2 4.7 0 1.7-.4 3.3-1.2 4.7-.7 1.4-1.9 2.5-3.2 3.3-1.4.8-2.9 1.2-4.5 1.2s-3.1-.4-4.5-1.2c-1.4-.8-2.5-1.9-3.2-3.3-.8-1.4-1.2-3.1-1.2-4.7 0-1.7.4-3.3 1.2-4.7.7-1.4 1.9-2.5 3.2-3.2 1.4-.8 2.9-1.2 4.5-1.2 1.5 0 3.1.4 4.5 1.2zM16.2 14c-.8.5-1.5 1.2-1.9 2-.5 1-.7 2-.7 3.1s.2 2.1.7 3.1c.4.8 1.1 1.6 1.9 2 .8.5 1.8.8 2.7.8 1 0 1.9-.2 2.8-.7.8-.5 1.5-1.2 1.9-2 .5-1 .7-2 .7-3.1s-.2-2.1-.7-3.1c-.4-.8-1.1-1.6-1.9-2-.8-.5-1.8-.7-2.8-.7-.9-.2-1.9.1-2.7.6zM44.2 11.6c1.4 1.1 2.4 2.6 2.7 4.3h-3.7c-.4-.8-.9-1.5-1.7-1.9-.8-.5-1.8-.7-2.7-.7-1 0-1.9.2-2.7.7s-1.4 1.2-1.8 2c-.5.9-.7 2-.7 3-.1 1.6.4 3.2 1.5 4.4 1.1 1.1 2.6 1.6 4.1 1.6 1.2 0 2.4-.4 3.3-1.1 1-.8 1.6-1.9 1.8-3.2h-6.1v-2.5h9v3.4c-.3 1.2-.8 2.3-1.5 3.3-.8 1-1.7 1.8-2.9 2.4-1.3.6-2.7.9-4.1.9-1.6 0-3.2-.4-4.6-1.1-1.3-.7-2.4-1.9-3.1-3.2-.8-1.5-1.1-3.1-1.1-4.7s.3-3.3 1.1-4.7c.7-1.3 1.8-2.5 3.1-3.2 1.4-.8 3-1.2 4.6-1.1 2.1-.2 4 .3 5.5 1.4zM53.4 10.2v10.5c-.1 1.1.2 2.2.9 3.2.7.7 1.7 1.1 2.7 1 1 .1 2-.3 2.6-1 .7-.9 1-2 .9-3.2V10.2H64v10.5c.1 1.4-.3 2.9-.9 4.2-.6 1.1-1.5 2-2.5 2.5-1.2.6-2.4.9-3.7.8-1.9.1-3.8-.6-5.2-1.9-1.3-1.3-1.9-3.2-1.9-5.6V10.2h3.6zM70.8 13v4.6h6.3v2.7h-6.3v4.8h7.1V28H67.3V10.2H78V13h-7.2zM99.8 10.4v17.7h-3.5V15.8l-4.5 12.3h-3.1l-4.5-12.3v12.3h-3.6V10.4h4.3l5.4 13.3 5.3-13.3h4.2zM116 11.1c1.4.8 2.5 1.9 3.2 3.2.8 1.4 1.2 3.1 1.2 4.7 0 1.7-.4 3.3-1.2 4.7-.7 1.4-1.9 2.5-3.2 3.3-2.8 1.5-6.2 1.5-9 0-1.4-.8-2.5-1.9-3.2-3.3-.8-1.4-1.2-3.1-1.2-4.7 0-1.7.4-3.3 1.2-4.7.7-1.4 1.8-2.5 3.2-3.3 2.7-1.4 6.1-1.4 9 .1zm-7.3 2.9c-.8.5-1.5 1.2-1.9 2-.5 1-.7 2-.7 3.1s.2 2.1.7 3.1c.4.8 1.1 1.5 1.9 2 1.7.9 3.8.9 5.5 0 .8-.5 1.5-1.2 1.9-2 .5-1 .7-2 .7-3.1s-.2-2.1-.7-3.1c-.4-.8-1.1-1.6-1.9-2-1.7-1-3.8-1-5.5 0zM138.2 28.1h-3.6l-8-12.1v12.1H123V10.2h3.6l8 12.2V10.2h3.6v17.9zM142.9 25.8v2.3h-2.4v-2.3h2.4zM151.2 20.2c.8.6 1.3 1.5 1.4 2.5h-2.4c-.1-.4-.3-.8-.7-1.1-.4-.3-.8-.4-1.3-.4-.6 0-1.1.2-1.5.7s-.6 1.2-.6 1.9c-.1.7.1 1.4.6 1.9.4.4.9.7 1.5.7.5 0 .9-.1 1.3-.4.3-.3.6-.7.7-1.1h2.4c-.1 1-.6 1.9-1.4 2.5-.8.6-1.8 1-2.8.9-.8 0-1.6-.2-2.3-.6s-1.2-.9-1.6-1.6c-.4-.7-.6-1.6-.6-2.4s.2-1.7.6-2.4c.4-.7.9-1.2 1.6-1.6.7-.4 1.5-.6 2.3-.6 1 .1 2 .4 2.8 1.1zM160.6 19.8c.7.4 1.2.9 1.6 1.6.4.7.6 1.6.6 2.4s-.2 1.7-.6 2.4c-.4.7-.9 1.2-1.6 1.6-1.5.7-3.2.7-4.6 0-.7-.4-1.2-.9-1.6-1.6-.4-.7-.6-1.6-.6-2.4s.2-1.7.6-2.4c.4-.7.9-1.2 1.6-1.6 1.4-.7 3.1-.7 4.6 0zm-3.9 2.1c-.5.5-.7 1.2-.7 1.9s.2 1.4.7 1.9c.9.9 2.3.9 3.2 0 .5-.5.7-1.2.7-1.9s-.2-1.4-.7-1.9c-.9-.9-2.3-.9-3.2 0 0-.1 0-.1 0 0zM178.1 20.2c.7.8 1 1.8.9 2.8v5.1h-2.2v-4.9c0-.6-.1-1.1-.5-1.6-.4-.4-.9-.6-1.4-.6-.6 0-1.1.2-1.5.6-.4.5-.6 1.1-.6 1.7V28h-2.2v-4.8c0-.6-.1-1.1-.5-1.6-.4-.4-.9-.6-1.4-.6-.6 0-1.1.2-1.5.6-.4.5-.6 1.1-.6 1.7V28h-2.2v-8.7h2.2V21c.2-.6.6-1 1.1-1.3s1.1-.5 1.7-.5c.7 0 1.3.2 1.8.5s1 .9 1.2 1.5c.8-1.7 2.9-2.5 4.7-1.6.4.1.7.4 1 .6z" class="st0"/><g><path d="M10.1 36.3c.3 0 .5.1.9.1h.3c.1-.3.1-.9.1-1.1v-.1l.9.1c0 .2 0 .2-.1.7 0 .2 0 .2-.1.4.5 0 .8-.1 1.2-.2v.8h-1.2c-.1.4-.3 1.2-.4 1.8-.2.7-.3 1.1-.8 2.3l-.9-.3c.5-.9 1-2.5 1.2-3.8h-.5-.6v-.7zm3.5 2.7c-.3.3-.4.5-.4.8 0 .4.3.5 1 .5.5 0 1.2-.1 1.6-.3l.1.9h-.3c-.6.1-.9.1-1.3.1-.6 0-1.1-.1-1.4-.3-.3-.2-.5-.5-.5-.9s.1-.7.5-1.2l.7.4zm2.1-.9h-.9c-.7 0-1.2 0-1.8.2l-.1-.8c1-.2 1.3-.2 2.1-.2h.7v.8zM18.1 38.4c0 .1-.1.2-.1.3-.3 1-.6 1.7-.9 2.2-.3-.2-.4-.3-.7-.5.3-.5.8-1.6.9-2.3l.8.3zm3.3-2.2c.3.3.5.6.7 1l-.5.3c-.2-.4-.4-.7-.7-1v.3c-.2 0-.4.1-.6.3-.4.3-.7.6-.7.8 0 .1 0 .2.1.3s.1.2.5.6c.3.3.4.5.5.7s.1.4.1.6c0 .4-.2.7-.4 1-.2.2-.6.3-.9.3-.5 0-1-.2-1.5-.5.1-.3.1-.4.2-.8.4.4.8.6 1.2.6.3 0 .5-.2.5-.5 0-.1 0-.2-.1-.4s-.2-.3-.4-.6c-.4-.5-.5-.7-.5-1.1 0-.3.1-.6.4-.9.1-.2.2-.2.5-.4h-.2c-.4 0-.8-.1-1.4-.4-.1 0-.1 0-.2-.1l.3-.8c.2.1.5.2.9.3.5.1 1.3.3 1.7.3h.1v.6l.4-.5zm.3 1.8c.5.8.9 1.6 1.1 2.4l-.8.4c-.1-.7-.7-2.1-1.1-2.5l.8-.3zm.8-1c-.2-.4-.4-.7-.7-1l.5-.2c.3.3.5.6.7 1l-.5.2zM25.1 38.3l.1-.2c.2-.2.6-.4.9-.4s.6.2.8.4c.1.2.2.5.2 1.3 0 .5 0 .6.2.7.1.1.2.1.4.1.4 0 .7-.3.9-.7.1-.3.2-.7.3-1.1.2.2.3.3.8.5-.3 1.4-1 2.2-2 2.2-.5 0-.9-.2-1.1-.6-.1-.2-.1-.4-.1-.8v-.1-.5c0-.2 0-.3-.1-.4 0-.1-.2-.2-.3-.2-.4 0-.8.3-1.1 1-.2.4-.5 1.2-.6 1.6l-.9-.3c.1-.2.2-.4.4-1 1.6-4.5 1.6-4.5 1.7-4.7l.9.2c-.1.2-.1.3-.3.8-.6 1.1-1 1.9-1.1 2.2zM34.8 37.8H31.6v-.6c-.4.3-.8.5-1.3.7-.1-.3-.2-.5-.4-.7.7-.3 1.3-.6 1.8-1s.9-.8 1.1-1.2h.9c.3.4.7.9 1.2 1.2.6.4 1.1.7 1.8.9-.2.3-.3.4-.4.8-.6-.3-.8-.4-1.3-.7v.6h-.2zm1.1 1.1l-.3.3-1.3 1.7c-.2.2-.3.4-.4.6l-.9-.4c.2-.2.3-.3.5-.6l1.1-1.4h-4v-.8H35.4l.5.6zm-1.7-1.8h.4c-.6-.4-1-.8-1.4-1.3-.4.6-.8.9-1.4 1.3h2.4zM41 37.8v.2c.2.3.2.6.2 1 0 .8-.4 1.4-1 1.9-.3.2-.6.3-1.3.6-.2-.4-.3-.5-.5-.8.6-.1.9-.2 1.2-.4.5-.3.8-.6.8-1-.2.3-.6.5-1 .5-.3 0-.6-.1-.8-.3-.3-.2-.5-.5-.5-.9 0-.7.6-1.3 1.4-1.3.3 0 .6.1.7.2v-.1-.6c-1 0-1.7 0-2 .1-1.1.1-1.1.1-1.2.1v-.8h3.2v-.8h.9v.8h2v.8h-2v.5l-.1.3zm-1.5 0c-.4 0-.6.3-.6.6s.2.6.6.6c.4 0 .7-.3.7-.6 0-.4-.3-.6-.7-.6zM47.6 35.7c-.2.1-.2.2-1.1 1-.3.3-.9.8-1.5 1.2-.2.2-.3.2-.3.3s0 .1.6.6c1 .8 1.4 1.1 2.2 1.8l.2.2-.7.7c-.4-.6-1.3-1.4-2.7-2.4-.5-.4-.6-.5-.6-.9 0-.2.1-.4.2-.6.1-.1.1-.1.6-.5 1-.7 1.9-1.6 2.1-1.9l1 .5zm-.2 1.1c.3.3.5.6.7 1l-.4.2c-.2-.4-.4-.7-.7-1l.4-.2zm1.1.8c-.2-.4-.4-.7-.7-1l.5-.2c.3.3.5.6.7 1l-.5.2zM50.1 38.6v-.8c-.2.3-.3.4-.5.7-.1-.3-.2-.5-.3-.8.6-.7 1.2-1.8 1.3-2.8l.8.2c-.3.9-.3 1-.6 1.5v4.8H50v-.8l.1-2zm3.6.4c-.1.4-.2.7-.4 1.1.7.4 1.5.6 2.6.6-.1.3-.2.5-.3.8-1.2-.1-2-.4-2.8-.9-.4.4-.8.6-1.6.9-.1-.3-.3-.5-.4-.7.6-.2 1.1-.4 1.4-.7-.2-.2-.3-.3-.4-.5-.1-.1-.1-.2-.2-.3l.6-.3c.1.2.2.3.5.6.1-.2.2-.4.2-.7h-1.6v-1.6-.6H53v-.5h-1.7v-.8H53.2v-.7h.8v.7h2v.8h-2v.5h1.7v2.1h-2v.2zm-1.6-1.5v.8h.9v-.8h-.9zm1.7 0v.8h1v-.8h-1zM57.1 37h.4c.7 0 1.6-.1 2.5-.2.3 0 .4-.1.6-.1l.5.6c-.1.1-.3.2-.6.5-.4.4-1 .9-1.2 1.1.2-.1.3-.1.4-.1.3 0 .4.1.6.3.1.2.1.3.2.6 0 .6.1.6.6.6s1-.1 1.4-.3l.1.9c-.1 0-.2 0-.6.1-.4.1-.7.1-1 .1-.5 0-.8-.1-1-.3s-.3-.3-.3-.9c0-.3 0-.4-.1-.4 0-.1-.2-.1-.3-.1-.3 0-.6.2-1.2.7-.4.3-.7.7-1 1l-.6-.7c.3-.2.3-.2 1.6-1.4.2-.1.3-.3.8-.8.2-.2.5-.4.8-.8-.4.1-.6.1-.9.1-.1 0-.1 0-.7.1h-.4c-.3 0-.3 0-.5.1l-.1-.7zm.8-1.8c.8.2 1.7.4 2.8.4l-.1.8c-1.4-.1-1.9-.2-2.9-.4l.2-.8zM64.9 38c.6-.3.9-.3 1.5-.3 1.2 0 2 .6 2 1.6 0 .7-.3 1.2-.9 1.5-.5.3-1 .4-1.7.4-.6 0-1.1-.1-1.4-.3s-.4-.5-.4-.8c0-.6.5-1 1.2-1 .5 0 .9.2 1.2.6.1.2.2.3.3.6.6-.2.8-.5.8-1s-.5-.9-1.4-.9c-1 0-2 .4-2.9 1.2l-.5-.8c.2-.1.5-.3 1-.7.6-.5 1.6-1.3 2.1-1.8l.1-.1c-.3 0-.7.1-2 .1h-.3v-.8h.8c.6 0 1.4 0 2.1-.1.2 0 .3 0 .4-.1l.4.6c-.1.1-.2.1-.4.3-.3.3-.9.8-1.1 1-.1.1-.6.5-.8.6 0 .1 0 .1-.1.2zm.2 1.7c-.3 0-.4.1-.4.3 0 .3.3.4.8.4h.4c-.2-.4-.4-.7-.8-.7zM72.6 38c0 .8-.2 1.4-.5 1.9-.4.6-.9 1-1.8 1.4-.2-.4-.3-.5-.6-.8.8-.3 1.4-.6 1.7-1.2.2-.3.3-.8.3-1.3h-2.6v-.8H75v.8h-.9-1.5zm-2.8-2.5h4.5v.9h-4.5v-.9zM81.1 36.4c-.1.1-.1.2-.2.4-.3 1.1-.8 2-1.4 2.7s-1.4 1.3-2.5 1.8c-.2-.3-.3-.5-.6-.7.7-.3 1.1-.5 1.5-.8 1-.7 1.7-1.7 2-2.9h-2.1c-.4.7-1 1.3-1.6 1.8-.2-.3-.3-.4-.7-.6.8-.5 1.3-1.1 1.8-2 .2-.4.3-.7.4-.9l1 .2c0 .1 0 .1-.1.2l-.1.2-.1.2c0 .1 0 .1-.1.2h1.8c.3 0 .3 0 .5-.1l.5.3zM82 39.5H87.8v.9H82v-.9zm.7-3.4H87v.9H82.6v-.9h.1zM89.5 36.9c.3.5.4.9.7 1.7l-.8.3c-.2-.7-.3-1.1-.6-1.7l.7-.3zm4 0c0 .1-.1.1-.1.4-.2.9-.5 1.7-1 2.3-.5.7-1.1 1.2-2.1 1.7-.2-.3-.3-.4-.6-.7.5-.2.8-.3 1.2-.6.8-.6 1.3-1.3 1.6-2.4.1-.3.1-.6.1-.8l.9.1zm-2.6-.3c.4.7.5 1 .7 1.6l-.8.2c-.1-.5-.3-1.1-.6-1.6l.7-.2zM99.8 36.4c-.1.1-.1.2-.2.4-.3 1.1-.8 2-1.4 2.7s-1.4 1.3-2.5 1.8c-.2-.3-.3-.5-.6-.7.7-.3 1.1-.5 1.5-.8 1-.7 1.7-1.7 2-2.9h-2.1c-.4.7-1 1.3-1.6 1.8-.2-.3-.3-.4-.7-.6.8-.5 1.3-1.1 1.8-2 .2-.4.3-.7.4-.9l1 .2c0 .1 0 .1-.1.2l-.1.2-.1.2c0 .1 0 .1-.1.2h1.8c.3 0 .3 0 .5-.1l.5.3zM103.2 35.3c0 .1 0 .1-.1.2v.2c0 .1 0 .1-.1.7v.3h.4c.5 0 .8.1 1 .4.2.3.3.6.3 1.2 0 1.2-.2 2.2-.5 2.5-.2.2-.4.3-.8.3-.3 0-.6-.1-1.1-.2v-.3c0-.2 0-.3-.1-.6.4.2.8.3 1 .3s.3-.1.4-.5.2-1 .2-1.6-.2-.8-.7-.8h-.4c-.2.9-.3 1.1-.4 1.5-.2.7-.4 1.1-.8 2 0 .1 0 .1-.1.2l-.1.1-.8-.4c.2-.3.5-.8.7-1.3.3-.7.4-1 .7-2-.4 0-1 .2-1.2.2l-.1-.8c.3 0 1.1-.1 1.5-.1.1-.8.2-1.2.2-1.4v-.1h.9zm2.3.9c.7.8 1.1 1.6 1.4 2.7l-.8.4c-.1-.6-.3-1.1-.6-1.6s-.5-.8-.8-1.2l.8-.3zM109 36.6c-.1.4-.2 1-.3 1.7v.2c.4-.4 1.3-.7 2.1-.7 1.2 0 2 .6 2 1.5 0 .5-.3 1-.7 1.3-.5.3-1 .5-1.8.5-.6 0-1 0-1.8-.2 0-.4 0-.6-.1-.9.7.2 1.3.3 1.9.3 1 0 1.7-.4 1.7-1 0-.5-.4-.7-1.2-.7-.6 0-1.3.2-1.7.5-.1.1-.2.1-.3.3h-.9c0-.1 0-.2.1-.4.1-.4.2-1.2.3-2v-.4h.7zm.1-1.4c.5.3 1.8.7 2.6.8l-.3.8c-1.2-.3-1.9-.5-2.7-.9l.4-.7zM114.1 39.3c.6.5 1 .9 1.6 1.5l-.6.6c-.5-.7-.9-1.1-1.5-1.6l.5-.5zM117.4 36.1h.7c.5 0 .9 0 1.4-.1 0-.1 0-.1-.1-.2l-.3-.6.9-.1c0 .2.1.4.3.8.6-.1 1.4-.3 1.9-.4l.1.7h-.2c-.5.1-1.2.3-1.5.3.1.3.2.3.3.6.6-.1.9-.2 1-.2.4-.1.5-.1.7-.2l.1.8c-.1 0-.3 0-.4.1-.3.1-.5.1-.7.2-.2 0-.2 0-.3.1.4.6.5.7.9 1.3l-.6.4c-.5-.2-.9-.3-1.6-.3-.5 0-.9.1-1.2.2-.2.1-.3.3-.3.4 0 .2.1.3.3.4.2.1.6.2 1 .2.7 0 1.7-.2 2.1-.5l.1.9c-.1 0-.1 0-.5.1-.6.2-1.2.2-1.8.2-.8 0-1.3-.1-1.7-.3-.3-.2-.5-.6-.5-1s.2-.7.6-1c.4-.2.9-.3 1.6-.3.4 0 .8 0 1.2.1-.1-.1-.2-.3-.5-.8-.7.1-1.2.1-2.7.2h-.3v-.8h.7c.7 0 1.3 0 2-.1 0-.1-.1-.1-.1-.3-.1-.1-.1-.2-.1-.3-.6.1-1.1.1-1.9.1h-.5l-.1-.6zM123.7 37.7c.2 0 .2 0 .7-.1.9-.2 1.6-.3 2.2-.3.8 0 1.3.2 1.6.7.2.3.3.6.3.9 0 .9-.7 1.7-1.8 2-.4.1-.6.2-1.5.3-.1-.3-.1-.5-.3-.8h.1c.3 0 .6 0 1-.1.5-.1.9-.2 1.2-.5.3-.3.5-.6.5-.9 0-.5-.4-.8-1.1-.8-.5 0-1 .1-1.8.3-.4.1-.6.1-.8.2l-.3-.9zM131.7 35.2c0 .5.2 1.5.5 2.2.5-.2.5-.2 1.8-.6.1 0 .2-.1.3-.1l.3.9c-.6.1-1.5.4-2.3.7-1 .4-1.5.8-1.5 1.3s.5.7 1.6.7c.9 0 1.7-.1 2.3-.3l.1 1h-.6c-.8.1-1.1.1-1.6.1-1 0-1.6-.1-2-.4-.4-.2-.6-.7-.6-1.2s.2-.9.6-1.2c.3-.2.5-.4.9-.6-.2-.6-.3-1-.5-1.9-.1-.3-.1-.3-.1-.5l.8-.1zM137.4 38.1h-.8v-.5c-.3.2-.5.3-.8.4-.2-.4-.2-.4-.5-.7.7-.3 1.2-.6 1.7-.9.2-.2.6-.5.8-.7.1-.2.2-.3.4-.5h.9c.4.5.7.9 1.2 1.2.6.4 1 .6 1.7.9-.3.4-.3.5-.4.8-.3-.1-.5-.3-.8-.4v.5h-1.7v.8H141v.8H139.1v.9h2.7v.8H135.6v-.8h2.6v-.9h-1.8V39h1.8v-.8l-.8-.1zm2.7-.7h.3c-.8-.5-1.2-.9-1.7-1.6-.4.6-.9 1.1-1.7 1.6H140.1zM146.7 35.7c-.1.1-.3.2-.9.8-.4.3-.8.7-1.7 1.3-.1.2-.1.2-.1.3s0 .1.6.6c1.1.8 1.3 1 2.2 1.8l.2.2-.7.7c-.2-.3-.4-.5-.9-1s-.7-.6-1.8-1.5c-.5-.4-.6-.5-.6-.9 0-.2.1-.4.2-.6.1-.1.1-.1.6-.5.8-.6 1.1-.9 1.6-1.4.3-.3.4-.4.5-.6l.8.8zM148.7 38.6v-.8c-.2.3-.3.4-.5.7-.1-.3-.2-.5-.3-.8.6-.7 1.2-1.8 1.3-2.8l.8.2c-.3.9-.3 1-.6 1.5v4.8h-.8v-2.8h.1zm3.7.4c-.1.4-.2.7-.4 1.1.7.4 1.5.6 2.6.6-.1.3-.2.5-.3.8-1.2-.1-2-.4-2.8-.9-.4.4-.8.6-1.6.9-.1-.3-.3-.5-.4-.7.6-.2 1.1-.4 1.4-.7-.2-.2-.3-.3-.4-.5-.1-.1-.1-.2-.2-.3l.6-.3c.1.2.2.3.5.6.1-.2.2-.4.2-.7H150v-1.6-.6H151.7v-.5h-1.9v-.8H151.7v-.7h.8v.7h2v.8h-2v.5h1.7v2.1h-1.8v.2zm-1.6-1.5v.8h.9v-.8h-.9zm1.7 0v.8h1v-.8h-1zM155.7 37h.4c.7 0 1.6-.1 2.5-.2.3 0 .4-.1.6-.1l.5.6c-.1.1-.3.2-.6.5-.4.4-1 .9-1.2 1.1.2-.1.3-.1.4-.1.3 0 .4.1.6.3.1.2.1.3.2.6 0 .6.1.6.6.6s1-.1 1.4-.3l.1.9c-.1 0-.2 0-.6.1-.4.1-.7.1-1 .1-.5 0-.8-.1-1-.3s-.3-.3-.3-.9c0-.3 0-.4-.1-.4 0-.1-.2-.1-.3-.1-.3 0-.6.2-1.2.7-.4.3-.7.7-1 1l-.6-.7c.3-.2.3-.2 1.6-1.4.2-.1.3-.3.8-.8.2-.2.5-.4.8-.8-.4.1-.6.1-.9.1-.1 0-.1 0-.7.1h-.4c-.3 0-.3 0-.5.1l-.1-.7zm.9-1.8c.8.2 1.7.4 2.8.4l-.1.8c-1.4-.1-1.9-.2-2.9-.4l.2-.8zM164.2 35.2c0 .1 0 .1-.1.5 0 .2-.1.3-.1.6.5 0 .8-.1 1.1-.2v.8h-.2c-.3 0-.7.1-1.1.1-.2.7-.5 1.4-.8 2-.2.3-.2.5-.5 1-.1.2-.1.2-.1.3l-.8-.4c.2-.3.4-.6.7-1.1.3-.6.4-.8.7-1.6h-1.1v-.8c.3 0 .5.1.9.1h.4c.1-.5.2-.9.2-1.2l.8-.1zm3.2 5.6c-.3-.3-.7-.6-1.1-.9v.1c0 .3-.1.6-.3.7-.2.3-.7.4-1.2.4-.9 0-1.5-.5-1.5-1.2s.6-1.2 1.5-1.2c.2 0 .4 0 .6.1V38c0-.3 0-.5.1-.7h.8c-.1.3-.1.4-.1.7s0 .6.1 1c.5.2.6.3 1.1.6l.2.2.1.1-.3.9zm-2.5-1.2c-.5 0-.7.2-.7.5s.3.5.7.5c.5 0 .7-.2.7-.6v-.2c-.3-.2-.5-.2-.7-.2zm2.5-2c-.6-.4-1.2-.7-2-1l.4-.7c.8.3 1.3.6 2 .9l-.4.8zM169.6 35.8c0 .3-.1.6-.1 1.1 0 .6.1 1.4.1 1.9.1.7.3 1.2.6 1.2.1 0 .2-.1.3-.3.2-.4.3-.8.4-1.3.2.3.4.4.7.6-.4 1.4-.8 1.9-1.4 1.9-.5 0-.8-.3-1.1-1s-.4-1.7-.4-3.6v-.4h.9v-.1zm3.3.3c.9 1.1 1.4 2.2 1.6 3.8l-.9.3c0-.7-.2-1.4-.4-2s-.6-1.2-1-1.7l.7-.4zM178.6 40.5c.3-.5.4-.9.6-1.4l.8.2c-.2.5-.4.9-.6 1.2h2v.8H175.1v-.8h3.5zm2.6-4.5H175.2v-.8H181.2v.8zm-5.3 1.3v-.7h4.7V39H176v-1.7h-.1zm1.3 1.7c.2.4.3.6.5 1.1l-.7.3c-.1-.4-.3-.7-.5-1.2l.7-.2zm-.6-.7h3.1v-1h-3.1v1zM183.1 36.6c-.2.4-.3.6-.6.9-.2-.2-.3-.4-.6-.5.4-.5.7-.9.9-1.6.1-.2.1-.3.1-.4l.8.2c0 .1-.1.2-.1.4 0 .1-.1.3-.1.4h1.8v.8h-1v1.1h1.1v.8h-1.2v.2c.2.3.2.4.4.6.3.3.5.6.9.9-.2.2-.3.4-.4.8-.5-.5-.9-.9-1.1-1.3-.3.7-.6 1.1-1.3 1.8-.2-.3-.3-.4-.6-.6.6-.3.9-.7 1.2-1.3.1-.3.2-.6.3-1h-1.3V38h1.4v-1.1h-.6v-.3zm3.1 4.6h-.8V36.3v-.7h2.7V41.2h-.8v-.5h-1.2l.1.5zm0-1.1h1.2v-3.7h-1.2v3.7zM191 36.8h-2v-.7h1.9v.7h.1zm-1.9 3v-.6h1.8v2.2h-.6v-.2h-.6v.3h-.6V39.8zm.1-2.6h1.6v.6h-1.6v-.6zm0 1h1.6v.6h-1.6v-.6zm0-3h1.6v.7h-1.6v-.7zm.5 5.3h.6v-.8h-.6v.8zm3.2-4.8h.5v.6h-.3c-.1.3-.1.5-.2.8h.6v-1.3-.7h.7V37H195.4v.7H194.2c0 .5.1.9.1 1.3.2-.4.4-.8.4-1.1l.6.3c-.1.1-.1.2-.3.5-.2.4-.4.7-.6 1 .1.4.3.7.4.7.1 0 .1-.2.1-.9.2.2.3.3.5.4 0 .5-.1.7-.2.9-.1.3-.2.4-.4.4-.3 0-.6-.3-.9-.9-.3.3-.6.7-1.1 1-.2-.2-.3-.4-.5-.5.2-.1.3-.2.4-.2h-1.1v.5h-.7v-2.5-.6h2.2V40.3l.6-.6c-.2-.5-.2-1.2-.3-2.1H190.8V37h.5c0-.3-.1-.5-.2-.8h-.2v-.6h.8V35h.7v.6l.5.1zm-1.1 3.4h.8v-.5h-.8v.5zm0 1h.8v-.5h-.8v.5zm.5-3c.1-.3.1-.5.2-.8h-.5c.1.3.1.4.1.8h.2zm2.5-1.7c.2.3.4.6.6 1.1l-.5.3c-.1-.5-.3-.7-.5-1.1l.4-.3zM201.2 41c-.3-.3-.8-.7-1.3-1l-.4-.2v.1c0 .4-.1.7-.4.9-.3.2-.6.3-1.2.3-1 0-1.6-.4-1.6-1.1 0-.8.7-1.2 1.9-1.2h.5v-.2-.2-.4h-2.3v-.8c.3.1 1 .1 1.6.1h.6v-.7h-.4c-.3 0-1.2 0-1.7-.1H196.2v-.8c.4.1 1.1.1 1.9.1h.5v-.9h.9v.9c.9-.1 1.6-.1 2-.3v.8c-.2 0-.2 0-.6.1-.6.1-.9.1-1.5.1v.7c.3 0 .3 0 1-.1.4-.1.6-.1.9-.2v.8h-.5c-.1 0-.4 0-.9.1h-.5v.8c.6.2 1.2.5 1.9 1 .1.1.2.1.3.2l-.4 1.2zm-3.1-1.4c-.6 0-.9.2-.9.5s.3.4.8.4c.3 0 .5-.1.6-.2.1-.1.1-.2.1-.4v-.2c-.2-.1-.4-.1-.6-.1zM202.4 36h.3c.1 0 .1 0 1.2-.1.5 0 1.7-.1 3.6-.2.6 0 .6 0 .7-.1v.9h-.1c-.4 0-.9.1-1.4.4-.9.5-1.4 1.2-1.4 1.9 0 .5.3 1 .9 1.1.3.1.8.2 1 .2h.1l-.1.9h-.2c-.8-.1-1.2-.2-1.6-.5-.6-.4-1-1-1-1.7 0-.6.2-1.2.7-1.6.3-.3.5-.5 1-.7-.6.1-1 .1-2.4.2-.6 0-.9.1-1.2.1l-.1-.8zm4.8 1.4c.3.3.5.6.7 1l-.5.3c-.2-.4-.4-.7-.7-1l.5-.3zm1.1.8c-.2-.4-.4-.7-.7-1l.5-.2c.3.3.5.6.7 1l-.5.2zM211.1 40.3c0 .7-.5 1.2-1.2 1.2-.6 0-1.2-.5-1.2-1.2 0-.6.5-1.2 1.2-1.2s1.2.5 1.2 1.2zm-1.8 0c0 .4.3.6.6.6s.6-.3.6-.6-.3-.6-.6-.6c-.3-.1-.6.2-.6.6z" class="st0"/></g></svg>