<?xml version="1.0" encoding="utf-8"?>
<!-- Generator: Adobe Illustrator 23.0.4, SVG Export Plug-In . SVG Version: 6.00 Build 0)  -->
<svg version="1.1" id="レイヤー_1" xmlns="http://www.w3.org/2000/svg" xmlns:xlink="http://www.w3.org/1999/xlink" x="0px"
	 y="0px" viewBox="0 0 220 50" style="enable-background:new 0 0 220 50;" xml:space="preserve">
<style type="text/css">
	.st0{fill:#333333;}
</style>
<title>アートボード 1</title>
<g>
	<g>
		<path class="st0" d="M23.5,11.1c1.4,0.8,2.5,1.9,3.2,3.2c0.8,1.4,1.2,3.1,1.2,4.7c0,1.7-0.4,3.3-1.2,4.7c-0.7,1.4-1.9,2.5-3.2,3.3
			c-1.4,0.8-2.9,1.2-4.5,1.2c-1.6,0-3.1-0.4-4.5-1.2c-1.4-0.8-2.5-1.9-3.2-3.3c-0.8-1.4-1.2-3.1-1.2-4.7c0-1.7,0.4-3.3,1.2-4.7
			c0.7-1.4,1.9-2.5,3.2-3.2c1.4-0.8,2.9-1.2,4.5-1.2C20.5,9.9,22.1,10.3,23.5,11.1z M16.2,14c-0.8,0.5-1.5,1.2-1.9,2
			c-0.5,1-0.7,2-0.7,3.1c0,1.1,0.2,2.1,0.7,3.1c0.4,0.8,1.1,1.6,1.9,2C17,24.7,18,25,18.9,25c1,0,1.9-0.2,2.8-0.7
			c0.8-0.5,1.5-1.2,1.9-2c0.5-1,0.7-2,0.7-3.1c0-1.1-0.2-2.1-0.7-3.1c-0.4-0.8-1.1-1.6-1.9-2c-0.8-0.5-1.8-0.7-2.8-0.7
			C18,13.2,17,13.5,16.2,14z"/>
		<path class="st0" d="M44.2,11.6c1.4,1.1,2.4,2.6,2.7,4.3h-3.7c-0.4-0.8-0.9-1.5-1.7-1.9c-0.8-0.5-1.8-0.7-2.7-0.7
			c-1,0-1.9,0.2-2.7,0.7c-0.8,0.5-1.4,1.2-1.8,2c-0.5,0.9-0.7,2-0.7,3c-0.1,1.6,0.4,3.2,1.5,4.4c1.1,1.1,2.6,1.6,4.1,1.6
			c1.2,0,2.4-0.4,3.3-1.1c1-0.8,1.6-1.9,1.8-3.2h-6.1v-2.5h9v3.4c-0.3,1.2-0.8,2.3-1.5,3.3c-0.8,1-1.7,1.8-2.9,2.4
			c-1.3,0.6-2.7,0.9-4.1,0.9c-1.6,0-3.2-0.4-4.6-1.1c-1.3-0.7-2.4-1.9-3.1-3.2c-0.8-1.5-1.1-3.1-1.1-4.7c0-1.6,0.3-3.3,1.1-4.7
			c0.7-1.3,1.8-2.5,3.1-3.2c1.4-0.8,3-1.2,4.6-1.1C40.8,10,42.7,10.5,44.2,11.6z"/>
		<path class="st0" d="M53.4,10.2v10.5c-0.1,1.1,0.2,2.2,0.9,3.2c0.7,0.7,1.7,1.1,2.7,1c1,0.1,2-0.3,2.6-1c0.7-0.9,1-2,0.9-3.2V10.2
			h3.5v10.5c0.1,1.4-0.3,2.9-0.9,4.2c-0.6,1.1-1.5,2-2.5,2.5c-1.2,0.6-2.4,0.9-3.7,0.8c-1.9,0.1-3.8-0.6-5.2-1.9
			c-1.3-1.3-1.9-3.2-1.9-5.6V10.2H53.4z"/>
		<path class="st0" d="M70.8,13v4.6h6.3v2.7h-6.3v4.8h7.1v2.9H67.3V10.2h10.7V13H70.8z"/>
		<path class="st0" d="M99.8,10.4v17.7h-3.5V15.8l-4.5,12.3h-3.1l-4.5-12.3v12.3h-3.6V10.4h4.3l5.4,13.3l5.3-13.3H99.8z"/>
		<path class="st0" d="M116,11.1c1.4,0.8,2.5,1.9,3.2,3.2c0.8,1.4,1.2,3.1,1.2,4.7c0,1.7-0.4,3.3-1.2,4.7c-0.7,1.4-1.9,2.5-3.2,3.3
			c-2.8,1.5-6.2,1.5-9,0c-1.4-0.8-2.5-1.9-3.2-3.3c-0.8-1.4-1.2-3.1-1.2-4.7c0-1.7,0.4-3.3,1.2-4.7c0.7-1.4,1.8-2.5,3.2-3.3
			C109.7,9.6,113.1,9.6,116,11.1L116,11.1z M108.7,14c-0.8,0.5-1.5,1.2-1.9,2c-0.5,1-0.7,2-0.7,3.1c0,1.1,0.2,2.1,0.7,3.1
			c0.4,0.8,1.1,1.5,1.9,2c1.7,0.9,3.8,0.9,5.5,0c0.8-0.5,1.5-1.2,1.9-2c0.5-1,0.7-2,0.7-3.1c0-1.1-0.2-2.1-0.7-3.1
			c-0.4-0.8-1.1-1.6-1.9-2C112.5,13,110.4,13,108.7,14L108.7,14z"/>
		<path class="st0" d="M138.2,28.1h-3.6l-8-12.1v12.1H123V10.2h3.6l8,12.2V10.2h3.6V28.1z"/>
		<path class="st0" d="M142.9,25.8v2.3h-2.4v-2.3H142.9z"/>
		<path class="st0" d="M151.2,20.2c0.8,0.6,1.3,1.5,1.4,2.5h-2.4c-0.1-0.4-0.3-0.8-0.7-1.1c-0.4-0.3-0.8-0.4-1.3-0.4
			c-0.6,0-1.1,0.2-1.5,0.7c-0.4,0.5-0.6,1.2-0.6,1.9c-0.1,0.7,0.1,1.4,0.6,1.9c0.4,0.4,0.9,0.7,1.5,0.7c0.5,0,0.9-0.1,1.3-0.4
			c0.3-0.3,0.6-0.7,0.7-1.1h2.4c-0.1,1-0.6,1.9-1.4,2.5c-0.8,0.6-1.8,1-2.8,0.9c-0.8,0-1.6-0.2-2.3-0.6c-0.7-0.4-1.2-0.9-1.6-1.6
			c-0.4-0.7-0.6-1.6-0.6-2.4c0-0.8,0.2-1.7,0.6-2.4c0.4-0.7,0.9-1.2,1.6-1.6c0.7-0.4,1.5-0.6,2.3-0.6
			C149.4,19.2,150.4,19.5,151.2,20.2z"/>
		<path class="st0" d="M160.6,19.8c0.7,0.4,1.2,0.9,1.6,1.6c0.4,0.7,0.6,1.6,0.6,2.4c0,0.8-0.2,1.7-0.6,2.4
			c-0.4,0.7-0.9,1.2-1.6,1.6c-1.5,0.7-3.2,0.7-4.6,0c-0.7-0.4-1.2-0.9-1.6-1.6c-0.4-0.7-0.6-1.6-0.6-2.4c0-0.8,0.2-1.7,0.6-2.4
			c0.4-0.7,0.9-1.2,1.6-1.6C157.4,19.1,159.1,19.1,160.6,19.8z M156.7,21.9c-0.5,0.5-0.7,1.2-0.7,1.9c0,0.7,0.2,1.4,0.7,1.9
			c0.9,0.9,2.3,0.9,3.2,0c0,0,0,0,0,0c0.5-0.5,0.7-1.2,0.7-1.9c0-0.7-0.2-1.4-0.7-1.9C159,21,157.6,21,156.7,21.9
			C156.7,21.8,156.7,21.8,156.7,21.9z"/>
		<path class="st0" d="M178.1,20.2c0.7,0.8,1,1.8,0.9,2.8v5.1h-2.2v-4.9c0-0.6-0.1-1.1-0.5-1.6c-0.4-0.4-0.9-0.6-1.4-0.6
			c-0.6,0-1.1,0.2-1.5,0.6c-0.4,0.5-0.6,1.1-0.6,1.7v4.7h-2.2v-4.8c0-0.6-0.1-1.1-0.5-1.6c-0.4-0.4-0.9-0.6-1.4-0.6
			c-0.6,0-1.1,0.2-1.5,0.6c-0.4,0.5-0.6,1.1-0.6,1.7v4.7h-2.2v-8.7h2.2V21c0.2-0.6,0.6-1,1.1-1.3c0.5-0.3,1.1-0.5,1.7-0.5
			c0.7,0,1.3,0.2,1.8,0.5c0.5,0.3,1,0.9,1.2,1.5c0.8-1.7,2.9-2.5,4.7-1.6C177.5,19.7,177.8,20,178.1,20.2L178.1,20.2z"/>
	</g>
	<g>
		<path class="st0" d="M10.1,36.3c0.3,0,0.5,0.1,0.9,0.1c0.1,0,0.2,0,0.3,0c0.1-0.3,0.1-0.9,0.1-1.1c0,0,0-0.1,0-0.1l0.9,0.1
			c0,0.2,0,0.2-0.1,0.7c0,0.2,0,0.2-0.1,0.4c0.5,0,0.8-0.1,1.2-0.2l0,0.8c-0.1,0-0.1,0-0.2,0C12.9,37,12.3,37,12.1,37
			c-0.1,0.4-0.3,1.2-0.4,1.8c-0.2,0.7-0.3,1.1-0.8,2.3L10,40.8c0.5-0.9,1-2.5,1.2-3.8c0,0-0.1,0-0.1,0h-0.4c0,0-0.1,0-0.2,0
			c-0.1,0-0.2,0-0.3,0c0,0-0.1,0-0.1,0L10.1,36.3z M13.6,39c-0.3,0.3-0.4,0.5-0.4,0.8c0,0.4,0.3,0.5,1,0.5c0.5,0,1.2-0.1,1.6-0.3
			l0.1,0.9c-0.1,0-0.2,0-0.3,0C15,41,14.7,41,14.3,41c-0.6,0-1.1-0.1-1.4-0.3c-0.3-0.2-0.5-0.5-0.5-0.9c0-0.4,0.1-0.7,0.5-1.2
			L13.6,39z M15.7,38.1c-0.3,0-0.5,0-0.9,0c-0.7,0-1.2,0-1.8,0.2l-0.1-0.8c1-0.2,1.3-0.2,2.1-0.2c0.2,0,0.3,0,0.7,0L15.7,38.1z"/>
		<path class="st0" d="M18.1,38.4C18.1,38.4,18.1,38.4,18.1,38.4c0,0.1-0.1,0.2-0.1,0.3c-0.3,1-0.6,1.7-0.9,2.2
			c-0.3-0.2-0.4-0.3-0.7-0.5c0.3-0.5,0.8-1.6,0.9-2.3L18.1,38.4z M21.4,36.2c0.3,0.3,0.5,0.6,0.7,1l-0.5,0.3c-0.2-0.4-0.4-0.7-0.7-1
			l0,0.3c-0.2,0-0.4,0.1-0.6,0.3c-0.4,0.3-0.7,0.6-0.7,0.8c0,0.1,0,0.2,0.1,0.3c0.1,0.1,0.1,0.2,0.5,0.6c0.3,0.3,0.4,0.5,0.5,0.7
			c0.1,0.2,0.1,0.4,0.1,0.6c0,0.4-0.2,0.7-0.4,1c-0.2,0.2-0.6,0.3-0.9,0.3c-0.5,0-1-0.2-1.5-0.5c0.1-0.3,0.1-0.4,0.2-0.8
			c0.4,0.4,0.8,0.6,1.2,0.6c0.3,0,0.5-0.2,0.5-0.5c0-0.1,0-0.2-0.1-0.4c-0.1-0.2-0.2-0.3-0.4-0.6c-0.4-0.5-0.5-0.7-0.5-1.1
			c0-0.3,0.1-0.6,0.4-0.9c0.1-0.2,0.2-0.2,0.5-0.4l-0.1,0l-0.1,0c-0.4,0-0.8-0.1-1.4-0.4c-0.1,0-0.1,0-0.2-0.1l0.3-0.8
			c0.2,0.1,0.5,0.2,0.9,0.3c0.5,0.1,1.3,0.3,1.7,0.3c0,0,0.1,0,0.1,0l0,0.6L21.4,36.2z M21.7,38c0.5,0.8,0.9,1.6,1.1,2.4L22,40.8
			c-0.1-0.7-0.7-2.1-1.1-2.5L21.7,38z M22.5,37c-0.2-0.4-0.4-0.7-0.7-1l0.5-0.2c0.3,0.3,0.5,0.6,0.7,1L22.5,37z"/>
		<path class="st0" d="M25.1,38.3c0,0,0,0,0.1-0.2c0.2-0.2,0.6-0.4,0.9-0.4c0.3,0,0.6,0.2,0.8,0.4c0.1,0.2,0.2,0.5,0.2,1.3
			c0,0.5,0,0.6,0.2,0.7c0.1,0.1,0.2,0.1,0.4,0.1c0.4,0,0.7-0.3,0.9-0.7c0.1-0.3,0.2-0.7,0.3-1.1c0.2,0.2,0.3,0.3,0.8,0.5
			c-0.3,1.4-1,2.2-2,2.2c-0.5,0-0.9-0.2-1.1-0.6c-0.1-0.2-0.1-0.4-0.1-0.8c0,0,0,0,0-0.1c0-0.3,0-0.4,0-0.5c0-0.2,0-0.3-0.1-0.4
			c0-0.1-0.2-0.2-0.3-0.2c-0.4,0-0.8,0.3-1.1,1c-0.2,0.4-0.5,1.2-0.6,1.6l-0.9-0.3c0.1-0.2,0.2-0.4,0.4-1c1.6-4.5,1.6-4.5,1.7-4.7
			l0.9,0.2c-0.1,0.2-0.1,0.3-0.3,0.8C25.6,37.2,25.2,38,25.1,38.3L25.1,38.3z"/>
		<path class="st0" d="M34.8,37.8c-0.2,0-0.4,0-0.7,0h-1.9c-0.3,0-0.4,0-0.6,0v-0.6c-0.4,0.3-0.8,0.5-1.3,0.7
			c-0.1-0.3-0.2-0.5-0.4-0.7c0.7-0.3,1.3-0.6,1.8-1c0.5-0.4,0.9-0.8,1.1-1.2h0.9c0.3,0.4,0.7,0.9,1.2,1.2c0.6,0.4,1.1,0.7,1.8,0.9
			c-0.2,0.3-0.3,0.4-0.4,0.8c-0.6-0.3-0.8-0.4-1.3-0.7V37.8z M35.9,38.9c-0.1,0.1-0.2,0.2-0.3,0.3l-1.3,1.7
			c-0.2,0.2-0.3,0.4-0.4,0.6L33,41.1c0.2-0.2,0.3-0.3,0.5-0.6l1.1-1.4h-3.1c-0.3,0-0.6,0-0.9,0v-0.8c0.3,0,0.6,0,0.9,0h3.2
			c0.4,0,0.6,0,0.7,0L35.9,38.9z M34.2,37.1c0.2,0,0.3,0,0.4,0c-0.6-0.4-1-0.8-1.4-1.3c-0.4,0.6-0.8,0.9-1.4,1.3c0.1,0,0.2,0,0.4,0
			H34.2z"/>
		<path class="st0" d="M41,37.8c0,0,0,0.1,0,0.2c0.2,0.3,0.2,0.6,0.2,1c0,0.8-0.4,1.4-1,1.9c-0.3,0.2-0.6,0.3-1.3,0.6
			c-0.2-0.4-0.3-0.5-0.5-0.8c0.6-0.1,0.9-0.2,1.2-0.4c0.5-0.3,0.8-0.6,0.8-1c-0.2,0.3-0.6,0.5-1,0.5c-0.3,0-0.6-0.1-0.8-0.3
			c-0.3-0.2-0.5-0.5-0.5-0.9c0-0.7,0.6-1.3,1.4-1.3c0.3,0,0.6,0.1,0.7,0.2c0,0,0,0,0-0.1c0,0,0-0.4,0-0.6c-1,0-1.7,0-2,0.1
			c-1.1,0.1-1.1,0.1-1.2,0.1l0-0.8c0.2,0,0.2,0,0.3,0c0.2,0,0.3,0,1.2,0c0.5,0,0.5,0,1.1,0c0.2,0,0.2,0,0.6,0c0-0.7,0-0.7,0-0.8
			l0.9,0c0,0.2,0,0.2,0,0.8c1.2,0,1.8,0,2,0l0,0.8c-0.3,0-0.6,0-1.2,0c-0.2,0-0.3,0-0.8,0v0.5L41,37.8z M39.5,37.8
			c-0.4,0-0.6,0.3-0.6,0.6c0,0.3,0.2,0.6,0.6,0.6c0.4,0,0.7-0.3,0.7-0.6C40.2,38,39.9,37.8,39.5,37.8z"/>
		<path class="st0" d="M47.6,35.7c-0.2,0.1-0.2,0.2-1.1,1c-0.3,0.3-0.9,0.8-1.5,1.2c-0.2,0.2-0.3,0.2-0.3,0.3c0,0.1,0,0.1,0.6,0.6
			c1,0.8,1.4,1.1,2.2,1.8c0.1,0.1,0.1,0.1,0.2,0.2l-0.7,0.7c-0.4-0.6-1.3-1.4-2.7-2.4c-0.5-0.4-0.6-0.5-0.6-0.9
			c0-0.2,0.1-0.4,0.2-0.6c0.1-0.1,0.1-0.1,0.6-0.5c1-0.7,1.9-1.6,2.1-1.9L47.6,35.7z M47.4,36.8c0.3,0.3,0.5,0.6,0.7,1L47.7,38
			c-0.2-0.4-0.4-0.7-0.7-1L47.4,36.8z M48.5,37.6c-0.2-0.4-0.4-0.7-0.7-1l0.5-0.2c0.3,0.3,0.5,0.6,0.7,1L48.5,37.6z"/>
		<path class="st0" d="M50.1,38.6c0-0.2,0-0.3,0-0.8c-0.2,0.3-0.3,0.4-0.5,0.7c-0.1-0.3-0.2-0.5-0.3-0.8c0.6-0.7,1.2-1.8,1.3-2.8
			l0.8,0.2c-0.3,0.9-0.3,1-0.6,1.5v4c0,0.3,0,0.5,0,0.8H50c0-0.3,0-0.5,0-0.8V38.6z M53.7,39c-0.1,0.4-0.2,0.7-0.4,1.1
			c0.7,0.4,1.5,0.6,2.6,0.6c-0.1,0.3-0.2,0.5-0.3,0.8c-1.2-0.1-2-0.4-2.8-0.9c-0.4,0.4-0.8,0.6-1.6,0.9c-0.1-0.3-0.3-0.5-0.4-0.7
			c0.6-0.2,1.1-0.4,1.4-0.7c-0.2-0.2-0.3-0.3-0.4-0.5c-0.1-0.1-0.1-0.2-0.2-0.3l0.6-0.3c0.1,0.2,0.2,0.3,0.5,0.6
			c0.1-0.2,0.2-0.4,0.2-0.7h-1c-0.2,0-0.4,0-0.6,0c0-0.2,0-0.3,0-0.6v-1c0-0.3,0-0.4,0-0.6c0.2,0,0.3,0,0.6,0h1.1l0-0.5H52
			c-0.3,0-0.5,0-0.7,0v-0.8c0.2,0,0.5,0,0.8,0h1.1c0-0.4,0-0.5,0-0.7h0.8c0,0.2,0,0.2,0,0.7h1.2c0.3,0,0.6,0,0.8,0v0.8
			c-0.2,0-0.4,0-0.7,0h-1.3c0,0.1,0,0.2,0,0.2v0.3h1c0.3,0,0.5,0,0.7,0c0,0.2,0,0.3,0,0.6v0.9c0,0.3,0,0.5,0,0.6c-0.2,0-0.4,0-0.7,0
			H53.7z M52.1,37.5v0.8h0.9c0-0.3,0-0.4,0-0.8H52.1z M53.8,37.5c0,0.4,0,0.5,0,0.8h1v-0.8H53.8z"/>
		<path class="st0" d="M57.1,37c0.2,0,0.3,0,0.4,0c0.7,0,1.6-0.1,2.5-0.2c0.3,0,0.4-0.1,0.6-0.1l0.5,0.6c-0.1,0.1-0.3,0.2-0.6,0.5
			c-0.4,0.4-1,0.9-1.2,1.1c0.2-0.1,0.3-0.1,0.4-0.1c0.3,0,0.4,0.1,0.6,0.3c0.1,0.2,0.1,0.3,0.2,0.6c0,0.6,0.1,0.6,0.6,0.6
			c0.5,0,1-0.1,1.4-0.3l0.1,0.9c-0.1,0-0.2,0-0.6,0.1c-0.4,0.1-0.7,0.1-1,0.1c-0.5,0-0.8-0.1-1-0.3c-0.2-0.2-0.3-0.3-0.3-0.9
			c0-0.3,0-0.4-0.1-0.4c0-0.1-0.2-0.1-0.3-0.1c-0.3,0-0.6,0.2-1.2,0.7c-0.4,0.3-0.7,0.7-1,1l-0.6-0.7c0.3-0.2,0.3-0.2,1.6-1.4
			c0.2-0.1,0.3-0.3,0.8-0.8c0.2-0.2,0.5-0.4,0.8-0.8c-0.4,0.1-0.6,0.1-0.9,0.1c-0.1,0-0.1,0-0.7,0.1c-0.1,0-0.1,0-0.4,0
			c-0.3,0-0.3,0-0.5,0.1L57.1,37z M57.9,35.2c0.8,0.2,1.7,0.4,2.8,0.4l-0.1,0.8c-1.4-0.1-1.9-0.2-2.9-0.4L57.9,35.2z"/>
		<path class="st0" d="M64.9,38c0.6-0.3,0.9-0.3,1.5-0.3c1.2,0,2,0.6,2,1.6c0,0.7-0.3,1.2-0.9,1.5c-0.5,0.3-1,0.4-1.7,0.4
			c-0.6,0-1.1-0.1-1.4-0.3c-0.3-0.2-0.4-0.5-0.4-0.8c0-0.6,0.5-1,1.2-1c0.5,0,0.9,0.2,1.2,0.6c0.1,0.2,0.2,0.3,0.3,0.6
			c0.6-0.2,0.8-0.5,0.8-1c0-0.5-0.5-0.9-1.4-0.9c-1,0-2,0.4-2.9,1.2l-0.5-0.8c0.2-0.1,0.5-0.3,1-0.7c0.6-0.5,1.6-1.3,2.1-1.8
			c0,0,0.1-0.1,0.1-0.1l0,0c-0.3,0-0.7,0.1-2,0.1c-0.2,0-0.2,0-0.3,0l0-0.8c0.2,0,0.4,0,0.8,0c0.6,0,1.4,0,2.1-0.1
			c0.2,0,0.3,0,0.4-0.1l0.4,0.6c-0.1,0.1-0.2,0.1-0.4,0.3c-0.3,0.3-0.9,0.8-1.1,1c-0.1,0.1-0.6,0.5-0.8,0.6C65,37.9,65,37.9,64.9,38
			L64.9,38z M65.1,39.7c-0.3,0-0.4,0.1-0.4,0.3c0,0.3,0.3,0.4,0.8,0.4c0.1,0,0.2,0,0.4,0C65.7,40,65.5,39.7,65.1,39.7z"/>
		<path class="st0" d="M72.6,38c0,0.8-0.2,1.4-0.5,1.9c-0.4,0.6-0.9,1-1.8,1.4c-0.2-0.4-0.3-0.5-0.6-0.8c0.8-0.3,1.4-0.6,1.7-1.2
			c0.2-0.3,0.3-0.8,0.3-1.3H70c-0.5,0-0.6,0-0.9,0v-0.8c0.3,0,0.4,0,0.9,0h4.1c0.5,0,0.6,0,0.9,0v0.8c-0.3,0-0.4,0-0.9,0H72.6z
			 M69.8,35.5c0.3,0,0.4,0,0.9,0h2.7c0.5,0,0.6,0,0.9,0v0.9c-0.2,0-0.4,0-0.9,0h-2.7c-0.5,0-0.7,0-0.9,0V35.5z"/>
		<path class="st0" d="M81.1,36.4c-0.1,0.1-0.1,0.2-0.2,0.4c-0.3,1.1-0.8,2-1.4,2.7c-0.6,0.7-1.4,1.3-2.5,1.8
			c-0.2-0.3-0.3-0.5-0.6-0.7c0.7-0.3,1.1-0.5,1.5-0.8c1-0.7,1.7-1.7,2-2.9l-2.1,0c-0.4,0.7-1,1.3-1.6,1.8c-0.2-0.3-0.3-0.4-0.7-0.6
			c0.8-0.5,1.3-1.1,1.8-2c0.2-0.4,0.3-0.7,0.4-0.9l1,0.2c0,0.1,0,0.1-0.1,0.2c0,0,0,0-0.1,0.2c0,0,0,0-0.1,0.2c0,0.1,0,0.1-0.1,0.2
			c0.1,0,0.2,0,0.3,0l1.5,0c0.3,0,0.3,0,0.5-0.1L81.1,36.4z"/>
		<path class="st0" d="M82,39.5c0.3,0,0.4,0,0.9,0h4c0.5,0,0.6,0,0.9,0v0.9c-0.2,0-0.4,0-0.9,0h-4c-0.5,0-0.6,0-0.9,0V39.5z
			 M82.7,36.1c0.3,0,0.4,0,0.8,0h2.7c0.4,0,0.6,0,0.8,0V37c-0.2,0-0.4,0-0.8,0h-2.8c-0.4,0-0.6,0-0.8,0V36.1z"/>
		<path class="st0" d="M89.5,36.9c0.3,0.5,0.4,0.9,0.7,1.7l-0.8,0.3c-0.2-0.7-0.3-1.1-0.6-1.7L89.5,36.9z M93.5,36.9
			c0,0.1-0.1,0.1-0.1,0.4c-0.2,0.9-0.5,1.7-1,2.3c-0.5,0.7-1.1,1.2-2.1,1.7c-0.2-0.3-0.3-0.4-0.6-0.7c0.5-0.2,0.8-0.3,1.2-0.6
			c0.8-0.6,1.3-1.3,1.6-2.4c0.1-0.3,0.1-0.6,0.1-0.8L93.5,36.9z M90.9,36.6c0.4,0.7,0.5,1,0.7,1.6l-0.8,0.2
			c-0.1-0.5-0.3-1.1-0.6-1.6L90.9,36.6z"/>
		<path class="st0" d="M99.8,36.4c-0.1,0.1-0.1,0.2-0.2,0.4c-0.3,1.1-0.8,2-1.4,2.7c-0.6,0.7-1.4,1.3-2.5,1.8
			c-0.2-0.3-0.3-0.5-0.6-0.7c0.7-0.3,1.1-0.5,1.5-0.8c1-0.7,1.7-1.7,2-2.9l-2.1,0c-0.4,0.7-1,1.3-1.6,1.8c-0.2-0.3-0.3-0.4-0.7-0.6
			c0.8-0.5,1.3-1.1,1.8-2c0.2-0.4,0.3-0.7,0.4-0.9l1,0.2c0,0.1,0,0.1-0.1,0.2c0,0,0,0-0.1,0.2c0,0,0,0-0.1,0.2c0,0.1,0,0.1-0.1,0.2
			c0.1,0,0.2,0,0.3,0l1.5,0c0.3,0,0.3,0,0.5-0.1L99.8,36.4z"/>
		<path class="st0" d="M103.2,35.3c0,0.1,0,0.1-0.1,0.2c0,0.1,0,0.1,0,0.2c0,0.1,0,0.1-0.1,0.7c0,0.2,0,0.2,0,0.3c0.2,0,0.3,0,0.4,0
			c0.5,0,0.8,0.1,1,0.4c0.2,0.3,0.3,0.6,0.3,1.2c0,1.2-0.2,2.2-0.5,2.5c-0.2,0.2-0.4,0.3-0.8,0.3c-0.3,0-0.6-0.1-1.1-0.2
			c0-0.1,0-0.2,0-0.3c0-0.2,0-0.3-0.1-0.6c0.4,0.2,0.8,0.3,1,0.3c0.2,0,0.3-0.1,0.4-0.5c0.1-0.4,0.2-1,0.2-1.6
			c0-0.6-0.2-0.8-0.7-0.8c-0.1,0-0.2,0-0.4,0c-0.2,0.9-0.3,1.1-0.4,1.5c-0.2,0.7-0.4,1.1-0.8,2c0,0.1,0,0.1-0.1,0.2c0,0,0,0-0.1,0.1
			l-0.8-0.4c0.2-0.3,0.5-0.8,0.7-1.3c0.3-0.7,0.4-1,0.7-2c-0.4,0-1,0.2-1.2,0.2l-0.1-0.8c0.3,0,1.1-0.1,1.5-0.1
			c0.1-0.8,0.2-1.2,0.2-1.4c0,0,0-0.1,0-0.1L103.2,35.3z M105.5,36.2c0.7,0.8,1.1,1.6,1.4,2.7l-0.8,0.4c-0.1-0.6-0.3-1.1-0.6-1.6
			c-0.3-0.5-0.5-0.8-0.8-1.2L105.5,36.2z"/>
		<path class="st0" d="M109,36.6c-0.1,0.4-0.2,1-0.3,1.7c0,0.1,0,0.1,0,0.2l0,0c0.4-0.4,1.3-0.7,2.1-0.7c1.2,0,2,0.6,2,1.5
			c0,0.5-0.3,1-0.7,1.3c-0.5,0.3-1,0.5-1.8,0.5c-0.6,0-1,0-1.8-0.2c0-0.4,0-0.6-0.1-0.9c0.7,0.2,1.3,0.3,1.9,0.3c1,0,1.7-0.4,1.7-1
			c0-0.5-0.4-0.7-1.2-0.7c-0.6,0-1.3,0.2-1.7,0.5c-0.1,0.1-0.2,0.1-0.3,0.3l-0.9,0c0-0.1,0-0.2,0.1-0.4c0.1-0.4,0.2-1.2,0.3-2
			c0-0.2,0-0.3,0-0.4L109,36.6z M109.1,35.2c0.5,0.3,1.8,0.7,2.6,0.8l-0.3,0.8c-1.2-0.3-1.9-0.5-2.7-0.9L109.1,35.2z"/>
		<path class="st0" d="M114.1,39.3c0.6,0.5,1,0.9,1.6,1.5l-0.6,0.6c-0.5-0.7-0.9-1.1-1.5-1.6L114.1,39.3z"/>
		<path class="st0" d="M117.4,36.1c0.2,0,0.4,0,0.7,0c0.5,0,0.9,0,1.4-0.1c0-0.1,0-0.1-0.1-0.2c-0.2-0.4-0.3-0.6-0.3-0.6l0.9-0.1
			c0,0.2,0.1,0.4,0.3,0.8c0.6-0.1,1.4-0.3,1.9-0.4l0.1,0.7c-0.1,0-0.1,0-0.2,0c-0.5,0.1-1.2,0.3-1.5,0.3c0.1,0.3,0.2,0.3,0.3,0.6
			c0.6-0.1,0.9-0.2,1-0.2c0.4-0.1,0.5-0.1,0.7-0.2l0.1,0.8c-0.1,0-0.3,0-0.4,0.1c-0.3,0.1-0.5,0.1-0.7,0.2c-0.2,0-0.2,0-0.3,0.1
			c0.4,0.6,0.5,0.7,0.9,1.3l-0.6,0.4c-0.5-0.2-0.9-0.3-1.6-0.3c-0.5,0-0.9,0.1-1.2,0.2c-0.2,0.1-0.3,0.3-0.3,0.4
			c0,0.2,0.1,0.3,0.3,0.4c0.2,0.1,0.6,0.2,1,0.2c0.7,0,1.7-0.2,2.1-0.5l0.1,0.9c-0.1,0-0.1,0-0.5,0.1c-0.6,0.2-1.2,0.2-1.8,0.2
			c-0.8,0-1.3-0.1-1.7-0.3c-0.3-0.2-0.5-0.6-0.5-1c0-0.4,0.2-0.7,0.6-1c0.4-0.2,0.9-0.3,1.6-0.3c0.4,0,0.8,0,1.2,0.1
			c-0.1-0.1-0.2-0.3-0.5-0.8c-0.7,0.1-1.2,0.1-2.7,0.2c-0.1,0-0.2,0-0.3,0l0-0.8c0.2,0,0.2,0,0.7,0c0.7,0,1.3,0,2-0.1
			c0-0.1-0.1-0.1-0.1-0.3c-0.1-0.1-0.1-0.2-0.1-0.3c-0.6,0.1-1.1,0.1-1.9,0.1c-0.3,0-0.3,0-0.5,0L117.4,36.1z"/>
		<path class="st0" d="M123.7,37.7c0.2,0,0.2,0,0.7-0.1c0.9-0.2,1.6-0.3,2.2-0.3c0.8,0,1.3,0.2,1.6,0.7c0.2,0.3,0.3,0.6,0.3,0.9
			c0,0.9-0.7,1.7-1.8,2c-0.4,0.1-0.6,0.2-1.5,0.3c-0.1-0.3-0.1-0.5-0.3-0.8c0,0,0.1,0,0.1,0c0.3,0,0.6,0,1-0.1
			c0.5-0.1,0.9-0.2,1.2-0.5c0.3-0.3,0.5-0.6,0.5-0.9c0-0.5-0.4-0.8-1.1-0.8c-0.5,0-1,0.1-1.8,0.3c-0.4,0.1-0.6,0.1-0.8,0.2
			L123.7,37.7z"/>
		<path class="st0" d="M131.7,35.2c0,0.5,0.2,1.5,0.5,2.2c0.5-0.2,0.5-0.2,1.8-0.6c0.1,0,0.2-0.1,0.3-0.1l0.3,0.9
			c-0.6,0.1-1.5,0.4-2.3,0.7c-1,0.4-1.5,0.8-1.5,1.3c0,0.5,0.5,0.7,1.6,0.7c0.9,0,1.7-0.1,2.3-0.3l0.1,1c-0.2,0-0.2,0-0.6,0
			c-0.8,0.1-1.1,0.1-1.6,0.1c-1,0-1.6-0.1-2-0.4c-0.4-0.2-0.6-0.7-0.6-1.2c0-0.5,0.2-0.9,0.6-1.2c0.3-0.2,0.5-0.4,0.9-0.6
			c-0.2-0.6-0.3-1-0.5-1.9c-0.1-0.3-0.1-0.3-0.1-0.5L131.7,35.2z"/>
		<path class="st0" d="M137.4,38.1c-0.3,0-0.6,0-0.8,0v-0.5c-0.3,0.2-0.5,0.3-0.8,0.4c-0.2-0.4-0.2-0.4-0.5-0.7
			c0.7-0.3,1.2-0.6,1.7-0.9c0.2-0.2,0.6-0.5,0.8-0.7c0.1-0.2,0.2-0.3,0.4-0.5h0.9c0.4,0.5,0.7,0.9,1.2,1.2c0.6,0.4,1,0.6,1.7,0.9
			c-0.3,0.4-0.3,0.5-0.4,0.8c-0.3-0.1-0.5-0.3-0.8-0.4v0.5c-0.2,0-0.4,0-0.7,0h-1v0.8h1.1c0.4,0,0.6,0,0.8,0v0.8c-0.2,0-0.4,0-0.8,0
			h-1.1v0.9h1.8c0.4,0,0.7,0,0.9,0v0.8c-0.2,0-0.5,0-0.9,0h-4.4c-0.4,0-0.6,0-0.9,0v-0.8c0.2,0,0.5,0,0.9,0h1.7v-0.9h-1
			c-0.3,0-0.6,0-0.8,0v-0.8c0.2,0,0.4,0,0.8,0h1v-0.8H137.4z M140.1,37.4c0.1,0,0.2,0,0.3,0c-0.8-0.5-1.2-0.9-1.7-1.6
			c-0.4,0.6-0.9,1.1-1.7,1.6c0.1,0,0.2,0,0.3,0H140.1z"/>
		<path class="st0" d="M146.7,35.7c-0.1,0.1-0.3,0.2-0.9,0.8c-0.4,0.3-0.8,0.7-1.7,1.3C144,38,144,38,144,38.1c0,0.1,0,0.1,0.6,0.6
			c1.1,0.8,1.3,1,2.2,1.8c0.1,0.1,0.1,0.1,0.2,0.2l-0.7,0.7c-0.2-0.3-0.4-0.5-0.9-1c-0.5-0.5-0.7-0.6-1.8-1.5
			c-0.5-0.4-0.6-0.5-0.6-0.9c0-0.2,0.1-0.4,0.2-0.6c0.1-0.1,0.1-0.1,0.6-0.5c0.8-0.6,1.1-0.9,1.6-1.4c0.3-0.3,0.4-0.4,0.5-0.6
			L146.7,35.7z"/>
		<path class="st0" d="M148.7,38.6c0-0.2,0-0.3,0-0.8c-0.2,0.3-0.3,0.4-0.5,0.7c-0.1-0.3-0.2-0.5-0.3-0.8c0.6-0.7,1.2-1.8,1.3-2.8
			l0.8,0.2c-0.3,0.9-0.3,1-0.6,1.5v4c0,0.3,0,0.5,0,0.8h-0.8c0-0.3,0-0.5,0-0.8V38.6z M152.4,39c-0.1,0.4-0.2,0.7-0.4,1.1
			c0.7,0.4,1.5,0.6,2.6,0.6c-0.1,0.3-0.2,0.5-0.3,0.8c-1.2-0.1-2-0.4-2.8-0.9c-0.4,0.4-0.8,0.6-1.6,0.9c-0.1-0.3-0.3-0.5-0.4-0.7
			c0.6-0.2,1.1-0.4,1.4-0.7c-0.2-0.2-0.3-0.3-0.4-0.5c-0.1-0.1-0.1-0.2-0.2-0.3l0.6-0.3c0.1,0.2,0.2,0.3,0.5,0.6
			c0.1-0.2,0.2-0.4,0.2-0.7h-1c-0.2,0-0.4,0-0.6,0c0-0.2,0-0.3,0-0.6v-1c0-0.3,0-0.4,0-0.6c0.2,0,0.3,0,0.6,0h1.1l0-0.5h-1.2
			c-0.3,0-0.5,0-0.7,0v-0.8c0.2,0,0.5,0,0.8,0h1.1c0-0.4,0-0.5,0-0.7h0.8c0,0.2,0,0.2,0,0.7h1.2c0.3,0,0.6,0,0.8,0v0.8
			c-0.2,0-0.4,0-0.7,0h-1.3c0,0.1,0,0.2,0,0.2v0.3h1c0.3,0,0.5,0,0.7,0c0,0.2,0,0.3,0,0.6v0.9c0,0.3,0,0.5,0,0.6c-0.2,0-0.4,0-0.7,0
			H152.4z M150.8,37.5v0.8h0.9c0-0.3,0-0.4,0-0.8H150.8z M152.5,37.5c0,0.4,0,0.5,0,0.8h1v-0.8H152.5z"/>
		<path class="st0" d="M155.7,37c0.2,0,0.3,0,0.4,0c0.7,0,1.6-0.1,2.5-0.2c0.3,0,0.4-0.1,0.6-0.1l0.5,0.6c-0.1,0.1-0.3,0.2-0.6,0.5
			c-0.4,0.4-1,0.9-1.2,1.1c0.2-0.1,0.3-0.1,0.4-0.1c0.3,0,0.4,0.1,0.6,0.3c0.1,0.2,0.1,0.3,0.2,0.6c0,0.6,0.1,0.6,0.6,0.6
			c0.5,0,1-0.1,1.4-0.3l0.1,0.9c-0.1,0-0.2,0-0.6,0.1c-0.4,0.1-0.7,0.1-1,0.1c-0.5,0-0.8-0.1-1-0.3c-0.2-0.2-0.3-0.3-0.3-0.9
			c0-0.3,0-0.4-0.1-0.4c0-0.1-0.2-0.1-0.3-0.1c-0.3,0-0.6,0.2-1.2,0.7c-0.4,0.3-0.7,0.7-1,1l-0.6-0.7c0.3-0.2,0.3-0.2,1.6-1.4
			c0.2-0.1,0.3-0.3,0.8-0.8c0.2-0.2,0.5-0.4,0.8-0.8c-0.4,0.1-0.6,0.1-0.9,0.1c-0.1,0-0.1,0-0.7,0.1c-0.1,0-0.1,0-0.4,0
			c-0.3,0-0.3,0-0.5,0.1L155.7,37z M156.6,35.2c0.8,0.2,1.7,0.4,2.8,0.4l-0.1,0.8c-1.4-0.1-1.9-0.2-2.9-0.4L156.6,35.2z"/>
		<path class="st0" d="M164.2,35.2c0,0.1,0,0.1-0.1,0.5c0,0.2-0.1,0.3-0.1,0.6c0.5,0,0.8-0.1,1.1-0.2l0,0.8c-0.1,0-0.1,0-0.2,0
			c-0.3,0-0.7,0.1-1.1,0.1c-0.2,0.7-0.5,1.4-0.8,2c-0.2,0.3-0.2,0.5-0.5,1c-0.1,0.2-0.1,0.2-0.1,0.3l-0.8-0.4
			c0.2-0.3,0.4-0.6,0.7-1.1c0.3-0.6,0.4-0.8,0.7-1.6c-0.3,0-0.4,0-0.4,0c-0.1,0-0.1,0-0.3,0l-0.4,0v-0.8c0.3,0,0.5,0.1,0.9,0.1
			c0.1,0,0.2,0,0.4,0c0.1-0.5,0.2-0.9,0.2-1.2L164.2,35.2z M167.4,40.8c-0.3-0.3-0.7-0.6-1.1-0.9c0,0.1,0,0.1,0,0.1
			c0,0.3-0.1,0.6-0.3,0.7c-0.2,0.3-0.7,0.4-1.2,0.4c-0.9,0-1.5-0.5-1.5-1.2c0-0.7,0.6-1.2,1.5-1.2c0.2,0,0.4,0,0.6,0.1
			c0-0.3,0-0.6,0-0.8c0-0.3,0-0.5,0.1-0.7l0.8,0c-0.1,0.3-0.1,0.4-0.1,0.7c0,0.3,0,0.6,0.1,1c0.5,0.2,0.6,0.3,1.1,0.6
			c0.1,0.1,0.1,0.1,0.2,0.2c0.1,0.1,0.1,0.1,0.1,0.1L167.4,40.8z M164.9,39.6c-0.5,0-0.7,0.2-0.7,0.5c0,0.3,0.3,0.5,0.7,0.5
			c0.5,0,0.7-0.2,0.7-0.6c0-0.1,0-0.2,0-0.2C165.3,39.6,165.1,39.6,164.9,39.6z M167.4,37.6c-0.6-0.4-1.2-0.7-2-1l0.4-0.7
			c0.8,0.3,1.3,0.6,2,0.9L167.4,37.6z"/>
		<path class="st0" d="M169.6,35.8c0,0.3-0.1,0.6-0.1,1.1c0,0.6,0.1,1.4,0.1,1.9c0.1,0.7,0.3,1.2,0.6,1.2c0.1,0,0.2-0.1,0.3-0.3
			c0.2-0.4,0.3-0.8,0.4-1.3c0.2,0.3,0.4,0.4,0.7,0.6c-0.4,1.4-0.8,1.9-1.4,1.9c-0.5,0-0.8-0.3-1.1-1c-0.3-0.7-0.4-1.7-0.4-3.6
			c0-0.2,0-0.3,0-0.4H169.6z M172.9,36.1c0.9,1.1,1.4,2.2,1.6,3.8l-0.9,0.3c0-0.7-0.2-1.4-0.4-2c-0.2-0.6-0.6-1.2-1-1.7L172.9,36.1z
			"/>
		<path class="st0" d="M178.6,40.5c0.3-0.5,0.4-0.9,0.6-1.4l0.8,0.2c-0.2,0.5-0.4,0.9-0.6,1.2h1.1c0.3,0,0.6,0,0.9,0v0.8
			c-0.3,0-0.5,0-0.9,0H176c-0.3,0-0.6,0-0.9,0v-0.8c0.3,0,0.5,0,0.9,0H178.6z M181.2,36c-0.3,0-0.5,0-0.9,0h-4.2c-0.3,0-0.6,0-0.9,0
			v-0.8c0.3,0,0.5,0,0.9,0h4.2c0.4,0,0.6,0,0.9,0V36z M175.9,37.3c0-0.3,0-0.4,0-0.7c0.2,0,0.4,0,0.8,0h3.1c0.4,0,0.6,0,0.8,0
			c0,0.2,0,0.4,0,0.6v1.1c0,0.3,0,0.5,0,0.7c-0.2,0-0.4,0-0.7,0h-3.2c-0.3,0-0.5,0-0.7,0c0-0.2,0-0.4,0-0.7V37.3z M177.2,39
			c0.2,0.4,0.3,0.6,0.5,1.1l-0.7,0.3c-0.1-0.4-0.3-0.7-0.5-1.2L177.2,39z M176.6,38.3h3.1v-1h-3.1V38.3z"/>
		<path class="st0" d="M183.1,36.6c-0.2,0.4-0.3,0.6-0.6,0.9c-0.2-0.2-0.3-0.4-0.6-0.5c0.4-0.5,0.7-0.9,0.9-1.6
			c0.1-0.2,0.1-0.3,0.1-0.4l0.8,0.2c0,0.1-0.1,0.2-0.1,0.4c0,0.1-0.1,0.3-0.1,0.4h1.1c0.3,0,0.5,0,0.7,0v0.8c-0.2,0-0.4,0-0.7,0
			h-0.3c0,0.7,0,0.7,0,1.1h0.4c0.3,0,0.5,0,0.7,0v0.8c-0.2,0-0.4,0-0.7,0h-0.5c0,0.1,0,0.1,0,0.2c0.2,0.3,0.2,0.4,0.4,0.6
			c0.3,0.3,0.5,0.6,0.9,0.9c-0.2,0.2-0.3,0.4-0.4,0.8c-0.5-0.5-0.9-0.9-1.1-1.3c-0.3,0.7-0.6,1.1-1.3,1.8c-0.2-0.3-0.3-0.4-0.6-0.6
			c0.6-0.3,0.9-0.7,1.2-1.3c0.1-0.3,0.2-0.6,0.3-1h-0.5c-0.4,0-0.6,0-0.8,0v-0.8c0.2,0,0.4,0,0.8,0h0.6c0-0.2,0-0.6,0-1.1H183.1z
			 M186.2,41.2h-0.8c0-0.2,0-0.5,0-0.8v-4.1c0-0.3,0-0.5,0-0.7c0.2,0,0.3,0,0.6,0h1.5c0.3,0,0.4,0,0.6,0c0,0.2,0,0.4,0,0.7v4
			c0,0.3,0,0.6,0,0.9h-0.8v-0.5h-1.2V41.2z M186.2,40.1h1.2v-3.7h-1.2V40.1z"/>
		<path class="st0" d="M191,36.8c-0.1,0-0.3,0-0.5,0h-1c-0.3,0-0.4,0-0.5,0v-0.7c0.2,0,0.3,0,0.5,0h0.9c0.3,0,0.4,0,0.5,0V36.8z
			 M189.1,39.8c0-0.2,0-0.4,0-0.6c0.2,0,0.2,0,0.5,0h0.8c0.2,0,0.3,0,0.5,0c0,0.2,0,0.2,0,0.6v1c0,0.2,0,0.4,0,0.6h-0.6v-0.2h-0.6
			v0.3h-0.6c0-0.2,0-0.4,0-0.6V39.8z M189.2,37.2c0.1,0,0.2,0,0.5,0h0.6c0.3,0,0.4,0,0.5,0v0.6c-0.2,0-0.3,0-0.5,0h-0.6
			c-0.3,0-0.3,0-0.5,0V37.2z M189.2,38.2c0.1,0,0.2,0,0.5,0h0.6c0.3,0,0.4,0,0.5,0v0.6c-0.2,0-0.2,0-0.5,0h-0.6c-0.3,0-0.3,0-0.5,0
			V38.2z M189.2,35.2c0.1,0,0.3,0,0.5,0h0.6c0.2,0,0.3,0,0.5,0v0.7c-0.1,0-0.3,0-0.5,0h-0.6c-0.2,0-0.3,0-0.5,0V35.2z M189.7,40.5
			h0.6v-0.8h-0.6V40.5z M192.9,35.7c0.3,0,0.4,0,0.5,0v0.6c-0.1,0-0.1,0-0.3,0c-0.1,0.3-0.1,0.5-0.2,0.8h0.6c0-0.4,0-0.8,0-1.3
			c0-0.3,0-0.5,0-0.7h0.7c0,0.3,0,0.4,0,1c0,0.4,0,0.4,0,0.9h0.4c0.4,0,0.5,0,0.8,0v0.7c-0.3,0-0.5,0-0.8,0h-0.4
			c0,0.5,0.1,0.9,0.1,1.3c0.2-0.4,0.4-0.8,0.4-1.1l0.6,0.3c-0.1,0.1-0.1,0.2-0.3,0.5c-0.2,0.4-0.4,0.7-0.6,1
			c0.1,0.4,0.3,0.7,0.4,0.7c0.1,0,0.1-0.2,0.1-0.9c0.2,0.2,0.3,0.3,0.5,0.4c0,0.5-0.1,0.7-0.2,0.9c-0.1,0.3-0.2,0.4-0.4,0.4
			c-0.3,0-0.6-0.3-0.9-0.9c-0.3,0.3-0.6,0.7-1.1,1c-0.2-0.2-0.3-0.4-0.5-0.5c0.2-0.1,0.3-0.2,0.4-0.2h-1.1v0.5h-0.7
			c0-0.2,0-0.4,0-0.6v-1.9c0-0.3,0-0.4,0-0.6c0.1,0,0.2,0,0.5,0h1.2c0.2,0,0.3,0,0.5,0c0,0.1,0,0.3,0,0.6v1.6l0,0.1c0,0,0,0,0,0
			c0.2-0.2,0.4-0.4,0.6-0.6c-0.2-0.5-0.2-1.2-0.3-2.1h-1.9c-0.3,0-0.5,0-0.7,0V37c0.2,0,0.3,0,0.5,0c0-0.3-0.1-0.5-0.2-0.8
			c-0.1,0-0.1,0-0.2,0v-0.6c0.1,0,0.3,0,0.5,0h0.3v0c0-0.3,0-0.4,0-0.6h0.7c0,0.2,0,0.3,0,0.6H192.9z M191.8,39.1h0.8v-0.5h-0.8
			V39.1z M191.8,40.1h0.8v-0.5h-0.8V40.1z M192.3,37.1c0.1-0.3,0.1-0.5,0.2-0.8h-0.5c0.1,0.3,0.1,0.4,0.1,0.8H192.3z M194.8,35.4
			c0.2,0.3,0.4,0.6,0.6,1.1l-0.5,0.3c-0.1-0.5-0.3-0.7-0.5-1.1L194.8,35.4z"/>
		<path class="st0" d="M201.2,41c-0.3-0.3-0.8-0.7-1.3-1c-0.2-0.1-0.2-0.1-0.4-0.2c0,0,0,0.1,0,0.1c0,0.4-0.1,0.7-0.4,0.9
			c-0.3,0.2-0.6,0.3-1.2,0.3c-1,0-1.6-0.4-1.6-1.1c0-0.8,0.7-1.2,1.9-1.2c0.2,0,0.3,0,0.5,0c0-0.1,0-0.1,0-0.2c0,0,0-0.1,0-0.2
			c0-0.1,0-0.1,0-0.4c-0.3,0-0.6,0-0.7,0c-0.4,0-0.7,0-1.3,0c-0.1,0-0.2,0-0.3,0l0-0.8c0.3,0.1,1,0.1,1.6,0.1c0.1,0,0.4,0,0.6,0
			c0-0.1,0-0.3,0-0.7c-0.2,0-0.3,0-0.4,0c-0.3,0-1.2,0-1.7-0.1c-0.1,0-0.1,0-0.2,0c0,0-0.1,0-0.1,0l0-0.8c0.4,0.1,1.1,0.1,1.9,0.1
			c0.1,0,0.3,0,0.5,0c0-0.7,0-0.7,0-0.9h0.9c0,0.2,0,0.3,0,0.9c0.9-0.1,1.6-0.1,2-0.3l0,0.8c-0.2,0-0.2,0-0.6,0.1
			c-0.6,0.1-0.9,0.1-1.5,0.1c0,0.2,0,0.3,0,0.7c0.3,0,0.3,0,1-0.1c0.4-0.1,0.6-0.1,0.9-0.2l0,0.8c-0.1,0-0.3,0-0.5,0
			c-0.1,0-0.4,0-0.9,0.1c-0.1,0-0.2,0-0.5,0c0,0.7,0,0.7,0,0.8c0.6,0.2,1.2,0.5,1.9,1c0.1,0.1,0.2,0.1,0.3,0.2L201.2,41z
			 M198.1,39.6c-0.6,0-0.9,0.2-0.9,0.5c0,0.3,0.3,0.4,0.8,0.4c0.3,0,0.5-0.1,0.6-0.2c0.1-0.1,0.1-0.2,0.1-0.4c0,0,0-0.2,0-0.2
			C198.5,39.6,198.3,39.6,198.1,39.6z"/>
		<path class="st0" d="M202.4,36c0.2,0,0.2,0,0.3,0c0.1,0,0.1,0,1.2-0.1c0.5,0,1.7-0.1,3.6-0.2c0.6,0,0.6,0,0.7-0.1l0,0.9
			c-0.1,0-0.1,0-0.1,0c-0.4,0-0.9,0.1-1.4,0.4c-0.9,0.5-1.4,1.2-1.4,1.9c0,0.5,0.3,1,0.9,1.1c0.3,0.1,0.8,0.2,1,0.2c0,0,0.1,0,0.1,0
			l-0.1,0.9c-0.1,0-0.1,0-0.2,0c-0.8-0.1-1.2-0.2-1.6-0.5c-0.6-0.4-1-1-1-1.7c0-0.6,0.2-1.2,0.7-1.6c0.3-0.3,0.5-0.5,1-0.7
			c-0.6,0.1-1,0.1-2.4,0.2c-0.6,0-0.9,0.1-1.2,0.1L202.4,36z M207.2,37.4c0.3,0.3,0.5,0.6,0.7,1l-0.5,0.3c-0.2-0.4-0.4-0.7-0.7-1
			L207.2,37.4z M208.3,38.2c-0.2-0.4-0.4-0.7-0.7-1l0.5-0.2c0.3,0.3,0.5,0.6,0.7,1L208.3,38.2z"/>
		<path class="st0" d="M211.1,40.3c0,0.7-0.5,1.2-1.2,1.2c-0.6,0-1.2-0.5-1.2-1.2c0-0.6,0.5-1.2,1.2-1.2
			C210.6,39.1,211.1,39.6,211.1,40.3z M209.3,40.3c0,0.4,0.3,0.6,0.6,0.6c0.3,0,0.6-0.3,0.6-0.6c0-0.3-0.3-0.6-0.6-0.6
			C209.6,39.6,209.3,39.9,209.3,40.3z"/>
	</g>
</g>
</svg>
