<svg xmlns="http://www.w3.org/2000/svg" viewBox="0 0 650 80"><defs><style>.cls-1{fill:#888;}</style></defs><path d="M24.37,34.37v6.29H21V23.72h6.17a6.38,6.38,0,0,1,4.53,1.44,5.14,5.14,0,0,1,1.52,3.91,5,5,0,0,1-1.57,3.86,6.4,6.4,0,0,1-4.48,1.44Zm5.4-5.3a2.57,2.57,0,0,0-.7-1.95,3.23,3.23,0,0,0-2.28-.67H24.37v5.21h2.42C28.78,31.66,29.77,30.8,29.77,29.07Z"/><path d="M44.24,40.66l-4-6.6H38.79v6.6H35.41V23.72h6.45a6.37,6.37,0,0,1,4.5,1.44A4.9,4.9,0,0,1,47.91,29a4.87,4.87,0,0,1-1.07,3.22,5.24,5.24,0,0,1-3.08,1.72L48,40.66Zm-5.45-8.93h2.79c1.93,0,2.9-.85,2.9-2.56a2.53,2.53,0,0,0-.71-1.91,3,3,0,0,0-2.19-.69H38.79Z"/><path d="M62.44,24.58a8,8,0,0,1,3,3.09,9.52,9.52,0,0,1,0,9,8,8,0,0,1-3,3.1,9,9,0,0,1-8.61,0,8,8,0,0,1-3-3.1,9.52,9.52,0,0,1,0-9,8,8,0,0,1,3-3.09,9,9,0,0,1,8.61,0Zm-6.92,2.69a4.58,4.58,0,0,0-1.76,1.93,7.07,7.07,0,0,0,0,5.88A4.52,4.52,0,0,0,55.52,37a5.37,5.37,0,0,0,5.23,0,4.61,4.61,0,0,0,1.77-1.93,7.18,7.18,0,0,0,0-5.88,4.67,4.67,0,0,0-1.77-1.93,5.44,5.44,0,0,0-5.23,0Z"/><path d="M79.66,23.72v2.69H72.54v4.53h5.71v2.59H72.54v7.13H69.15V23.72Z"/><path d="M85.33,23.72V40.66H81.94V23.72Z"/><path d="M91.78,38.07h5.69v2.59H88.4V23.72h3.38Z"/><path d="M102.87,26.41V30.8h6v2.59h-6V38h6.72v2.71H99.49V23.72h10.1v2.69Z"/><path class="cls-1" d="M16,56.72a3.66,3.66,0,0,1-.09,1,1.06,1.06,0,0,1-1.1.7,3.77,3.77,0,0,1-2.27-.85,1.77,1.77,0,0,1-.66-1.36,2.54,2.54,0,0,1,1-1.77,6.07,6.07,0,0,1,1.75-1V51.59l-.49,0H12.81l-.3,0a1.34,1.34,0,0,0-.25,0V50.27a7.39,7.39,0,0,0,1.45.11h.9v-.8a8.34,8.34,0,0,0-.07-1.38H16A7.49,7.49,0,0,0,16,49.49v.77a12.82,12.82,0,0,0,2.32-.46l.05,1.35L17,51.36c-.39.07-.63.11-1.09.16v1.56a8.34,8.34,0,0,1,2.45-.34c2,0,3.43,1.23,3.43,2.93a2.66,2.66,0,0,1-2.72,2.73,1.93,1.93,0,0,1-2-1.33,3.92,3.92,0,0,1-.2-1.53A5.07,5.07,0,0,0,18.27,55a3.32,3.32,0,0,0,0,.53,2.29,2.29,0,0,0,.17,1.05.84.84,0,0,0,.76.41,1.23,1.23,0,0,0,1.21-1.33c0-1-.84-1.7-2.12-1.7a7.81,7.81,0,0,0-2.31.39Zm-1.35-1.93c-.9.48-1.43,1-1.43,1.44a.64.64,0,0,0,.4.55,1.44,1.44,0,0,0,.77.27c.2,0,.26-.11.26-.51Zm6.64-2.42a10.16,10.16,0,0,0-2.4-2.59L20,49a10.38,10.38,0,0,1,2.38,2.46Z"/><path class="cls-1" d="M31.46,49.1a21.13,21.13,0,0,0-1.83,1.64c-.54.47-1.61,1.31-2.51,2-.37.27-.45.38-.45.51s0,.2,1.08,1a40.33,40.33,0,0,1,3.78,3.12,3.31,3.31,0,0,0,.34.3l-1.23,1.26A25.28,25.28,0,0,0,26,54.71c-.8-.63-1-.94-1-1.49a1.44,1.44,0,0,1,.39-1,8,8,0,0,1,1.06-.85A19.88,19.88,0,0,0,30.08,48Zm-.33,1.82a8.07,8.07,0,0,1,1.26,1.76l-.84.45a8.8,8.8,0,0,0-1.26-1.79ZM33,52.37a9.3,9.3,0,0,0-1.22-1.74l.8-.42a6.92,6.92,0,0,1,1.25,1.69Z"/><path class="cls-1" d="M37,51.33a6,6,0,0,0,.71,0A40.63,40.63,0,0,0,42,51.1a3.23,3.23,0,0,0,1-.19l.8,1a7.19,7.19,0,0,0-1,.9c-.65.62-1.68,1.55-2.05,1.83a2,2,0,0,1,.73-.14,1.1,1.1,0,0,1,1,.5,2.07,2.07,0,0,1,.26,1.11c.08.94.24,1.11,1,1.11A6.48,6.48,0,0,0,46,56.8l.18,1.48c-.2,0-.27,0-1.05.15a10.28,10.28,0,0,1-1.68.14,2.32,2.32,0,0,1-1.68-.45c-.34-.32-.43-.6-.49-1.55a2.1,2.1,0,0,0-.12-.77.56.56,0,0,0-.51-.25c-.56,0-1.1.33-2.07,1.27-.61.59-1.26,1.28-1.69,1.79l-1.11-1.25A23.62,23.62,0,0,0,38.6,55L40,53.64l1.4-1.33a14.83,14.83,0,0,1-1.56.2l-1.21.1-.62.06-.93.1Zm1.49-3.11a16.92,16.92,0,0,0,4.77.67L43,50.24a22.51,22.51,0,0,1-5-.71Z"/><path class="cls-1" d="M48.38,52.8a7.75,7.75,0,0,0,2.11.46c0-.43.16-1.24.22-1.68a16.93,16.93,0,0,1-1.72-.3l-.41-.08.12-1.32a9.22,9.22,0,0,0,2.17.43,13.83,13.83,0,0,0,.24-2,.57.57,0,0,0,0-.12l1.6.14a9.17,9.17,0,0,0-.39,2,12.87,12.87,0,0,0,2.74-.25l0,1.4-.48,0c-.86.07-1.25.09-1.68.09H52.1c-.12.88-.16,1.12-.23,1.69h.59a9.41,9.41,0,0,0,2.29-.24l0,1.38a1.42,1.42,0,0,0-.36,0,17.4,17.4,0,0,1-1.8.11c-.19,0-.3,0-.77,0,0,.33-.05.64-.05.85a1.52,1.52,0,0,0,.44,1.24,2.19,2.19,0,0,0,1.49.44c1.52,0,2.39-.67,2.39-1.84a2.81,2.81,0,0,0-1.07-2,4.53,4.53,0,0,0,1.48-.3,5.26,5.26,0,0,1,.57.76,3.71,3.71,0,0,1,.51,1.76,2.85,2.85,0,0,1-1.15,2.24,4.28,4.28,0,0,1-2.71.79c-2.18,0-3.37-1-3.37-3a7.87,7.87,0,0,1,.06-1c-.72-.1-1.19-.17-1.67-.28a1.9,1.9,0,0,0-.45-.07Z"/><path class="cls-1" d="M62.77,53.61l.22-.27a2.26,2.26,0,0,1,1.55-.71,1.61,1.61,0,0,1,1.34.69c.24.38.3.81.3,2.19,0,.87,0,1.11.27,1.29a1.06,1.06,0,0,0,.63.16c.64,0,1.15-.44,1.5-1.28A7.31,7.31,0,0,0,69,53.77a3.59,3.59,0,0,0,1.32.9q-.78,3.73-3.51,3.73a1.88,1.88,0,0,1-1.88-1,3.5,3.5,0,0,1-.2-1.33v-.12c0-.43,0-.72,0-.84a1.53,1.53,0,0,0-.1-.71.59.59,0,0,0-.54-.28c-.64,0-1.31.61-1.9,1.68a14.23,14.23,0,0,0-1,2.75L59.68,58a17.41,17.41,0,0,0,.66-1.68c2.76-7.67,2.76-7.67,2.85-8.16l1.61.41A14,14,0,0,0,64.22,50C63.53,51.71,63,53,62.74,53.58Z"/><path class="cls-1" d="M72.71,58.4a4.69,4.69,0,0,0-.06-.56,21.77,21.77,0,0,1-.31-3.59,23.68,23.68,0,0,1,.49-4.69A6.37,6.37,0,0,0,73,48.45l1.59.17a16.14,16.14,0,0,0-.76,3.58,19.72,19.72,0,0,0-.18,2.65c0,.27,0,.36,0,.66a11.39,11.39,0,0,1,.62-1.58l1,.43A9.83,9.83,0,0,0,74.15,58a2.28,2.28,0,0,0,0,.32Zm5.11-4.73A2.69,2.69,0,0,0,77,55.39c0,.69.66,1,1.91,1A8.34,8.34,0,0,0,81.73,56l.12,1.52-.49.08a15.35,15.35,0,0,1-2.48.22c-1.49,0-2.45-.33-3-1a2.06,2.06,0,0,1-.36-1.18,3.9,3.9,0,0,1,1.11-2.47Zm-2-4a8.88,8.88,0,0,0,2.22.19,13.05,13.05,0,0,0,3.27-.33L81.4,51l-.85.11a20.68,20.68,0,0,1-2.57.15,13.4,13.4,0,0,1-2.16-.14Z"/><path class="cls-1" d="M83.8,50.69a8.05,8.05,0,0,0,1.41-.24A18.73,18.73,0,0,1,90,49.77c2.37,0,3.92,1.33,3.92,3.37A4.26,4.26,0,0,1,91.24,57,11.29,11.29,0,0,1,87,58a5.55,5.55,0,0,0-.61-1.55,10.32,10.32,0,0,0,3.94-.7,3.35,3.35,0,0,0,1.81-1.78,2.49,2.49,0,0,0,.13-.85,1.74,1.74,0,0,0-.91-1.56,3.15,3.15,0,0,0-1.54-.32,16.92,16.92,0,0,0-4.73.85,4.6,4.6,0,0,0-1,.33Z"/><path class="cls-1" d="M97.93,49.22a13.73,13.73,0,0,0-.1,1.82,22.66,22.66,0,0,0,.23,3.21c.2,1.25.59,2,1,2,.18,0,.35-.18.49-.52a9,9,0,0,0,.64-2.17,5.81,5.81,0,0,0,1.2,1.09C100.73,57,100,58,99,58c-.81,0-1.45-.58-1.93-1.74s-.71-2.93-.76-6.26a4.67,4.67,0,0,0,0-.76Zm5.67.54a12,12,0,0,1,2.7,6.45l-1.49.56a12,12,0,0,0-.77-3.46,10.28,10.28,0,0,0-1.7-3Z"/><path class="cls-1" d="M108,49.7h.45c.22,0,.22,0,2-.12.67,0,2.66-.15,6-.3a7,7,0,0,0,1.38-.12l.08,1.53h-.25a5.37,5.37,0,0,0-2.38.65,3.9,3.9,0,0,0-2.42,3.2,2,2,0,0,0,1.6,2,7.17,7.17,0,0,0,1.78.31h.24l-.21,1.63a2,2,0,0,0-.41-.07,7.21,7.21,0,0,1-2.81-.8,3.2,3.2,0,0,1-1.71-2.89,4.25,4.25,0,0,1,1.14-2.83,5.27,5.27,0,0,1,1.66-1.2c-1,.15-1.44.18-4,.37-.8.07-1.52.15-2,.24Z"/><path d="M176.6,33.38a4.1,4.1,0,0,1,.93,2.67,4.22,4.22,0,0,1-1.43,3.37A6.11,6.11,0,0,1,172,40.66h-7.27V23.72h7.13a6.08,6.08,0,0,1,3.94,1.12A3.88,3.88,0,0,1,177.14,28a4,4,0,0,1-.82,2.6,3.84,3.84,0,0,1-2.18,1.31A4.1,4.1,0,0,1,176.6,33.38Zm-8.53-2.56h3.05a2.92,2.92,0,0,0,1.93-.56,2,2,0,0,0,.66-1.62,2.06,2.06,0,0,0-.65-1.64,2.94,2.94,0,0,0-2-.57h-3Zm5.28,6.49a2.07,2.07,0,0,0,.72-1.71,2.13,2.13,0,0,0-.73-1.74,3.15,3.15,0,0,0-2.08-.61h-3.19V37.9h3.22A3.14,3.14,0,0,0,173.35,37.31Z"/><path d="M183.29,38.07H189v2.59H179.9V23.72h3.39Z"/><path d="M203.24,24.58a8,8,0,0,1,3,3.09,9.52,9.52,0,0,1,0,9,8,8,0,0,1-3,3.1,9,9,0,0,1-8.61,0,8,8,0,0,1-3-3.1,9.52,9.52,0,0,1,0-9,8,8,0,0,1,3-3.09,9,9,0,0,1,8.61,0Zm-6.92,2.69a4.58,4.58,0,0,0-1.76,1.93,7.07,7.07,0,0,0,0,5.88A4.52,4.52,0,0,0,196.32,37a5.37,5.37,0,0,0,5.23,0,4.61,4.61,0,0,0,1.77-1.93,7.17,7.17,0,0,0,0-5.88,4.67,4.67,0,0,0-1.77-1.93,5.44,5.44,0,0,0-5.23,0Z"/><path d="M222.94,25.07a6.79,6.79,0,0,1,2.61,4.12H222a4.08,4.08,0,0,0-1.6-1.84,4.77,4.77,0,0,0-2.58-.68,5,5,0,0,0-2.59.67,4.59,4.59,0,0,0-1.75,1.92,6.42,6.42,0,0,0-.62,2.93,5.76,5.76,0,0,0,1.42,4.15,5.18,5.18,0,0,0,3.9,1.49,4.79,4.79,0,0,0,3.14-1.08,5,5,0,0,0,1.69-3h-5.74V31.33h8.57v3.26a8.12,8.12,0,0,1-1.4,3.1A7.52,7.52,0,0,1,221.7,40a8.49,8.49,0,0,1-3.88.85,8.68,8.68,0,0,1-4.4-1.09,7.45,7.45,0,0,1-2.95-3,9.35,9.35,0,0,1-1.05-4.48,9.35,9.35,0,0,1,1.05-4.48,7.6,7.6,0,0,1,2.94-3.06,8.62,8.62,0,0,1,4.39-1.1A8.4,8.4,0,0,1,222.94,25.07Z"/><path class="cls-1" d="M159.43,49.52a3.87,3.87,0,0,1-1.74,3.28,3.54,3.54,0,0,0-.78-.9c-.23.34-.41.58-.54.75a3.85,3.85,0,0,0-.29.38V57.5a10.94,10.94,0,0,0,.09,1.51h-1.44a13.85,13.85,0,0,0,.07-1.51V55s0-.17,0-.34V54.3a5.32,5.32,0,0,1-1,.9,3.84,3.84,0,0,0-.56-1.32,9.25,9.25,0,0,0,2.34-2.37,4.7,4.7,0,0,0,.52-.88l1,.78a3,3,0,0,0,1-2.57,5.29,5.29,0,0,0,0-.54,8,8,0,0,0,.94,0h2.32a6.71,6.71,0,0,0,.89,0,8,8,0,0,0,0,.86v1.7c0,.19.09.24.45.24.63,0,.65-.05.68-1.4a4.28,4.28,0,0,0,1.18.44,4.31,4.31,0,0,1-.3,1.67c-.19.32-.67.45-1.68.45-1.36,0-1.62-.14-1.62-.86V49.52Zm-2.24-.86-.33.36a10.52,10.52,0,0,1-2.66,2.3,3.58,3.58,0,0,0-.74-1.12,7.78,7.78,0,0,0,2.17-1.7,2.63,2.63,0,0,0,.46-.62Zm6.5,5c-.18.24-.18.24-.57.83a10.6,10.6,0,0,1-1.72,2.09,9.25,9.25,0,0,0,3.1,1,4.85,4.85,0,0,0-.56,1.38,10,10,0,0,1-3.65-1.54A11.06,11.06,0,0,1,157,59a3.74,3.74,0,0,0-.65-1.27,9.5,9.5,0,0,0,2.9-1.15,9,9,0,0,1-1.62-2.41,5.27,5.27,0,0,0-.82.05v-1.3a5.32,5.32,0,0,0,1,.06h4.44a3.29,3.29,0,0,0,.84-.06Zm-4.77.49a6.06,6.06,0,0,0,1.37,1.65,7.19,7.19,0,0,0,1.5-1.65Z"/><path class="cls-1" d="M171.37,57.12a25.7,25.7,0,0,0,1.8-5.74l1.54.44a6.34,6.34,0,0,0-.4,1.15,35.46,35.46,0,0,1-1.54,4.15h2.16a12.82,12.82,0,0,0,1.52-.07v1.44a10.5,10.5,0,0,0-1.52-.09h-7.82a10.91,10.91,0,0,0-1.56.09V57.05a13.34,13.34,0,0,0,1.56.07Zm-1.14-8.18a4.22,4.22,0,0,0-.09-.94h1.52a4.52,4.52,0,0,0-.09.93v.81h2.89a10.62,10.62,0,0,0,1.55-.08V51.1a13.15,13.15,0,0,0-1.55-.07h-7a12.64,12.64,0,0,0-1.51.07V49.66a10,10,0,0,0,1.51.08h2.74Zm-1.55,2.54a36.29,36.29,0,0,1,1.37,4.67l-1.34.48a25,25,0,0,0-1.32-4.69Z"/><path class="cls-1" d="M177.8,50.69a8.05,8.05,0,0,0,1.41-.24,18.73,18.73,0,0,1,4.77-.68c2.37,0,3.92,1.33,3.92,3.37A4.26,4.26,0,0,1,185.24,57,11.29,11.29,0,0,1,181,58a5.55,5.55,0,0,0-.61-1.55,10.28,10.28,0,0,0,3.94-.7,3.35,3.35,0,0,0,1.81-1.78,2.49,2.49,0,0,0,.13-.85,1.74,1.74,0,0,0-.91-1.56,3.15,3.15,0,0,0-1.54-.32,16.92,16.92,0,0,0-4.73.85,4.6,4.6,0,0,0-1,.33Z"/><path class="cls-1" d="M189.56,50a5.15,5.15,0,0,0,1,.06h3a5.62,5.62,0,0,0,.95-.05v1.24a5,5,0,0,0-.91-.05h-3a6.54,6.54,0,0,0-1,.05Zm.41-1.7a6.67,6.67,0,0,0,1,.06H193a6.77,6.77,0,0,0,1-.06v1.18a9.78,9.78,0,0,0-1,0H191a9.41,9.41,0,0,0-1,0Zm0,10.81a10.67,10.67,0,0,0,.07-1.17V56.12a6.55,6.55,0,0,0-.06-.94c.3,0,.48,0,.93,0h2.35a5.22,5.22,0,0,0,.81,0,5,5,0,0,0,0,.86v2a7.08,7.08,0,0,0,.05.85h-1.22v-.48h-1.62v.64Zm0-7.3a7.42,7.42,0,0,0,.79,0h2.47a6.56,6.56,0,0,0,.77,0v1.12a5.59,5.59,0,0,0-.77,0h-2.47a5.54,5.54,0,0,0-.79,0Zm0,1.69a5.45,5.45,0,0,0,.79,0h2.47a4.9,4.9,0,0,0,.77,0v1.12a4.54,4.54,0,0,0-.79,0H190.8a5.48,5.48,0,0,0-.78,0Zm1.22,3.9h1.65V56.23h-1.65Zm4.87-.28c0,.24.06.32.28.36a5.36,5.36,0,0,0,1.05.08c.95,0,1.32-.06,1.5-.24s.27-.72.29-2a5.11,5.11,0,0,0,1.32.44A4.61,4.61,0,0,1,200,58.2c-.31.42-.95.55-2.59.55-2.2,0-2.63-.19-2.63-1.21V53.31a9.36,9.36,0,0,0-.05-1.18,10.33,10.33,0,0,0,1.2,0h2.7V49.64h-2.77a10.75,10.75,0,0,0-1.25.06V48.34a9.45,9.45,0,0,0,1.26.07h2.9a10.57,10.57,0,0,0,1.23,0,10.59,10.59,0,0,0-.05,1.22v2.65a9.86,9.86,0,0,0,.05,1.18c-.39,0-.66,0-1.2,0h-2.69Z"/><path class="cls-1" d="M206.25,54h-2.84a9,9,0,0,0-1.1.05V53a8.07,8.07,0,0,0,1.12.05h2.82v-.46h-2.54c-.43,0-.73,0-1,0a6.58,6.58,0,0,0,0-.8V51a7.1,7.1,0,0,0,0-.83c.31,0,.57,0,1,0h2.53v-.45H203a11.3,11.3,0,0,0-1.41.07V48.64a11,11,0,0,0,1.48.07h3.21a4,4,0,0,0-.07-.81h1.45a3.26,3.26,0,0,0-.08.81h3.37a10.9,10.9,0,0,0,1.47-.07v1.19a11,11,0,0,0-1.4-.07h-3.44v.45h2.71c.45,0,.72,0,1,0a6.47,6.47,0,0,0,0,.83v.8a6.07,6.07,0,0,0,0,.8c-.27,0-.58,0-1,0h-2.76V53h2.68a12.79,12.79,0,0,0,1.29,0,7.31,7.31,0,0,0,0,1.09v.42a8.18,8.18,0,0,0,1.05,0v1.13a8.21,8.21,0,0,0-1.05-.06v.7a8.85,8.85,0,0,0,.06,1.3H210.2v-.47h-2.65v.67c0,1.08-.3,1.31-1.76,1.31-.29,0-.77,0-1.16-.05a3.35,3.35,0,0,0-.37-1.19,14.18,14.18,0,0,0,1.53.11c.37,0,.46-.06.46-.28v-.57h-2.82a7.79,7.79,0,0,0-1.18.06V56a7.87,7.87,0,0,0,1.14,0h2.86v-.52h-3.44a9.82,9.82,0,0,0-1.32.06V54.45a9.86,9.86,0,0,0,1.3,0h3.46ZM204,51.15v.49h2.24v-.49Zm3.54.49H210v-.49h-2.41Zm2.65,2.86V54h-2.65v.52ZM207.55,56h2.65v-.52h-2.65Z"/><path class="cls-1" d="M214.14,50.07a9.71,9.71,0,0,0,1.61.11l.55,0a14.18,14.18,0,0,0,.23-1.83,1,1,0,0,0,0-.22l1.59.15a5.53,5.53,0,0,0-.23,1.15c-.06.33-.07.41-.12.68a9.65,9.65,0,0,0,2.05-.36l.06,1.38-.38.06a16,16,0,0,1-2,.25c-.13.75-.43,2-.74,3.11a41.69,41.69,0,0,1-1.35,4l-1.51-.59a25.7,25.7,0,0,0,2.15-6.45h-1.94Zm6,4.65a2,2,0,0,0-.63,1.32c0,.61.6.92,1.8.92a9.29,9.29,0,0,0,2.73-.44l.1,1.48a5.28,5.28,0,0,0-.58.08,14.51,14.51,0,0,1-2.23.19,4.85,4.85,0,0,1-2.42-.48,1.74,1.74,0,0,1-.85-1.47,3.39,3.39,0,0,1,.89-2.08Zm3.56-1.57a12.51,12.51,0,0,0-1.51-.08,13.15,13.15,0,0,0-3.17.34l-.11-1.32a15.63,15.63,0,0,1,3.58-.38h1.19Z"/><path class="cls-1" d="M226.25,49.89a11.27,11.27,0,0,0,2.59.2,9.68,9.68,0,0,0,.33-2l1.61.14a6.68,6.68,0,0,0-.19.69c-.22.9-.22.9-.29,1.13.91,0,2.27-.12,3.06-.22a8.37,8.37,0,0,0,1.53-.27L235,51a6,6,0,0,0-.7.06c-1.74.19-2.79.27-4.29.31a15.62,15.62,0,0,1-.95,2.43v0a5.54,5.54,0,0,1,3-.78c2.11,0,3.37.91,3.37,2.43,0,1.78-1.71,2.93-4.34,2.93A11.2,11.2,0,0,1,228,58a6.7,6.7,0,0,0-.12-1.52,9.23,9.23,0,0,0,3.1.57c1.74,0,2.86-.61,2.86-1.57,0-.74-.72-1.15-2-1.15a6.1,6.1,0,0,0-2.58.59,2,2,0,0,0-.88.69l-1.45-.5a8.16,8.16,0,0,0,.57-1.08,26.88,26.88,0,0,0,1-2.66c-.63,0-1.17,0-1.81-.09h-.48Z"/><path d="M289.67,38.42a4.61,4.61,0,0,1-1.92,1.75,6.65,6.65,0,0,1-3.09.66,8.18,8.18,0,0,1-3.22-.61,5.49,5.49,0,0,1-2.27-1.77,5,5,0,0,1-1-2.69h3.6a2.75,2.75,0,0,0,.83,1.72,2.58,2.58,0,0,0,1.88.69,2.16,2.16,0,0,0,1.62-.57,2.11,2.11,0,0,0,.11-2.76,3.4,3.4,0,0,0-1.15-.83q-.7-.3-1.92-.72a18.93,18.93,0,0,1-2.59-1,4.65,4.65,0,0,1-1.72-1.5,4.32,4.32,0,0,1-.71-2.57,4.2,4.2,0,0,1,1.57-3.44,6.48,6.48,0,0,1,4.17-1.26,6.6,6.6,0,0,1,4.28,1.29A4.87,4.87,0,0,1,290,28.23h-3.64a2.59,2.59,0,0,0-.77-1.5,2.42,2.42,0,0,0-1.71-.59,2.25,2.25,0,0,0-1.51.49,1.8,1.8,0,0,0-.57,1.43,1.76,1.76,0,0,0,.44,1.24,3.54,3.54,0,0,0,1.13.8,17.77,17.77,0,0,0,1.86.7,23,23,0,0,1,2.65,1.08,4.63,4.63,0,0,1,1.74,1.51,4.43,4.43,0,0,1,.72,2.64A4.64,4.64,0,0,1,289.67,38.42Z"/><path d="M296.2,26.41V30.8h6v2.59h-6V38h6.72v2.71h-10.1V23.72h10.1v2.69Z"/><path d="M314.25,40.66l-4-6.6H308.8v6.6h-3.38V23.72h6.45a6.37,6.37,0,0,1,4.5,1.44A4.94,4.94,0,0,1,317.92,29a4.92,4.92,0,0,1-1.07,3.22,5.24,5.24,0,0,1-3.08,1.72L318,40.66Zm-5.45-8.93h2.78c1.94,0,2.91-.85,2.91-2.56a2.53,2.53,0,0,0-.71-1.91,3,3,0,0,0-2.2-.69H308.8Z"/><path d="M322.58,23.72l4.53,13.41,4.56-13.41h3.63l-6,16.94H325l-6-16.94Z"/><path d="M340.5,23.72V40.66h-3.38V23.72Z"/><path d="M356.49,25.18a7.75,7.75,0,0,1,2.76,4.44H355.7A4.66,4.66,0,0,0,354,27.46a4.85,4.85,0,0,0-2.8-.79,4.41,4.41,0,0,0-4.1,2.59,6.69,6.69,0,0,0-.6,2.93,6.62,6.62,0,0,0,.6,2.9,4.44,4.44,0,0,0,4.1,2.6,4.86,4.86,0,0,0,2.8-.8,4.57,4.57,0,0,0,1.72-2.16h3.55a7.72,7.72,0,0,1-2.76,4.44,9.14,9.14,0,0,1-9.54.54,7.4,7.4,0,0,1-2.88-3.06,9.55,9.55,0,0,1-1-4.46,9.61,9.61,0,0,1,1-4.49,7.44,7.44,0,0,1,2.87-3.06,9.16,9.16,0,0,1,9.55.54Z"/><path d="M365.18,26.41V30.8h6v2.59h-6V38h6.72v2.71H361.79V23.72H371.9v2.69Z"/><path class="cls-1" d="M273.83,57.66a12.07,12.07,0,0,0,.06,1.39H272.5a12.71,12.71,0,0,0,.07-1.52V54.08a13,13,0,0,1,0-1.35,7.75,7.75,0,0,1-.86,1.28,4.94,4.94,0,0,0-.56-1.4,10.6,10.6,0,0,0,2.26-4.78l1.28.4a6.54,6.54,0,0,0-.24.72,14.66,14.66,0,0,1-.66,1.75Zm1.87-2.52a4.77,4.77,0,0,0-.86.06c0-.45.05-.68.05-1.23V51.63c0-.57,0-.8-.05-1.25a6.82,6.82,0,0,0,1.11.06h1.81v-.83h-1.9a8,8,0,0,0-1.17.06V48.39a10.88,10.88,0,0,0,1.36.07h5.08a10.94,10.94,0,0,0,1.37-.07v1.28a8.57,8.57,0,0,0-1.2-.06H279v.83h1.89a6.14,6.14,0,0,0,1.09-.06,11.21,11.21,0,0,0,0,1.28v2.26c0,.65,0,.85,0,1.28a5.46,5.46,0,0,0-1-.06h-2.23a3.71,3.71,0,0,1-.6,1.6,7.88,7.88,0,0,0,2.35.61,14,14,0,0,0,1.75.12h.4a6.94,6.94,0,0,0-.47,1.33,11,11,0,0,1-4.88-1.13,7,7,0,0,1-2.7,1.3,4.27,4.27,0,0,0-.5-1.2,4.94,4.94,0,0,0,2.11-.81,3.08,3.08,0,0,1-.41-.33l-.68-.57,1-.66a5.09,5.09,0,0,0,.91.75,2.74,2.74,0,0,0,.45-1Zm.44-3.68v.77h1.6c0-.41,0-.41,0-.77Zm0,1.76v.88h1.53c0-.25,0-.47.05-.88Zm2.8,0c0,.42,0,.55-.05.88h1.76v-.88Zm.05-1.76c0,.37,0,.37,0,.77h1.69v-.77Z"/><path class="cls-1" d="M285.93,50c-.78.16-1,.19-1.76.3a4.48,4.48,0,0,0-.44-1.15A12.92,12.92,0,0,0,288.35,48l.78,1.1c-.87.3-1.42.47-1.94.61v1.55h.95a5.61,5.61,0,0,0,1-.06v1.31a6.06,6.06,0,0,0-1-.06h-.87a7.1,7.1,0,0,0,1.91,2.24,5.33,5.33,0,0,0-.63,1.18,6.74,6.74,0,0,1-1.41-1.92c0,.41.07.9.07,1.51v2.09a10,10,0,0,0,.07,1.52h-1.43a10.61,10.61,0,0,0,.08-1.52v-2c0-.48,0-1,.06-1.44a8.12,8.12,0,0,1-.81,1.69,8.49,8.49,0,0,1-1,1.32,6,6,0,0,0-.68-1.26,7.19,7.19,0,0,0,1.31-1.6,15.82,15.82,0,0,0,.94-1.8h-.87a6.92,6.92,0,0,0-1.1.07V51.16a5.65,5.65,0,0,0,1.13.07h1.08Zm5.27-1.13a9.3,9.3,0,0,0-.07,1.46v4.53a9.72,9.72,0,0,0,.06,1.43h-1.41a10.51,10.51,0,0,0,.06-1.41V50.3a9.3,9.3,0,0,0-.08-1.46Zm2.86-.72a12.49,12.49,0,0,0-.09,1.64v7.71c0,.63-.15,1-.54,1.19a3.72,3.72,0,0,1-1.66.2c-.3,0-.48,0-.89,0a5.38,5.38,0,0,0-.41-1.33,13.21,13.21,0,0,0,1.58.11c.53,0,.62,0,.62-.36V49.76c0-.6,0-1.11-.08-1.64Z"/><path class="cls-1" d="M300.19,48.25a5.82,5.82,0,0,0-.19.8c-.06.29-.12.53-.25,1.05a10.37,10.37,0,0,0,1.92-.33l0,1.38a2,2,0,0,0-.38.06c-.43.07-1.16.15-1.91.21a22.21,22.21,0,0,1-1.32,3.48c-.27.59-.38.8-.84,1.64L297,57l-1.38-.77a10.9,10.9,0,0,0,1.16-1.92,18.62,18.62,0,0,0,1.13-2.83h-1.87V50.08a8.63,8.63,0,0,0,1.62.11h.61a13.65,13.65,0,0,0,.36-2.09ZM305.63,58a7.35,7.35,0,0,0-1.84-1.49c0,.11,0,.19,0,.24A1.9,1.9,0,0,1,303.3,58a2.74,2.74,0,0,1-2,.68c-1.58,0-2.62-.8-2.62-2s1.07-2.06,2.59-2.06a5.52,5.52,0,0,1,1.12.11q-.06-.84-.06-1.38a5.85,5.85,0,0,1,.1-1.22l1.39.08a4,4,0,0,0-.15,1.21,13.45,13.45,0,0,0,.11,1.64,7.58,7.58,0,0,1,1.9,1.1,5,5,0,0,1,.42.33l.18.17Zm-4.26-2.2c-.78,0-1.29.33-1.29.83s.44.78,1.18.78,1.21-.33,1.21-1c0-.12,0-.4,0-.4A2.92,2.92,0,0,0,301.37,55.76Zm4.32-3.32a15,15,0,0,0-3.46-1.68L303,49.6a18.38,18.38,0,0,1,3.38,1.61Z"/><path class="cls-1" d="M311.61,49.42a6.75,6.75,0,0,0,.55-1.58l1.51.14c-.22.58-.4,1-.61,1.44h2.78a11.81,11.81,0,0,0,1.47-.06,13.14,13.14,0,0,0-.06,1.47v6.72a8,8,0,0,0,.08,1.39H316v-.61H310v.61h-1.35a11.82,11.82,0,0,0,.07-1.39V50.83a11.44,11.44,0,0,0-.06-1.47,11.54,11.54,0,0,0,1.46.06ZM310,52H316V50.64H310Zm0,2.52H316V53.15H310Zm0,2.6H316V55.67H310Z"/><path class="cls-1" d="M323.39,48.27c-.13.3-.17.38-.28.67-.19.52-.19.52-.81,1.92V57.5a11.06,11.06,0,0,0,.08,1.49h-1.44A10.43,10.43,0,0,0,321,57.5V54.08c0-.29,0-.35,0-1.36a13.77,13.77,0,0,1-1.15,1.38,5.91,5.91,0,0,0-.63-1.41,9.82,9.82,0,0,0,2.27-3.31,6.34,6.34,0,0,0,.51-1.58Zm1.95,2.56a12.83,12.83,0,0,1-2,2.93,5,5,0,0,0-.87-1.13,9.23,9.23,0,0,0,2-3.05,7.74,7.74,0,0,0,.54-1.74l1.35.39c-.12.29-.15.4-.24.64-.18.5-.19.54-.3.8h3.27a8.6,8.6,0,0,0,1.29-.07v1.3a11.22,11.22,0,0,0-1.29-.07h-2.28v1.54h1.95A8,8,0,0,0,330,52.3v1.29a10.78,10.78,0,0,0-1.2-.07h-1.94v1.54h2A8.06,8.06,0,0,0,330,55v1.3a8.92,8.92,0,0,0-1.2-.07h-2V57.6A8.25,8.25,0,0,0,327,59H325.5a8.52,8.52,0,0,0,.07-1.44V50.83Z"/><path class="cls-1" d="M338.54,50.64l0-.54v-.38a8.54,8.54,0,0,0-.06-1.33H340a5.18,5.18,0,0,0,0,.8c0,.73,0,.73,0,1.45h.77a8.82,8.82,0,0,0,1.56-.08V52a11.83,11.83,0,0,0-1.54-.06H340a14.11,14.11,0,0,1-.08,2,4.8,4.8,0,0,1-1.73,3.44,6.5,6.5,0,0,1-2.34,1.26,3.6,3.6,0,0,0-.9-1.27,5.48,5.48,0,0,0,2.29-1.14,3.71,3.71,0,0,0,1.27-2.88c0-.27,0-.56,0-1.39h-3.1v1.8a8.8,8.8,0,0,0,0,1h-1.56a7.25,7.25,0,0,0,0-1V52h-.73a11.74,11.74,0,0,0-1.53.06V50.56a8.63,8.63,0,0,0,1.55.08H334v-1.2a6.1,6.1,0,0,0-.06-1.06h1.57a7.13,7.13,0,0,0,0,1v1.23Z"/><path class="cls-1" d="M343.85,52.6a12.2,12.2,0,0,0,1.94.08h6.4a12.2,12.2,0,0,0,1.94-.08v1.67a13.19,13.19,0,0,0-2-.06h-6.36a13.19,13.19,0,0,0-2,.06Z"/><path class="cls-1" d="M358.59,52.29a14.21,14.21,0,0,0,5.24-2.14l1,1.36q-.14,0-1.08.51a20.46,20.46,0,0,1-5.12,1.66v1.58a.5.5,0,0,0,0,.16c0,.69.05,1,.22,1.14s.89.31,2,.31a22.53,22.53,0,0,0,2.78-.19,8.3,8.3,0,0,0,1.37-.29l.07,1.59c-.25,0-.31,0-1.58.14-.71.07-2.22.14-3,.14a4.81,4.81,0,0,1-2.81-.52,1.69,1.69,0,0,1-.59-1.22,10.76,10.76,0,0,1,0-1.1V49.85a6,6,0,0,0,0-1.1h1.61a5.86,5.86,0,0,0-.06,1.11Zm5.69-4.11a7.53,7.53,0,0,1,1.2,1.83l-.86.39a7.91,7.91,0,0,0-1.19-1.83Zm1.8,1.53a8.55,8.55,0,0,0-1.15-1.79l.83-.38a6.73,6.73,0,0,1,1.17,1.74Z"/><path class="cls-1" d="M377,58.43a23,23,0,0,0-3.68-3.56,14.37,14.37,0,0,1-4.57,3.46,5,5,0,0,0-1-1.33,9.79,9.79,0,0,0,2.39-1.32,11.49,11.49,0,0,0,4-4.88l.14-.31-4,.07a9.09,9.09,0,0,0-1.31.1l-.05-1.54a5.29,5.29,0,0,0,1.06.07h.28l4.23-.06a2.5,2.5,0,0,0,1.06-.13l.79.82a2.35,2.35,0,0,0-.38.64,15.62,15.62,0,0,1-1.87,3.31,19.46,19.46,0,0,1,2.22,1.74c.3.27.3.27,1.75,1.67Z"/><path d="M411.2,25.18A7.75,7.75,0,0,1,414,29.62h-3.55a4.66,4.66,0,0,0-1.72-2.16,4.82,4.82,0,0,0-2.79-.79,4.41,4.41,0,0,0-4.11,2.59,6.69,6.69,0,0,0-.6,2.93,6.62,6.62,0,0,0,.6,2.9,4.44,4.44,0,0,0,4.11,2.6,4.82,4.82,0,0,0,2.79-.8,4.57,4.57,0,0,0,1.72-2.16H414a7.72,7.72,0,0,1-2.76,4.44,9.14,9.14,0,0,1-9.54.54,7.4,7.4,0,0,1-2.88-3.06,9.55,9.55,0,0,1-1-4.46,9.61,9.61,0,0,1,1-4.49,7.5,7.5,0,0,1,2.87-3.06,9.16,9.16,0,0,1,9.55.54Z"/><path d="M428.76,24.58a8,8,0,0,1,3,3.09,9.52,9.52,0,0,1,0,9,8,8,0,0,1-3,3.1,9,9,0,0,1-8.62,0,8,8,0,0,1-3.05-3.1,9.6,9.6,0,0,1,0-9,8,8,0,0,1,3.05-3.09,9,9,0,0,1,8.62,0Zm-6.93,2.69a4.58,4.58,0,0,0-1.76,1.93,7.07,7.07,0,0,0,0,5.88A4.52,4.52,0,0,0,421.83,37a5.37,5.37,0,0,0,5.23,0,4.55,4.55,0,0,0,1.77-1.93,7.17,7.17,0,0,0,0-5.88,4.6,4.6,0,0,0-1.77-1.93,5.44,5.44,0,0,0-5.23,0Z"/><path d="M449.82,40.66h-3.39l-7.58-11.52V40.66h-3.39V23.72h3.39l7.58,11.61V23.72h3.39Z"/><path d="M464.41,23.72v2.69h-4.68V40.66h-3.39V26.41h-4.65V23.72Z"/><path d="M476.6,37.25h-6.79l-1.2,3.41H465l6.24-16.75h3.87l6.21,16.75h-3.57Zm-.91-2.56-2.5-7.16-2.49,7.16Z"/><path d="M496.09,25.18a7.75,7.75,0,0,1,2.76,4.44H495.3a4.66,4.66,0,0,0-1.72-2.16,4.85,4.85,0,0,0-2.8-.79,4.41,4.41,0,0,0-4.1,2.59,6.69,6.69,0,0,0-.6,2.93,6.62,6.62,0,0,0,.6,2.9,4.44,4.44,0,0,0,4.1,2.6,4.86,4.86,0,0,0,2.8-.8,4.57,4.57,0,0,0,1.72-2.16h3.55a7.72,7.72,0,0,1-2.76,4.44,9.14,9.14,0,0,1-9.54.54,7.4,7.4,0,0,1-2.88-3.06,9.55,9.55,0,0,1-1-4.46,9.61,9.61,0,0,1,1-4.49,7.44,7.44,0,0,1,2.87-3.06,9.16,9.16,0,0,1,9.55.54Z"/><path d="M512.91,23.72v2.69h-4.68V40.66h-3.38V26.41h-4.66V23.72Z"/><path class="cls-1" d="M424,56.72a3.66,3.66,0,0,1-.09,1,1.06,1.06,0,0,1-1.1.7,3.77,3.77,0,0,1-2.27-.85,1.77,1.77,0,0,1-.66-1.36,2.54,2.54,0,0,1,1-1.77,6.07,6.07,0,0,1,1.75-1V51.59l-.49,0h-1.31l-.3,0a1.34,1.34,0,0,0-.25,0V50.27a7.39,7.39,0,0,0,1.45.11h.9v-.8a8.34,8.34,0,0,0-.07-1.38H424a6.46,6.46,0,0,0-.08,1.31v.77a12.82,12.82,0,0,0,2.32-.46l.05,1.35-1.28.21c-.39.07-.63.11-1.09.16v1.56a8.34,8.34,0,0,1,2.45-.34c2,0,3.43,1.23,3.43,2.93a2.66,2.66,0,0,1-2.72,2.73,1.93,1.93,0,0,1-2-1.33,3.92,3.92,0,0,1-.2-1.53,5.07,5.07,0,0,0,1.33-.53,3.32,3.32,0,0,0,0,.53,2.29,2.29,0,0,0,.17,1.05.84.84,0,0,0,.76.41,1.23,1.23,0,0,0,1.21-1.33c0-1-.84-1.7-2.12-1.7a7.81,7.81,0,0,0-2.31.39Zm-1.35-1.93c-.9.48-1.43,1-1.43,1.44a.64.64,0,0,0,.4.55,1.44,1.44,0,0,0,.77.27c.2,0,.26-.11.26-.51Zm6.64-2.42a10.31,10.31,0,0,0-2.39-2.59L428,49a10.38,10.38,0,0,1,2.38,2.46Z"/><path class="cls-1" d="M433.27,57.49a10.12,10.12,0,0,0,.07,1.48h-1.4a12.38,12.38,0,0,0,.07-1.49V49.62a12.13,12.13,0,0,0-.05-1.35c.37,0,.65,0,1.22,0h2.13a11.37,11.37,0,0,0,1.22,0c0,.38,0,.66,0,1.13v2a9.1,9.1,0,0,0,0,1.07c-.29,0-.71,0-1.1,0h-2.16Zm0-7.57h2.05V49.3h-2.05Zm0,1.56h2.05v-.63h-2.05Zm6.06,4.75c0,.35,0,.59,0,.82a6.92,6.92,0,0,0-.85,0h-2.68v.81h-1.27a9.88,9.88,0,0,0,.06-1.17V54.08c0-.32,0-.58,0-.83.26,0,.54,0,.89,0h3c.37,0,.67,0,.92,0,0,.24,0,.48,0,.82Zm-3.49-.31h2.28V54.35h-2.28ZM442,57.49c0,.66-.1,1-.42,1.17a2.49,2.49,0,0,1-1.26.19c-.19,0-.32,0-1.11-.05a3.8,3.8,0,0,0-.34-1.27,14.17,14.17,0,0,0,1.48.11c.33,0,.39,0,.39-.32v-4.9h-2.31c-.4,0-.83,0-1.09,0,0-.32,0-.56,0-1.07v-2c0-.46,0-.78,0-1.13.36,0,.62,0,1.22,0h2.28c.57,0,.86,0,1.23,0a12.12,12.12,0,0,0-.06,1.34Zm-3.45-7.57h2.19V49.3h-2.19Zm0,1.56h2.19v-.63h-2.19Z"/><path class="cls-1" d="M445.93,49.22a13.73,13.73,0,0,0-.1,1.82,22.66,22.66,0,0,0,.23,3.21c.2,1.25.59,2,1,2,.18,0,.35-.18.49-.52a8.61,8.61,0,0,0,.64-2.17,5.81,5.81,0,0,0,1.2,1.09C448.73,57,448,58,447,58c-.81,0-1.45-.58-1.93-1.74s-.71-2.93-.76-6.26a4.67,4.67,0,0,0-.05-.76Zm5.67.54a12,12,0,0,1,2.7,6.45l-1.49.56a12,12,0,0,0-.77-3.46,10.28,10.28,0,0,0-1.7-3Z"/><path class="cls-1" d="M457.91,51.93a12.43,12.43,0,0,1-1.91,1,4.86,4.86,0,0,0-.7-1.22A12,12,0,0,0,458.36,50a8.34,8.34,0,0,0,1.88-2h1.43a7.69,7.69,0,0,0,2,2,11.45,11.45,0,0,0,3.06,1.64,6.51,6.51,0,0,0-.66,1.32,12,12,0,0,1-1.95-1v.83a10.47,10.47,0,0,0-1.08,0H459c-.39,0-.72,0-1,0Zm-1,7a9.21,9.21,0,0,0,.07-1.27V54.88c0-.49,0-.84-.05-1.19a6.84,6.84,0,0,0,1,.05h6a7.31,7.31,0,0,0,1-.05,7.93,7.93,0,0,0-.06,1.19v2.8a7.46,7.46,0,0,0,.07,1.26h-1.43v-.61h-5.24v.61Zm1.43-1.78h5.24V54.9h-5.24Zm4.67-5.7h.4A11.26,11.26,0,0,1,461,49.12a8.31,8.31,0,0,1-2.35,2.34H463Z"/><path class="cls-1" d="M467.54,55.19a27.47,27.47,0,0,0,2.17-1.92c0-.73,0-.74.05-1.73a13.51,13.51,0,0,0-1.82.18l-.09-1.35.4,0c.21,0,.87,0,1.54-.08a7.6,7.6,0,0,0,0-.9c0-.23,0-.4,0-.51v-.12a2.59,2.59,0,0,0,0-.52h1.55a5.38,5.38,0,0,0-.12,1.15c0,.23,0,.23,0,.56v.22a.38.38,0,0,0,.16-.06l.46.49a5.71,5.71,0,0,0-.69.78c0,.52,0,.78,0,.82l0,0a2.21,2.21,0,0,1,.29-.22,5.54,5.54,0,0,1,3.45-1.32,3.34,3.34,0,0,1,2.34,1,3.52,3.52,0,0,1,.93,2.47,3.71,3.71,0,0,1-1.91,3.4,4.78,4.78,0,0,1-2.14.45,6.09,6.09,0,0,1-1.78-.26,4.51,4.51,0,0,0-.23-1.56,5.42,5.42,0,0,0,2.13.44,2.36,2.36,0,0,0,2.45-2.48A1.93,1.93,0,0,0,474.58,52a5.65,5.65,0,0,0-3.49,1.81v1.25c0,1.72,0,3.06.09,3.59h-1.56a11.52,11.52,0,0,0,.08-1.92V55.68c0-.34,0-.47,0-.71h0a4.36,4.36,0,0,1-.53.57,7,7,0,0,0-.92,1Z"/><path class="cls-1" d="M489.37,58.07l-.54.06c-.87.09-2.45.18-3.25.18-2.24,0-3.21-.43-3.57-1.59a11.68,11.68,0,0,1-.22-3.27c0-.18,0-.23,0-1.16a18.28,18.28,0,0,0-2.22.21l-.1-1.4h.35c.11,0,.77,0,2-.11a3.19,3.19,0,0,0,0-.37,11.79,11.79,0,0,0-.09-2h1.61a14.81,14.81,0,0,0-.11,2.34l3.47-.17a13.33,13.33,0,0,0-.07-2.37h1.49a6.73,6.73,0,0,0-.06.83v1.49a20.53,20.53,0,0,0,2.33-.1l0,1.42a5.16,5.16,0,0,0-.69,0h-1.67a7.66,7.66,0,0,1-.31,2.54,1.45,1.45,0,0,1-1.46.9,4,4,0,0,1-1.72-.41,4.38,4.38,0,0,0,0-.47,6.47,6.47,0,0,0-.09-1,3.76,3.76,0,0,0,1.57.59c.32,0,.45-.16.52-.62a10.05,10.05,0,0,0,.11-1.5c-1.83.07-1.83.07-3.49.16v.33c0,.06,0,.06,0,.69v.26c0,.62,0,1.93.06,2.17.09,1,.61,1.26,2.56,1.26a9.8,9.8,0,0,0,3.47-.46Z"/><path d="M567,23.72v2.69h-4.68V40.66h-3.38V26.41h-4.66V23.72Z"/><path d="M572.26,26.41V30.8h6v2.59h-6V38H579v2.71H568.87V23.72H579v2.69Z"/><path d="M590.3,40.66l-4-6.6h-1.48v6.6h-3.39V23.72h6.46a6.37,6.37,0,0,1,4.5,1.44A4.94,4.94,0,0,1,594,29a4.92,4.92,0,0,1-1.07,3.22,5.23,5.23,0,0,1-3.09,1.72l4.23,6.77Zm-5.44-8.93h2.78c1.94,0,2.9-.85,2.9-2.56a2.52,2.52,0,0,0-.7-1.91,3.07,3.07,0,0,0-2.2-.69h-2.78Z"/><path d="M614.52,23.91V40.66h-3.36V29l-4.3,11.69h-2.92L599.64,29V40.66h-3.38V23.91h4.1l5.09,12.6,5-12.6Z"/><path class="cls-1" d="M563.93,50c-.78.16-1,.19-1.76.3a4.48,4.48,0,0,0-.44-1.15A12.92,12.92,0,0,0,566.35,48l.78,1.1c-.87.3-1.42.47-1.94.61v1.55h.95a5.61,5.61,0,0,0,1-.06v1.31a6.06,6.06,0,0,0-1-.06h-.87a7.1,7.1,0,0,0,1.91,2.24,5.33,5.33,0,0,0-.63,1.18,6.74,6.74,0,0,1-1.41-1.92c0,.41.07.9.07,1.51v2.09a10,10,0,0,0,.07,1.52h-1.43a10.61,10.61,0,0,0,.08-1.52v-2c0-.48,0-1,.06-1.44a8.12,8.12,0,0,1-.81,1.69,8.49,8.49,0,0,1-1,1.32,6,6,0,0,0-.68-1.26,7.19,7.19,0,0,0,1.31-1.6,15.82,15.82,0,0,0,.94-1.8h-.87a6.92,6.92,0,0,0-1.1.07V51.16a5.65,5.65,0,0,0,1.13.07h1.08Zm5.27-1.13a9.3,9.3,0,0,0-.07,1.46v4.53a9.72,9.72,0,0,0,.06,1.43h-1.41a10.51,10.51,0,0,0,.06-1.41V50.3a9.3,9.3,0,0,0-.08-1.46Zm2.86-.72a12.49,12.49,0,0,0-.09,1.64v7.71c0,.63-.15,1-.54,1.19a3.72,3.72,0,0,1-1.66.2c-.3,0-.48,0-.89,0a5.38,5.38,0,0,0-.41-1.33,13.21,13.21,0,0,0,1.58.11c.53,0,.62,0,.62-.36V49.76c0-.6,0-1.11-.08-1.64Z"/><path class="cls-1" d="M575.72,55.25A8.17,8.17,0,0,1,574.5,59a7.35,7.35,0,0,0-1.16-.95,5.51,5.51,0,0,0,.87-2,11.26,11.26,0,0,0,.24-1.83c.06-1,.11-2.71.11-4.13a15.83,15.83,0,0,0-.06-1.74,13,13,0,0,0,1.38,0h6.73a12.29,12.29,0,0,0,1.38,0,12.44,12.44,0,0,0,0,1.36V57.6c0,1-.36,1.25-1.73,1.25-.37,0-1,0-1.34-.05a5,5,0,0,0-.34-1.25c.6.06,1.13.1,1.51.1s.6,0,.6-.3v-2.1h-2.88v2a12,12,0,0,0,.06,1.42h-1.41a9.55,9.55,0,0,0,.07-1.41v-2Zm2.76-2.83h-2.65c0,.35,0,.59,0,.75,0,.57,0,.65,0,.89h2.67Zm0-2.75h-2.61v1.24l0,.33h2.63Zm4.16,1.57V49.67h-2.88v1.57Zm0,2.82V52.42h-2.88v1.64Z"/><path class="cls-1" d="M588.55,53.83A7,7,0,0,0,590.4,56l-.16.22a4.48,4.48,0,0,0-.56.92,7,7,0,0,1-1.44-1.89,8,8,0,0,1-.61,1.63,5.72,5.72,0,0,1-1.35,1.76,3.93,3.93,0,0,0-.94-1,4.49,4.49,0,0,0,1.41-1.84,6.8,6.8,0,0,0,.5-2h-.54a7.35,7.35,0,0,0-1.12.08V52.55a6.77,6.77,0,0,0,1.07.07h.68c0-.53,0-.89,0-1.56h-.62c-.34,0-.64,0-1,.06V49.85a6.64,6.64,0,0,0,1.06.07h.57a10.22,10.22,0,0,0-.07-1.81h1.39a10.18,10.18,0,0,0-.07,1.81h.42a6.62,6.62,0,0,0,1-.06v1.26a7,7,0,0,0-.94-.06h-.54c0,.69,0,.94-.06,1.56h.54a6.76,6.76,0,0,0,1-.06v1.33a7.07,7.07,0,0,0-.94-.06Zm4.1,1.54a4,4,0,0,1-.71,2.18,5,5,0,0,1-2.12,1.6,4.7,4.7,0,0,0-.93-1c1.7-.54,2.39-1.27,2.56-2.73-.33,0-.66,0-1,0,0-.3,0-.67,0-1.18V49.59a9.34,9.34,0,0,0,0-1.19,8.38,8.38,0,0,0,1.15.05h3a7.93,7.93,0,0,0,1.16-.05,10,10,0,0,0-.05,1.21v4.66a9.83,9.83,0,0,0,.05,1.15,1.27,1.27,0,0,0-.35,0h-.24l-.5,0h-.28v2.07c0,.22.1.27.48.27s.54-.1.6-1.67a3.52,3.52,0,0,0,1.12.54c-.12,2.1-.31,2.33-1.9,2.33-1.1,0-1.5-.23-1.5-.87V55.37Zm-.89-4.95h2.8v-.81h-2.8Zm0,1.88h2.8v-.8h-2.8Zm0,1.92h2.8v-.84h-2.8Z"/><path class="cls-1" d="M599.17,54.84a13,13,0,0,1-.59,3.55l-1.06-.49a11.41,11.41,0,0,0,.56-3.23ZM597.58,53a3.4,3.4,0,0,0,.51,0l.48,0c.41-.5.46-.56.7-.87a11.2,11.2,0,0,0-1.65-1.78l.69-1c.16.2.24.27.36.42a8.91,8.91,0,0,0,1-1.95l1.14.47c-.07.11-.12.19-.25.43a16.26,16.26,0,0,1-1.12,1.84c.21.24.34.38.51.6a12.73,12.73,0,0,0,1.29-2.1l1.11.64a4.19,4.19,0,0,0-.4.55,31.33,31.33,0,0,1-2,2.7c.71,0,.76,0,1.37-.11a7.64,7.64,0,0,0-.35-.82l.9-.36a18.12,18.12,0,0,1,.95,2.34l-1,.42c-.06-.27-.08-.37-.13-.56-.36,0-.63.07-.85.08v3.78a8.54,8.54,0,0,0,.07,1.28h-1.32a8.54,8.54,0,0,0,.07-1.28V54.11l-1.12.08a6.41,6.41,0,0,0-.78.08Zm4.64,1.57a29.69,29.69,0,0,1,.57,3.06l-1.09.26a28.25,28.25,0,0,0-.45-3.08Zm2-3.64a8.58,8.58,0,0,1-1.2,1.89,3.52,3.52,0,0,0-1-1,7.93,7.93,0,0,0,1.42-2.39,8.2,8.2,0,0,0,.43-1.51l1.34.24a3.9,3.9,0,0,0-.15.49c-.16.49-.21.64-.35,1h2.61a6.1,6.1,0,0,0,1,0,14.67,14.67,0,0,0-.06,2.09c0,1.37-.15,3.45-.28,4.44-.19,1.38-.41,2-.8,2.35a2.64,2.64,0,0,1-1.54.31c-.31,0-.68,0-1.11,0a4.89,4.89,0,0,0-.34-1.34,9,9,0,0,0,1.57.15c.54,0,.67-.14.82-.88A33.39,33.39,0,0,0,607,51Zm.55,5a12.8,12.8,0,0,0-1.37-3l1.05-.57a13.12,13.12,0,0,1,1.47,3Z"/></svg>