<svg version="1.1" xmlns="http://www.w3.org/2000/svg" xmlns:xlink="http://www.w3.org/1999/xlink" x="0px" y="0px" viewBox="0 0 30 23" style="enable-background:new 0 0 30 23;" xml:space="preserve">
<style type="text/css">
	.st0{fill:#dddddd;}
</style>
<path class="st0" d="M0,12.5V0h12.5v12.5c0,1.8-0.5,3.5-1.3,5C10.3,19,9,20.2,7.5,21.1c-1.5,0.9-3.2,1.4-5,1.4v-5
	c1.3,0,2.6-0.5,3.5-1.5c0.9-0.9,1.5-2.2,1.5-3.5L0,12.5L0,12.5z"/>
<path class="st0" d="M17.5,0H30v12.5c0,1.8-0.5,3.5-1.4,5c-0.8,1.5-2.1,2.8-3.6,3.7c-1.5,0.9-3.2,1.4-5,1.4v-5
	c1.3,0,2.6-0.5,3.5-1.5c1-0.9,1.5-2.2,1.5-3.5h-7.5L17.5,0L17.5,0z"/>
</svg>
