<svg xmlns="http://www.w3.org/2000/svg" viewBox="0 0 30 30"><defs><style>.cls-1{fill:#333;}</style></defs><path class="cls-1" d="M29.44,27.5,21,19.07a11.23,11.23,0,0,0,1.08-1.63l0-.06.4-.8.14-.35.22-.53.12-.4.16-.54,0-.23a11.88,11.88,0,0,0,.32-2.7,11.51,11.51,0,0,0-.87-4.43s0,0,0-.05l-.2-.46a.15.15,0,0,0,0-.07l-.23-.47s0,0,0,0A11.67,11.67,0,0,0,11.86.11,10.49,10.49,0,0,0,9.1.43l-.16,0a4.91,4.91,0,0,0-.58.17L8,.73,7.45,1l-.32.13A11.3,11.3,0,0,0,4.65,2.6a12.08,12.08,0,0,0-2,2A11.17,11.17,0,0,0,1.58,6.21v0a7.18,7.18,0,0,0-.42.83L1,7.39.8,8l-.12.35-.17.6a.79.79,0,0,1,0,.2,12.63,12.63,0,0,0-.33,2.7,11.74,11.74,0,0,0,11.7,11.75,11.57,11.57,0,0,0,2.84-.35.2.2,0,0,0,.1,0c.2-.06.42-.12.63-.2l.3-.08.57-.23.32-.13c.22-.1.43-.2.65-.32l.2-.1a11.34,11.34,0,0,0,1.62-1.07l8.4,8.42a1.38,1.38,0,0,0,1,.42,1.42,1.42,0,0,0,1-.42,1.41,1.41,0,0,0,0-2ZM20.62,11.84a8.8,8.8,0,0,1-8.8,8.78A8.8,8.8,0,0,1,3,11.82,8.88,8.88,0,0,1,6.72,4.68a8.79,8.79,0,0,1,13.9,7.16Z"/></svg>