<svg xmlns="http://www.w3.org/2000/svg" width="150" height="60" viewBox="0 0 150 60"><defs><style>.a{fill:#00b900;}.b{fill:#00a4de;}.c{fill:#1da1f2;}.d{fill:#ee4257;}.e{fill:#999;}.f{fill:#325094;}</style></defs><title>splite</title><path class="a" d="M105,2.52c-7.22,0-13.08,4.76-13.08,10.62,0,5.25,4.65,9.65,11,10.5.42.08,1,.27,1.14.63a2.77,2.77,0,0,1,0,1.18l-.18,1.13c-.06.34-.27,1.3,1.12.72s7.55-4.44,10.3-7.6a9.49,9.49,0,0,0,2.8-6.55c0-5.85-5.87-10.6-13.1-10.6l0,0Zm-4.62,13.75a.24.24,0,0,1-.25.25H96.46a.19.19,0,0,1-.17-.07h0a.27.27,0,0,1-.07-.18v-5.7a.24.24,0,0,1,.25-.26h.92a.26.26,0,0,1,.25.26V15.1h2.5a.24.24,0,0,1,.25.25v.92Zm2.22,0a.25.25,0,0,1-.26.25h-.92a.24.24,0,0,1-.25-.25v-5.7a.24.24,0,0,1,.25-.26h.92a.25.25,0,0,1,.25.26v5.7Zm6.32,0a.24.24,0,0,1-.26.25h-1l0,0a0,0,0,0,1,0,0l-.07-.06-2.6-3.52v3.38a.27.27,0,0,1-.27.25h-.9a.24.24,0,0,1-.26-.25v-5.7a.24.24,0,0,1,.25-.26h1s0,0,0,0h0l0,0h0v0h0v0L107.44,14v-3.4a.24.24,0,0,1,.25-.25h.9a.24.24,0,0,1,.26.25v5.72h.07Zm5.06-4.8a.25.25,0,0,1-.25.27h-2.5v1h2.5A.24.24,0,0,1,114,13v.9a.25.25,0,0,1-.25.26h-2.5v1h2.5a.24.24,0,0,1,.24.26v.9a.25.25,0,0,1-.25.27H110a.21.21,0,0,1-.18-.08.21.21,0,0,1-.07-.18v-5.7a.21.21,0,0,1,.07-.18.24.24,0,0,1,.2-.07h3.69a.24.24,0,0,1,.24.24v.93Z"/><path class="b" d="M77.22,15.63a4.07,4.07,0,0,0-3-1.3A5.24,5.24,0,0,0,76.72,13a3.64,3.64,0,0,0,.77-2.4A4.14,4.14,0,0,0,77,8.5,3.64,3.64,0,0,0,75.49,7a6.06,6.06,0,0,0-2-.67,34.55,34.55,0,0,0-4.19-.18H64.4V23.83h5a36.71,36.71,0,0,0,4.33-.2A7.28,7.28,0,0,0,76,22.91a4,4,0,0,0,1.7-1.67,5,5,0,0,0,.62-2.47,4.5,4.5,0,0,0-1.07-3.15h0Zm-8.34-5.57h1a4.78,4.78,0,0,1,2.4.4,1.48,1.48,0,0,1,.6,1.37,1.39,1.39,0,0,1-.67,1.35,5.33,5.33,0,0,1-2.44.4h-1V10l0,0ZM73,20.19a4.68,4.68,0,0,1-2.4.42H68.94V16.75h1.75a5,5,0,0,1,2.42.42,1.79,1.79,0,0,1,.64,1.58A1.48,1.48,0,0,1,73,20.19Z"/><circle class="b" cx="83.38" cy="21.58" r="2.23"/><path class="b" d="M81.42,6.16h3.9V17.94h-3.9Z"/><path class="c" d="M10.36,25.12a14.41,14.41,0,0,0,14.5-14.5V10a10.41,10.41,0,0,0,2.56-2.65,10.84,10.84,0,0,1-2.93.8,5.22,5.22,0,0,0,2.25-2.84A9.76,9.76,0,0,1,23.5,6.5,5.09,5.09,0,0,0,14.68,10a6.36,6.36,0,0,0,.12,1.17A14.42,14.42,0,0,1,4.3,5.83a4.93,4.93,0,0,0-.7,2.55,5.14,5.14,0,0,0,2.26,4.26A5.21,5.21,0,0,1,3.56,12v.08a5.11,5.11,0,0,0,4.1,5,5,5,0,0,1-1.36.18,5,5,0,0,1-1-.08,5.13,5.13,0,0,0,4.77,3.55A10.23,10.23,0,0,1,3.78,22.9a7.91,7.91,0,0,1-1.2-.06,14.55,14.55,0,0,0,7.8,2.28"/><path class="d" d="M141.47,13.32l-5.4,5.18a1.47,1.47,0,0,1-1.07.44,1.63,1.63,0,0,1-1.1-.43l-5.4-5.17a1.57,1.57,0,1,1,2.19-2.25l4.3,4.12,4.33-4.13a1.57,1.57,0,1,1,2.16,2.27Zm4.86-7.2a2.08,2.08,0,0,0-2-1.37H125.61a2.08,2.08,0,0,0-2,1.35,2.4,2.4,0,0,0-.13.74v6.92l.08,1.38a11.14,11.14,0,0,0,4.47,7.77l.13.1,0,0a11.23,11.23,0,0,0,4.5,2,10.79,10.79,0,0,0,2.27.23,12.61,12.61,0,0,0,2.11-.18l.25-.07a.13.13,0,0,0,.08,0,11.47,11.47,0,0,0,4.3-1.94l0,0,.15-.1a11.34,11.34,0,0,0,4.47-7.77l.07-1.4V6.87a1.91,1.91,0,0,0-.12-.72Z"/><path class="e" d="M105,32.52c-7.22,0-13.08,4.76-13.08,10.62,0,5.25,4.65,9.65,11,10.5.42.08,1,.27,1.14.63a2.77,2.77,0,0,1,0,1.18l-.18,1.13c-.06.34-.27,1.3,1.12.72s7.55-4.44,10.3-7.6a9.49,9.49,0,0,0,2.8-6.55c0-5.85-5.87-10.6-13.1-10.6l0,0Zm-4.62,13.75a.24.24,0,0,1-.25.25H96.46a.19.19,0,0,1-.17-.07h0a.27.27,0,0,1-.07-.18v-5.7a.24.24,0,0,1,.25-.26h.92a.26.26,0,0,1,.25.26V45.1h2.5a.24.24,0,0,1,.25.25v.92Zm2.22,0a.25.25,0,0,1-.26.25h-.92a.24.24,0,0,1-.25-.25v-5.7a.24.24,0,0,1,.25-.26h.92a.25.25,0,0,1,.25.26v5.7Zm6.32,0a.24.24,0,0,1-.26.25h-1l0,0a0,0,0,0,1,0,0l-.07-.06-2.6-3.52v3.38a.27.27,0,0,1-.27.25h-.9a.24.24,0,0,1-.26-.25v-5.7a.24.24,0,0,1,.25-.26h1s0,0,0,0h0l0,0h0v0h0v0L107.44,44v-3.4a.24.24,0,0,1,.25-.25h.9a.24.24,0,0,1,.26.25v5.72h.07Zm5.06-4.8a.25.25,0,0,1-.25.27h-2.5v1h2.5A.24.24,0,0,1,114,43v.9a.25.25,0,0,1-.25.26h-2.5v1h2.5a.24.24,0,0,1,.24.26v.9a.25.25,0,0,1-.25.27H110a.21.21,0,0,1-.18-.08.21.21,0,0,1-.07-.18v-5.7a.21.21,0,0,1,.07-.18.24.24,0,0,1,.2-.07h3.69a.24.24,0,0,1,.24.24v.93Z"/><path class="e" d="M77.22,45.63a4.07,4.07,0,0,0-3-1.3A5.24,5.24,0,0,0,76.72,43a3.64,3.64,0,0,0,.77-2.4A4.14,4.14,0,0,0,77,38.5,3.64,3.64,0,0,0,75.49,37a6.06,6.06,0,0,0-2-.67,34.55,34.55,0,0,0-4.19-.18H64.4V53.83h5a36.71,36.71,0,0,0,4.33-.2A7.28,7.28,0,0,0,76,52.91a4,4,0,0,0,1.7-1.67,5,5,0,0,0,.62-2.47,4.5,4.5,0,0,0-1.07-3.15h0Zm-8.34-5.57h1a4.78,4.78,0,0,1,2.4.4,1.48,1.48,0,0,1,.6,1.37,1.39,1.39,0,0,1-.67,1.35,5.33,5.33,0,0,1-2.44.4h-1V40l0,0ZM73,50.19a4.68,4.68,0,0,1-2.4.42H68.94V46.75h1.75a5,5,0,0,1,2.42.42,1.79,1.79,0,0,1,.64,1.58A1.48,1.48,0,0,1,73,50.19Z"/><circle class="e" cx="83.38" cy="51.58" r="2.23"/><path class="e" d="M81.42,36.16h3.9V47.94h-3.9Z"/><path class="e" d="M10.36,55.12a14.41,14.41,0,0,0,14.5-14.5V40a10.41,10.41,0,0,0,2.56-2.65,10.84,10.84,0,0,1-2.93.8,5.22,5.22,0,0,0,2.25-2.84A9.76,9.76,0,0,1,23.5,36.5,5.09,5.09,0,0,0,14.68,40a6.36,6.36,0,0,0,.12,1.17A14.42,14.42,0,0,1,4.3,35.83a4.93,4.93,0,0,0-.7,2.55,5.14,5.14,0,0,0,2.26,4.26A5.21,5.21,0,0,1,3.56,42v.08a5.11,5.11,0,0,0,4.1,5,5,5,0,0,1-1.36.18,5,5,0,0,1-1-.08,5.13,5.13,0,0,0,4.77,3.55A10.23,10.23,0,0,1,3.78,52.9a7.91,7.91,0,0,1-1.2-.06,14.55,14.55,0,0,0,7.8,2.28"/><path class="e" d="M141.47,43.32l-5.4,5.18a1.47,1.47,0,0,1-1.07.44,1.63,1.63,0,0,1-1.1-.43l-5.4-5.17a1.57,1.57,0,1,1,2.19-2.25l4.3,4.12,4.33-4.13a1.57,1.57,0,1,1,2.16,2.27Zm4.86-7.2a2.08,2.08,0,0,0-2-1.37H125.61a2.08,2.08,0,0,0-2,1.35,2.4,2.4,0,0,0-.13.74v6.92l.08,1.38a11.14,11.14,0,0,0,4.47,7.77l.13.1,0,0a11.23,11.23,0,0,0,4.5,2,10.79,10.79,0,0,0,2.27.23,12.61,12.61,0,0,0,2.11-.18l.25-.07a.13.13,0,0,0,.08,0,11.47,11.47,0,0,0,4.3-1.94l0,0,.15-.1a11.34,11.34,0,0,0,4.47-7.77l.07-1.4V36.87a1.91,1.91,0,0,0-.12-.72Z"/><path class="f" d="M49.77,27V17h3.37l.5-3.92H49.77V10.61c0-1.14.31-1.91,1.94-1.91h2.06V5.2c-.36,0-1.57-.14-3-.14-3,0-5,1.82-5,5.16v2.89H42.37V17h3.37V27Z"/><path class="e" d="M49.77,57V47h3.37l.5-3.92H49.77V40.61c0-1.14.31-1.91,1.94-1.91h2.06V35.2c-.36,0-1.57-.14-3-.14-3,0-5,1.82-5,5.16v2.89H42.37V47h3.37V57Z"/></svg>