<svg xmlns="http://www.w3.org/2000/svg" width="200" height="60" viewBox="0 0 200 60"><defs><style>.a{fill:#1da1f2;}.b{fill:#333;}</style></defs><title>splite</title><path class="a" d="M34,9.77a2.36,2.36,0,0,0-.1.38,1.42,1.42,0,0,0,0,.34.42.42,0,0,0,.07.26.26.26,0,0,0,.23.11,1.3,1.3,0,0,0,.73-.26,2.56,2.56,0,0,0,.66-.72,4,4,0,0,0,.47-1.08,4.5,4.5,0,0,0,.19-1.35A3.6,3.6,0,0,0,35,4.68a4.27,4.27,0,0,0-1.34-.75A5.11,5.11,0,0,0,32,3.67,4.53,4.53,0,0,0,30.2,4a4.46,4.46,0,0,0-1.43,1,4.52,4.52,0,0,0-.93,1.5,5.11,5.11,0,0,0-.33,1.85,5.93,5.93,0,0,0,.35,2.08,4.71,4.71,0,0,0,1,1.57,4.31,4.31,0,0,0,1.48,1,4.73,4.73,0,0,0,1.85.36,4.86,4.86,0,0,0,2-.41,4.67,4.67,0,0,0,1.58-1.15h1.1a5.28,5.28,0,0,1-2,1.9,5.59,5.59,0,0,1-2.71.68A5.8,5.8,0,0,1,29.83,14,5.58,5.58,0,0,1,28,12.73a5.85,5.85,0,0,1-1.25-1.92,6.41,6.41,0,0,1-.46-2.48,5.48,5.48,0,0,1,.46-2.22A5.89,5.89,0,0,1,28,4.3,5.77,5.77,0,0,1,32,2.65,5.89,5.89,0,0,1,34,3a5.34,5.34,0,0,1,1.68.95,4.72,4.72,0,0,1,1.15,1.47,4,4,0,0,1,.44,1.85,5.09,5.09,0,0,1-.4,2.07,5.25,5.25,0,0,1-1,1.46,4.14,4.14,0,0,1-1.22.88,2.9,2.9,0,0,1-1.12.29,1,1,0,0,1-.63-.23.93.93,0,0,1-.3-.69h0a2.62,2.62,0,0,1-.79.63,1.93,1.93,0,0,1-1,.27,2.15,2.15,0,0,1-.91-.19,2.48,2.48,0,0,1-.73-.54,2.36,2.36,0,0,1-.48-.79,2.54,2.54,0,0,1-.17-.95A4.42,4.42,0,0,1,28.82,8a4.71,4.71,0,0,1,.7-1.31,3.6,3.6,0,0,1,1.08-.94A3,3,0,0,1,32,5.39a1.93,1.93,0,0,1,1,.27,2,2,0,0,1,.76.86l.28-.89h1.1Zm-2.87,1a1.49,1.49,0,0,0,.87-.27,2.83,2.83,0,0,0,.68-.7,3.68,3.68,0,0,0,.45-.91A2.92,2.92,0,0,0,33.32,8a1.4,1.4,0,0,0-.1-.54A1.62,1.62,0,0,0,33,7a1.27,1.27,0,0,0-.39-.3,1.13,1.13,0,0,0-.48-.11,1.56,1.56,0,0,0-.89.27,2.59,2.59,0,0,0-.69.67,3.36,3.36,0,0,0-.44.89,3.13,3.13,0,0,0-.16.93,1.58,1.58,0,0,0,.34,1A1.15,1.15,0,0,0,31.16,10.76Z"/><path class="a" d="M42.76,14.38A4.35,4.35,0,0,1,41,14.06a3.86,3.86,0,0,1-1.3-.89,3.81,3.81,0,0,1-.8-1.35,5.38,5.38,0,0,1-.27-1.74,5.2,5.2,0,0,1,.27-1.71A3.77,3.77,0,0,1,39.72,7,3.86,3.86,0,0,1,41,6.12a4.89,4.89,0,0,1,3.48,0A3.72,3.72,0,0,1,45.79,7a3.77,3.77,0,0,1,.8,1.36,5,5,0,0,1,.28,1.71,5.12,5.12,0,0,1-.28,1.74,3.81,3.81,0,0,1-.8,1.35,3.72,3.72,0,0,1-1.29.89A4.35,4.35,0,0,1,42.76,14.38Zm0-1.41a2.08,2.08,0,0,0,1.76-.92,2.86,2.86,0,0,0,.42-.92,4.08,4.08,0,0,0,.13-1.05,4.17,4.17,0,0,0-.13-1,2.86,2.86,0,0,0-.42-.92,2.37,2.37,0,0,0-.72-.65,2.05,2.05,0,0,0-1-.25,2,2,0,0,0-1,.25,2.29,2.29,0,0,0-.73.65,2.86,2.86,0,0,0-.42.92,4.7,4.7,0,0,0-.13,1,4.57,4.57,0,0,0,.13,1.05,2.86,2.86,0,0,0,.42.92,2.12,2.12,0,0,0,1.77.92Z"/><path class="a" d="M55.89,13.74a3.47,3.47,0,0,1-1,2.75,4.39,4.39,0,0,1-3,.9,6.59,6.59,0,0,1-1.24-.12,3.84,3.84,0,0,1-1.13-.43,2.7,2.7,0,0,1-.86-.79,2.35,2.35,0,0,1-.41-1.19h1.8a1.37,1.37,0,0,0,.27.61,1.3,1.3,0,0,0,.44.37,1.62,1.62,0,0,0,.58.17,4.68,4.68,0,0,0,.66,0,2.1,2.1,0,0,0,1.59-.53A2.16,2.16,0,0,0,54.1,14V12.73h0a2.79,2.79,0,0,1-2.44,1.43A3.67,3.67,0,0,1,50,13.82a3,3,0,0,1-1.13-.93,3.83,3.83,0,0,1-.66-1.36A6.66,6.66,0,0,1,48,9.88a4.72,4.72,0,0,1,.25-1.56A3.94,3.94,0,0,1,49,7a3.49,3.49,0,0,1,1.15-.89,3.56,3.56,0,0,1,1.55-.33,3.18,3.18,0,0,1,1.42.32,2.23,2.23,0,0,1,1,1h0V6h1.79Zm-4-1a1.91,1.91,0,0,0,1.69-.88,3,3,0,0,0,.38-.92,4.46,4.46,0,0,0,.12-1,4.24,4.24,0,0,0-.13-1A2.5,2.5,0,0,0,53.58,8a1.69,1.69,0,0,0-.67-.6,2.11,2.11,0,0,0-1-.22,1.87,1.87,0,0,0-1,.25,2.05,2.05,0,0,0-.66.65,2.68,2.68,0,0,0-.36.92,4.42,4.42,0,0,0-.12,1,4.07,4.07,0,0,0,.13,1,2.59,2.59,0,0,0,.39.86,2,2,0,0,0,.66.61A1.86,1.86,0,0,0,51.91,12.74Z"/><path class="a" d="M64.85,14.16H63.09V13h0a2.4,2.4,0,0,1-1,1,2.62,2.62,0,0,1-1.33.37,3,3,0,0,1-2.32-.79,3.48,3.48,0,0,1-.72-2.4V6h1.8v5a2.15,2.15,0,0,0,.41,1.51,1.46,1.46,0,0,0,1.15.45,2.19,2.19,0,0,0,.94-.18,1.71,1.71,0,0,0,.62-.46,2,2,0,0,0,.34-.7,4.16,4.16,0,0,0,.1-.88V6h1.79Z"/><path class="a" d="M68.14,10.56a3.09,3.09,0,0,0,.14.91,2.26,2.26,0,0,0,.4.77,1.89,1.89,0,0,0,.68.53,2.24,2.24,0,0,0,1,.2,2.2,2.2,0,0,0,1.27-.34,2.06,2.06,0,0,0,.72-1H74a3.45,3.45,0,0,1-1.32,2.06,3.74,3.74,0,0,1-1.1.53,4.43,4.43,0,0,1-1.27.18,4.33,4.33,0,0,1-1.7-.31,3.63,3.63,0,0,1-1.25-.88,3.71,3.71,0,0,1-.77-1.36,5.56,5.56,0,0,1-.26-1.73,5,5,0,0,1,.27-1.65,4.43,4.43,0,0,1,.79-1.37,3.71,3.71,0,0,1,1.24-.93A4,4,0,0,1,72,6.2a3.85,3.85,0,0,1,1.27,1.06A4.46,4.46,0,0,1,74,8.78a4.83,4.83,0,0,1,.12,1.78Zm4.19-1.19a2.94,2.94,0,0,0-.18-.82,2.13,2.13,0,0,0-.41-.68,2,2,0,0,0-.63-.47,1.83,1.83,0,0,0-.82-.18,2.13,2.13,0,0,0-.86.16,1.83,1.83,0,0,0-.66.46,2.3,2.3,0,0,0-.45.68,2.44,2.44,0,0,0-.18.85Z"/><path class="a" d="M75.5,6h1.7V7.15h0a3.93,3.93,0,0,1,.44-.55,2.13,2.13,0,0,1,.53-.42,2.41,2.41,0,0,1,.67-.28,3.22,3.22,0,0,1,.86-.1,3,3,0,0,1,1.38.33,1.86,1.86,0,0,1,.91,1,3.51,3.51,0,0,1,1-1,2.87,2.87,0,0,1,1.5-.36,2.91,2.91,0,0,1,2,.63,2.68,2.68,0,0,1,.72,2.11v5.62H85.52V9.41a8,8,0,0,0,0-.89,1.85,1.85,0,0,0-.18-.7,1.08,1.08,0,0,0-.45-.45A1.8,1.8,0,0,0,84,7.22a1.56,1.56,0,0,0-1.33.56,2.76,2.76,0,0,0-.41,1.61v4.77H80.51V8.93a2.18,2.18,0,0,0-.31-1.28,1.29,1.29,0,0,0-1.13-.43,1.51,1.51,0,0,0-.66.14,1.54,1.54,0,0,0-.57.41,2.15,2.15,0,0,0-.4.66,2.5,2.5,0,0,0-.15.9v4.83H75.5Z"/><path class="a" d="M92.93,14.38a4.35,4.35,0,0,1-1.74-.32,3.72,3.72,0,0,1-1.29-.89,3.81,3.81,0,0,1-.8-1.35,5.12,5.12,0,0,1-.28-1.74,5,5,0,0,1,.28-1.71A3.77,3.77,0,0,1,89.9,7a3.72,3.72,0,0,1,1.29-.89,4.89,4.89,0,0,1,3.48,0A3.86,3.86,0,0,1,96,7a3.92,3.92,0,0,1,.8,1.36A5.2,5.2,0,0,1,97,10.08a5.38,5.38,0,0,1-.27,1.74,4,4,0,0,1-.8,1.35,3.86,3.86,0,0,1-1.3.89A4.35,4.35,0,0,1,92.93,14.38Zm0-1.41a2.12,2.12,0,0,0,1.77-.92,2.65,2.65,0,0,0,.41-.92,4.09,4.09,0,0,0,.14-1.05,4.19,4.19,0,0,0-.14-1,2.65,2.65,0,0,0-.41-.92A2.29,2.29,0,0,0,94,7.47a2,2,0,0,0-1-.25,2.05,2.05,0,0,0-1,.25,2.37,2.37,0,0,0-.72.65,2.86,2.86,0,0,0-.42.92,4.17,4.17,0,0,0-.13,1,4.08,4.08,0,0,0,.13,1.05,2.86,2.86,0,0,0,.42.92,2.08,2.08,0,0,0,1.76.92Z"/><path class="a" d="M98.54,6h1.7v1.2l0,0a3.07,3.07,0,0,1,1.08-1.07,2.89,2.89,0,0,1,1.46-.38,3.06,3.06,0,0,1,2.11.69,2.67,2.67,0,0,1,.77,2.08v5.59H103.9V9a2.21,2.21,0,0,0-.41-1.39,1.5,1.5,0,0,0-1.18-.43,1.94,1.94,0,0,0-.82.16,1.76,1.76,0,0,0-.62.46,2,2,0,0,0-.39.68,2.39,2.39,0,0,0-.14.84v4.8h-1.8Z"/><path class="a" d="M106.64,16.13v-.79h7.87v.79Z"/><path class="a" d="M121,8.74a1.68,1.68,0,0,0-.6-1.14,2,2,0,0,0-1.26-.38,3,3,0,0,0-.74.11,1.74,1.74,0,0,0-.72.45,2.46,2.46,0,0,0-.55.89,4.27,4.27,0,0,0-.22,1.51,4.42,4.42,0,0,0,.12,1,2.83,2.83,0,0,0,.37.89,2,2,0,0,0,.67.64,2,2,0,0,0,1,.25,1.81,1.81,0,0,0,1.29-.49,2.21,2.21,0,0,0,.64-1.37h1.8a3.92,3.92,0,0,1-1.21,2.43,3.67,3.67,0,0,1-2.52.84,4.13,4.13,0,0,1-1.7-.32,3.58,3.58,0,0,1-1.23-.88,3.81,3.81,0,0,1-.77-1.33,5.31,5.31,0,0,1-.26-1.67,6,6,0,0,1,.25-1.72,3.91,3.91,0,0,1,.76-1.39,3.42,3.42,0,0,1,1.25-.93,4.19,4.19,0,0,1,1.76-.34,5,5,0,0,1,1.35.18,3.58,3.58,0,0,1,1.13.54,3,3,0,0,1,.81.92,3.09,3.09,0,0,1,.38,1.3Z"/><path class="a" d="M128,14.38a4.32,4.32,0,0,1-1.74-.32,3.76,3.76,0,0,1-1.3-.89,3.81,3.81,0,0,1-.8-1.35,5.38,5.38,0,0,1-.28-1.74,5.2,5.2,0,0,1,.28-1.71,3.62,3.62,0,0,1,2.1-2.25,4.89,4.89,0,0,1,3.48,0A3.72,3.72,0,0,1,131,7a3.77,3.77,0,0,1,.8,1.36,5.2,5.2,0,0,1,.28,1.71,5.38,5.38,0,0,1-.28,1.74,3.81,3.81,0,0,1-.8,1.35,3.72,3.72,0,0,1-1.29.89A4.35,4.35,0,0,1,128,14.38ZM128,13a2.08,2.08,0,0,0,1.76-.92,2.86,2.86,0,0,0,.42-.92,4.08,4.08,0,0,0,.13-1.05,4.17,4.17,0,0,0-.13-1,2.86,2.86,0,0,0-.42-.92,2.37,2.37,0,0,0-.72-.65,2.08,2.08,0,0,0-1-.25,2,2,0,0,0-1,.25,2.29,2.29,0,0,0-.73.65,2.86,2.86,0,0,0-.42.92,4.7,4.7,0,0,0-.13,1,4.57,4.57,0,0,0,.13,1.05,2.86,2.86,0,0,0,.42.92A2.12,2.12,0,0,0,128,13Z"/><path class="a" d="M133.55,6h1.7V7.15h.05a4.82,4.82,0,0,1,.44-.55,2.33,2.33,0,0,1,.53-.42,2.55,2.55,0,0,1,.67-.28,3.25,3.25,0,0,1,.87-.1,2.92,2.92,0,0,1,1.37.33,1.86,1.86,0,0,1,.91,1,3.64,3.64,0,0,1,1-1,2.87,2.87,0,0,1,1.5-.36,3,3,0,0,1,2,.63,2.68,2.68,0,0,1,.72,2.11v5.62h-1.8V9.41c0-.33,0-.63,0-.89a1.85,1.85,0,0,0-.18-.7,1.08,1.08,0,0,0-.45-.45,1.85,1.85,0,0,0-.82-.15,1.53,1.53,0,0,0-1.32.56,2.68,2.68,0,0,0-.41,1.61v4.77h-1.8V8.93a2.18,2.18,0,0,0-.31-1.28,1.28,1.28,0,0,0-1.12-.43,1.67,1.67,0,0,0-1.24.55,2.14,2.14,0,0,0-.39.66,2.5,2.5,0,0,0-.15.9v4.83h-1.8Z"/><path class="a" d="M6.22,18.09A11.52,11.52,0,0,0,17.81,6.5V6a7.84,7.84,0,0,0,2-2.11,8.11,8.11,0,0,1-2.33.64,4.24,4.24,0,0,0,1.8-2.26,8.36,8.36,0,0,1-2.6,1A4.08,4.08,0,0,0,9.77,7a11.6,11.6,0,0,1-8.4-4.26A4.11,4.11,0,0,0,2.63,8.13,4.13,4.13,0,0,1,.79,7.62v.06a4.09,4.09,0,0,0,3.27,4A4.2,4.2,0,0,1,3,11.82a3.9,3.9,0,0,1-.76-.06A4.09,4.09,0,0,0,6,14.59,8.15,8.15,0,0,1,1,16.33a6.18,6.18,0,0,1-1,0A11.63,11.63,0,0,0,6.23,18.1"/><path class="b" d="M32.14,48.74a1.65,1.65,0,0,0-.61-1.14,1.94,1.94,0,0,0-1.25-.38,2.89,2.89,0,0,0-.74.11,1.74,1.74,0,0,0-.72.45,2.34,2.34,0,0,0-.55.89,4.27,4.27,0,0,0-.22,1.51,4.4,4.4,0,0,0,.11,1,2.85,2.85,0,0,0,.38.89,2,2,0,0,0,.67.64,1.91,1.91,0,0,0,1,.25,1.82,1.82,0,0,0,1.3-.49,2.26,2.26,0,0,0,.64-1.37h1.8a3.92,3.92,0,0,1-1.21,2.43,3.68,3.68,0,0,1-2.53.84,4.08,4.08,0,0,1-1.69-.32,3.72,3.72,0,0,1-1.24-.88,3.79,3.79,0,0,1-.76-1.33,5.31,5.31,0,0,1-.26-1.67,5.68,5.68,0,0,1,.25-1.72,3.91,3.91,0,0,1,.76-1.39,3.34,3.34,0,0,1,1.25-.93,4.16,4.16,0,0,1,1.76-.34,4.87,4.87,0,0,1,1.34.18,3.53,3.53,0,0,1,1.14.54,3,3,0,0,1,.81.92,3.25,3.25,0,0,1,.38,1.3Z"/><path class="b" d="M39.13,54.38a4.35,4.35,0,0,1-1.74-.32,3.72,3.72,0,0,1-1.29-.89,3.81,3.81,0,0,1-.8-1.35A5.12,5.12,0,0,1,35,50.08a5,5,0,0,1,.28-1.71A3.77,3.77,0,0,1,36.1,47a3.72,3.72,0,0,1,1.29-.89,4.89,4.89,0,0,1,3.48,0,3.86,3.86,0,0,1,1.3.89,3.92,3.92,0,0,1,.8,1.36,5.2,5.2,0,0,1,.27,1.71A5.38,5.38,0,0,1,43,51.82a4,4,0,0,1-.8,1.35,3.86,3.86,0,0,1-1.3.89A4.35,4.35,0,0,1,39.13,54.38Zm0-1.41a2.12,2.12,0,0,0,1.77-.92,2.65,2.65,0,0,0,.41-.92,4.09,4.09,0,0,0,.14-1.05,4.19,4.19,0,0,0-.14-1,2.65,2.65,0,0,0-.41-.92,2.29,2.29,0,0,0-.73-.65,2,2,0,0,0-1-.25,2.05,2.05,0,0,0-1,.25,2.37,2.37,0,0,0-.72.65A2.86,2.86,0,0,0,37,49a4.17,4.17,0,0,0-.13,1A4.08,4.08,0,0,0,37,51.13a2.86,2.86,0,0,0,.42.92,2.08,2.08,0,0,0,1.76.92Z"/><path class="b" d="M44.74,46h1.7v1.2l0,0a3.13,3.13,0,0,1,1.07-1.07A2.93,2.93,0,0,1,49,45.8a3.06,3.06,0,0,1,2.11.69,2.67,2.67,0,0,1,.77,2.08v5.59h-1.8V49a2.21,2.21,0,0,0-.4-1.39,1.51,1.51,0,0,0-1.19-.43,1.92,1.92,0,0,0-.81.16,1.68,1.68,0,0,0-.62.46,2,2,0,0,0-.39.68,2.39,2.39,0,0,0-.14.84v4.8h-1.8Z"/><path class="b" d="M53,46h1.36V43.58h1.79V46h1.62v1.34H56.11v4.35a3.23,3.23,0,0,0,0,.48.72.72,0,0,0,.11.35.48.48,0,0,0,.25.21,1.28,1.28,0,0,0,.48.07h.38a2.38,2.38,0,0,0,.37-.06v1.39l-.58.06a5.49,5.49,0,0,1-.58,0,3.92,3.92,0,0,1-1.14-.13,1.47,1.47,0,0,1-.68-.4,1.39,1.39,0,0,1-.33-.65,4.66,4.66,0,0,1-.1-.9v-4.8H53Z"/><path class="b" d="M65.84,52.35a.9.9,0,0,0,.09.47.36.36,0,0,0,.34.15h.19a.81.81,0,0,0,.25,0v1.25l-.24.07-.31.07-.32,0h-.26a1.72,1.72,0,0,1-.92-.22,1.07,1.07,0,0,1-.47-.77,3.17,3.17,0,0,1-1.31.76,5.49,5.49,0,0,1-1.51.23,3.6,3.6,0,0,1-1-.15,2.56,2.56,0,0,1-.89-.44,2,2,0,0,1-.62-.74,2.31,2.31,0,0,1-.23-1,2.43,2.43,0,0,1,.28-1.23,1.9,1.9,0,0,1,.72-.74,3.32,3.32,0,0,1,1-.39,10.63,10.63,0,0,1,1.13-.18,8,8,0,0,1,.93-.13,5.21,5.21,0,0,0,.78-.14,1.18,1.18,0,0,0,.53-.29.81.81,0,0,0,.2-.59.94.94,0,0,0-.17-.57,1.14,1.14,0,0,0-.41-.34,1.54,1.54,0,0,0-.54-.15,3.82,3.82,0,0,0-.57,0,2.26,2.26,0,0,0-1.24.31,1.22,1.22,0,0,0-.55,1h-1.8a2.81,2.81,0,0,1,.38-1.31,2.56,2.56,0,0,1,.84-.83,3.6,3.6,0,0,1,1.16-.45,7.2,7.2,0,0,1,1.32-.12,5.93,5.93,0,0,1,1.19.12,3.83,3.83,0,0,1,1,.41,2.31,2.31,0,0,1,.75.74,2,2,0,0,1,.28,1.09Zm-1.79-2.27a2.2,2.2,0,0,1-1,.33c-.4,0-.8.09-1.2.16a3.7,3.7,0,0,0-.55.14,1.47,1.47,0,0,0-.47.23,1,1,0,0,0-.32.4,1.32,1.32,0,0,0-.12.59.78.78,0,0,0,.17.5,1.3,1.3,0,0,0,.42.32,1.8,1.8,0,0,0,.54.17A3.49,3.49,0,0,0,62,53a3.11,3.11,0,0,0,.65-.08,2.48,2.48,0,0,0,.65-.27,1.68,1.68,0,0,0,.51-.48,1.18,1.18,0,0,0,.21-.72Z"/><path class="b" d="M73.28,48.74a1.69,1.69,0,0,0-.61-1.14,2,2,0,0,0-1.25-.38,2.89,2.89,0,0,0-.74.11,1.74,1.74,0,0,0-.72.45,2.35,2.35,0,0,0-.56.89,4.51,4.51,0,0,0-.22,1.51,4.42,4.42,0,0,0,.12,1,2.85,2.85,0,0,0,.38.89,2,2,0,0,0,.67.64,1.91,1.91,0,0,0,1,.25,1.82,1.82,0,0,0,1.3-.49,2.32,2.32,0,0,0,.64-1.37h1.79a3.91,3.91,0,0,1-1.2,2.43,3.7,3.7,0,0,1-2.53.84,4.08,4.08,0,0,1-1.69-.32,3.72,3.72,0,0,1-1.24-.88,3.79,3.79,0,0,1-.76-1.33,5,5,0,0,1-.26-1.67,5.68,5.68,0,0,1,.25-1.72,3.91,3.91,0,0,1,.76-1.39,3.34,3.34,0,0,1,1.25-.93,4.14,4.14,0,0,1,1.75-.34,4.89,4.89,0,0,1,1.35.18,3.64,3.64,0,0,1,1.14.54,3,3,0,0,1,.81.92,3.09,3.09,0,0,1,.37,1.3Z"/><path class="b" d="M75.72,46h1.35V43.58h1.8V46h1.62v1.34H78.87v4.35c0,.19,0,.35,0,.48a1,1,0,0,0,.11.35.54.54,0,0,0,.26.21,1.28,1.28,0,0,0,.48.07h.37a2.32,2.32,0,0,0,.38-.06v1.39l-.58.06a5.49,5.49,0,0,1-.58,0,4,4,0,0,1-1.15-.13,1.48,1.48,0,0,1-.67-.4,1.23,1.23,0,0,1-.33-.65,4.61,4.61,0,0,1-.11-.9v-4.8H75.72Z"/><path class="b" d="M89.39,49.77a2.36,2.36,0,0,0-.1.38,1.42,1.42,0,0,0,0,.34.42.42,0,0,0,.07.26.26.26,0,0,0,.23.11,1.3,1.3,0,0,0,.73-.26,2.56,2.56,0,0,0,.66-.72,4,4,0,0,0,.47-1.08,4.84,4.84,0,0,0,.19-1.35,3.69,3.69,0,0,0-.33-1.58,3.57,3.57,0,0,0-.91-1.19A4.27,4.27,0,0,0,89,43.93a5.11,5.11,0,0,0-1.63-.26,4.53,4.53,0,0,0-1.83.37,4.46,4.46,0,0,0-1.43,1,4.52,4.52,0,0,0-.93,1.5,5.11,5.11,0,0,0-.33,1.85,5.71,5.71,0,0,0,.36,2.08,4.53,4.53,0,0,0,1,1.57,4.31,4.31,0,0,0,1.48,1,4.73,4.73,0,0,0,1.85.36,4.86,4.86,0,0,0,2-.41,4.57,4.57,0,0,0,1.58-1.15h1.1a5.28,5.28,0,0,1-2,1.9,5.59,5.59,0,0,1-2.71.68A5.88,5.88,0,0,1,85.18,54a5.64,5.64,0,0,1-1.86-1.25,5.85,5.85,0,0,1-1.25-1.92,6.41,6.41,0,0,1-.46-2.48,5.32,5.32,0,0,1,.47-2.22,5.78,5.78,0,0,1,3.08-3,5.76,5.76,0,0,1,2.23-.44,5.89,5.89,0,0,1,2,.34,5.34,5.34,0,0,1,1.68.95,4.72,4.72,0,0,1,1.15,1.47,4,4,0,0,1,.44,1.85,5.09,5.09,0,0,1-.4,2.07,5.25,5.25,0,0,1-1,1.46,4.14,4.14,0,0,1-1.22.88A2.9,2.9,0,0,1,89,52a1,1,0,0,1-.63-.23A.93.93,0,0,1,88,51h0a2.62,2.62,0,0,1-.79.63,1.93,1.93,0,0,1-1,.27,2.18,2.18,0,0,1-.91-.19,2.48,2.48,0,0,1-.73-.54,2.36,2.36,0,0,1-.48-.79,2.54,2.54,0,0,1-.17-1A4.42,4.42,0,0,1,84.18,48a4.71,4.71,0,0,1,.7-1.31A3.52,3.52,0,0,1,86,45.74a2.89,2.89,0,0,1,1.41-.35,1.92,1.92,0,0,1,1,.27,2,2,0,0,1,.76.86l.28-.89h1.1Zm-2.87,1a1.49,1.49,0,0,0,.87-.27,2.83,2.83,0,0,0,.68-.7,3.68,3.68,0,0,0,.45-.91,2.92,2.92,0,0,0,.16-.92,1.4,1.4,0,0,0-.1-.54,1.62,1.62,0,0,0-.27-.44,1.27,1.27,0,0,0-.39-.3,1.13,1.13,0,0,0-.48-.11,1.56,1.56,0,0,0-.89.27,2.59,2.59,0,0,0-.69.67,3.36,3.36,0,0,0-.44.89,3.13,3.13,0,0,0-.16.93,1.58,1.58,0,0,0,.34,1A1.15,1.15,0,0,0,86.52,50.76Z"/><path class="b" d="M98.12,54.38a4.32,4.32,0,0,1-1.74-.32,3.86,3.86,0,0,1-1.3-.89,3.81,3.81,0,0,1-.8-1.35A5.38,5.38,0,0,1,94,50.08a5.2,5.2,0,0,1,.28-1.71,3.77,3.77,0,0,1,.8-1.36,3.86,3.86,0,0,1,1.3-.89,4.89,4.89,0,0,1,3.48,0,3.72,3.72,0,0,1,1.29.89,3.77,3.77,0,0,1,.8,1.36,5.2,5.2,0,0,1,.28,1.71,5.38,5.38,0,0,1-.28,1.74,3.81,3.81,0,0,1-.8,1.35,3.72,3.72,0,0,1-1.29.89A4.35,4.35,0,0,1,98.12,54.38Zm0-1.41a2.08,2.08,0,0,0,1.76-.92,2.86,2.86,0,0,0,.42-.92,4.08,4.08,0,0,0,.13-1.05,4.17,4.17,0,0,0-.13-1,2.86,2.86,0,0,0-.42-.92,2.37,2.37,0,0,0-.72-.65,2.05,2.05,0,0,0-1-.25,2,2,0,0,0-1,.25,2.29,2.29,0,0,0-.73.65,2.86,2.86,0,0,0-.42.92,4.7,4.7,0,0,0-.13,1,4.57,4.57,0,0,0,.13,1.05,2.86,2.86,0,0,0,.42.92,2.12,2.12,0,0,0,1.77.92Z"/><path class="b" d="M111.25,53.74a3.47,3.47,0,0,1-1,2.75,4.39,4.39,0,0,1-3,.9,6.59,6.59,0,0,1-1.24-.12,3.84,3.84,0,0,1-1.13-.43,2.7,2.7,0,0,1-.86-.79,2.35,2.35,0,0,1-.41-1.19h1.8a1.37,1.37,0,0,0,.27.61,1.3,1.3,0,0,0,.44.37,1.62,1.62,0,0,0,.58.17,4.68,4.68,0,0,0,.66,0,2.1,2.1,0,0,0,1.59-.53,2.16,2.16,0,0,0,.51-1.55V52.73h0a2.76,2.76,0,0,1-1,1.05,2.67,2.67,0,0,1-1.41.38,3.67,3.67,0,0,1-1.66-.34,3,3,0,0,1-1.13-.93,3.83,3.83,0,0,1-.66-1.36,6.66,6.66,0,0,1-.2-1.65,4.72,4.72,0,0,1,.25-1.56,3.94,3.94,0,0,1,.73-1.3,3.49,3.49,0,0,1,1.15-.89A3.56,3.56,0,0,1,107,45.8a3.18,3.18,0,0,1,1.42.32,2.3,2.3,0,0,1,1,1h0V46h1.79Zm-4-1a2,2,0,0,0,1-.24,2,2,0,0,0,.68-.64,3,3,0,0,0,.38-.92,4.46,4.46,0,0,0,.12-1,4.24,4.24,0,0,0-.13-1,2.5,2.5,0,0,0-.39-.86,1.76,1.76,0,0,0-.67-.6,2.08,2.08,0,0,0-1-.22,1.87,1.87,0,0,0-1,.25,2.05,2.05,0,0,0-.66.65,2.68,2.68,0,0,0-.36.92,4.42,4.42,0,0,0-.12,1,4.07,4.07,0,0,0,.13,1,2.8,2.8,0,0,0,.39.86,2,2,0,0,0,.66.61A1.86,1.86,0,0,0,107.27,52.74Z"/><path class="b" d="M120.21,54.16h-1.76V53h0a2.4,2.4,0,0,1-1,1,2.62,2.62,0,0,1-1.33.37,3,3,0,0,1-2.32-.79,3.48,3.48,0,0,1-.72-2.4V46h1.8v5a2.15,2.15,0,0,0,.41,1.51,1.46,1.46,0,0,0,1.15.45,2.16,2.16,0,0,0,.94-.18,1.63,1.63,0,0,0,.62-.46,2,2,0,0,0,.34-.7,4.16,4.16,0,0,0,.1-.88V46h1.79Z"/><path class="b" d="M123.51,50.56a3.08,3.08,0,0,0,.13.91,2.26,2.26,0,0,0,.4.77,1.89,1.89,0,0,0,.68.53,2.24,2.24,0,0,0,1,.2,2.2,2.2,0,0,0,1.27-.34,2.06,2.06,0,0,0,.72-1h1.7a3.28,3.28,0,0,1-.49,1.18,3.49,3.49,0,0,1-.83.88,3.74,3.74,0,0,1-1.1.53,4.38,4.38,0,0,1-1.27.18,4.33,4.33,0,0,1-1.7-.31,3.63,3.63,0,0,1-1.25-.88,3.71,3.71,0,0,1-.77-1.36,5.56,5.56,0,0,1-.26-1.73,5,5,0,0,1,.27-1.65,4.43,4.43,0,0,1,.79-1.37,3.82,3.82,0,0,1,1.24-.93,4,4,0,0,1,3.36.05,3.85,3.85,0,0,1,1.27,1.06,4.29,4.29,0,0,1,.73,1.52,4.83,4.83,0,0,1,.12,1.78Zm4.19-1.19a3.37,3.37,0,0,0-.19-.82,2.13,2.13,0,0,0-.41-.68,2,2,0,0,0-.63-.47,1.83,1.83,0,0,0-.82-.18,2.16,2.16,0,0,0-.86.16,1.83,1.83,0,0,0-.66.46,2.1,2.1,0,0,0-.44.68,2.44,2.44,0,0,0-.18.85Z"/><path class="b" d="M130.86,46h1.7v1.13h.05a4.82,4.82,0,0,1,.44-.55,2.13,2.13,0,0,1,.53-.42,2.41,2.41,0,0,1,.67-.28,3.22,3.22,0,0,1,.86-.1,3,3,0,0,1,1.38.33,1.86,1.86,0,0,1,.91,1,3.51,3.51,0,0,1,1-1,2.87,2.87,0,0,1,1.5-.36,3,3,0,0,1,2,.63,2.71,2.71,0,0,1,.71,2.11v5.62h-1.79V49.41c0-.33,0-.63,0-.89a2.31,2.31,0,0,0-.18-.7,1.08,1.08,0,0,0-.45-.45,1.88,1.88,0,0,0-.82-.15,1.56,1.56,0,0,0-1.33.56,2.76,2.76,0,0,0-.41,1.61v4.77h-1.79V48.93a2.18,2.18,0,0,0-.31-1.28,1.28,1.28,0,0,0-1.12-.43,1.52,1.52,0,0,0-.67.14,1.54,1.54,0,0,0-.57.41,2.14,2.14,0,0,0-.39.66,2.5,2.5,0,0,0-.15.9v4.83h-1.8Z"/><path class="b" d="M148.3,54.38a4.37,4.37,0,0,1-1.75-.32,3.72,3.72,0,0,1-1.29-.89,3.81,3.81,0,0,1-.8-1.35,5.38,5.38,0,0,1-.28-1.74,5.2,5.2,0,0,1,.28-1.71,3.77,3.77,0,0,1,.8-1.36,3.72,3.72,0,0,1,1.29-.89,4.55,4.55,0,0,1,1.75-.32,4.45,4.45,0,0,1,1.73.32,3.86,3.86,0,0,1,1.3.89,3.77,3.77,0,0,1,.8,1.36,5.2,5.2,0,0,1,.28,1.71,5.38,5.38,0,0,1-.28,1.74,3.81,3.81,0,0,1-.8,1.35,3.86,3.86,0,0,1-1.3.89A4.27,4.27,0,0,1,148.3,54.38Zm0-1.41a2.12,2.12,0,0,0,1.76-.92,2.86,2.86,0,0,0,.42-.92,4.08,4.08,0,0,0,.13-1.05,4.17,4.17,0,0,0-.13-1,2.86,2.86,0,0,0-.42-.92,2.29,2.29,0,0,0-.73-.65,2.27,2.27,0,0,0-2.07,0,2.29,2.29,0,0,0-.73.65,2.86,2.86,0,0,0-.42.92,4.17,4.17,0,0,0-.13,1,4.08,4.08,0,0,0,.13,1.05,2.86,2.86,0,0,0,.42.92,2.12,2.12,0,0,0,1.77.92Z"/><path class="b" d="M153.9,46h1.7v1.2l0,0a3.07,3.07,0,0,1,1.08-1.07,2.92,2.92,0,0,1,1.46-.38,3,3,0,0,1,2.11.69,2.67,2.67,0,0,1,.77,2.08v5.59h-1.79V49a2.21,2.21,0,0,0-.41-1.39,1.48,1.48,0,0,0-1.18-.43,1.94,1.94,0,0,0-.82.16,1.76,1.76,0,0,0-.62.46,2.16,2.16,0,0,0-.39.68,2.39,2.39,0,0,0-.14.84v4.8h-1.8Z"/><path class="b" d="M163.08,52h2.19v2.12h-2.19Z"/><path class="b" d="M172.82,48.74a1.73,1.73,0,0,0-.61-1.14,2,2,0,0,0-1.25-.38,2.89,2.89,0,0,0-.74.11,1.77,1.77,0,0,0-.73.45,2.46,2.46,0,0,0-.55.89,4.51,4.51,0,0,0-.22,1.51,4.42,4.42,0,0,0,.12,1,2.85,2.85,0,0,0,.38.89,1.87,1.87,0,0,0,.67.64,1.91,1.91,0,0,0,1,.25,1.84,1.84,0,0,0,1.3-.49,2.32,2.32,0,0,0,.64-1.37h1.79a4,4,0,0,1-1.2,2.43,3.7,3.7,0,0,1-2.53.84,4,4,0,0,1-1.69-.32,3.72,3.72,0,0,1-1.24-.88,3.64,3.64,0,0,1-.76-1.33,5,5,0,0,1-.26-1.67,5.68,5.68,0,0,1,.25-1.72,3.91,3.91,0,0,1,.76-1.39,3.34,3.34,0,0,1,1.25-.93,4.11,4.11,0,0,1,1.75-.34,5,5,0,0,1,1.35.18,3.58,3.58,0,0,1,1.13.54,3.16,3.16,0,0,1,.82.92,3.24,3.24,0,0,1,.37,1.3Z"/><path class="b" d="M179.81,54.38a4.35,4.35,0,0,1-1.74-.32,3.72,3.72,0,0,1-1.29-.89,4,4,0,0,1-.81-1.35,5.38,5.38,0,0,1-.27-1.74,5.2,5.2,0,0,1,.27-1.71,3.94,3.94,0,0,1,.81-1.36,3.72,3.72,0,0,1,1.29-.89,4.89,4.89,0,0,1,3.48,0,3.72,3.72,0,0,1,1.29.89,3.94,3.94,0,0,1,.81,1.36,5.2,5.2,0,0,1,.27,1.71,5.38,5.38,0,0,1-.27,1.74,4,4,0,0,1-.81,1.35,3.72,3.72,0,0,1-1.29.89A4.35,4.35,0,0,1,179.81,54.38Zm0-1.41a2,2,0,0,0,1-.26,2.07,2.07,0,0,0,.72-.66,2.86,2.86,0,0,0,.42-.92,4.09,4.09,0,0,0,.14-1.05,4.19,4.19,0,0,0-.14-1,2.86,2.86,0,0,0-.42-.92,2.37,2.37,0,0,0-.72-.65,2.29,2.29,0,0,0-2.08,0,2.37,2.37,0,0,0-.72.65,2.86,2.86,0,0,0-.42.92,4.19,4.19,0,0,0-.14,1,4.09,4.09,0,0,0,.14,1.05,2.86,2.86,0,0,0,.42.92,2.07,2.07,0,0,0,.72.66A2,2,0,0,0,179.81,53Z"/><path class="b" d="M185.42,46h1.7v1.13h0a3.93,3.93,0,0,1,.44-.55,2.09,2.09,0,0,1,.52-.42,2.7,2.7,0,0,1,.67-.28,3.3,3.3,0,0,1,.87-.1,3,3,0,0,1,1.38.33,1.88,1.88,0,0,1,.9,1,3.67,3.67,0,0,1,1.06-1,2.86,2.86,0,0,1,1.49-.36,2.93,2.93,0,0,1,2,.63,2.68,2.68,0,0,1,.72,2.11v5.62h-1.8V49.41c0-.33,0-.63,0-.89a1.85,1.85,0,0,0-.18-.7,1.08,1.08,0,0,0-.45-.45,1.85,1.85,0,0,0-.82-.15,1.53,1.53,0,0,0-1.32.56,2.76,2.76,0,0,0-.41,1.61v4.77h-1.79V48.93a2.26,2.26,0,0,0-.31-1.28,1.3,1.3,0,0,0-1.13-.43,1.63,1.63,0,0,0-1.23.55,2,2,0,0,0-.4.66,2.5,2.5,0,0,0-.15.9v4.83h-1.79Z"/><path class="b" d="M20,44.38a2.71,2.71,0,0,0-.58-1.22L19.27,43a2.79,2.79,0,0,0-2-.82H2.79a2.79,2.79,0,0,0-2,.82l-.19.21a2.71,2.71,0,0,0-.58,1.22,3.29,3.29,0,0,0,0,.54v10.2a2.71,2.71,0,0,0,.23,1.1,2.73,2.73,0,0,0,.59.87l.19.18a2.82,2.82,0,0,0,1.78.63H17.3a2.77,2.77,0,0,0,1.78-.64,1.54,1.54,0,0,0,.19-.17,2.73,2.73,0,0,0,.59-.87h0a2.71,2.71,0,0,0,.23-1.1V44.92A3.29,3.29,0,0,0,20,44.38ZM1.83,44a1.32,1.32,0,0,1,1-.4H17.3a1.32,1.32,0,0,1,1,.4.86.86,0,0,1,.13.14l-7.61,6.64a1.14,1.14,0,0,1-1.47,0L1.71,44.1A.53.53,0,0,1,1.83,44Zm-.4,11.16V45.58l5.5,4.8-5.5,4.8ZM17.3,56.48H2.79a1.41,1.41,0,0,1-.68-.18l5.81-5.06.54.47a2.39,2.39,0,0,0,3.17,0l.54-.47L18,56.3A1.41,1.41,0,0,1,17.3,56.48Zm1.36-1.36v.06l-5.5-4.8,5.5-4.8Z"/><path d="M30.11,34.38a4.35,4.35,0,0,1-1.74-.32,3.72,3.72,0,0,1-1.29-.89,3.81,3.81,0,0,1-.8-1.35A5.12,5.12,0,0,1,26,30.08a5,5,0,0,1,.28-1.71,3.77,3.77,0,0,1,.8-1.36,3.72,3.72,0,0,1,1.29-.89,4.89,4.89,0,0,1,3.48,0,3.72,3.72,0,0,1,1.29.89A3.94,3.94,0,0,1,34,28.37a5.2,5.2,0,0,1,.27,1.71A5.38,5.38,0,0,1,34,31.82a4,4,0,0,1-.81,1.35,3.72,3.72,0,0,1-1.29.89A4.35,4.35,0,0,1,30.11,34.38Zm0-1.41a2,2,0,0,0,1-.26,2,2,0,0,0,.72-.66,2.86,2.86,0,0,0,.42-.92,4.09,4.09,0,0,0,.14-1.05,4.19,4.19,0,0,0-.14-1,2.86,2.86,0,0,0-.42-.92,2.26,2.26,0,0,0-.72-.65,2,2,0,0,0-1-.25,2.05,2.05,0,0,0-1,.25,2.37,2.37,0,0,0-.72.65,2.86,2.86,0,0,0-.42.92,4.17,4.17,0,0,0-.13,1,4.08,4.08,0,0,0,.13,1.05,2.86,2.86,0,0,0,.42.92,2.08,2.08,0,0,0,1.76.92Z"/><path d="M43.25,33.74a3.47,3.47,0,0,1-1,2.75,4.35,4.35,0,0,1-3,.9A6.51,6.51,0,0,1,38,37.27a3.9,3.9,0,0,1-1.14-.43,2.67,2.67,0,0,1-.85-.79,2.35,2.35,0,0,1-.41-1.19H37.4a1.37,1.37,0,0,0,.27.61,1.44,1.44,0,0,0,.45.37,1.52,1.52,0,0,0,.57.17,4.73,4.73,0,0,0,.67,0A2.13,2.13,0,0,0,41,35.52a2.2,2.2,0,0,0,.5-1.55V32.73h0A2.79,2.79,0,0,1,39,34.16a3.64,3.64,0,0,1-1.66-.34,3,3,0,0,1-1.14-.93,3.65,3.65,0,0,1-.65-1.36,6.21,6.21,0,0,1-.21-1.65,4.73,4.73,0,0,1,.26-1.56A3.75,3.75,0,0,1,36.3,27a3.43,3.43,0,0,1,1.16-.89A3.5,3.5,0,0,1,39,25.8a3.22,3.22,0,0,1,1.42.32,2.23,2.23,0,0,1,1,1h0V26h1.8Zm-4-1a2,2,0,0,0,1-.24,2.05,2.05,0,0,0,.67-.64,2.79,2.79,0,0,0,.38-.92,4.46,4.46,0,0,0,.12-1,3.78,3.78,0,0,0-.13-1,2.68,2.68,0,0,0-.38-.86,1.78,1.78,0,0,0-.68-.6,2.08,2.08,0,0,0-1-.22,1.89,1.89,0,0,0-1,.25,2.16,2.16,0,0,0-.66.65,2.68,2.68,0,0,0-.36.92,5,5,0,0,0-.11,1,4.07,4.07,0,0,0,.12,1,3.06,3.06,0,0,0,.39.86,2,2,0,0,0,.66.61A1.86,1.86,0,0,0,39.26,32.74Z"/><path d="M52.21,34.16H50.44V33h0a2.43,2.43,0,0,1-1,1,2.65,2.65,0,0,1-1.33.37,3,3,0,0,1-2.33-.79,3.53,3.53,0,0,1-.71-2.4V26h1.79v5a2.2,2.2,0,0,0,.41,1.51,1.48,1.48,0,0,0,1.15.45,2.24,2.24,0,0,0,1-.18,1.67,1.67,0,0,0,.61-.46,1.83,1.83,0,0,0,.34-.7,3.6,3.6,0,0,0,.1-.88V26h1.8Z"/><path d="M55.5,30.56a3.08,3.08,0,0,0,.13.91,2.45,2.45,0,0,0,.4.77,2,2,0,0,0,.68.53A2.52,2.52,0,0,0,59,32.63a2,2,0,0,0,.71-1h1.7a3.26,3.26,0,0,1-.48,1.18,3.52,3.52,0,0,1-.84.88A3.8,3.8,0,0,1,59,34.2a4.48,4.48,0,0,1-1.27.18,4.3,4.3,0,0,1-1.7-.31,3.67,3.67,0,0,1-1.26-.88A3.86,3.86,0,0,1,54,31.83a5.56,5.56,0,0,1-.26-1.73A4.77,4.77,0,0,1,54,28.45a4.06,4.06,0,0,1,.79-1.37A3.78,3.78,0,0,1,56,26.15a3.65,3.65,0,0,1,1.64-.35,3.58,3.58,0,0,1,1.72.4,3.76,3.76,0,0,1,1.27,1.06,4.48,4.48,0,0,1,.74,1.52,4.62,4.62,0,0,1,.11,1.78Zm4.19-1.19a2.94,2.94,0,0,0-.18-.82,2.33,2.33,0,0,0-.41-.68,2.26,2.26,0,0,0-.63-.47,1.9,1.9,0,0,0-.83-.18,2.2,2.2,0,0,0-.86.16,1.83,1.83,0,0,0-.66.46,2.28,2.28,0,0,0-.44.68,2.44,2.44,0,0,0-.18.85Z"/><path d="M62.85,26h1.7v1.13h0A6.23,6.23,0,0,1,65,26.6a2.33,2.33,0,0,1,.53-.42,2.55,2.55,0,0,1,.67-.28,3.25,3.25,0,0,1,.87-.1,2.92,2.92,0,0,1,1.37.33,1.86,1.86,0,0,1,.91,1,3.64,3.64,0,0,1,1-1,2.87,2.87,0,0,1,1.5-.36,3,3,0,0,1,2,.63,2.68,2.68,0,0,1,.72,2.11v5.62h-1.8V29.41c0-.33,0-.63,0-.89a1.85,1.85,0,0,0-.18-.7,1.08,1.08,0,0,0-.45-.45,1.85,1.85,0,0,0-.82-.15,1.53,1.53,0,0,0-1.32.56,2.68,2.68,0,0,0-.41,1.61v4.77h-1.8V28.93a2.18,2.18,0,0,0-.31-1.28,1.28,1.28,0,0,0-1.12-.43,1.55,1.55,0,0,0-.67.14,1.63,1.63,0,0,0-.57.41,2.14,2.14,0,0,0-.39.66,2.5,2.5,0,0,0-.15.9v4.83h-1.8Z"/><path d="M80.29,34.38a4.35,4.35,0,0,1-1.74-.32,3.72,3.72,0,0,1-1.29-.89,3.83,3.83,0,0,1-.81-1.35,5.38,5.38,0,0,1-.27-1.74,5.2,5.2,0,0,1,.27-1.71A3.79,3.79,0,0,1,77.26,27a3.72,3.72,0,0,1,1.29-.89,4.89,4.89,0,0,1,3.48,0,3.72,3.72,0,0,1,1.29.89,3.77,3.77,0,0,1,.8,1.36,5,5,0,0,1,.28,1.71,5.12,5.12,0,0,1-.28,1.74,3.81,3.81,0,0,1-.8,1.35,3.72,3.72,0,0,1-1.29.89A4.35,4.35,0,0,1,80.29,34.38Zm0-1.41a2.08,2.08,0,0,0,1.76-.92,2.86,2.86,0,0,0,.42-.92,4.08,4.08,0,0,0,.13-1.05,4.17,4.17,0,0,0-.13-1,2.86,2.86,0,0,0-.42-.92,2.37,2.37,0,0,0-.72-.65,2.05,2.05,0,0,0-1-.25,2,2,0,0,0-1,.25,2.29,2.29,0,0,0-.73.65,3.07,3.07,0,0,0-.41.92,4.19,4.19,0,0,0-.14,1,4.09,4.09,0,0,0,.14,1.05,3.07,3.07,0,0,0,.41.92,2.12,2.12,0,0,0,1.77.92Z"/><path d="M85.89,26H87.6v1.2l0,0a3,3,0,0,1,1.07-1.07,2.92,2.92,0,0,1,1.46-.38,3,3,0,0,1,2.11.69,2.64,2.64,0,0,1,.78,2.08v5.59h-1.8V29a2.21,2.21,0,0,0-.41-1.39,1.47,1.47,0,0,0-1.18-.43,1.94,1.94,0,0,0-.82.16,1.64,1.64,0,0,0-.61.46,2.18,2.18,0,0,0-.4.68,2.64,2.64,0,0,0-.14.84v4.8h-1.8Z"/><path d="M94,36.13v-.79h7.88v.79Z"/><path d="M108.31,28.74a1.73,1.73,0,0,0-.61-1.14,2,2,0,0,0-1.25-.38,2.89,2.89,0,0,0-.74.11,1.77,1.77,0,0,0-.73.45,2.46,2.46,0,0,0-.55.89,4.51,4.51,0,0,0-.22,1.51,4.42,4.42,0,0,0,.12,1,2.85,2.85,0,0,0,.38.89,1.87,1.87,0,0,0,.67.64,1.91,1.91,0,0,0,1,.25,1.84,1.84,0,0,0,1.3-.49,2.32,2.32,0,0,0,.64-1.37h1.79a4,4,0,0,1-1.2,2.43,3.7,3.7,0,0,1-2.53.84,4,4,0,0,1-1.69-.32,3.72,3.72,0,0,1-1.24-.88,3.64,3.64,0,0,1-.76-1.33,5,5,0,0,1-.26-1.67,5.68,5.68,0,0,1,.25-1.72,3.91,3.91,0,0,1,.76-1.39,3.34,3.34,0,0,1,1.25-.93,4.11,4.11,0,0,1,1.75-.34,5,5,0,0,1,1.35.18,3.58,3.58,0,0,1,1.13.54,3.16,3.16,0,0,1,.82.92,3.24,3.24,0,0,1,.37,1.3Z"/><path d="M115.3,34.38a4.35,4.35,0,0,1-1.74-.32,3.72,3.72,0,0,1-1.29-.89,4,4,0,0,1-.81-1.35,5.38,5.38,0,0,1-.27-1.74,5.2,5.2,0,0,1,.27-1.71,3.94,3.94,0,0,1,.81-1.36,3.72,3.72,0,0,1,1.29-.89,4.89,4.89,0,0,1,3.48,0,3.72,3.72,0,0,1,1.29.89,3.94,3.94,0,0,1,.81,1.36,5.2,5.2,0,0,1,.27,1.71,5.38,5.38,0,0,1-.27,1.74,4,4,0,0,1-.81,1.35,3.72,3.72,0,0,1-1.29.89A4.35,4.35,0,0,1,115.3,34.38Zm0-1.41a2,2,0,0,0,1-.26,2.07,2.07,0,0,0,.72-.66,2.86,2.86,0,0,0,.42-.92,4.09,4.09,0,0,0,.14-1.05,4.19,4.19,0,0,0-.14-1,2.86,2.86,0,0,0-.42-.92,2.37,2.37,0,0,0-.72-.65,2.29,2.29,0,0,0-2.08,0,2.37,2.37,0,0,0-.72.65,2.86,2.86,0,0,0-.42.92,4.19,4.19,0,0,0-.14,1,4.09,4.09,0,0,0,.14,1.05,2.86,2.86,0,0,0,.42.92,2.07,2.07,0,0,0,.72.66A2,2,0,0,0,115.3,33Z"/><path d="M120.91,26h1.7v1.13h0a3.93,3.93,0,0,1,.44-.55,2.09,2.09,0,0,1,.52-.42,2.7,2.7,0,0,1,.67-.28,3.3,3.3,0,0,1,.87-.1,3,3,0,0,1,1.38.33,1.88,1.88,0,0,1,.9,1,3.67,3.67,0,0,1,1.06-1A2.86,2.86,0,0,1,130,25.8a2.93,2.93,0,0,1,2,.63,2.68,2.68,0,0,1,.72,2.11v5.62h-1.8V29.41c0-.33,0-.63,0-.89a1.85,1.85,0,0,0-.18-.7,1.08,1.08,0,0,0-.45-.45,1.85,1.85,0,0,0-.82-.15,1.53,1.53,0,0,0-1.32.56,2.76,2.76,0,0,0-.41,1.61v4.77h-1.79V28.93a2.26,2.26,0,0,0-.31-1.28,1.3,1.3,0,0,0-1.13-.43,1.63,1.63,0,0,0-1.23.55,2,2,0,0,0-.4.66,2.5,2.5,0,0,0-.15.9v4.83h-1.79Z"/><path d="M10,24.87A5.13,5.13,0,1,0,15.13,30,5.11,5.11,0,0,0,10,24.87Zm0,8.46A3.33,3.33,0,1,1,13.34,30,3.34,3.34,0,0,1,10,33.33Zm6.54-8.67a1.2,1.2,0,1,1-1.2-1.19A1.2,1.2,0,0,1,16.54,24.66Zm3.39,1.22a6,6,0,0,0-1.61-4.19,6,6,0,0,0-4.19-1.62c-1.66-.09-6.6-.09-8.25,0a6,6,0,0,0-4.19,1.61A5.92,5.92,0,0,0,.07,25.87C0,27.52,0,32.47.07,34.12a5.92,5.92,0,0,0,1.62,4.19,5.94,5.94,0,0,0,4.19,1.62c1.65.09,6.59.09,8.25,0a5.92,5.92,0,0,0,4.19-1.62,6,6,0,0,0,1.61-4.19c.09-1.65.09-6.59,0-8.24Zm-2.13,10a3.4,3.4,0,0,1-1.9,1.91c-1.32.52-4.44.4-5.9.4s-4.58.11-5.89-.4a3.37,3.37,0,0,1-1.9-1.91c-.52-1.31-.4-4.44-.4-5.89s-.12-4.58.4-5.89a3.4,3.4,0,0,1,1.9-1.91c1.31-.52,4.44-.4,5.89-.4s4.59-.11,5.9.4a3.4,3.4,0,0,1,1.9,1.91c.52,1.31.4,4.44.4,5.89S18.32,34.58,17.8,35.89Z"/></svg>