<svg xmlns="http://www.w3.org/2000/svg" width="125" height="25" viewBox="0 0 125 25"><defs><style>.a{fill:#00a5de}</style></defs><path d="M24.31 8.48l-10.9-3.34a3 3 0 0 0-1.82 0L.69 8.48a.93.93 0 0 0 0 1.79l1.9.58a3.07 3.07 0 0 0-.7 1.83 1.24 1.24 0 0 0-.64 1.07 1.21 1.21 0 0 0 .54 1l-1 4.49a.63.63 0 0 0 .61.76h2.2a.63.63 0 0 0 .61-.76l-1-4.49a1.21 1.21 0 0 0 .54-1 1.23 1.23 0 0 0-.61-1.05A1.81 1.81 0 0 1 4 11.27l7.64 2.34a3 3 0 0 0 1.82 0l10.9-3.34a.93.93 0 0 0 0-1.79zm-10.53 6.33a4.41 4.41 0 0 1-2.56 0l-5.67-1.74L5 17.5c0 1.38 3.36 2.5 7.5 2.5s7.5-1.12 7.5-2.5l-.55-4.43zM123.44 17.58V1.17A1.17 1.17 0 0 0 122.27 0h-16a4.69 4.69 0 0 0-4.69 4.69v15.62a4.69 4.69 0 0 0 4.67 4.69h16a1.17 1.17 0 0 0 1.17-1.17v-.78a1.18 1.18 0 0 0-.44-.92 11.12 11.12 0 0 1 0-3.64 1.16 1.16 0 0 0 .44-.91zm-15.63-11a.29.29 0 0 1 .3-.29h10.35a.29.29 0 0 1 .29.29v1a.29.29 0 0 1-.29.29h-10.35a.29.29 0 0 1-.3-.29zm0 3.13a.29.29 0 0 1 .3-.29h10.35a.29.29 0 0 1 .29.29v1a.29.29 0 0 1-.29.3h-10.35a.29.29 0 0 1-.3-.3zm12.38 12.2h-13.94a1.56 1.56 0 0 1 0-3.12h13.94a16.26 16.26 0 0 0 0 3.08zM85.89 22.48l-2.38-.69a.47.47 0 0 1-.32-.58l5.33-18.37a.48.48 0 0 1 .59-.32l2.38.69a.47.47 0 0 1 .32.58l-5.33 18.37a.48.48 0 0 1-.59.32zm-4.45-4.38l1.7-1.82a.47.47 0 0 0 0-.67l-3.57-3.11 3.54-3.11a.48.48 0 0 0 0-.68L81.44 6.9a.46.46 0 0 0-.66 0l-5.63 5.28a.46.46 0 0 0 0 .68l5.63 5.28a.46.46 0 0 0 .66 0zm12.78 0l5.63-5.28a.46.46 0 0 0 0-.68l-5.63-5.26a.46.46 0 0 0-.66 0l-1.7 1.81a.47.47 0 0 0 0 .67l3.54 3.12-3.54 3.11a.47.47 0 0 0 0 .67l1.7 1.82a.46.46 0 0 0 .66 0zM57.08 23.06A1.56 1.56 0 0 0 58.21 25a1.31 1.31 0 0 0 .39.05 1.56 1.56 0 0 0 1.51-1.18l1.23-4.93-2.57-2.58-1.69 6.75zm.72-9.58l2-7.77a.76.76 0 0 0-.58-.93 4 4 0 0 0-4.85 2.79l-1.23 4.79a.77.77 0 0 0 .58.94l3.1.74a.8.8 0 0 0 .98-.56zm13.29-5.67h-.78a.78.78 0 0 0-.78.78v.78h-1.7l-2.28-2.28a2.87 2.87 0 0 0-4.81 1.33l-1.32 5.26a1.6 1.6 0 0 0 .41 1.49l4.23 4.23v4a1.57 1.57 0 0 0 3.13 0v-4a3.1 3.1 0 0 0-.92-2.21L64 14.9v-.07L65 11l1.08 1a1.55 1.55 0 0 0 1.11.46h2.34v11.76a.78.78 0 0 0 .78.78h.78a.77.77 0 0 0 .78-.78V8.59a.77.77 0 0 0-.78-.78zm-6.25-3.12a2.35 2.35 0 1 0-2.34-2.35 2.35 2.35 0 0 0 2.34 2.35z" class="a"/><path d="M47.57 3.06a6.68 6.68 0 0 0-9.11.66l-1 1-1-1a6.68 6.68 0 0 0-9.11-.66 7 7 0 0 0-.49 10.15L36.39 23a1.53 1.53 0 0 0 2.21 0l9.45-9.76a7 7 0 0 0-.48-10.15z" class="a"/></svg>