<svg xmlns="http://www.w3.org/2000/svg" viewBox="0 0 180 180"><path fill="#fff" d="M0 145.8h25v-10H10v-90h15v-10H0zm155-110v10h15v90h-15v10h25v-110zM53.3 76V48.8H42.8v-6.4a30 30 0 0 0 4.3-.3 9.9 9.9 0 0 0 6.5-4 8.4 8.4 0 0 0 1.5-4h6.8v42h-8.6zm57.5-31.4c.8-2.8 1.9-5 3.3-6.7 1.4-1.7 3-2.9 4.9-3.6a16.7 16.7 0 0 1 11.9 0c1.9.7 3.5 1.9 4.9 3.6s2.5 3.9 3.4 6.7c.8 2.8 1.2 6.2 1.2 10.3 0 4.2-.4 7.7-1.2 10.5-.8 2.8-1.9 5.1-3.4 6.8s-3.1 2.9-4.9 3.6a16.8 16.8 0 0 1-11.9 0c-1.9-.7-3.5-1.9-4.9-3.6a18 18 0 0 1-3.3-6.8c-.8-2.8-1.2-6.3-1.2-10.5 0-4.1.4-7.6 1.2-10.3zm7.4 14.6c.1 1.7.3 3.3.8 4.9s1.1 2.9 2 4c.9 1.1 2.2 1.7 4 1.7 1.8 0 3.1-.6 4-1.7.9-1.1 1.6-2.5 2-4s.7-3.2.8-4.9l.1-4.4v-2.6l-.2-3.2a18 18 0 0 0-.6-3.2c-.3-1.1-.7-2-1.2-2.8a6.4 6.4 0 0 0-2-2c-.8-.5-1.8-.8-2.9-.8s-2.1.3-2.9.8c-.8.5-1.4 1.2-1.9 2s-.9 1.8-1.2 2.8a18 18 0 0 0-.6 3.2l-.2 3.2v2.6a32 32 0 0 0 0 4.4zm-77.4 55.4c.8-2.8 1.9-5 3.3-6.7 1.4-1.7 3-2.9 4.9-3.6a16.7 16.7 0 0 1 11.9 0c1.9.7 3.5 1.9 4.9 3.6a20 20 0 0 1 3.4 6.7c.8 2.8 1.2 6.2 1.2 10.3 0 4.2-.4 7.7-1.2 10.5-.8 2.8-1.9 5.1-3.4 6.8a12 12 0 0 1-4.9 3.6 17.3 17.3 0 0 1-11.9 0c-1.9-.7-3.5-1.9-4.9-3.6a18 18 0 0 1-3.3-6.8c-.8-2.8-1.2-6.3-1.2-10.5 0-4.1.4-7.6 1.2-10.3zm7.4 14.6c.1 1.7.3 3.3.8 4.9s1.1 2.9 2 4c.9 1.1 2.2 1.7 4 1.7 1.8 0 3.1-.6 4-1.7.9-1.1 1.6-2.5 2-4s.7-3.2.8-4.9l.1-4.4v-2.6l-.2-3.2a18 18 0 0 0-.6-3.2c-.3-1.1-.7-2-1.2-2.8a6.4 6.4 0 0 0-2-2c-.8-.5-1.8-.8-2.9-.8-1.2 0-2.1.3-2.9.8a6 6 0 0 0-1.9 2c-.5.8-.9 1.8-1.2 2.8a18 18 0 0 0-.6 3.2l-.2 3.2v2.6a32 32 0 0 0 0 4.4zm75.1 16.8v-27.2h-10.6v-6.4a30 30 0 0 0 4.3-.3 9.9 9.9 0 0 0 6.5-4 8.4 8.4 0 0 0 1.5-4h6.8v42h-8.5z"/></svg>